<svg xmlns="http://www.w3.org/2000/svg">
<defs>
<font id="Coniferous-Thin" horiz-adv-x="400" >
  <font-face 
    font-family="Coniferous"
    font-weight="300"
    font-stretch="normal"
    units-per-em="1000"
    panose-1="3 2 3 7 5 3 3 3 12 5"
    ascent="750"
    descent="-250"
    x-height="502"
    cap-height="663"
    bbox="-236 -288 1006 1020"
    underline-thickness="0"
    underline-position="0"
    unicode-range="U+0020-FB02"
  />
<missing-glyph horiz-adv-x="706" 
d="M17 529q7 26 35 64t62.5 74.5t69.5 65t56 34.5t63.5 8t88 -1t85.5 -11.5t56 -21.5q28 -23 50 -66.5t41 -86.5q4 -10 11.5 -16t14.5 -10q15 -7 22 -18.5t8 -26.5q1 -13 4 -35.5t6.5 -47.5t6.5 -49.5t3 -42.5q0 -24 -12.5 -33.5t-24.5 -10.5q-20 -2 -27.5 -11.5t-6.5 -22.5
q2 -19 9.5 -32t12.5 -40q3 -15 1 -30t0 -30q1 -9 11 -34t12 -36q4 -19 -3.5 -30.5t-20.5 -16.5q-6 -3 -30.5 -8t-56.5 -10t-66.5 -9t-59.5 -4q-69 0 -103.5 18.5t-63.5 81.5q-3 7 -9.5 12t-18.5 8q-18 3 -39.5 9.5t-41 14.5t-36.5 18.5t-26 22.5q-12 16 -29 65t-31 105.5
t-22 110t-1 79.5zM376 559q-37 0 -63 -12t-42.5 -30t-24.5 -39.5t-8 -40.5q0 -16 5 -36t15.5 -37.5t28 -29.5t41.5 -12q63 0 100 39.5t37 111.5q0 34 -24.5 60t-64.5 26zM629 348q22 0 33 20t11 45q0 26 -6.5 52t-15.5 46t-19.5 32.5t-18.5 12.5q-7 0 -6 -9.5t4.5 -20.5
t5.5 -20.5t-4 -9.5q-9 0 -17 12t-17.5 26.5t-22 26.5t-29.5 12q-20 0 -31 -18.5t-11 -49.5q0 -19 5 -38.5t13 -35.5t17.5 -26.5t18.5 -10.5q7 0 7 9t-2.5 19.5t-2.5 19.5t7 9q8 0 16.5 -16t18 -35.5t21 -35.5t25.5 -16zM351 463q-11 -2 -16.5 3t-8.5 11.5t-6 11.5t-9 3
q-16 -2 -16 -20.5t4 -47.5q4 -24 12 -35t21 -8q7 1 9 7.5t3 13t3.5 13t10.5 7.5q9 1 12.5 -4t6.5 -10t6.5 -9t11.5 -2q9 1 10.5 13.5t-2.5 37.5t-11 43.5t-17 14.5q-8 -3 -8.5 -9t-0.5 -13t-2 -13t-13 -8zM564 509q-11 0 -12.5 -12.5t4 -27.5t17.5 -27t27 -12
q16 0 16.5 12.5t-7.5 27.5t-21 27t-24 12z" />
    <glyph glyph-name="t_t" unicode="tt" horiz-adv-x="354" 
d="M80 29q19 0 33.5 27t26.5 71t21.5 102t18.5 120q1 51 2.5 91t2.5 71q-33 -1 -66.5 -1t-60.5 -1q-1 -61 -3 -160t-2 -249q0 -43 9 -57t18 -14zM178 95v75v68q-7 -49 -17 -94.5t-22.5 -79t-28 -54t-35.5 -20.5q-26 0 -43.5 27t-17.5 78q0 154 2 255t5 159h-10h-8
q-11 0 -21 5.5t-10 12.5q0 2 14.5 4.5t36.5 3.5q4 43 8 60.5t9 17.5q7 0 13 -9.5t6 -18.5v-22.5t-1 -25.5q30 1 63.5 1.5t64.5 1.5q4 53 8.5 74.5t9.5 21.5q7 0 13 -9.5t6 -18.5v-30t-1 -37h32.5h24.5q16 0 24 -7.5t8 -11.5q0 -2 -1.5 -4t-3.5 -3q-5 -1 -28.5 -2t-55.5 -1
q-1 -65 -3 -165t-2 -247q0 -43 9 -57t18 -14q26 0 46.5 35t36.5 91t28.5 126.5t22.5 141.5q2 17 7 9.5t4 -18.5q-8 -68 -19.5 -143.5t-29 -137.5t-42.5 -102.5t-59 -40.5q-26 0 -43.5 27t-17.5 78z" />
    <glyph glyph-name=".notdef" horiz-adv-x="706" 
d="M17 529q7 26 35 64t62.5 74.5t69.5 65t56 34.5t63.5 8t88 -1t85.5 -11.5t56 -21.5q28 -23 50 -66.5t41 -86.5q4 -10 11.5 -16t14.5 -10q15 -7 22 -18.5t8 -26.5q1 -13 4 -35.5t6.5 -47.5t6.5 -49.5t3 -42.5q0 -24 -12.5 -33.5t-24.5 -10.5q-20 -2 -27.5 -11.5t-6.5 -22.5
q2 -19 9.5 -32t12.5 -40q3 -15 1 -30t0 -30q1 -9 11 -34t12 -36q4 -19 -3.5 -30.5t-20.5 -16.5q-6 -3 -30.5 -8t-56.5 -10t-66.5 -9t-59.5 -4q-69 0 -103.5 18.5t-63.5 81.5q-3 7 -9.5 12t-18.5 8q-18 3 -39.5 9.5t-41 14.5t-36.5 18.5t-26 22.5q-12 16 -29 65t-31 105.5
t-22 110t-1 79.5zM376 559q-37 0 -63 -12t-42.5 -30t-24.5 -39.5t-8 -40.5q0 -16 5 -36t15.5 -37.5t28 -29.5t41.5 -12q63 0 100 39.5t37 111.5q0 34 -24.5 60t-64.5 26zM629 348q22 0 33 20t11 45q0 26 -6.5 52t-15.5 46t-19.5 32.5t-18.5 12.5q-7 0 -6 -9.5t4.5 -20.5
t5.5 -20.5t-4 -9.5q-9 0 -17 12t-17.5 26.5t-22 26.5t-29.5 12q-20 0 -31 -18.5t-11 -49.5q0 -19 5 -38.5t13 -35.5t17.5 -26.5t18.5 -10.5q7 0 7 9t-2.5 19.5t-2.5 19.5t7 9q8 0 16.5 -16t18 -35.5t21 -35.5t25.5 -16zM351 463q-11 -2 -16.5 3t-8.5 11.5t-6 11.5t-9 3
q-16 -2 -16 -20.5t4 -47.5q4 -24 12 -35t21 -8q7 1 9 7.5t3 13t3.5 13t10.5 7.5q9 1 12.5 -4t6.5 -10t6.5 -9t11.5 -2q9 1 10.5 13.5t-2.5 37.5t-11 43.5t-17 14.5q-8 -3 -8.5 -9t-0.5 -13t-2 -13t-13 -8zM564 509q-11 0 -12.5 -12.5t4 -27.5t17.5 -27t27 -12
q16 0 16.5 12.5t-7.5 27.5t-21 27t-24 12z" />
    <glyph glyph-name=".null" horiz-adv-x="0" 
 />
    <glyph glyph-name="nonmarkingreturn" horiz-adv-x="333" 
 />
    <glyph glyph-name="space" unicode=" " horiz-adv-x="149" 
 />
    <glyph glyph-name="exclam" unicode="!" horiz-adv-x="215" 
d="M87 629q1 16 3.5 26.5t9.5 10.5q6 0 16 -8t11 -29q1 -17 1.5 -40t0.5 -48q0 -47 -0.5 -100t-1.5 -100.5t-2 -85.5t-1 -56q-1 -25 -3.5 -38.5t-9.5 -12.5q-10 1 -14 8.5t-5 27.5q-1 22 -2.5 67t-2.5 103.5t-1 129.5t1 145zM110 -10q-21 0 -31.5 11.5t-10.5 26.5
q0 19 12.5 31.5t33.5 12.5q22 0 30.5 -12t8.5 -24q0 -22 -12 -34t-31 -12z" />
    <glyph glyph-name="quotedbl" unicode="&#x22;" horiz-adv-x="240" 
d="M70 381q-8 0 -14 7t-7 25q0 7 -1 26.5t-1.5 45.5t-1 55.5t-0.5 55.5v55q0 7 3 11t9 4t16 -7t11 -26q1 -7 1 -17.5v-22.5q0 -25 -0.5 -55t-1.5 -57.5t-2 -48.5t-1 -28q-1 -10 -2.5 -16.5t-7.5 -6.5zM179 381q-8 0 -14 7t-7 25q0 7 -1 26.5t-1.5 45.5t-1 55.5t-0.5 55.5v55
q0 7 3 11t9 4t16 -7t11 -26q1 -7 1 -17.5v-22.5q0 -25 -0.5 -55t-1.5 -57.5t-2 -48.5t-1 -28q-1 -10 -2.5 -16.5t-7.5 -6.5z" />
    <glyph glyph-name="numbersign" unicode="#" horiz-adv-x="487" 
d="M323 654q1 5 3 7t5 2q7 0 13 -6.5t6 -16.5q0 -27 -4.5 -90t-10.5 -140q33 -1 58.5 -1h35.5q7 0 11 -1t4 -5q0 -5 -7.5 -12.5t-14.5 -7.5t-34 -0.5t-56 -0.5q-2 -25 -4.5 -50.5t-4.5 -50.5q28 0 52.5 -0.5t31.5 -1.5q10 -1 15 -2.5t5 -5.5t-5.5 -11t-18.5 -8
q-4 0 -27.5 -0.5t-54.5 -0.5q-4 -47 -8.5 -91t-8 -79t-6.5 -60t-4 -34q-1 -5 -3.5 -8t-6.5 -3q-6 0 -11 4.5t-5 14.5t2 34t4.5 57.5t6 75.5t6.5 88h-36.5h-36.5h-13.5h-13.5v-1.5v-1.5q-4 -45 -7.5 -86t-6.5 -73.5t-5 -55.5t-3 -32q-1 -13 -3.5 -19t-6.5 -6q-9 0 -13.5 6.5
t-4.5 12.5q0 9 1.5 32.5t3.5 57.5t5 76.5t7 89.5q-34 1 -61.5 1.5t-33.5 0.5q-8 0 -12 2t-4 5q0 7 6.5 13.5t16.5 6.5h90q2 25 4.5 51.5t4.5 51.5q-31 0 -62 0.5t-37 0.5q-7 0 -10 1t-3 5q0 6 9 13t17 7q10 1 34 1h54q7 71 13 135t11 107q1 5 3 8t5 3q9 0 15 -4t6 -16
q0 -28 -5.5 -91t-12.5 -142h20.5h20.5h27h27q8 71 14.5 135t11.5 109zM186 276h106q2 28 5 56.5t4 53.5h-106q-1 -27 -4 -55t-5 -55z" />
    <glyph glyph-name="dollar" unicode="$" horiz-adv-x="398" 
d="M197 -129q-7 0 -16 17t-9 34q0 24 2.5 54t3.5 49q-56 3 -99 22t-43 35q0 6 4 14.5t10 8.5q4 0 16 -7t31 -15.5t45 -15.5t57 -7q51 0 77.5 24t26.5 64q0 37 -38.5 56.5t-84 40t-84 51.5t-38.5 90q0 87 34 141.5t90 61.5q-2 28 -5.5 70t-3.5 74q0 16 2.5 26.5t6.5 10.5
q7 0 16 -17t9 -34q0 -47 -3.5 -79.5t-5.5 -49.5q37 0 60.5 -19t36.5 -49t18 -67t5 -73q0 -12 -9 -23.5t-22 -11.5q-3 0 -5.5 3t-2.5 8q0 114 -23.5 157t-58.5 43q-46 0 -75 -43.5t-29 -129.5q0 -44 38.5 -70t84.5 -47.5t84.5 -46t38.5 -65.5q0 -61 -41.5 -96.5t-97.5 -35.5
q1 -24 3.5 -57.5t2.5 -58.5q0 -16 -2.5 -26.5t-6.5 -10.5z" />
    <glyph glyph-name="percent" unicode="%" horiz-adv-x="613" 
d="M454 23q20 0 36 14.5t27 38.5t16.5 56t5.5 66q0 66 -21.5 95t-55.5 29q-43 0 -67 -46t-24 -119q0 -66 22 -100t61 -34zM455 -10q-31 0 -54 13.5t-37 36.5t-21 53.5t-7 64.5q0 41 7.5 77t23 62.5t38 41.5t52.5 15q53 0 84.5 -44t31.5 -137q0 -28 -7.5 -60t-22.5 -59.5
t-37 -45.5t-51 -18zM158 298q20 0 36 14.5t27 38t16.5 54t5.5 62.5q-15 13 -19.5 37.5t3.5 55.5q-10 19 -26 28t-35 9q-43 0 -67 -46t-24 -119q0 -66 22 -100t61 -34zM125 -15q-4 0 -5.5 2.5t-1.5 6.5q0 13 28.5 68.5t71.5 132t95.5 166.5t100.5 171q-26 -33 -58 -56.5
t-69 -23.5h-5t-5 1v-5q0 -28 -7.5 -60t-22.5 -59.5t-37 -45.5t-51 -18q-31 0 -54 13.5t-37 36.5t-21 53.5t-7 64.5q0 41 7.5 77t23 62.5t38 41.5t52.5 15q49 0 80 -38t35 -118q58 0 98 36.5t93 111.5q3 4 7 9t9 5q4 0 6 -3t2 -7q0 -15 -38.5 -84.5t-92 -161t-111.5 -190
t-97 -170.5q-11 -21 -16 -27.5t-11 -6.5z" />
    <glyph glyph-name="ampersand" unicode="&#x26;" horiz-adv-x="483" 
d="M131 524q0 -40 14.5 -86.5t37.5 -98.5q60 54 82.5 102t22.5 97q0 42 -19.5 70t-53.5 28t-59 -32t-25 -80zM455 59q1 0 3 -1.5t2 -5.5q0 -16 -22 -39t-57 -23q-30 0 -55 24.5t-50 67.5q-20 -40 -51 -65.5t-68 -25.5q-54 0 -89.5 41t-35.5 98q0 65 34.5 108t89.5 83
q-28 60 -43.5 108t-15.5 90q0 63 33 107t82 44q51 0 81 -38t30 -87q0 -54 -33.5 -113t-98.5 -110q6 -13 13 -28l14 -30q18 -37 34 -70.5t31 -61.5q38 84 63 156t41 168q1 3 2.5 4.5t3.5 1.5q7 0 15.5 -6.5t8.5 -13.5q0 -24 -10.5 -63.5t-27.5 -85t-39.5 -92.5t-47.5 -87
q25 -44 47 -69.5t44 -25.5q16 0 27.5 6.5t20 13.5t14.5 13.5t10 6.5zM155 24q43 0 67 22t45 53q-17 31 -35.5 69.5t-40.5 81.5q-7 13 -13.5 26t-12.5 26q-42 -38 -69 -74t-27 -94q0 -42 26 -76t60 -34z" />
    <glyph glyph-name="quotesingle" unicode="'" horiz-adv-x="130" 
d="M70 381q-8 0 -14 7t-7 25q0 7 -1 26.5t-1.5 45.5t-1 55.5t-0.5 55.5v55q0 7 3 11t9 4t16 -7t11 -26q1 -7 1 -17.5v-22.5q0 -25 -0.5 -55t-1.5 -57.5t-2 -48.5t-1 -28q-1 -10 -2.5 -16.5t-7.5 -6.5z" />
    <glyph glyph-name="parenleft" unicode="(" horiz-adv-x="328" 
d="M305 -130q0 -2 -1.5 -3.5t-5.5 -1.5q-37 0 -79 31.5t-77.5 88t-58.5 135t-23 171.5q0 108 24.5 194t60 144.5t75 89.5t69.5 31q2 0 3.5 -1.5t1.5 -3.5q0 -10 -31 -29t-68 -65.5t-68 -132t-31 -227.5q0 -128 33 -207.5t71.5 -124t71.5 -63t33 -26.5z" />
    <glyph glyph-name="parenright" unicode=")" horiz-adv-x="328" 
d="M23 745q0 2 1.5 3.5t5.5 1.5q37 0 79 -31.5t77.5 -88t58.5 -135t23 -171.5q0 -108 -24.5 -194t-60 -144.5t-75 -89.5t-69.5 -31q-2 0 -3.5 1.5t-1.5 3.5q0 10 31 29t68 65.5t68 132t31 227.5q0 128 -33 207.5t-71.5 124t-71.5 63t-33 26.5z" />
    <glyph glyph-name="asterisk" unicode="*" horiz-adv-x="404" 
d="M182 648q0 8 2.5 13.5t7.5 5.5q6 0 16 -12.5t10 -43.5q0 -14 -1 -38t-2 -53.5t-3 -62t-3 -62.5q43 25 76.5 48t55.5 34q16 7 25 7.5t11 -3.5q3 -6 -3 -16.5t-22 -20.5q-11 -5 -28 -13.5l-36 -18t-38.5 -18.5t-34.5 -16q39 -28 72.5 -50.5t52.5 -37.5q13 -10 17.5 -18.5
t0.5 -12.5q-4 -5 -16 -4.5t-28 12.5q-28 22 -56.5 47t-48.5 44q2 -69 5.5 -133t3.5 -102q0 -17 -3.5 -26t-8.5 -9q-6 0 -13.5 10t-8.5 29q-1 11 -1.5 44.5t-0.5 58.5q0 40 2.5 73.5t3.5 59.5q-37 -23 -73.5 -44.5t-65.5 -36.5q-7 -4 -13.5 -3.5t-8.5 4.5q-2 5 4.5 19.5
t34.5 28.5q16 8 48 22t67 28q-39 27 -74.5 53t-60.5 48q-7 5 -9 10.5t1 9.5q4 4 19.5 3.5t40.5 -20.5q13 -10 37.5 -34.5t52.5 -50.5q-3 67 -4.5 133t-1.5 115z" />
    <glyph glyph-name="plus" unicode="+" horiz-adv-x="366" 
d="M169 189v54.5v65.5q-27 -1 -54 -1h-49q-13 0 -19.5 10.5t-6.5 14.5q0 1 3 4t16 4q16 1 44.5 1.5t65.5 1.5q1 37 1.5 70t1.5 51q0 16 2.5 20t5.5 4q7 0 15.5 -9.5t8.5 -19.5v-57.5v-57.5h44.5h48.5q10 0 19.5 -8.5t9.5 -15.5q0 -3 -4 -5.5t-20 -3.5q-18 -1 -43.5 -1.5
t-54.5 -1.5q0 -43 -0.5 -77t-1.5 -50q-1 -13 -4 -16t-4 -3q-4 0 -14.5 6.5t-10.5 19.5z" />
    <glyph glyph-name="comma" unicode="," horiz-adv-x="147" 
d="M21 -97q-4 0 -5.5 2t-1.5 4q0 4 6 22t13 45t13 63.5t6 77.5q0 6 3.5 9.5t7.5 3.5q10 0 20 -7.5t10 -20.5q0 -42 -8.5 -78.5t-20 -63t-24 -42t-19.5 -15.5z" />
    <glyph glyph-name="hyphen" unicode="-" horiz-adv-x="354" 
d="M233 313q16 -1 23.5 -8t7.5 -13q0 -4 -6 -6t-16 -3q-24 -1 -53 -2t-56 -1h-30t-24 1q-16 1 -22.5 8.5t-6.5 14.5q0 5 8 7.5t21 3.5q15 1 35 1h40t40.5 -1t38.5 -2z" />
    <glyph glyph-name="period" unicode="." horiz-adv-x="151" 
d="M75 -10q-21 0 -31.5 11.5t-10.5 26.5q0 19 12.5 31.5t33.5 12.5q22 0 30.5 -12t8.5 -24q0 -22 -12 -34t-31 -12z" />
    <glyph glyph-name="slash" unicode="/" horiz-adv-x="229" 
d="M196 706q1 6 4 8.5t7 2.5q5 0 12 -6t7 -13q0 -19 -21.5 -118t-52 -224.5t-63.5 -254t-57 -206.5q-2 -7 -4.5 -11.5t-6.5 -4.5q-6 0 -12 5.5t-6 11.5q0 2 0.5 6.5t2.5 12.5q16 53 41.5 156t52.5 219t53 229.5t43 186.5z" />
    <glyph glyph-name="zero" unicode="0" horiz-adv-x="413" 
d="M206 23q57 0 86.5 84t29.5 233q0 81 -10 130.5t-25.5 77t-35.5 36.5t-40 9q-49 0 -84.5 -77t-35.5 -242q0 -134 31 -192.5t84 -58.5zM206 -10q-72 0 -113 70.5t-41 209.5q0 81 10 146.5t30 112t50.5 71.5t70.5 25q32 0 59.5 -14.5t47 -48t30.5 -89.5t11 -138
q0 -162 -37 -253.5t-118 -91.5z" />
    <glyph glyph-name="one" unicode="1" horiz-adv-x="308" 
d="M55 -4q-16 0 -21.5 8.5t-5.5 16.5q0 5 2.5 8t7.5 4q12 1 42 2.5t64 2.5q0 21 -0.5 54t-0.5 73.5v87.5v95q0 25 0.5 60l1 70t1.5 66.5t2 50.5q-9 -3 -22 -7.5t-27 -9t-25.5 -7.5t-17.5 -3q-7 0 -13 5.5t-6 9.5t3 6.5t13 5.5q13 4 30.5 9t33.5 9t28.5 7t15.5 3q6 0 12 -2.5
t7 -6.5q0 -3 0.5 -26t1 -55t0.5 -68v-63q0 -50 -0.5 -104t-1 -103.5t-1 -90.5t-0.5 -65q28 1 50 1.5t31 0.5q10 0 16 -8.5t6 -15.5q0 -4 -2.5 -6.5t-6.5 -3.5q-17 -2 -51.5 -4t-69.5 -3.5t-63.5 -2.5t-33.5 -1z" />
    <glyph glyph-name="two" unicode="2" horiz-adv-x="349" 
d="M39 -3q-12 0 -17.5 9t-5.5 16q0 5 3 9.5t7 8.5q110 113 174.5 221t64.5 209q0 60 -23.5 91t-57.5 31q-39 0 -73.5 -18t-65.5 -47q-4 -4 -7 -6t-7 -2q-7 0 -11 8.5t-4 14.5q0 8 13.5 22.5t35.5 28t52 23.5t63 10q56 0 89.5 -44t33.5 -113q0 -113 -67 -220.5t-179 -212.5
q30 1 65.5 2.5t68.5 3t59 2.5t37 1q10 0 15.5 -11t5.5 -17q0 -4 -2 -6.5t-6 -3.5q-21 -2 -61 -4t-81 -3.5t-75.5 -2t-43.5 -0.5z" />
    <glyph glyph-name="three" unicode="3" horiz-adv-x="358" 
d="M285 248q0 34 -19 50.5t-56 16.5q-36 0 -62.5 -3t-30.5 -3q-6 0 -8.5 6t-2.5 12q0 4 2.5 8t4.5 8q15 23 36.5 56t45 66.5t46 65.5t37.5 54q-29 -1 -65.5 -3t-70 -3.5t-61.5 -2.5t-40 -1q-8 0 -14.5 11.5t-6.5 17.5q0 4 2 6.5t6 3.5q19 1 60.5 1.5t84 1t77.5 0.5h42
q10 0 15 -7.5t5 -14.5q0 -4 -3 -11.5t-6 -12.5q-17 -28 -38.5 -60.5t-43 -64t-42 -59.5t-36.5 -48q13 3 29 5t29 2q57 0 88 -29.5t31 -83.5q0 -59 -31.5 -105t-75 -76.5t-91.5 -46t-81 -15.5q-6 0 -10 8t-4 16q0 5 4.5 8t14.5 5q51 13 95 31t76 44t50 62t18 84z" />
    <glyph glyph-name="four" unicode="4" horiz-adv-x="371" 
d="M264 -9q-10 0 -17 11t-8 31q-1 15 -1 54v79q-33 -2 -68 -3.5t-64.5 -3t-51 -2t-26.5 -0.5q-10 0 -17.5 8.5t-7.5 15.5q0 5 1 8.5t5 10.5q14 25 44 80.5t63.5 118t65.5 121t49 89.5q6 11 11 14t9 3q6 0 15 -2.5t9 -9.5q1 -39 1.5 -92t0.5 -114v-103.5t-1 -104.5
q19 1 33 1.5t20 0.5q13 0 23 -8.5t10 -15.5q0 -4 -3.5 -5.5t-10.5 -1.5q-9 -1 -28 -2t-44 -2q-1 -48 -1.5 -84t-0.5 -49q0 -25 -2 -34t-8 -9zM238 246q0 118 2 197t3 128q-17 -35 -43 -86.5t-55.5 -105t-58.5 -105t-52 -87.5q16 1 40 2t51.5 2.5t57 3.5t55.5 3v27.5v20.5z
" />
    <glyph glyph-name="five" unicode="5" horiz-adv-x="384" 
d="M70 -10q-6 0 -10.5 7.5t-4.5 16.5q0 4 4.5 7.5t14.5 5.5q51 13 95.5 31t76.5 44.5t50.5 62.5t18.5 85q0 37 -18.5 59t-55.5 22q-26 0 -50 -6.5t-43 -13.5t-33.5 -13.5t-23.5 -6.5t-21.5 6t-12.5 13q0 24 0.5 72.5t0.5 96.5t0.5 85t0.5 40q0 5 3 8t7 3q18 1 53.5 2
t72.5 1.5t67.5 1t39.5 0.5q11 0 16.5 -10t5.5 -17q0 -4 -5 -8t-18 -4h-119.5t-92.5 1q0 -17 1 -51t1.5 -73t0.5 -77t-1 -64q23 16 56.5 32t67.5 16q66 0 99.5 -35t33.5 -86q0 -63 -29.5 -111t-72 -79.5t-91 -47.5t-85.5 -16z" />
    <glyph glyph-name="six" unicode="6" horiz-adv-x="416" 
d="M207 23q46 0 80 56t34 167q0 46 -23.5 81t-60.5 35q-22 0 -46.5 -16.5t-44.5 -42.5t-33 -59.5t-13 -67.5q0 -29 9 -56.5t23.5 -49t34 -34.5t40.5 -13zM52 270q0 95 25.5 163t63.5 110.5t82 62t80 19.5q9 0 14 -8t5 -15q0 -4 -3 -8t-10 -5q-44 -7 -84.5 -26.5t-71 -57.5
t-48.5 -98t-18 -146v-18t1 -15q8 31 20.5 61.5t29.5 54.5t39 39t49 15q25 0 49 -12t43 -33.5t30.5 -52t11.5 -67.5q0 -113 -43 -178t-109 -65q-29 0 -57.5 13.5t-50 45.5t-35 86t-13.5 135z" />
    <glyph glyph-name="seven" unicode="7" horiz-adv-x="333" 
d="M106 -8q-4 0 -13 6t-9 15q0 4 1.5 9.5t7.5 20.5q15 40 43 117l58 159.5t56.5 158t38.5 112.5q-20 -1 -53.5 -2.5t-70 -3t-72.5 -3t-60 -1.5q-9 0 -15.5 10t-6.5 14t2.5 6.5t6.5 3.5q20 1 60.5 2t83 2t78 1.5t45.5 0.5t19.5 -9t9.5 -19q0 -4 -1.5 -11t-2.5 -11
q-26 -91 -54 -177.5t-53.5 -158.5t-46 -128t-32.5 -87q-5 -13 -10 -20t-10 -7z" />
    <glyph glyph-name="eight" unicode="8" horiz-adv-x="419" 
d="M111 453q0 -54 35.5 -85.5t81.5 -58.5q32 28 57.5 62t25.5 85q0 72 -28.5 105t-68.5 33t-71.5 -36.5t-31.5 -104.5zM221 -12q-78 0 -127 40t-49 101q0 25 10.5 51.5t27 50.5t36.5 45t38 35q-34 24 -59 58t-25 85q0 76 41 124t101 48t98.5 -47.5t38.5 -118.5
q0 -57 -33 -96.5t-72 -65.5q24 -14 47 -29.5t40.5 -34.5t28.5 -43.5t11 -56.5q0 -64 -37.5 -105t-115.5 -41zM224 24q48 0 80 30t32 76q0 33 -14.5 57t-37.5 42.5t-51.5 34.5t-56.5 34q-15 -18 -32 -38t-30.5 -41.5t-22.5 -44.5t-9 -47q0 -37 32 -70t110 -33z" />
    <glyph glyph-name="nine" unicode="9" horiz-adv-x="419" 
d="M209 592q-46 0 -80 -56t-34 -167q0 -46 23.5 -81t60.5 -35q22 0 46.5 16.5t44.5 42.5t33 59.5t13 67.5q0 29 -9 56.5t-23.5 49t-34 34.5t-40.5 13zM364 345q0 -104 -34 -173t-79.5 -109.5t-92.5 -56.5t-73 -16q-7 0 -11 7.5t-4 14.5q0 6 4.5 9t14.5 6q49 14 92.5 34.5
t76 56.5t52 93t19.5 143v18t-1 15q-8 -31 -20.5 -61.5t-29.5 -54.5t-39 -39t-49 -15q-25 0 -49 12t-43 33.5t-30.5 52t-11.5 67.5q0 113 43 178t109 65q29 0 57.5 -13.5t50 -45.5t35 -86t13.5 -135z" />
    <glyph glyph-name="colon" unicode=":" horiz-adv-x="169" 
d="M84 425q-21 0 -31.5 11.5t-10.5 26.5q0 19 12.5 31.5t33.5 12.5q22 0 30.5 -12t8.5 -24q0 -22 -12 -34t-31 -12zM84 -10q-21 0 -31.5 11.5t-10.5 26.5q0 19 12.5 31.5t33.5 12.5q22 0 30.5 -12t8.5 -24q0 -22 -12 -34t-31 -12z" />
    <glyph glyph-name="semicolon" unicode=";" horiz-adv-x="169" 
d="M31 -97q-4 0 -5.5 2t-1.5 4q0 4 6 22t13 45t13 63.5t6 77.5q0 6 3.5 9.5t7.5 3.5q10 0 20 -7.5t10 -20.5q0 -42 -8.5 -78.5t-20 -63t-24 -42t-19.5 -15.5zM84 425q-21 0 -31.5 11.5t-10.5 26.5q0 19 12.5 31.5t33.5 12.5q22 0 30.5 -12t8.5 -24q0 -22 -12 -34t-31 -12z
" />
    <glyph glyph-name="less" unicode="&#x3c;" horiz-adv-x="316" 
d="M264 91q-17 -1 -67 42.5t-151 136.5q-7 7 -11.5 14t-4.5 17q0 16 4 24.5t11 15.5l61.5 61.5t61.5 59t52.5 43.5t33.5 17q4 0 7 -3.5t3 -7.5q0 -9 -26 -35t-60.5 -57t-69.5 -61.5t-52 -47.5q67 -58 110 -95.5t67 -60t33.5 -33.5t9.5 -17q0 -4 -4 -8t-8 -5z" />
    <glyph glyph-name="equal" unicode="=" horiz-adv-x="366" 
d="M66 256q-13 0 -19.5 10.5t-6.5 14.5q0 1 3 4t16 4q28 1 90.5 2.5t147.5 1.5q10 0 19.5 -8.5t9.5 -15.5q0 -3 -4 -5.5t-20 -3.5q-19 -1 -48.5 -1.5t-61.5 -1t-65.5 -1t-60.5 -0.5zM66 365q-13 0 -19.5 10.5t-6.5 14.5q0 1 3 4t16 4q28 1 90.5 2.5t147.5 1.5
q10 0 19.5 -8.5t9.5 -15.5q0 -3 -4 -5.5t-20 -3.5q-19 -1 -48.5 -1.5t-61.5 -1t-65.5 -1t-60.5 -0.5z" />
    <glyph glyph-name="greater" unicode="&#x3e;" horiz-adv-x="316" 
d="M62 91q-4 0 -7 3.5t-3 7.5q0 9 26 35t60.5 57t69.5 61.5t52 47.5q-67 58 -110 95.5t-67 60t-33.5 33.5t-9.5 17q0 4 4 8t8 5q17 1 67 -42.5t151 -136.5q7 -7 11.5 -14t4.5 -17q0 -16 -4 -24.5t-11 -15.5l-61.5 -61.5t-61.5 -59t-52.5 -43.5t-33.5 -17z" />
    <glyph glyph-name="question" unicode="?" horiz-adv-x="267" 
d="M238 522q0 -56 -18 -109.5t-41.5 -95.5t-46.5 -68t-32 -26q-4 0 -6.5 2.5t-2.5 6.5t3 7.5t7 9.5q18 23 36 55t32 69t23 78.5t9 82.5q0 52 -18 77.5t-54 25.5q-23 0 -42 -6.5t-33 -14t-23.5 -14t-15.5 -6.5q-4 0 -7.5 4t-3.5 8q0 16 35 39t79 23q32 0 55 -13t37.5 -34
t21 -47.5t6.5 -53.5zM103 -10q-21 0 -31.5 11.5t-10.5 26.5q0 19 12.5 31.5t33.5 12.5q22 0 30.5 -12t8.5 -24q0 -22 -12 -34t-31 -12z" />
    <glyph glyph-name="at" unicode="@" horiz-adv-x="607" 
d="M304 477q-33 0 -53.5 -63t-20.5 -203q0 -39 9 -66t30 -27q20 0 39.5 28.5t34.5 69t25 85t12 76.5v5v2v5q0 42 -21 65t-55 23zM336 -72q-75 0 -129 27t-89 73.5t-51.5 109t-16.5 133.5q0 206 73 304t195 98q52 0 96 -18.5t75.5 -59.5t49.5 -107.5t18 -161.5
q0 -53 -8.5 -98t-23.5 -77t-38 -50t-51 -18q-25 0 -45.5 26t-19.5 66l3 60q-16 -61 -38 -106.5t-56 -45.5q-33 0 -61 37.5t-28 97.5q0 154 26.5 222t75.5 68q31 0 53.5 -17t37.5 -43q3 26 5.5 37.5t10.5 11.5q10 0 16.5 -9t6.5 -22q0 -21 -2 -55.5t-4.5 -74.5t-4.5 -82
t-2 -78q0 -37 6.5 -49t19.5 -12q41 0 66.5 53t25.5 172q0 168 -56 238t-142 70q-51 0 -96 -18.5t-78 -62.5t-52 -118t-19 -184q0 -89 20 -149.5t52.5 -96.5t74 -51t84.5 -15q46 0 79 8t55.5 17t36 17t20.5 8q3 0 4.5 -1.5t1.5 -4.5q0 -5 -3.5 -10t-10.5 -11
q-25 -19 -70.5 -33.5t-92.5 -14.5z" />
    <glyph glyph-name="A" unicode="A" 
d="M226 626q13 -47 36.5 -143t46.5 -195t39.5 -180.5t16.5 -98.5q0 -9 -2 -14.5t-8 -5.5q-9 0 -15 6.5t-10 22.5q-5 16 -15.5 60t-23.5 104q-15 -1 -38.5 -3t-49.5 -4t-53 -3.5t-50 -2.5q-9 -46 -16.5 -84.5t-12.5 -63.5q-4 -17 -7 -24.5t-9 -7.5t-14 9t-8 22q0 15 7 54.5
t18 93.5h-4.5h-4.5q-14 1 -24 6t-10 12q0 4 3.5 7.5t10.5 4.5t16.5 1.5t19.5 1.5q12 54 26.5 116t29 120.5t28.5 110.5t24 87q6 21 10 28t9 7q13 0 20 -9.5t14 -34.5zM107 203q46 2 96.5 3.5t81.5 2.5q-11 48 -23 102t-23.5 108.5t-23 108t-21.5 99.5q-10 -48 -21.5 -102
t-22.5 -109t-22 -109.5t-21 -103.5z" />
    <glyph glyph-name="B" unicode="B" horiz-adv-x="445" 
d="M250 293q-19 0 -52.5 -3t-71.5 -10q0 -43 -0.5 -83t-1 -73.5t-1 -59.5t-1.5 -41q46 0 86.5 13.5t70.5 36.5t47.5 55.5t17.5 71.5q0 44 -19 68.5t-75 24.5zM214 642q-23 0 -46.5 -2t-42.5 -4q1 -22 1.5 -58t0.5 -80t-0.5 -93.5t-0.5 -99.5q23 5 47.5 9t45.5 6
q51 46 82.5 103t31.5 124q0 42 -28 68.5t-91 26.5zM59 630q-8 0 -12 4.5t-4 9.5t17 10.5t41.5 9.5t52 6.5t48.5 2.5q96 0 134 -33.5t38 -93.5q0 -67 -34.5 -124t-88.5 -100h3q67 0 98 -31t31 -84q0 -44 -17.5 -82.5t-50 -67t-78.5 -45t-102 -16.5q-24 0 -33 7t-10 26
q-1 20 -2 91.5t-1.5 162t-0.5 186t1 163.5q-9 -1 -16.5 -1.5t-13.5 -0.5z" />
    <glyph glyph-name="C" unicode="C" horiz-adv-x="402" 
d="M326 306q-3 -3 -7 -4.5t-9 -1.5q-4 0 -7 3t-3 9q0 13 1 43.5t1 51.5q0 123 -22 177.5t-65 54.5q-56 0 -90 -98.5t-34 -288.5q0 -70 7.5 -115t22 -70t37.5 -34t53 -9q29 0 52 7.5t40 16.5t27.5 16.5t14.5 7.5t7.5 -6t3.5 -11q0 -7 -11.5 -18.5t-31.5 -21.5t-46.5 -17.5
t-55.5 -7.5q-40 0 -70 12t-49.5 42t-29 81.5t-9.5 129.5q0 209 46 311.5t119 102.5q63 0 92 -68.5t29 -179.5q0 -39 -2 -72.5t-11 -42.5z" />
    <glyph glyph-name="D" unicode="D" horiz-adv-x="448" 
d="M210 642q-22 0 -44 -2t-41 -4q2 -43 2 -132t-0.5 -184.5t-2 -179.5t-2.5 -117q51 0 93.5 31t72.5 87t46.5 135.5t16.5 176.5q0 98 -33 143.5t-108 45.5zM135 -4q-24 0 -33 7t-10 26q-1 20 -2 91.5t-1.5 162t-0.5 186t1 163.5q-9 -1 -16.5 -1.5t-13.5 -0.5q-8 0 -12 4.5
t-4 9.5t17 10.5t42 9.5t53.5 6.5t50.5 2.5q102 0 143.5 -53.5t41.5 -170.5q0 -105 -20 -189.5t-54.5 -142.5t-81.5 -89.5t-100 -31.5z" />
    <glyph glyph-name="E" unicode="E" horiz-adv-x="387" 
d="M61 620q-10 0 -15 6t-5 11t4 7.5t13 3.5q26 3 90.5 8t176.5 5q13 0 18.5 -5.5t5.5 -9.5q0 -6 -8.5 -8.5t-24.5 -3.5q-15 -1 -38 -3t-48.5 -3.5t-52.5 -3t-51 -2.5q1 -18 2 -51t1.5 -75.5t0 -91.5t-0.5 -99q16 3 37 6t41 4.5t37.5 2.5t27.5 1q14 0 22.5 -7.5t8.5 -14.5
q0 -5 -4 -7t-12 -3q-8 0 -27.5 -1.5t-42.5 -3t-47 -3t-41 -2.5q-1 -82 -2 -153.5t-2 -106.5q41 5 87.5 9t79.5 4q19 0 29.5 -11t-5.5 -13q-7 -1 -37 -4t-65 -6t-65.5 -5t-37.5 -2q-4 0 -10.5 9t-7.5 23q-1 12 -1.5 83t-1 163.5t0 189t2.5 158.5v4v2q-10 -1 -18 -1h-14z" />
    <glyph glyph-name="F" unicode="F" horiz-adv-x="394" 
d="M61 620q-10 0 -15 6t-5 11t4 7.5t13 3.5q26 3 90.5 8t176.5 5q13 0 18.5 -5.5t5.5 -9.5q0 -6 -8.5 -8.5t-24.5 -3.5q-15 -1 -37.5 -3t-48 -3.5t-52.5 -3t-51 -2.5q2 -34 2.5 -102t0.5 -147v-44.5t-1 -44.5q19 3 43.5 5.5t48.5 5t46 3.5t35 1q14 0 22.5 -7.5t8.5 -14.5
q0 -5 -4 -7t-12 -3q-10 0 -33.5 -1.5t-51 -3t-56 -3l-47.5 -2.5q0 -46 -0.5 -88.5t-1.5 -77t-1.5 -59.5t-0.5 -35q0 -4 -3 -6t-7 -2q-7 0 -14 9t-8 23q0 6 -0.5 32t-1 65t-0.5 88.5v102.5q0 84 1 168.5t2 143.5q-10 -1 -18 -1h-15z" />
    <glyph glyph-name="G" unicode="G" 
d="M339 249q0 -44 -3 -90t-16.5 -83.5t-41.5 -61.5t-77 -24q-77 0 -112.5 67t-35.5 210q0 86 8.5 160t27.5 127.5t49.5 84.5t74.5 31q64 0 93 -54.5t29 -143.5q0 -31 -2.5 -58t-10.5 -35q-3 -3 -7 -4.5t-9 -1.5q-4 0 -7 3t-3 9q0 10 1 33.5t1 39.5q0 96 -22 138.5t-66 42.5
q-34 0 -57 -27.5t-36.5 -76t-19.5 -115t-6 -142.5q0 -77 7.5 -127t21.5 -78t35 -39t48 -11q57 0 80.5 57t22.5 170q-23 -1 -45 -2t-38 -1q-8 0 -12 2t-4 6t4.5 13t16.5 10q17 2 41 3.5t46 1.5q10 0 17 -10t7 -24z" />
    <glyph glyph-name="H" unicode="H" horiz-adv-x="460" 
d="M335 644q0 8 3.5 13.5t8.5 5.5q11 0 16.5 -8t6.5 -26q2 -36 2.5 -127t0 -189.5t-2 -183.5t-2.5 -110q-1 -11 -3 -17t-9 -6q-8 0 -12.5 7t-5.5 26q-1 10 -1.5 33t-1 55.5t-1 73t-0.5 84.5q-14 -1 -39 -3t-54 -4.5t-59 -5t-55 -3.5q0 -42 -0.5 -81t-1.5 -70.5t-1.5 -54.5
t-0.5 -34q-1 -11 -3 -17t-9 -6q-8 0 -12.5 7t-5.5 26t-2 82.5t-2 145.5h-4.5h-4.5q-22 0 -31 6.5t-9 13.5q0 4 5.5 7.5t20.5 4.5q5 0 11 0.5t12 0.5v95.5v95t0.5 88.5t0.5 75q0 8 3.5 13.5t8.5 5.5q11 0 16.5 -8t6.5 -26q1 -19 1.5 -54.5t1 -80.5t0 -97.5t-0.5 -103.5
q28 1 59 3t59.5 3.5t52 3t36.5 1.5v92v91t0.5 84.5t0.5 72.5z" />
    <glyph glyph-name="I" unicode="I" horiz-adv-x="214" 
d="M89 644q0 8 3.5 13.5t8.5 5.5q11 0 16.5 -8t6.5 -26q2 -36 2.5 -127t0 -189.5t-2 -183.5t-2.5 -110q-1 -11 -3 -17t-9 -6q-8 0 -12.5 7t-5.5 26q-1 21 -2 94.5t-1.5 166.5t-0.5 190.5t1 163.5z" />
    <glyph glyph-name="J" unicode="J" horiz-adv-x="223" 
d="M36 -95q-20 0 -32 4t-12 12q0 5 4 9t11 5q43 5 66.5 24.5t23.5 65.5q0 31 -0.5 74.5t-1 93.5t-1 103.5t-0.5 103.5q-1 61 -0.5 122t1.5 107q1 17 3.5 27t9.5 10q4 0 11.5 -4t8.5 -14q4 -31 6 -97.5t2 -144.5v-114t-0.5 -105.5t-1.5 -84.5t-2 -50q-2 -22 -5.5 -48t-13 -48
t-28 -36.5t-49.5 -14.5z" />
    <glyph glyph-name="K" unicode="K" horiz-adv-x="424" 
d="M122 19q-1 -11 -3 -17t-9 -6q-8 0 -12.5 7t-5.5 26q-1 21 -2 94.5t-1.5 166.5t-0.5 190.5t1 163.5q0 8 3.5 13.5t8.5 5.5q11 0 16.5 -8t6.5 -26q1 -19 1.5 -55.5t1 -82t0 -98.5t-0.5 -105q38 41 72.5 90t63.5 98.5t52.5 96.5t39.5 82q3 7 5.5 9.5t4.5 2.5q6 0 12 -5
t6 -12q0 -16 -20.5 -61t-52.5 -99.5t-72 -112t-79 -98.5q29 -32 60 -67.5t59.5 -68.5t53.5 -61.5t42 -47.5q4 -5 6 -8.5t2 -5.5q0 -7 -6.5 -14.5t-12.5 -7.5q-4 0 -8.5 3t-9.5 9q-21 24 -50 58t-59 70.5t-58.5 72t-50.5 62.5q0 -44 -0.5 -85t-1.5 -74.5t-1.5 -58.5t-0.5 -36
z" />
    <glyph glyph-name="L" unicode="L" horiz-adv-x="363" 
d="M89 644q0 8 3.5 13.5t8.5 5.5q11 0 16.5 -8t6.5 -26q2 -35 2.5 -123t0 -184.5t-2 -181.5t-2.5 -116q24 1 52 2t53.5 1.5t46 1t28.5 0.5q22 0 31 -4t9 -11q0 -6 -6 -8.5t-27 -4.5q-6 -1 -22.5 -2t-37 -2t-43 -2t-41.5 -1q-23 0 -36.5 0.5t-20.5 1.5t-11 8t-5 25
q-1 21 -2 94.5t-1.5 166.5t-0.5 190.5t1 163.5z" />
    <glyph glyph-name="M" unicode="M" horiz-adv-x="566" 
d="M309 5q-1 -8 -3.5 -10.5t-9.5 -2.5q-8 0 -19.5 4.5t-15.5 14.5q-9 27 -23.5 94.5t-31.5 154.5t-35 185t-34 184q-4 -96 -9.5 -194t-11 -182.5t-10 -150t-6.5 -96.5q-1 -7 -4 -10.5t-9 -3.5q-8 0 -16 7t-8 20q0 25 5 97t12 163t16.5 191t18.5 181q1 8 5 11.5t9 3.5
q10 0 20 -4.5t12 -14.5q10 -38 25.5 -109.5t33 -157.5t36 -178.5t33.5 -170.5q7 64 20 142t29 159t33.5 163t33.5 154q1 7 4.5 10.5t11.5 3.5t18 -4.5t11 -17.5q6 -40 14.5 -135t17 -197t14 -189t5.5 -111q0 -7 -2.5 -11t-8.5 -4q-8 0 -17.5 5t-10.5 18q-3 31 -8 94.5
t-10 145.5t-10.5 178t-10.5 191q-11 -78 -27 -170.5t-33 -179.5t-31.5 -160t-22.5 -111z" />
    <glyph glyph-name="N" unicode="N" horiz-adv-x="480" 
d="M89 23q-1 20 -1 61.5v95.5q0 61 1 134t2.5 139t3.5 119t4 75q1 8 3 12.5t9 4.5t15 -4.5t13 -15.5q15 -32 43 -104.5t59.5 -159.5t64 -178.5t56.5 -162.5q-3 109 -4.5 213.5t-2 188t-1 139.5t-0.5 70q0 10 2 14t8 4q8 0 16.5 -8t9.5 -24q1 -19 1.5 -55.5t0.5 -71.5
q0 -62 -1 -141t-2.5 -152t-3.5 -129.5t-3 -74.5q-1 -9 -4 -14t-8 -5q-7 0 -17 3.5t-14 14.5q-16 40 -43 113t-58 158.5t-62.5 174.5t-55.5 162q1 -66 2.5 -160t2.5 -184.5t2 -163t1 -96.5q0 -10 -3 -15.5t-8 -5.5q-6 0 -16.5 7t-11.5 22z" />
    <glyph glyph-name="O" unicode="O" horiz-adv-x="413" 
d="M206 23q57 0 86.5 94t29.5 263q0 82 -9.5 133t-24.5 78.5t-34 37t-38 9.5q-51 0 -88 -88t-37 -276q0 -134 31 -192.5t84 -58.5zM206 -10q-72 0 -113 70.5t-41 209.5q0 91 10.5 165t31 126t52 80.5t72.5 28.5q31 0 57.5 -14.5t45.5 -49t29.5 -91t10.5 -140.5
q0 -181 -37 -283t-118 -102z" />
    <glyph glyph-name="P" unicode="P" horiz-adv-x="409" 
d="M122 19q-1 -11 -3 -17t-9 -6q-8 0 -12.5 7t-5.5 26q-1 20 -2 91.5t-1.5 162.5t-0.5 186.5t1 163.5q-9 -1 -17 -2t-13 -1q-8 0 -12 4.5t-4 9.5t13 10.5t34 9.5t47 6.5t51 2.5q104 0 139 -45.5t35 -139.5q0 -137 -46 -205t-120 -69q-13 0 -35 3.5t-35 9.5q-1 -73 -2 -131
t-2 -77zM193 248q23 0 46 13t41 41t29.5 73.5t11.5 108.5q0 49 -8 80t-24 48.5t-42 23.5t-61 6q-16 0 -32 -1.5t-31 -2.5q1 -2 1 -4.5v-4.5q1 -21 1.5 -62t1 -92.5t0 -109.5t-0.5 -114q11 -1 28 -2t39 -1z" />
    <glyph glyph-name="Q" unicode="Q" horiz-adv-x="415" 
d="M206 23q57 0 86.5 94t29.5 263q0 82 -9.5 133t-24.5 78.5t-34 37t-38 9.5q-51 0 -88 -88t-37 -276q0 -134 31 -192.5t84 -58.5zM206 -10q-72 0 -113 70.5t-41 209.5q0 91 10.5 165t31 126t52 80.5t72.5 28.5q31 0 57.5 -14.5t45.5 -49t29.5 -91t10.5 -140.5
q0 -131 -19.5 -222t-59.5 -131q24 -22 52 -44t40 -36q1 -1 2 -3t1 -3q0 -7 -10.5 -12.5t-20.5 -5.5q-18 0 -40 26.5t-46 60.5q-12 -7 -25.5 -11t-28.5 -4z" />
    <glyph glyph-name="R" unicode="R" horiz-adv-x="429" 
d="M59 630q-8 0 -12 4.5t-4 9.5t13 10.5t34 9.5t47 6.5t51 2.5q93 0 133.5 -39.5t40.5 -143.5q0 -105 -42 -167t-100 -78q17 -26 36.5 -56.5t38 -60t35 -56.5l27.5 -45q4 -7 6 -11t2 -8q0 -6 -6 -10t-13 -4t-23 20.5t-36.5 54t-44.5 78.5t-48 93q-4 -1 -8.5 -1h-8.5
q-6 0 -23 2t-28 6q-1 -80 -2 -143.5t-2 -84.5q-1 -11 -3 -17t-9 -6q-8 0 -12.5 7t-5.5 26q-1 20 -2 91.5t-1.5 162.5t-0.5 186.5t1 163.5q-9 -1 -17 -2t-13 -1zM178 267q26 0 52 12.5t46 38.5t32.5 68t12.5 100q0 93 -32 124.5t-103 31.5q-16 0 -32 -1.5t-31 -2.5
q1 -2 1 -4.5v-4.5q1 -20 1.5 -58.5t1 -87t0 -103.5t-0.5 -109q9 -2 22 -3t30 -1z" />
    <glyph glyph-name="S" unicode="S" horiz-adv-x="395" 
d="M50 69q4 0 16 -7t31 -15.5t45 -15.5t57 -7q43 0 72.5 24.5t29.5 67.5q0 44 -38 70t-83.5 52.5t-83.5 65t-38 106.5q0 118 38 189t100 71q37 0 61 -24t37.5 -62.5t18.5 -86.5t5 -95q0 -12 -9 -23.5t-22 -11.5q-3 0 -5.5 3t-2.5 8q0 137 -23.5 198.5t-57.5 61.5
q-45 0 -73.5 -58t-28.5 -171q0 -56 38 -89t83.5 -59.5t83.5 -57.5t38 -83q0 -61 -42 -96.5t-101 -35.5q-31 0 -60 6t-51 14.5t-35.5 18.5t-13.5 19q0 6 4 14.5t10 8.5z" />
    <glyph glyph-name="T" unicode="T" horiz-adv-x="348" 
d="M40 620q-10 0 -15 6t-5 11t4 7.5t13 3.5q26 3 90.5 8t176.5 5q13 0 18.5 -5.5t5.5 -9.5q0 -6 -8.5 -8.5t-24.5 -3.5q-18 -1 -45 -3.5t-58 -3.5q2 -38 2.5 -129t0 -188.5t-2 -181.5t-2.5 -109q-1 -11 -3 -17t-9 -6q-8 0 -12.5 7t-5.5 26q-1 20 -2 90t-1.5 158.5
t-0.5 183.5t1 164q-35 -2 -67 -3.5t-50 -1.5z" />
    <glyph glyph-name="U" unicode="U" horiz-adv-x="458" 
d="M231 -10q-69 0 -108.5 45.5t-39.5 161.5q0 69 1 134t2 121.5t2 103t2 77.5q1 16 3 22t7 6q7 0 14 -5.5t8 -18.5q1 -7 1.5 -21t0.5 -32q0 -47 -0.5 -101t-0.5 -105t-0.5 -96t-0.5 -74q0 -107 29.5 -147t80.5 -40q43 0 73 43t30 152v72t0.5 116t1 127t1.5 105q1 16 4 21.5
t7 5.5q6 0 13 -7.5t8 -20.5q2 -32 3 -78t1.5 -99.5t0.5 -112v-114.5q0 -131 -40 -186t-104 -55z" />
    <glyph glyph-name="V" unicode="V" horiz-adv-x="394" 
d="M171 33q-15 47 -38.5 142.5t-46.5 194t-39.5 180t-16.5 100.5q0 9 2 14.5t8 5.5q8 0 15 -6.5t11 -22.5q9 -36 25 -107t35 -156t39 -177.5t38 -171.5q16 76 35 166t36.5 174.5t32.5 156.5t23 112q4 17 7 24.5t9 7.5q5 0 11.5 -9t6.5 -22q0 -28 -15.5 -106.5t-37.5 -173.5
t-46.5 -190t-42.5 -155q-4 -13 -7 -19t-8 -6q-14 0 -21 9.5t-15 34.5z" />
    <glyph glyph-name="W" unicode="W" horiz-adv-x="643" 
d="M420 33q-9 28 -21 75t-26 103t-28.5 117t-26.5 117q-12 -56 -24.5 -116.5t-25 -118t-24.5 -108.5t-22 -88q-4 -13 -7 -19t-8 -6q-14 0 -21 9.5t-15 34.5q-15 47 -38.5 142.5t-46.5 194t-39.5 180t-16.5 100.5q0 9 2 14.5t8 5.5q7 0 14 -6.5t11 -22.5q6 -22 21.5 -90.5
t35.5 -156.5t41.5 -185.5t39.5 -177.5q12 55 25.5 117.5l27 125t26 123t22.5 111.5q-11 54 -18 92t-7 50q0 9 2 14.5t8 5.5q8 0 15 -6.5t11 -22.5q9 -36 25 -107t35 -156t39 -177.5t38 -171.5q16 76 35 166t36.5 174.5t32.5 156.5t23 112q4 17 7 24.5t9 7.5q5 0 11.5 -9
t6.5 -22q0 -28 -15.5 -106.5t-37.5 -173.5t-46.5 -190t-42.5 -155q-4 -13 -7 -19t-8 -6q-14 0 -21 9.5t-15 34.5z" />
    <glyph glyph-name="X" unicode="X" horiz-adv-x="407" 
d="M316 653q2 8 5.5 10t6.5 2q8 0 14.5 -8t6.5 -18q0 -15 -13 -50.5t-32 -80t-41.5 -93t-41.5 -89.5q28 -58 55 -112t47.5 -97t33 -73t12.5 -40q0 -4 -3.5 -7t-7.5 -3t-8.5 2.5t-9.5 11.5q-6 10 -19.5 36t-32 63.5t-41 84t-46.5 96.5q-37 -85 -69.5 -156t-56.5 -116
q-7 -12 -11.5 -17t-8.5 -5q-6 0 -11.5 6.5t-5.5 13.5q0 6 3.5 15t11.5 25q16 30 48 93.5t86 170.5q-37 76 -72.5 154t-63.5 142q-4 9 -8 18.5t-4 14.5q0 6 6.5 11t10.5 5q7 0 10.5 -4.5t9.5 -17.5q9 -19 22.5 -50.5t30.5 -69.5t36.5 -80.5t40.5 -84.5q15 35 30.5 74.5
t30 78.5t27.5 76.5t22 67.5z" />
    <glyph glyph-name="Y" unicode="Y" horiz-adv-x="394" 
d="M30 656q0 6 2 10t8 4q7 0 13 -5t10 -15q6 -16 22.5 -64.5t36.5 -110t41.5 -130t39.5 -124.5q17 54 36 117t36.5 122t32.5 109.5t23 78.5q4 12 6.5 17t6.5 5q5 0 12.5 -6t7.5 -16q0 -19 -15.5 -75t-38.5 -124t-48.5 -137.5t-44.5 -116.5v-40.5t-0.5 -48.5t-1 -44t-0.5 -28
q-1 -20 -3 -30.5t-9 -10.5t-14 6.5t-8 23.5v170q-19 47 -45 120.5t-49.5 145t-40 128t-16.5 69.5z" />
    <glyph glyph-name="Z" unicode="Z" horiz-adv-x="389" 
d="M62 -5q-9 0 -18 11t-9 24q0 12 32 87t76 171t90.5 194t74.5 155q-29 -2 -66 -5t-71 -5.5t-61.5 -4.5t-37.5 -2q-8 0 -12.5 7.5t-4.5 11.5q0 5 4.5 8.5t17.5 5.5t42.5 3.5t64 3t69.5 2.5t57 1q17 0 25 -7t8 -14q0 -6 -35 -84t-81 -179t-93 -202t-71 -152q31 3 65.5 6
t67 5.5t61 4.5t46.5 2q9 0 17 -8.5t8 -17.5q0 -6 -5 -9t-15 -4q-20 -2 -49 -4t-61.5 -3t-67.5 -1.5t-68 -0.5z" />
    <glyph glyph-name="bracketleft" unicode="[" horiz-adv-x="286" 
d="M94 699q-10 0 -15 6t-5 11t4 7.5t13 3.5q15 1 52 6t100 5q13 0 18.5 -5.5t5.5 -9.5q0 -6 -8.5 -8t-24.5 -4q-17 -2 -49 -5.5t-59 -4.5q3 -60 2.5 -164t-0.5 -232v-116.5t-0.5 -114.5t-1 -98.5t-1.5 -68.5q34 3 69 6t59 3q9 0 16 -8.5t7 -15.5q0 -5 -3 -7t-8 -3
q-19 -3 -61 -5.5t-82 -2.5q-7 0 -18 6t-12 22q-1 7 -1.5 40.5t-0.5 83.5v114v132q0 58 0.5 117t1.5 113.5t2 105t1 91.5h-1z" />
    <glyph glyph-name="backslash" unicode="\" horiz-adv-x="229" 
d="M194 -102q-16 70 -41.5 182t-52.5 227.5t-52 218.5t-41 156q-4 13 -4.5 19t-0.5 9t2 5t5 2q7 0 14 -4t9 -12q24 -78 57 -207t63.5 -255.5t52 -226.5t21.5 -120q0 -7 -1.5 -10t-6.5 -3q-4 0 -12.5 3.5t-11.5 15.5z" />
    <glyph glyph-name="bracketright" unicode="]" horiz-adv-x="287" 
d="M183 740q10 0 15 -6t5 -11t-3.5 -7t-7.5 -3q0 -41 1 -90.5t2 -104t1.5 -112.5t0.5 -115v-133.5v-117.5t-0.5 -87t-1.5 -42q-1 -16 -12 -21.5t-18 -6.5q-19 -3 -40 -4t-41 -1.5t-36.5 -0.5h-25.5q-5 0 -8 1t-3 6q0 7 6.5 16t15.5 10q20 3 56.5 4t72.5 1q-1 24 -1.5 70
t-1 102t-0.5 118v119v225.5t3 160.5q-23 -1 -58.5 -3t-69.5 -2q-13 0 -18.5 5.5t-5.5 9.5q0 6 8.5 8t24.5 4q12 1 31.5 2.5t40 3t39.5 2t29 0.5z" />
    <glyph glyph-name="asciicircum" unicode="^" horiz-adv-x="320" 
d="M281 232q-5 0 -21 32t-35 74.5t-38 84.5t-31 61q-21 -49 -40.5 -94t-34.5 -79t-26.5 -54.5t-15.5 -20.5t-6.5 4.5t-2.5 8.5q0 12 9.5 37.5t25 59t34.5 72t38 75.5q4 8 9 12t11 4t11 -4t9 -12q21 -36 41 -75t36 -73.5t26 -62t10 -40.5q0 -3 -2.5 -6.5t-6.5 -3.5z" />
    <glyph glyph-name="underscore" unicode="_" horiz-adv-x="198" 
d="M198 0q9 0 13 -14t4 -24q0 -7 -3 -10t-10 -3h-202q-10 1 -13.5 13t-3.5 25q0 7 4.5 10t12.5 3h198z" />
    <glyph glyph-name="grave" unicode="`" horiz-adv-x="172" 
d="M62 718q11 -16 26.5 -40t29.5 -47t24 -41.5t10 -24.5q0 -4 -2 -6t-6 -2q-5 0 -22.5 19.5t-37 44t-37 48t-22.5 30.5q-3 4 -4 7t-1 5q0 6 10.5 10.5t20.5 4.5q3 0 5.5 -2t5.5 -6z" />
    <glyph glyph-name="a" unicode="a" horiz-adv-x="326" 
d="M108 477q-33 0 -53.5 -84.5t-20.5 -274.5q0 -39 9 -66t30 -27t41 41.5t35.5 99.5t25 120t9.5 103q0 42 -21 65t-55 23zM235 -10q-25 0 -43 24t-17 68l4 137q-7 -45 -16.5 -86.5t-20.5 -73t-25.5 -50.5t-32.5 -19q-33 0 -61 37.5t-28 97.5q0 204 26.5 293.5t75.5 89.5
q31 0 53.5 -17t37.5 -43q3 26 5.5 37.5t10.5 11.5q10 0 16.5 -9t6.5 -22q0 -27 -2 -72.5t-4.5 -98.5t-4.5 -109t-2 -103q0 -33 8.5 -43.5t17.5 -10.5q17 0 33 35t29.5 91t25.5 126.5t22 141.5q2 17 7 9.5t4 -18.5q-8 -68 -19 -143.5t-26 -137.5t-35 -102.5t-46 -40.5z" />
    <glyph glyph-name="b" unicode="b" horiz-adv-x="330" 
d="M197 355q0 71 -11.5 95.5t-32.5 24.5q-28 0 -55 -43.5t-61 -152.5q1 -143 17.5 -198t47.5 -55t52.5 41.5t31.5 110.5q-7 4 -11 9.5t-4 12.5q0 8 5.5 16t15.5 11q2 29 3.5 61.5t1.5 66.5zM103 -10q-53 0 -78.5 69.5t-25.5 243.5q0 54 1.5 111.5t4 111t6 102t7.5 84.5
q1 13 5 19.5t8 6.5q5 0 9.5 -9.5t4.5 -21.5q0 -84 -3.5 -169.5t-4.5 -209.5v-3q9 38 20 72t24 59t28.5 39.5t32.5 14.5q32 0 62 -37.5t30 -136.5q0 -35 -2 -69.5t-6 -65.5q27 6 49 26t38.5 50.5t26.5 68t14 77.5q1 4 2 7.5t2 3.5q4 0 6 -6t1 -14q-3 -39 -11 -79t-24.5 -73.5
t-42.5 -57t-64 -28.5q-13 -80 -42 -133t-78 -53z" />
    <glyph glyph-name="c" unicode="c" horiz-adv-x="281" 
d="M112 25q30 0 60.5 35t56.5 90.5t46 127.5t30 145q1 4 2 7.5t2 3.5q3 0 5 -4.5t2 -10.5q0 -12 -12.5 -80.5t-37 -145.5t-61.5 -139.5t-86 -62.5q-68 0 -96 42t-28 128q0 182 27.5 265.5t84.5 83.5q43 0 65 -43.5t22 -159.5q0 -13 -9 -22.5t-16 -9.5q-5 0 -8.5 3.5
t-3.5 11.5q0 56 -2 93t-7.5 58t-14.5 29t-24 8q-37 0 -55.5 -70t-18.5 -245q0 -77 23 -107.5t54 -30.5z" />
    <glyph glyph-name="d" unicode="d" horiz-adv-x="326" 
d="M108 477q-33 0 -53.5 -84.5t-20.5 -274.5q0 -39 9 -66t30 -27t41 41.5t35.5 99.5t25 120t9.5 103q0 42 -21 65t-55 23zM240 29q17 0 33 35t29.5 91t25.5 126.5t22 141.5q1 4 1.5 7.5t2.5 3.5q4 0 6 -6t1 -14q-8 -68 -19 -143.5t-26 -137.5t-35 -102.5t-46 -40.5
q-25 0 -43.5 24t-16.5 68l7 135q-8 -44 -17.5 -85.5t-21.5 -72.5t-26.5 -50t-32.5 -19q-33 0 -61 37.5t-28 97.5q0 204 26.5 293.5t75.5 89.5q34 0 57.5 -19.5t38.5 -49.5q-2 109 -3 169.5t0.5 89t4.5 34t9 5.5q10 0 16.5 -8t6.5 -18q0 -45 -2 -119.5t-4.5 -161.5t-4.5 -178
t-2 -169q0 -33 8.5 -43.5t17.5 -10.5z" />
    <glyph glyph-name="e" unicode="e" horiz-adv-x="271" 
d="M118 484q-31 0 -51.5 -50t-27.5 -173q38 13 62 34t37 44t18 46t5 41q0 28 -11 43t-32 15zM102 25q30 0 60.5 35t56.5 90.5t46 127.5t30 145q1 4 2 7.5t2 3.5q3 0 5 -4.5t2 -10.5q0 -12 -12.5 -80.5t-37 -145.5t-61.5 -139.5t-86 -62.5q-60 0 -87 41.5t-27 98.5
q0 195 26.5 287t86.5 92q35 0 60.5 -27t25.5 -73q0 -61 -40 -101.5t-116 -65.5q-1 -23 -1.5 -49t-0.5 -55q0 -57 19 -85.5t47 -28.5z" />
    <glyph glyph-name="f" unicode="f" horiz-adv-x="195" 
d="M79 -176q21 0 34 34.5t13 98.5q0 48 -19 80.5t-65 60.5v-19.5v-19.5q0 -44 0.5 -86t4.5 -75t11.5 -53.5t20.5 -20.5zM78 -208q-19 0 -32.5 13.5t-21.5 47.5t-11.5 93.5t-3.5 150.5q0 110 0.5 198t2 160.5t3 135t2.5 121.5q1 16 4 21.5t9 5.5q10 0 16 -8.5t6 -30.5
q0 -39 -1.5 -99t-3 -133t-3 -156.5t-2.5 -169.5q39 6 69.5 31.5t52.5 63t35.5 86t19.5 100.5q2 17 7 9.5t4 -18.5q-5 -56 -17.5 -107t-35 -90t-55 -63t-78.5 -28q65 -37 92 -76.5t27 -96.5q0 -69 -25.5 -115t-59.5 -46z" />
    <glyph glyph-name="g" unicode="g" horiz-adv-x="309" 
d="M77 80q18 0 36 30.5t32.5 74t24.5 93t13 87.5l1 26q-1 41 -21.5 63.5t-54.5 22.5q-33 0 -53.5 -70t-20.5 -224q0 -45 9.5 -74t33.5 -29zM106 -167q-35 0 -62 16.5t-27 49.5q0 20 13 37.5t35 35.5t51 38t60 45q0 29 0.5 63t0.5 79l1 30q-8 -36 -17.5 -69t-21.5 -58
t-27 -40t-33 -15q-31 0 -57.5 38.5t-26.5 101.5q0 172 26.5 247.5t75.5 75.5q31 0 53 -16t35 -40q0 30 2.5 38t6.5 8q8 0 11.5 -6.5t4.5 -16.5q3 -51 2.5 -145.5t-1.5 -236.5q44 66 75 139.5t47 190.5q1 4 2 7.5t2 3.5q3 0 5 -4.5t2 -10.5q0 -25 -9 -69.5t-26 -95
t-41.5 -102t-56.5 -88.5v-18v-18q0 -87 -20.5 -141t-84.5 -54zM109 -136q34 0 50 39t16 95v16.5v16.5q-57 -44 -91 -74t-34 -55q0 -15 13 -26.5t46 -11.5z" />
    <glyph glyph-name="h" unicode="h" horiz-adv-x="330" 
d="M12 721q1 8 3.5 12t6.5 5q4 0 9.5 -5t5.5 -18q0 -102 -0.5 -195t-1.5 -171t-2 -140t-2 -102q10 75 24 147.5t33 128.5t44.5 90.5t59.5 34.5q27 0 37.5 -22t10.5 -58q0 -31 -3.5 -71.5t-7.5 -84t-7.5 -88.5t-3.5 -84q0 -43 8.5 -57t17.5 -14q17 0 33 35t29.5 91
t25.5 126.5t22 141.5q1 4 2 7.5t2 3.5q3 0 5 -4.5t2 -10.5q0 -12 -8 -80.5t-23.5 -146t-39.5 -140t-55 -62.5q-26 0 -43.5 27t-17.5 78q0 90 11.5 180.5t11.5 162.5q0 17 -4 26t-14 9q-24 0 -47.5 -48t-42.5 -118t-32.5 -151t-18.5 -146q-1 -6 -6 -9.5t-11 -3.5
q-10 0 -17.5 9t-8.5 30q-1 31 -1 130.5t1.5 211.5t4.5 211.5t8 131.5z" />
    <glyph glyph-name="i" unicode="i" horiz-adv-x="145" 
d="M38 583q-13 0 -20.5 11.5t-7.5 25.5q0 19 9 31t22 12q15 0 21 -12t6 -23q0 -21 -8.5 -33t-21.5 -12zM68 29q16 0 30 35t26.5 91t23.5 126.5t21 141.5q1 5 2 8t2 3q4 0 6 -6t1 -14q-8 -68 -18 -143.5t-24 -137.5t-32.5 -102.5t-42.5 -40.5q-26 0 -43.5 27t-17.5 78
q0 19 1.5 75.5t3.5 119.5t5.5 119.5t6.5 76.5q1 8 3.5 12t6.5 5q4 0 9.5 -5t5.5 -18q0 -90 -0.5 -154t-0.5 -108t-0.5 -72t-0.5 -46q0 -43 8.5 -57t17.5 -14z" />
    <glyph glyph-name="j" unicode="j" horiz-adv-x="129" 
d="M35 583q-13 0 -20.5 11.5t-7.5 25.5q0 19 9 31t22 12q15 0 21 -12t6 -23q0 -21 -8.5 -33t-21.5 -12zM12 -167q-10 0 -19.5 8.5t-9.5 21.5q0 24 8.5 51.5t20.5 61.5q1 84 1 211.5v287.5q0 17 2.5 22.5t6.5 5.5q9 0 13.5 -11.5t5.5 -26.5q1 -21 2 -50t1 -60.5t-0.5 -64
t-0.5 -60.5q0 -59 -0.5 -107.5t-1.5 -88.5q39 90 67.5 183.5t44.5 205.5q1 4 2 7.5t2 3.5q3 0 5 -4.5t2 -10.5q0 -24 -8.5 -72.5t-24 -107t-39 -123t-53.5 -120.5q-4 -88 -10.5 -125.5t-16.5 -37.5z" />
    <glyph glyph-name="k" unicode="k" horiz-adv-x="290" 
d="M4 644q0 8 3.5 13.5t8.5 5.5q11 0 16.5 -8t6.5 -26q1 -21 2 -63.5t1 -95.5t-0.5 -113t-0.5 -116q59 57 91.5 118.5t53.5 133.5q2 7 5 10.5t8 3.5q6 0 15.5 -6.5t9.5 -19.5q0 -21 -13.5 -52t-35.5 -65t-51 -67.5t-59 -59.5q48 -96 77.5 -152t61.5 -56q17 0 33 35t29.5 91
t25.5 126.5t22 141.5q1 4 2 7.5t2 3.5q3 0 5 -4.5t2 -10.5q0 -12 -8 -80.5t-23.5 -146t-39.5 -140t-55 -62.5q-21 0 -40 17.5t-37.5 48.5t-38.5 74.5t-42 94.5q-1 -72 -2 -129.5t-2 -76.5q-1 -11 -3 -17t-9 -6q-8 0 -12.5 7t-5.5 26q-1 21 -2 94.5t-1.5 166.5t-0.5 190.5
t1 163.5z" />
    <glyph glyph-name="l" unicode="l" horiz-adv-x="202" 
d="M38 329v-20v-20q41 89 63 176.5t22 150.5q0 57 -8.5 75.5t-19.5 18.5q-13 0 -23.5 -29.5t-18 -80t-11.5 -120.5t-4 -151zM108 29q19 0 36 35t32.5 91t28 126.5t22.5 141.5q2 17 7 9.5t4 -18.5q-8 -68 -19.5 -143.5t-28 -137.5t-38 -102.5t-49.5 -40.5q-55 0 -80 90.5
t-24 296.5q0 81 6.5 148t19 114t30.5 73t40 26q30 0 44 -28.5t14 -81.5q0 -100 -32.5 -192t-81.5 -175q2 -119 18 -175.5t51 -56.5z" />
    <glyph glyph-name="m" unicode="m" horiz-adv-x="511" 
d="M421 -10q-26 0 -43.5 27t-17.5 78q0 90 11.5 180.5t11.5 162.5q0 17 -4 26t-14 9q-24 0 -49 -48t-45 -117t-33 -148t-13 -141q0 -10 -2.5 -15.5t-8.5 -5.5q-10 0 -19.5 8t-9.5 25q0 51 1 104.5t2.5 106t2.5 102.5t1 94q0 17 -4 26t-14 9q-22 0 -43.5 -48t-39 -118
t-30.5 -151t-18 -146q-1 -5 -6 -9t-11 -4q-10 0 -17.5 9t-8.5 30q-1 19 0 81.5t2.5 133t4.5 133.5t6 83q1 8 3.5 12t6.5 5q4 0 9.5 -5t5.5 -18q0 -108 -2 -198t-3 -146q10 74 23 145t30.5 125.5t41.5 87.5t55 33q27 0 37.5 -22t10.5 -58q0 -48 -1.5 -114.5t-2.5 -135.5
q10 66 23 126t30.5 105t40.5 72t53 27q27 0 37.5 -22t10.5 -58q0 -31 -3.5 -71.5t-7.5 -84t-7.5 -88.5t-3.5 -84q0 -43 8.5 -57t17.5 -14q17 0 33 35t29.5 91t25.5 126.5t22 141.5q1 4 2 7.5t2 3.5q3 0 5 -4.5t2 -10.5q0 -12 -8 -80.5t-23.5 -146t-39.5 -140t-55 -62.5z" />
    <glyph glyph-name="n" unicode="n" horiz-adv-x="330" 
d="M244 29q17 0 33 35t29.5 91t25.5 126.5t22 141.5q1 4 2 7.5t2 3.5q3 0 5 -4.5t2 -10.5q0 -12 -8 -80.5t-23.5 -146t-39.5 -140t-55 -62.5q-26 0 -43.5 27t-17.5 78q0 90 11.5 180.5t11.5 162.5q0 17 -4 26t-14 9q-24 0 -47.5 -48t-42.5 -118t-32.5 -151t-18.5 -146
q-1 -6 -6 -9.5t-11 -3.5q-10 0 -17.5 9t-8.5 30q0 19 0.5 81.5t2 133t4.5 133.5t6 83q1 8 3.5 12t6.5 5q4 0 9.5 -5t5.5 -18q0 -110 -2 -200.5t-3 -146.5q10 75 24 146t33 126t44.5 88.5t58.5 33.5q27 0 37.5 -22t10.5 -58q0 -31 -3.5 -71.5t-7.5 -84t-7.5 -88.5t-3.5 -84
q0 -43 8.5 -57t17.5 -14z" />
    <glyph glyph-name="o" unicode="o" horiz-adv-x="289" 
d="M102 20q31 0 48.5 42t24.5 117q-6 4 -8.5 9t-2.5 11q0 7 3 14t10 11q1 17 1.5 36t0.5 39q0 108 -17.5 146t-48.5 38q-24 0 -39.5 -22t-24.5 -60.5t-12.5 -92.5t-3.5 -117q0 -75 17 -123t52 -48zM106 -9q-63 0 -86.5 59t-23.5 160q0 61 5.5 115.5t19 95.5t36 65t56.5 24
q51 0 76 -52.5t25 -183.5q0 -19 -0.5 -37.5t-1.5 -35.5q23 6 40 27t29.5 51t20 67.5t11.5 76.5q1 4 1.5 6.5t1.5 2.5q4 0 6.5 -4.5t1.5 -12.5q-3 -33 -10 -73.5t-20.5 -76t-34 -61.5t-49.5 -30q-8 -88 -34 -135.5t-70 -47.5z" />
    <glyph glyph-name="p" unicode="p" horiz-adv-x="310" 
d="M117 21q33 0 53.5 84.5t20.5 274.5q0 42 -12 67.5t-32 25.5t-39 -41.5t-34 -99t-24 -119t-9 -100.5v-5q1 -42 21.5 -64.5t54.5 -22.5zM46 -114q0 -28 -4 -37.5t-11 -9.5q-11 0 -18 12t-8 38q0 7 -0.5 27t-0.5 49v66v77q0 43 0.5 89t1 90.5t1.5 87.5t2 78q1 28 4.5 36.5
t7.5 8.5q5 0 13 -12t8 -36v-81t-1 -116q8 48 18 94t22.5 81.5t29 57.5t37.5 22q31 0 56.5 -37.5t25.5 -97.5q0 -125 -10.5 -206.5t-29.5 -124.5q25 24 47.5 65t41 91.5t33 108.5t22.5 116q2 17 7 9.5t4 -18.5q-8 -69 -24.5 -144.5t-43 -137.5t-63 -102t-83.5 -40h-1.5h-1.5
h-1q-28 0 -49 14.5t-36 36.5q2 -48 3 -83t1 -72z" />
    <glyph glyph-name="q" unicode="q" horiz-adv-x="309" 
d="M204 -200q-8 0 -16.5 7.5t-8.5 26.5v74t0.5 98.5t1.5 113.5l2 120q-8 -47 -17 -92.5t-21 -80t-27 -56t-34 -21.5q-33 0 -61 37.5t-28 97.5q0 204 26.5 293.5t75.5 89.5q31 0 53 -17.5t36 -44.5q1 9 1 17.5v16.5q0 11 2.5 16.5t6.5 5.5t10 -6.5t7 -17.5q1 -28 1 -74v-105
t-1 -131t-2 -152v-2v-2q43 96 74.5 194t47.5 217q1 4 2 7.5t2 3.5q3 0 5 -4.5t2 -10.5q0 -25 -9 -75t-25.5 -111t-41.5 -127t-56 -122q1 -26 2 -60.5t1 -92.5q0 -19 -2.5 -25t-8.5 -6zM108 477q-33 0 -53.5 -84.5t-20.5 -274.5q0 -39 9 -66t30 -27t41 41.5t35.5 99.5t25 120
t9.5 103q0 42 -21 65t-55 23z" />
    <glyph glyph-name="r" unicode="r" horiz-adv-x="242" 
d="M156 29q17 0 33 35t29.5 91t25.5 126.5t22 141.5q2 17 7 9.5t4 -18.5q-8 -68 -19 -143.5t-26 -137.5t-35 -102.5t-46 -40.5q-29 0 -45.5 23.5t-16.5 49.5q0 33 3.5 83t7.5 106t7.5 113.5t3.5 106.5q-15 0 -35 -0.5t-36 -0.5q-2 -23 -5.5 -52.5t-5.5 -49.5
q-1 -8 -2.5 -10.5t-3.5 -2.5q-3 0 -5.5 2t-1.5 7q2 18 5.5 46.5t6.5 59.5h-7h-5q-24 0 -31 10t-7 17q0 4 4 7t11 3t22 -1t33.5 -2.5t39.5 -4t39 -5.5q11 -2 16.5 -7t5.5 -20q0 -37 -3 -91t-7 -110.5t-7 -109t-3 -86.5q0 -18 7.5 -30t19.5 -12z" />
    <glyph glyph-name="s" unicode="s" horiz-adv-x="226" 
d="M164 148q0 -19 -1.5 -35.5t-4.5 -30.5q44 89 64 178t29 165q1 13 6.5 8t4.5 -17q-3 -44 -14 -116.5t-33.5 -141t-57 -118.5t-83.5 -50h-3q-39 0 -66 30.5t-36 76.5q-1 7 1.5 12t6.5 -1q25 -43 46 -63t46 -20q23 0 41 27t18 85q0 64 -10 119t-23.5 98.5t-28 75.5t-23.5 50
q-1 -25 -6 -57.5t-7 -53.5q-1 -8 -2.5 -10.5t-3.5 -2.5q-3 0 -5.5 2t-1.5 7q3 23 8 61t9 76q0 4 3.5 6.5t6.5 2.5q4 0 10 -7.5t13 -18.5q37 -63 67 -149.5t30 -187.5z" />
    <glyph glyph-name="t" unicode="t" horiz-adv-x="190" 
d="M14 95q0 153 2 254t5 160h-10.5h-7.5q-11 0 -21 5.5t-10 12.5q0 4 15 7t36 4q4 43 8 60.5t9 17.5q7 0 13 -9.5t6 -18.5v-22.5t-1 -25.5q16 1 29 1h20q16 0 24 -7.5t8 -11.5q0 -2 -1.5 -4t-3.5 -3q-4 -1 -27.5 -2t-48.5 -2q-1 -62 -3 -161.5t-2 -249.5q0 -43 9 -57t18 -14
q26 0 46.5 35t36.5 91t28.5 126.5t22.5 141.5q2 17 7 9.5t4 -18.5q-8 -68 -19.5 -143.5t-29 -137.5t-42.5 -102.5t-59 -40.5q-26 0 -43.5 27t-17.5 78z" />
    <glyph glyph-name="u" unicode="u" horiz-adv-x="342" 
d="M250 -10q-25 0 -43 24t-17 68l6 178q-7 -50 -16 -98.5t-20 -86.5t-26 -61.5t-35 -23.5q-33 0 -61 37.5t-28 97.5q0 47 1 95t3 94t5 87.5t7 74.5q1 14 4 20t8 6t12.5 -8t7.5 -25t-1.5 -58t-3 -91t-3 -104t-1.5 -98q0 -39 9 -66t30 -27t40 44t34 107t25 133.5t14 122.5
q2 35 4.5 50t12.5 15t15.5 -9t5.5 -22q0 -27 -1.5 -72.5t-3.5 -98.5t-3.5 -109t-1.5 -103q0 -33 8.5 -43.5t17.5 -10.5q17 0 33 35t30 91t26 126.5t22 141.5q2 17 7 9.5t4 -18.5q-8 -68 -19 -143.5t-26 -137.5t-35.5 -102.5t-46.5 -40.5z" />
    <glyph glyph-name="v" unicode="v" horiz-adv-x="298" 
d="M97 -10q-27 0 -45 36.5t-28.5 97.5t-14.5 143t-4 172q0 28 6 46.5t13 18.5q4 0 7 -4t5.5 -18.5t5 -45t4.5 -82.5q7 -178 19 -254.5t38 -76.5q15 0 29 22t25 55.5t18.5 75.5t9.5 81q-9 17 -13 48t-4 55q0 69 5.5 108t17.5 39t19 -40.5t7 -112.5q0 -20 -0.5 -39.5
t-1.5 -38.5q49 10 77 52t32 95q1 4 1.5 6.5t1.5 2.5q4 0 6.5 -5t1.5 -12q-1 -22 -8.5 -49.5t-22 -52.5t-37.5 -43.5t-55 -20.5q-5 -56 -15.5 -104t-25 -82t-33.5 -53.5t-41 -19.5z" />
    <glyph glyph-name="w" unicode="w" horiz-adv-x="439" 
d="M264 -10q-34 0 -54 53t-29 140q-11 -84 -30.5 -138.5t-51.5 -54.5q-27 0 -45 30t-28.5 81.5t-14.5 121t-4 147.5v64v36.5t0.5 17t1.5 6.5q1 5 3 7.5t6 2.5q10 0 17 -11.5t7 -36.5q0 -18 -1 -44t-1 -42q0 -169 20 -258t45 -89q13 0 24.5 19.5t20 51.5t14.5 75t10 90
q-3 49 -4 104t-1 113q0 14 3 21t10 7q9 0 18 -8.5t9 -23.5q0 -30 -0.5 -72t-5.5 -108q13 -151 25 -210t37 -59q13 0 25 22t22.5 55.5t17.5 75.5t9 81q-9 17 -13 48t-4 55q0 69 5.5 108t17.5 39t19 -40.5t7 -112.5q0 -19 -0.5 -37.5t-1.5 -36.5q43 14 67.5 54t28.5 89
q1 4 1.5 6.5t1.5 2.5q4 0 6.5 -5t1.5 -12q-1 -21 -7.5 -47t-20 -50t-33.5 -42.5t-48 -24.5q-5 -57 -15 -105t-23.5 -82.5t-30 -54t-34.5 -19.5z" />
    <glyph glyph-name="x" unicode="x" horiz-adv-x="318" 
d="M215 -9q-33 0 -54 48.5t-53 140.5q-34 -84 -53.5 -135.5t-32.5 -51.5q-7 0 -14.5 7t-7.5 12q0 13 29 57.5t71 131.5l-6 18t-7 18q-39 104 -56.5 169t-17.5 78q0 4 2.5 7.5t6.5 5.5q4 1 7 2t7 1q2 0 4.5 -2t4.5 -9q5 -17 13 -45t18 -61.5t21.5 -72t23.5 -76.5
q34 72 54 133.5t35 129.5q1 2 3.5 3.5t4.5 1.5q9 0 16.5 -5t7.5 -15q0 -17 -10.5 -49.5t-27 -71t-37 -77.5t-40.5 -69q12 -38 25 -72.5t24.5 -60.5t22.5 -41.5t20 -15.5q19 0 37 35t33.5 91t29 127.5t23.5 144.5q1 4 2 7.5t2 3.5q3 0 5 -4.5t2 -10.5q0 -12 -8.5 -80.5
t-25.5 -145.5t-43 -139.5t-61 -62.5z" />
    <glyph glyph-name="y" unicode="y" horiz-adv-x="327" 
d="M114 -167q-35 0 -62 16.5t-27 49.5q0 21 14 39t37 36.5t53 39t61 46.5v41v57t0.5 65.5t0.5 67.5q-7 -44 -16 -88t-21 -78.5t-27.5 -56t-36.5 -21.5q-33 0 -61 37.5t-28 97.5q0 78 4.5 158t11.5 136q1 14 4 20t8 6t12.5 -8t7.5 -25q0 -15 -1.5 -49t-3 -76t-3 -87t-1.5 -82
q0 -39 9 -66t30 -27t40.5 38t34 92t25 114.5t13.5 105.5q2 35 4.5 50t12.5 15t15.5 -9t5.5 -22q0 -27 -1 -72.5t-1.5 -98t-1.5 -107.5t-1 -101q46 67 78 142t48 194q1 4 2 7.5t2 3.5q3 0 5 -4.5t2 -10.5q0 -25 -9 -71t-26.5 -97.5t-43.5 -103t-58 -88.5q-1 -101 -24 -163.5
t-87 -62.5zM117 -136q37 0 54.5 49.5t18.5 122.5q-60 -46 -96 -77.5t-36 -56.5q0 -15 13 -26.5t46 -11.5z" />
    <glyph glyph-name="z" unicode="z" horiz-adv-x="298" 
d="M121 -5q-20 0 -43 0.5t-39 1.5h-6t-5 1q-10 1 -15 5t-5 10q0 13 3 22.5t7 15.5q21 34 48 94.5t53.5 124.5t48.5 121.5t32 84.5q-40 -4 -83.5 -8.5t-77.5 -6.5q-1 -22 -4 -48.5t-5 -45.5q-1 -8 -3 -9.5t-4 -1.5q-3 0 -5.5 2t-1.5 7q2 18 5 42.5t6 52.5h-10.5h-9.5
q-12 0 -19.5 7t-7.5 12t7 7.5t18 3.5q49 3 108.5 7.5t104.5 4.5q6 0 11 -5.5t5 -15.5q0 -4 -19.5 -56.5t-48.5 -123.5t-64 -146.5t-66 -124.5q16 -2 44 -3t38 -1q28 0 51 6.5t41 25.5q24 25 41.5 66t31 90t23 103t16.5 106q1 4 2 7.5t2 3.5q3 0 5 -4.5t2 -10.5
q0 -29 -7.5 -82t-20.5 -109.5t-32 -107.5t-42 -76q-22 -25 -47.5 -37t-62.5 -12z" />
    <glyph glyph-name="braceleft" unicode="{" horiz-adv-x="315" 
d="M149 230q0 16 -12.5 32.5t-44.5 16.5q-16 0 -30.5 -2t-25.5 -2q-10 0 -20 7.5t-10 16.5q0 4 4.5 6t18.5 2q37 0 61.5 9.5t39 23.5t20.5 31.5t6 33.5q0 24 -10.5 47.5t-23 50t-23 57.5t-10.5 69q0 52 38 80.5t118 28.5q17 0 27 -7.5t10 -13.5q0 -4 -3 -6t-10 -2
q-8 0 -25.5 1.5t-30.5 1.5q-43 0 -66 -22.5t-23 -59.5q0 -28 9 -57t20.5 -57.5t20.5 -55t9 -49.5q0 -31 -22 -67.5t-78 -47.5q48 -4 71 -22t23 -44q0 -28 -8 -56.5t-17.5 -57.5t-17.5 -59.5t-8 -64.5q0 -40 19.5 -61t56.5 -21q24 0 46.5 3t29.5 3q6 0 11.5 -6.5t5.5 -11.5
q0 -4 -21 -11t-63 -7q-56 0 -89.5 36.5t-33.5 82.5q0 31 9.5 63.5t21 62.5t21 57t9.5 48z" />
    <glyph glyph-name="bar" unicode="|" horiz-adv-x="207" 
d="M91 726q0 5 1.5 8.5t5.5 3.5q7 0 13.5 -8t7.5 -29q1 -29 1 -91.5v-139.5q0 -82 -0.5 -171t-1 -166t-1 -134.5t-0.5 -76.5q0 -6 -1.5 -9t-5.5 -3q-6 0 -12 7t-7 29q0 15 -0.5 56.5t-1 100.5t-1 130t-0.5 144q0 97 1 189.5t2 159.5z" />
    <glyph glyph-name="braceright" unicode="}" horiz-adv-x="451" 
d="M152 358q0 -16 12.5 -32.5t44.5 -16.5q16 0 30.5 2t25.5 2q10 0 20 -7.5t10 -16.5q0 -4 -4.5 -6t-18.5 -2q-37 0 -61.5 -9.5t-39 -23.5t-20.5 -31.5t-6 -33.5q0 -20 10.5 -41t23 -44t23 -50t10.5 -59q0 -52 -38 -80.5t-118 -28.5q-17 0 -27 7.5t-10 13.5q0 4 3 6t10 2
q8 0 25.5 -1.5t30.5 -1.5q43 0 66 22.5t23 59.5q0 24 -9 49.5t-20.5 49.5t-20.5 47.5t-9 42.5q0 31 22 67.5t78 47.5q-48 4 -71 22t-23 44q0 32 8 63.5t17.5 64.5t17.5 67.5t8 72.5q0 40 -19.5 61t-56.5 21q-24 0 -46.5 -3t-29.5 -3q-6 0 -11.5 6.5t-5.5 11.5q0 4 21 11
t63 7q56 0 89.5 -36.5t33.5 -82.5q0 -35 -9.5 -71.5t-21 -70t-21 -64.5t-9.5 -55z" />
    <glyph glyph-name="asciitilde" unicode="~" horiz-adv-x="322" 
d="M100 498q32 0 48 -34.5t25.5 -75t19 -75t29.5 -34.5t27 34t9 74t4 74t11 34q7 0 13 -10.5t6 -26.5q0 -97 -19 -149t-50 -52q-32 0 -48 34.5t-25.5 75t-19 75t-30.5 34.5q-20 0 -28 -34t-11 -74t-5 -74t-11 -34q-6 0 -10.5 12t-4.5 25q0 96 19 148.5t51 52.5z" />
    <glyph glyph-name="exclamdown" unicode="&#xa1;" horiz-adv-x="215" 
d="M132 -117q-1 -16 -3.5 -26.5t-9.5 -10.5q-6 0 -16 8t-11 29q-1 17 -1.5 40t-0.5 48q0 47 0.5 100t1.5 100.5t2 85.5t1 56q1 25 3.5 38.5t9.5 12.5q10 -1 14 -8.5t5 -27.5q1 -22 2.5 -67t2.5 -103.5t1 -129.5t-1 -145zM109 522q21 0 31.5 -11.5t10.5 -26.5
q0 -19 -12.5 -31.5t-33.5 -12.5q-22 0 -30.5 12t-8.5 24q0 22 12 34t31 12z" />
    <glyph glyph-name="cent" unicode="&#xa2;" horiz-adv-x="306" 
d="M178 -92q0 -16 -2.5 -26.5t-6.5 -10.5q-7 0 -16 17t-9 34q0 36 2.5 80.5t4.5 68.5q-53 4 -76 46t-23 124q0 174 25.5 257.5t76.5 90.5q-2 28 -5.5 70t-3.5 74q0 16 2.5 26.5t6.5 10.5q7 0 16 -17t9 -34q0 -47 -3.5 -80t-5.5 -49q40 -2 60.5 -46t20.5 -157q0 -13 -9 -22.5
t-16 -9.5q-5 0 -8.5 3.5t-3.5 11.5q0 56 -2 93t-7.5 58t-14.5 29t-24 8q-37 0 -55.5 -70t-18.5 -245q0 -76 19.5 -107t45.5 -31q19 0 33.5 14.5t24 36.5t15 48t8.5 48q0 2 1.5 3.5t3.5 1.5q4 0 6.5 -5t2.5 -14q0 -25 -5.5 -52.5t-15.5 -51t-25 -41t-34 -21.5q1 -31 3.5 -79
t2.5 -85z" />
    <glyph glyph-name="sterling" unicode="&#xa3;" horiz-adv-x="441" 
d="M299 -10q-43 0 -90 13.5t-77 28.5q-13 -17 -31.5 -26.5t-40.5 -9.5q-15 0 -23.5 8.5t-8.5 19.5q0 13 11.5 21t36.5 8q10 0 20.5 -1t22.5 -2q6 19 10.5 51t4.5 72q0 17 -1 36l-2 38q-13 -2 -33.5 -5t-36.5 -3q-10 0 -18 7.5t-8 14.5q0 5 6.5 7.5t16.5 2.5q16 0 36 -1
t35 -2q-2 31 -4 62.5t-2 59.5q0 48 6 91t20 75t37 51t58 19q57 0 85 -58t28 -165q0 -16 -11 -27.5t-23 -11.5q-3 0 -6 6t-3 17q0 62 -3 102.5t-10.5 63.5t-20.5 32t-33 9q-44 0 -63.5 -51t-19.5 -155q0 -25 1 -55.5t2 -65.5q25 2 56.5 6t56.5 4q19 0 28.5 -9t9.5 -16
q0 -6 -7.5 -9t-23.5 -3q-25 0 -61 3t-59 4q1 -17 1 -36v-39q0 -40 -6.5 -71.5t-19.5 -53.5q33 -4 69 -9t68 -5t49.5 20.5t27.5 45.5t16 45.5t15 20.5q2 0 4 -2t2 -6q0 -26 -6 -55.5t-17.5 -54t-29 -41t-41.5 -16.5z" />
    <glyph glyph-name="yen" unicode="&#xa5;" horiz-adv-x="394" 
d="M215 34q-1 -20 -3 -30.5t-9 -10.5t-14 6.5t-8 23.5v152q-18 -1 -55 -2.5t-65 -1.5q-8 0 -14.5 7.5t-6.5 13.5q0 4 5 6.5t13 2.5q28 0 64 -1t59 -2v47q-18 -1 -55 -2.5t-65 -1.5q-8 0 -14.5 7.5t-6.5 13.5q0 4 5 6.5t13 2.5q27 0 62.5 -1t58.5 -2q-18 37 -43.5 91.5
t-49 106.5t-40 93t-16.5 50q0 5 2 8.5t8 3.5q9 0 17 -4t12 -13q6 -13 21.5 -48t35.5 -80.5t41 -95.5t36 -92q15 40 33.5 86.5t36 90t32 80.5t21.5 58q4 10 7 14t9 4t14 -5.5t8 -12.5q0 -14 -16 -54.5t-39 -90.5t-47.5 -102t-42.5 -89q18 1 54 2.5t64 1.5q8 0 14.5 -7.5
t6.5 -13.5q0 -4 -5 -6.5t-13 -2.5q-27 0 -63 1t-59 2v-22v-25q18 1 54.5 2.5t64.5 1.5q8 0 14.5 -7.5t6.5 -13.5q0 -4 -5 -6.5t-13 -2.5q-27 0 -63 1t-60 2v-45t-0.5 -42t-1 -33.5t-0.5 -19.5z" />
    <glyph glyph-name="brokenbar" unicode="&#xa6;" horiz-adv-x="207" 
d="M91 726q0 5 1.5 8.5t5.5 3.5q7 0 13.5 -8t7.5 -29q0 -10 0.5 -32t0.5 -49q0 -37 -0.5 -78t-1 -76t-1 -61.5t-0.5 -35.5q0 -6 -1.5 -9t-5.5 -3q-6 0 -12 7t-7 29q0 9 -1.5 48.5t-1.5 85.5q0 55 1 108t2 91zM91 279q0 5 1.5 8.5t5.5 3.5q7 0 13.5 -8t7.5 -29q0 -10 0.5 -32
t0.5 -49q0 -37 -0.5 -78t-1 -76t-1 -61.5t-0.5 -35.5q0 -6 -1.5 -9t-5.5 -3q-6 0 -12 7t-7 29q0 9 -1.5 48.5t-1.5 85.5q0 55 1 108t2 91z" />
    <glyph glyph-name="section" unicode="&#xa7;" horiz-adv-x="414" 
d="M199 -55q-27 0 -54 6t-48 14.5t-34.5 18.5t-13.5 19q0 6 4 14.5t10 8.5q4 0 16 -7t32 -15.5t47.5 -15.5t61.5 -7q49 0 69.5 19.5t20.5 49.5q0 34 -43 55t-94 41.5t-94 48.5t-43 76q0 40 19 65.5t47 46.5q-15 17 -24 38.5t-9 48.5q0 34 10 69.5t28.5 64.5t46 47.5
t61.5 18.5q37 0 61 -17t37.5 -43.5t18.5 -60.5t5 -67q0 -12 -9 -23.5t-22 -11.5q-3 0 -5.5 3t-2.5 8q0 103 -19 141.5t-62 38.5q-24 0 -44.5 -15.5t-35 -39.5t-22.5 -54t-8 -59q0 -50 39.5 -79t86 -52t86 -49t39.5 -70q0 -28 -16 -51t-40 -44q21 -13 33.5 -30t12.5 -39
q0 -49 -42 -80t-107 -31zM74 278q0 -26 20.5 -45.5t51.5 -34.5t67 -29t66 -30q18 17 29.5 36t11.5 41q0 26 -21 44.5t-52 34t-66 32t-62 40.5q-19 -19 -32 -40.5t-13 -48.5z" />
    <glyph glyph-name="dieresis" unicode="&#xa8;" horiz-adv-x="198" 
d="M146 585q-13 0 -20 8.5t-7 19.5q0 14 8.5 23t22.5 9t21 -8.5t7 -17.5q0 -16 -9.5 -25t-22.5 -9zM50 583q-15 0 -22.5 8.5t-7.5 20.5q0 15 9 24.5t24 9.5t21 -9.5t6 -19.5q0 -16 -8.5 -25t-21.5 -9z" />
    <glyph glyph-name="copyright" unicode="&#xa9;" horiz-adv-x="599" 
d="M387 364q-4 -12 -12.5 -19.5t-15.5 -7.5q-3 0 -5.5 3.5t-2.5 13.5q0 22 1.5 42.5t1.5 38.5q0 65 -11 90.5t-36 25.5q-48 0 -70.5 -68t-22.5 -186q0 -89 22 -125t49 -36q25 0 44 11.5t31.5 28t19 37t8.5 38.5q0 3 1.5 4.5t3.5 1.5q5 0 7.5 -5.5t2.5 -15.5
q0 -22 -6.5 -45.5t-19 -43t-32.5 -32.5t-47 -13q-57 0 -88 47.5t-31 145.5q0 62 7.5 114t22 89.5t37.5 58.5t54 21q40 0 66 -31.5t26 -107.5q0 -20 -1 -44t-4 -31zM294 -7q99 0 159 96.5t60 292.5q0 83 -17 141.5t-45 94.5t-64.5 52.5t-75.5 16.5q-102 0 -164.5 -96
t-61.5 -292q0 -83 17 -141.5t46 -95t67 -53t79 -16.5zM299 -32q-64 0 -111.5 25.5t-77.5 71t-45 110t-15 142.5q0 89 17.5 162.5t50 125t80 80t107.5 28.5q63 0 109 -25.5t76 -71t44.5 -110t14.5 -142.5q0 -89 -17 -162.5t-49 -125t-78.5 -80t-105.5 -28.5z" />
    <glyph glyph-name="guillemotleft" unicode="&#xab;" horiz-adv-x="455" 
d="M250 104q-10 0 -22 10.5t-34 29.5q-28 25 -65 51.5t-71 48.5q-7 4 -11.5 14t-4.5 21q0 4 4 9.5t12 12.5q54 43 98 78t81 75q5 5 8.5 7.5t4.5 2.5q3 0 5 -2.5t2 -6.5q0 -12 -16.5 -33.5t-42.5 -46.5t-58.5 -51.5t-64.5 -47.5q34 -24 67 -50t58 -48.5t40.5 -40.5t15.5 -27
q0 -1 -2 -3.5t-4 -2.5zM400 104q-10 0 -22 10.5t-34 29.5q-28 25 -65 51.5t-71 48.5q-7 4 -11.5 14t-4.5 21q0 4 4 9.5t12 12.5q54 43 98 78t81 75q5 5 8.5 7.5t4.5 2.5q3 0 5 -2.5t2 -6.5q0 -12 -16.5 -33.5t-42.5 -46.5t-58.5 -51.5t-64.5 -47.5q34 -24 67 -50t58 -48.5
t40.5 -40.5t15.5 -27q0 -1 -2 -3.5t-4 -2.5z" />
    <glyph glyph-name="registered" unicode="&#xae;" horiz-adv-x="599" 
d="M294 -7q99 0 159 96.5t60 292.5q0 83 -17 141.5t-45 94.5t-64.5 52.5t-75.5 16.5q-102 0 -164.5 -96t-61.5 -292q0 -83 17 -141.5t46 -95t67 -53t79 -16.5zM299 -32q-64 0 -111.5 25.5t-77.5 71t-45 110t-15 142.5q0 89 17.5 162.5t50 125t80 80t107.5 28.5
q63 0 109 -25.5t76 -71t44.5 -110t14.5 -142.5q0 -89 -17 -162.5t-49 -125t-78.5 -80t-105.5 -28.5zM179 530q-8 0 -12 4.5t-4 9.5t12.5 10.5t31.5 9.5t42.5 6.5t46.5 2.5q52 0 84.5 -32t32.5 -101q0 -63 -27.5 -99.5t-65.5 -47.5q18 -31 40 -72.5t36 -66.5q4 -7 6 -11.5
t2 -8.5q0 -6 -6 -10t-13 -4q-6 0 -11.5 5t-14.5 22.5t-25 51.5t-42 90h-4q-5 0 -19 2t-24 6q-1 -55 -1.5 -100.5t-1.5 -59.5q-1 -11 -2.5 -17t-5.5 -6q-10 0 -15.5 7t-6.5 26q-1 13 -1.5 58t-1.5 103t-1 119.5t1 105.5q-9 -1 -17 -2t-13 -1zM289 317q31 0 57 28t26 91
t-18 84.5t-64 21.5q-10 0 -22.5 -1.5t-24.5 -2.5q1 -1 1 -4v-5q1 -12 1.5 -34t0.5 -50t-0.5 -60.5t-0.5 -64.5q8 -1 19 -2t25 -1z" />
    <glyph glyph-name="macron" unicode="&#xaf;" horiz-adv-x="229" 
d="M40 598q-11 0 -15.5 11t-4.5 13q0 3 2 5t9 3q11 2 30.5 4t41.5 3.5t44.5 2.5t40.5 1q9 0 15 -9t6 -13t-2.5 -6t-6.5 -3q-32 -5 -79 -8.5t-81 -3.5z" />
    <glyph glyph-name="degree" unicode="&#xb0;" horiz-adv-x="224" 
d="M113 331q-46 0 -69.5 41t-23.5 94q0 70 28.5 115t74.5 45q23 0 38.5 -13t25 -32.5t13.5 -42.5t4 -43q0 -77 -25.5 -120.5t-65.5 -43.5zM114 365q25 0 41 34.5t16 91.5q0 16 -3 34t-9 33t-16 25t-25 10q-29 0 -47 -34t-18 -87q0 -41 15 -74t46 -33z" />
    <glyph glyph-name="twosuperior" unicode="&#xb2;" horiz-adv-x="259" 
d="M30 348q-11 0 -16 8t-5 15q0 4 2.5 8t6.5 8q34 37 67 69.5t59 61.5t41.5 55t15.5 50q0 28 -18.5 46.5t-58.5 18.5q-22 0 -43.5 -5.5t-38.5 -9.5q-6 -1 -9 -2t-7 -1q-7 0 -10.5 9t-3.5 13q0 3 9.5 8.5t25 10t35 8t38.5 3.5q54 0 84.5 -31t30.5 -75q0 -31 -15.5 -59.5
t-41 -56t-60 -56.5t-72.5 -61q22 1 49 2t51.5 2t44 1.5t27.5 0.5t13.5 -10t5.5 -15q0 -4 -2 -6t-6 -3q-15 -1 -45.5 -2.5t-62 -2.5t-58 -1.5t-33.5 -0.5z" />
    <glyph glyph-name="threesuperior" unicode="&#xb3;" horiz-adv-x="294" 
d="M262 466q0 -29 -22 -52.5t-54.5 -39.5t-69.5 -25t-68 -9q-9 0 -18.5 7t-9.5 17q0 4 4 6.5t13 3.5q37 5 71.5 13.5t61 20t42.5 28t16 38.5q0 21 -13 32t-41 11q-25 0 -51.5 -1.5t-31.5 -1.5q-6 0 -8.5 6t-2.5 12q0 4 1.5 8t5.5 8q12 12 30 29t36.5 35t36 35t30.5 30
q-22 -1 -49.5 -3t-52.5 -3.5t-45.5 -2.5t-29.5 -1q-8 0 -14.5 11.5t-6.5 17.5q0 4 2 6.5t6 3.5q15 1 47.5 1.5t66 1t61 0.5h32.5q10 0 15 -9t5 -19q0 -3 -2.5 -7t-6.5 -8q-32 -34 -69.5 -68t-65.5 -56q12 2 24.5 2h20.5q44 0 74 -17t30 -61z" />
    <glyph glyph-name="acute" unicode="&#xb4;" horiz-adv-x="155" 
d="M110 718q3 4 5.5 6t5.5 2q8 0 17 -8t9 -14q0 -3 -1 -6t-4 -7q-5 -7 -21.5 -29t-35.5 -45t-36 -41.5t-21 -18.5t-6 3t-2 9t10 24t24 40t29.5 45.5t26.5 39.5z" />
    <glyph glyph-name="paragraph" unicode="&#xb6;" horiz-adv-x="446" 
d="M355 -131q-1 -13 -2.5 -19.5t-6.5 -6.5q-6 0 -11 8t-6 28q-1 24 -1.5 115t-1 206t0 235t1.5 202q-10 1 -20.5 2t-20.5 2q1 -84 1 -205v-236t-1 -207t-3 -117q-1 -19 -4.5 -26t-7.5 -7q-8 0 -12.5 8.5t-5.5 27.5q0 11 -0.5 35.5t-1 58.5t-1 76t-1.5 88q-90 4 -145.5 81.5
t-55.5 229.5q0 121 52 173t156 52q25 0 51 -2.5t47 -6.5t34 -9.5t13 -10.5t-4 -9.5t-12 -4.5q-5 0 -12.5 1t-17.5 2l1 -3q2 -44 2.5 -158t-0.5 -238.5t-2 -230.5t-2 -134z" />
    <glyph glyph-name="periodcentered" unicode="&#xb7;" horiz-adv-x="171" 
d="M85 214q-21 0 -31.5 11.5t-10.5 26.5q0 19 12.5 31.5t33.5 12.5q22 0 30.5 -12t8.5 -24q0 -22 -12 -34t-31 -12z" />
    <glyph glyph-name="cedilla" unicode="&#xb8;" horiz-adv-x="186" 
d="M69 9l18 -11q-3 -4 -6 -8.5t-5 -8.5q42 -20 66 -31.5t24 -37.5q0 -24 -18 -42t-53 -18q-37 0 -56 9.5t-19 15.5q0 3 2.5 6.5t5.5 3.5q8 0 27 -5t38 -5t30.5 9t11.5 21q0 17 -14.5 27t-56.5 29q-6 3 -9 6.5t-3 8.5q0 6 3.5 11t13.5 20z" />
    <glyph glyph-name="onesuperior" unicode="&#xb9;" horiz-adv-x="246" 
d="M44 351q-15 0 -20.5 8t-5.5 16q0 5 2.5 8t7.5 4q10 1 33 2t50 2q0 22 -0.5 57.5t-0.5 73.5q0 16 0.5 39t1 47t1.5 46.5t2 37.5q-15 -6 -38.5 -15t-30.5 -9t-13 6.5t-6 10.5t3 6.5t13 5.5q11 3 25 8t26.5 9.5t22 7.5t11.5 3q6 0 12 -2.5t7 -6.5q0 -1 0.5 -17t0.5 -37.5
t0.5 -45.5t0.5 -42q0 -49 -0.5 -101t-1.5 -81q22 1 40.5 1.5t25.5 0.5q9 0 15 -8t6 -15q0 -4 -2.5 -6t-6.5 -3q-14 -2 -42.5 -4t-58 -3.5t-53 -2.5t-27.5 -1z" />
    <glyph glyph-name="guillemotright" unicode="&#xbb;" horiz-adv-x="445" 
d="M55 97q-3 0 -5 2.5t-2 6.5q0 12 16.5 34t42.5 47t58.5 51t64.5 47q-34 24 -67 50t-58 48.5t-40.5 40.5t-15.5 27q0 1 2 3.5t4 2.5q10 0 22 -10.5t34 -29.5q28 -25 65 -51.5t71 -48.5q7 -4 11.5 -14t4.5 -21q0 -4 -4 -9.5t-12 -12.5q-54 -43 -98 -78t-81 -75
q-5 -5 -8.5 -7.5t-4.5 -2.5zM205 97q-3 0 -5 2.5t-2 6.5q0 12 16.5 34t42.5 47t58.5 51t64.5 47q-34 24 -67 50t-58 48.5t-40.5 40.5t-15.5 27q0 1 2 3.5t4 2.5q10 0 22 -10.5t34 -29.5q28 -25 65 -51.5t71 -48.5q7 -4 11.5 -14t4.5 -21q0 -4 -4 -9.5t-12 -12.5
q-54 -43 -98 -78t-81 -75q-5 -5 -8.5 -7.5t-4.5 -2.5z" />
    <glyph glyph-name="onequarter" unicode="&#xbc;" horiz-adv-x="532" 
d="M44 351q-15 0 -20.5 8t-5.5 16q0 5 2.5 8t7.5 4q10 1 33 2t50 2q0 22 -0.5 57.5t-0.5 73.5q0 16 0.5 39t1 47t1.5 46.5t2 37.5q-15 -6 -38.5 -15t-30.5 -9t-13 6.5t-6 10.5t3 6.5t13 5.5q11 3 25 8t26.5 9.5t22 7.5t11.5 3q6 0 12 -2.5t7 -6.5q0 -1 0.5 -17t0.5 -37.5
t0.5 -45.5t0.5 -42q0 -49 -0.5 -101t-1.5 -81q22 1 40.5 1.5t25.5 0.5q9 0 15 -8t6 -15q0 -4 -2.5 -6t-6.5 -3q-14 -2 -42.5 -4t-58 -3.5t-53 -2.5t-27.5 -1zM440 664q4 5 6 6.5t5 1.5q5 0 10.5 -6.5t5.5 -13.5q0 -11 -50 -98.5t-118.5 -200.5t-141.5 -229t-119 -183
q-4 -6 -8 -9t-8 -3q-6 0 -9 6.5t-3 12.5q0 4 2.5 8.5t6.5 11.5q31 46 86.5 136.5t117 192.5t120.5 202t97 165zM443 -71q-10 0 -17 11t-8 31q0 7 -0.5 22t-0.5 33q-25 -1 -51 -2.5t-48 -2.5t-38.5 -1.5t-21.5 -0.5q-10 0 -17.5 8.5t-7.5 15.5q0 5 1 8.5t5 10.5
q16 28 37.5 59t44.5 61t46.5 57t42.5 47q7 7 11.5 8.5t8.5 1.5q6 0 14.5 -4t9.5 -10q1 -12 1.5 -36.5t0.5 -53.5q0 -23 -0.5 -60t-0.5 -72q7 1 13.5 1h10.5q13 0 23 -8.5t10 -15.5q0 -4 -3.5 -5.5t-10.5 -1.5q-7 -1 -18.5 -1.5t-25.5 -1.5q0 -18 -0.5 -33t-0.5 -22
q0 -25 -2 -34t-8 -9zM417 116q0 52 2 87.5t3 58.5q-27 -36 -69 -90t-88 -123q27 1 71 4t81 5v36.5v21.5z" />
    <glyph glyph-name="onehalf" unicode="&#xbd;" horiz-adv-x="535" 
d="M44 351q-15 0 -20.5 8t-5.5 16q0 5 2.5 8t7.5 4q10 1 33 2t50 2q0 22 -0.5 57.5t-0.5 73.5q0 16 0.5 39t1 47t1.5 46.5t2 37.5q-15 -6 -38.5 -15t-30.5 -9t-13 6.5t-6 10.5t3 6.5t13 5.5q11 3 25 8t26.5 9.5t22 7.5t11.5 3q6 0 12 -2.5t7 -6.5q0 -1 0.5 -17t0.5 -37.5
t0.5 -45.5t0.5 -42q0 -49 -0.5 -101t-1.5 -81q22 1 40.5 1.5t25.5 0.5q9 0 15 -8t6 -15q0 -4 -2.5 -6t-6.5 -3q-14 -2 -42.5 -4t-58 -3.5t-53 -2.5t-27.5 -1zM440 664q4 5 6 6.5t5 1.5q5 0 10.5 -6.5t5.5 -13.5q0 -11 -50 -98.5t-118.5 -200.5t-141.5 -229t-119 -183
q-4 -6 -8 -9t-8 -3q-6 0 -9 6.5t-3 12.5q0 4 2.5 8.5t6.5 11.5q31 46 86.5 136.5t117 192.5t120.5 202t97 165zM306 -70q-11 0 -16 8t-5 15q0 4 2.5 8t6.5 8q34 37 67 69.5t59 61.5t41.5 55t15.5 50q0 28 -18.5 46.5t-58.5 18.5q-22 0 -43.5 -5.5t-38.5 -9.5q-6 -1 -9 -2
t-7 -1q-7 0 -10.5 9t-3.5 13q0 3 9.5 8.5t25 10t35 8t38.5 3.5q54 0 84.5 -31t30.5 -75q0 -31 -15.5 -59.5t-41 -56t-60 -56.5t-72.5 -61q22 1 49 2t51.5 2t44 1.5t27.5 0.5t13.5 -10t5.5 -15q0 -4 -2 -6t-6 -3q-15 -1 -45.5 -2.5t-62 -2.5t-58 -1.5t-33.5 -0.5z" />
    <glyph glyph-name="threequarters" unicode="&#xbe;" horiz-adv-x="585" 
d="M262 466q0 -29 -22 -52.5t-54.5 -39.5t-69.5 -25t-68 -9q-9 0 -18.5 7t-9.5 17q0 4 4 6.5t13 3.5q37 5 71.5 13.5t61 20t42.5 28t16 38.5q0 21 -13 32t-41 11q-25 0 -51.5 -1.5t-31.5 -1.5q-6 0 -8.5 6t-2.5 12q0 4 1.5 8t5.5 8q12 12 30 29t36.5 35t36 35t30.5 30
q-22 -1 -49.5 -3t-52.5 -3.5t-45.5 -2.5t-29.5 -1q-8 0 -14.5 11.5t-6.5 17.5q0 4 2 6.5t6 3.5q15 1 47.5 1.5t66 1t61 0.5h32.5q10 0 15 -9t5 -19q0 -3 -2.5 -7t-6.5 -8q-32 -34 -69.5 -68t-65.5 -56q12 2 24.5 2h20.5q44 0 74 -17t30 -61zM488 664q4 5 6 6.5t5 1.5
q5 0 10.5 -6.5t5.5 -13.5q0 -11 -50 -98.5t-118.5 -200.5t-141.5 -229t-119 -183q-4 -6 -8 -9t-8 -3q-6 0 -9 6.5t-3 12.5q0 4 2.5 8.5t6.5 11.5q31 46 86.5 136.5t117 192.5t120.5 202t97 165zM496 -71q-10 0 -17 11t-8 31q0 7 -0.5 22t-0.5 33q-25 -1 -51 -2.5t-48 -2.5
t-38.5 -1.5t-21.5 -0.5q-10 0 -17.5 8.5t-7.5 15.5q0 5 1 8.5t5 10.5q16 28 37.5 59t44.5 61t46.5 57t42.5 47q7 7 11.5 8.5t8.5 1.5q6 0 14.5 -4t9.5 -10q1 -12 1.5 -36.5t0.5 -53.5q0 -23 -0.5 -60t-0.5 -72q7 1 13.5 1h10.5q13 0 23 -8.5t10 -15.5q0 -4 -3.5 -5.5
t-10.5 -1.5q-7 -1 -18.5 -1.5t-25.5 -1.5q0 -18 -0.5 -33t-0.5 -22q0 -25 -2 -34t-8 -9zM470 116q0 52 2 87.5t3 58.5q-27 -36 -69 -90t-88 -123q27 1 71 4t81 5v36.5v21.5z" />
    <glyph glyph-name="questiondown" unicode="&#xbf;" horiz-adv-x="267" 
d="M14 -13q0 56 18 109.5t41.5 95.5t46.5 68t32 26q4 0 6.5 -2.5t2.5 -6.5t-3 -7.5t-7 -9.5q-18 -23 -36 -55t-32 -69t-23 -78.5t-9 -82.5q0 -52 18 -77.5t54 -25.5q23 0 42 6.5t33 14t23.5 14t15.5 6.5q4 0 7.5 -4t3.5 -8q0 -16 -35 -39t-79 -23q-32 0 -55 13t-37.5 34
t-21 47.5t-6.5 53.5zM149 519q21 0 31.5 -11.5t10.5 -26.5q0 -19 -12.5 -31.5t-33.5 -12.5q-22 0 -30.5 12t-8.5 24q0 22 12 34t31 12z" />
    <glyph glyph-name="Agrave" unicode="&#xc0;" 
d="M226 626q13 -47 36.5 -143t46.5 -195t39.5 -180.5t16.5 -98.5q0 -9 -2 -14.5t-8 -5.5q-9 0 -15 6.5t-10 22.5q-5 16 -15.5 60t-23.5 104q-15 -1 -38.5 -3t-49.5 -4t-53 -3.5t-50 -2.5q-9 -46 -16.5 -84.5t-12.5 -63.5q-4 -17 -7 -24.5t-9 -7.5t-14 9t-8 22q0 15 7 54.5
t18 93.5h-4.5h-4.5q-14 1 -24 6t-10 12q0 4 3.5 7.5t10.5 4.5t16.5 1.5t19.5 1.5q12 54 26.5 116t29 120.5t28.5 110.5t24 87q6 21 10 28t9 7q13 0 20 -9.5t14 -34.5zM136 866q11 -16 26.5 -40t29.5 -47t24 -41.5t10 -24.5q0 -4 -2 -6t-6 -2q-5 0 -22.5 19.5t-37 44t-37 48
t-22.5 30.5q-3 4 -4 7t-1 5q0 6 10.5 10.5t20.5 4.5q3 0 5.5 -2t5.5 -6zM107 203q46 2 96.5 3.5t81.5 2.5q-11 48 -23 102t-23.5 108.5t-23 108t-21.5 99.5q-10 -48 -21.5 -102t-22.5 -109t-22 -109.5t-21 -103.5z" />
    <glyph glyph-name="Aacute" unicode="&#xc1;" 
d="M226 626q13 -47 36.5 -143t46.5 -195t39.5 -180.5t16.5 -98.5q0 -9 -2 -14.5t-8 -5.5q-9 0 -15 6.5t-10 22.5q-5 16 -15.5 60t-23.5 104q-15 -1 -38.5 -3t-49.5 -4t-53 -3.5t-50 -2.5q-9 -46 -16.5 -84.5t-12.5 -63.5q-4 -17 -7 -24.5t-9 -7.5t-14 9t-8 22q0 15 7 54.5
t18 93.5h-4.5h-4.5q-14 1 -24 6t-10 12q0 4 3.5 7.5t10.5 4.5t16.5 1.5t19.5 1.5q12 54 26.5 116t29 120.5t28.5 110.5t24 87q6 21 10 28t9 7q13 0 20 -9.5t14 -34.5zM242 866q3 4 5.5 6t5.5 2q8 0 17 -8t9 -14q0 -3 -1 -6t-4 -7q-5 -7 -21.5 -29t-35.5 -45t-36 -41.5
t-21 -18.5t-6 3t-2 9t10 24t24 40t29.5 45.5t26.5 39.5zM107 203q46 2 96.5 3.5t81.5 2.5q-11 48 -23 102t-23.5 108.5t-23 108t-21.5 99.5q-10 -48 -21.5 -102t-22.5 -109t-22 -109.5t-21 -103.5z" />
    <glyph glyph-name="Acircumflex" unicode="&#xc2;" 
d="M226 626q13 -47 36.5 -143t46.5 -195t39.5 -180.5t16.5 -98.5q0 -9 -2 -14.5t-8 -5.5q-9 0 -15 6.5t-10 22.5q-5 16 -15.5 60t-23.5 104q-15 -1 -38.5 -3t-49.5 -4t-53 -3.5t-50 -2.5q-9 -46 -16.5 -84.5t-12.5 -63.5q-4 -17 -7 -24.5t-9 -7.5t-14 9t-8 22q0 15 7 54.5
t18 93.5h-4.5h-4.5q-14 1 -24 6t-10 12q0 4 3.5 7.5t10.5 4.5t16.5 1.5t19.5 1.5q12 54 26.5 116t29 120.5t28.5 110.5t24 87q6 21 10 28t9 7q13 0 20 -9.5t14 -34.5zM281 707q-6 0 -17 11t-24 28t-26.5 38t-23.5 40q-24 -48 -53.5 -83.5t-35.5 -35.5q-3 0 -5.5 4t-2.5 9
q0 9 28 51.5t56 96.5q1 4 5 6t5 2q4 0 9 -2.5t9 -8.5q12 -23 26.5 -46.5t27 -43.5t21 -35.5t8.5 -22.5q0 -2 -2 -5t-5 -3zM107 203q46 2 96.5 3.5t81.5 2.5q-11 48 -23 102t-23.5 108.5t-23 108t-21.5 99.5q-10 -48 -21.5 -102t-22.5 -109t-22 -109.5t-21 -103.5z" />
    <glyph glyph-name="Atilde" unicode="&#xc3;" 
d="M226 626q13 -47 36.5 -143t46.5 -195t39.5 -180.5t16.5 -98.5q0 -9 -2 -14.5t-8 -5.5q-9 0 -15 6.5t-10 22.5q-5 16 -15.5 60t-23.5 104q-15 -1 -38.5 -3t-49.5 -4t-53 -3.5t-50 -2.5q-9 -46 -16.5 -84.5t-12.5 -63.5q-4 -17 -7 -24.5t-9 -7.5t-14 9t-8 22q0 15 7 54.5
t18 93.5h-4.5h-4.5q-14 1 -24 6t-10 12q0 4 3.5 7.5t10.5 4.5t16.5 1.5t19.5 1.5q12 54 26.5 116t29 120.5t28.5 110.5t24 87q6 21 10 28t9 7q13 0 20 -9.5t14 -34.5zM228 685q-25 0 -37 24.5t-19.5 54t-14.5 54t-22 24.5t-20.5 -24t-7.5 -53t-3 -53t-7 -24q-7 0 -12 12
t-5 25q0 66 14.5 102.5t43.5 36.5q26 0 38.5 -24.5t19.5 -54t13.5 -54t20.5 -24.5q21 0 28 24t9.5 53t4.5 53t11 24q7 0 12.5 -10.5t5.5 -25.5q0 -68 -19.5 -104t-53.5 -36zM107 203q46 2 96.5 3.5t81.5 2.5q-11 48 -23 102t-23.5 108.5t-23 108t-21.5 99.5
q-10 -48 -21.5 -102t-22.5 -109t-22 -109.5t-21 -103.5z" />
    <glyph glyph-name="Adieresis" unicode="&#xc4;" 
d="M226 626q13 -47 36.5 -143t46.5 -195t39.5 -180.5t16.5 -98.5q0 -9 -2 -14.5t-8 -5.5q-9 0 -15 6.5t-10 22.5q-5 16 -15.5 60t-23.5 104q-15 -1 -38.5 -3t-49.5 -4t-53 -3.5t-50 -2.5q-9 -46 -16.5 -84.5t-12.5 -63.5q-4 -17 -7 -24.5t-9 -7.5t-14 9t-8 22q0 15 7 54.5
t18 93.5h-4.5h-4.5q-14 1 -24 6t-10 12q0 4 3.5 7.5t10.5 4.5t16.5 1.5t19.5 1.5q12 54 26.5 116t29 120.5t28.5 110.5t24 87q6 21 10 28t9 7q13 0 20 -9.5t14 -34.5zM237 733q-13 0 -20 8.5t-7 19.5q0 14 8.5 23t22.5 9t21 -8.5t7 -17.5q0 -16 -9.5 -25t-22.5 -9zM141 731
q-15 0 -22.5 8.5t-7.5 20.5q0 15 9 24.5t24 9.5t21 -9.5t6 -19.5q0 -16 -8.5 -25t-21.5 -9zM107 203q46 2 96.5 3.5t81.5 2.5q-11 48 -23 102t-23.5 108.5t-23 108t-21.5 99.5q-10 -48 -21.5 -102t-22.5 -109t-22 -109.5t-21 -103.5z" />
    <glyph glyph-name="Aring" unicode="&#xc5;" 
d="M226 626q13 -47 36.5 -143t46.5 -195t39.5 -180.5t16.5 -98.5q0 -9 -2 -14.5t-8 -5.5q-9 0 -15 6.5t-10 22.5q-5 16 -15.5 60t-23.5 104q-15 -1 -38.5 -3t-49.5 -4t-53 -3.5t-50 -2.5q-9 -46 -16.5 -84.5t-12.5 -63.5q-4 -17 -7 -24.5t-9 -7.5t-14 9t-8 22q0 15 7 54.5
t18 93.5h-4.5h-4.5q-14 1 -24 6t-10 12q0 4 3.5 7.5t10.5 4.5t16.5 1.5t19.5 1.5q12 54 26.5 116t29 120.5t28.5 110.5t24 87q6 21 10 28t9 7q13 0 20 -9.5t14 -34.5zM191 738q20 0 33 14.5t13 39.5q0 14 -10 29t-32 15q-24 0 -38 -15t-14 -37q0 -18 12 -32t36 -14zM192 711
q-39 0 -58.5 21t-19.5 49q0 36 23 59.5t62 23.5q37 0 52 -23t15 -45q0 -40 -20.5 -62.5t-53.5 -22.5zM107 203q46 2 96.5 3.5t81.5 2.5q-11 48 -23 102t-23.5 108.5t-23 108t-21.5 99.5q-10 -48 -21.5 -102t-22.5 -109t-22 -109.5t-21 -103.5z" />
    <glyph glyph-name="AE" unicode="&#xc6;" horiz-adv-x="541" 
d="M106 203q36 1 74.5 3t65.5 3v104.5t0.5 110t1.5 105.5t2 92q-4 -1 -7 -1h-6q-16 -46 -33 -99t-34 -107t-33 -108t-31 -103zM504 646q0 -6 -8.5 -8.5t-24.5 -3.5q-15 -1 -38 -3t-48.5 -3.5t-52.5 -3t-51 -2.5q1 -23 2 -58t1.5 -76.5t0 -88.5t-0.5 -94q16 3 37 6t41 4.5
t37.5 2.5t27.5 1q14 0 22.5 -7.5t8.5 -14.5q0 -5 -4 -7t-12 -3q-8 0 -27.5 -1.5t-42.5 -3t-47 -3t-41 -2.5q-1 -82 -2 -153.5t-2 -106.5q41 5 87.5 9t79.5 4q19 0 29.5 -11t-5.5 -13q-7 -1 -37 -4t-65 -6t-65.5 -5t-37.5 -2q-4 0 -10.5 9t-7.5 23q-1 9 -1.5 53t-0.5 107
q-28 -3 -72 -7t-78 -5q-14 -46 -26 -84t-20 -63q-6 -17 -10 -24.5t-10 -7.5t-12.5 9t-5.5 22q2 15 13.5 54.5t27.5 92.5q-13 1 -23 6t-10 12q0 4 3.5 7.5t10.5 4.5q6 1 13.5 1.5t16.5 0.5q17 53 37 111.5t39.5 114t38.5 104.5t33 82q8 21 13 27.5t14 7.5q13 2 31.5 4.5
t46 4.5t67.5 3.5t96 1.5q13 0 18.5 -5.5t5.5 -9.5z" />
    <glyph glyph-name="Ccedilla" unicode="&#xc7;" horiz-adv-x="402" 
d="M326 306q-3 -3 -7 -4.5t-9 -1.5q-4 0 -7 3t-3 9q0 13 1 43.5t1 51.5q0 123 -22 177.5t-65 54.5q-56 0 -90 -98.5t-34 -288.5q0 -70 7.5 -115t22 -70t37.5 -34t53 -9q29 0 52 7.5t40 16.5t27.5 16.5t14.5 7.5t7.5 -6t3.5 -11q0 -7 -11.5 -18.5t-31.5 -21.5t-46.5 -17.5
t-55.5 -7.5h-7.5h-7.5q-1 -2 -3 -4.5t-3 -4.5q42 -20 66 -31.5t24 -37.5q0 -24 -18 -42t-53 -18q-37 0 -56 9.5t-19 15.5q0 3 2.5 6.5t5.5 3.5q8 0 27 -5t38 -5t30.5 9t11.5 21q0 17 -14.5 27t-56.5 29q-6 3 -9 6.5t-3 8.5q0 4 1.5 7t4.5 8q-60 10 -89.5 68t-29.5 194
q0 209 46 311.5t119 102.5q63 0 92 -68.5t29 -179.5q0 -39 -2 -72.5t-11 -42.5z" />
    <glyph glyph-name="Egrave" unicode="&#xc8;" horiz-adv-x="387" 
d="M61 620q-10 0 -15 6t-5 11t4 7.5t13 3.5q26 3 90.5 8t176.5 5q13 0 18.5 -5.5t5.5 -9.5q0 -6 -8.5 -8.5t-24.5 -3.5q-15 -1 -38 -3t-48.5 -3.5t-52.5 -3t-51 -2.5q1 -18 2 -51t1.5 -75.5t0 -91.5t-0.5 -99q16 3 37 6t41 4.5t37.5 2.5t27.5 1q14 0 22.5 -7.5t8.5 -14.5
q0 -5 -4 -7t-12 -3q-8 0 -27.5 -1.5t-42.5 -3t-47 -3t-41 -2.5q-1 -82 -2 -153.5t-2 -106.5q41 5 87.5 9t79.5 4q19 0 29.5 -11t-5.5 -13q-7 -1 -37 -4t-65 -6t-65.5 -5t-37.5 -2q-4 0 -10.5 9t-7.5 23q-1 12 -1.5 83t-1 163.5t0 189t2.5 158.5v4v2q-10 -1 -18 -1h-14z
M148 857q11 -16 26.5 -40t29.5 -47t24 -41.5t10 -24.5q0 -4 -2 -6t-6 -2q-5 0 -22.5 19.5t-37 44t-37 48t-22.5 30.5q-3 4 -4 7t-1 5q0 6 10.5 10.5t20.5 4.5q3 0 5.5 -2t5.5 -6z" />
    <glyph glyph-name="Eacute" unicode="&#xc9;" horiz-adv-x="387" 
d="M61 620q-10 0 -15 6t-5 11t4 7.5t13 3.5q26 3 90.5 8t176.5 5q13 0 18.5 -5.5t5.5 -9.5q0 -6 -8.5 -8.5t-24.5 -3.5q-15 -1 -38 -3t-48.5 -3.5t-52.5 -3t-51 -2.5q1 -18 2 -51t1.5 -75.5t0 -91.5t-0.5 -99q16 3 37 6t41 4.5t37.5 2.5t27.5 1q14 0 22.5 -7.5t8.5 -14.5
q0 -5 -4 -7t-12 -3q-8 0 -27.5 -1.5t-42.5 -3t-47 -3t-41 -2.5q-1 -82 -2 -153.5t-2 -106.5q41 5 87.5 9t79.5 4q19 0 29.5 -11t-5.5 -13q-7 -1 -37 -4t-65 -6t-65.5 -5t-37.5 -2q-4 0 -10.5 9t-7.5 23q-1 12 -1.5 83t-1 163.5t0 189t2.5 158.5v4v2q-10 -1 -18 -1h-14z
M254 857q3 4 5.5 6t5.5 2q8 0 17 -8t9 -14q0 -3 -1 -6t-4 -7q-5 -7 -21.5 -29t-35.5 -45t-36 -41.5t-21 -18.5t-6 3t-2 9t10 24t24 40t29.5 45.5t26.5 39.5z" />
    <glyph glyph-name="Ecircumflex" unicode="&#xca;" horiz-adv-x="387" 
d="M61 620q-10 0 -15 6t-5 11t4 7.5t13 3.5q26 3 90.5 8t176.5 5q13 0 18.5 -5.5t5.5 -9.5q0 -6 -8.5 -8.5t-24.5 -3.5q-15 -1 -38 -3t-48.5 -3.5t-52.5 -3t-51 -2.5q1 -18 2 -51t1.5 -75.5t0 -91.5t-0.5 -99q16 3 37 6t41 4.5t37.5 2.5t27.5 1q14 0 22.5 -7.5t8.5 -14.5
q0 -5 -4 -7t-12 -3q-8 0 -27.5 -1.5t-42.5 -3t-47 -3t-41 -2.5q-1 -82 -2 -153.5t-2 -106.5q41 5 87.5 9t79.5 4q19 0 29.5 -11t-5.5 -13q-7 -1 -37 -4t-65 -6t-65.5 -5t-37.5 -2q-4 0 -10.5 9t-7.5 23q-1 12 -1.5 83t-1 163.5t0 189t2.5 158.5v4v2q-10 -1 -18 -1h-14z
M293 698q-6 0 -17 11t-24 28t-26.5 38t-23.5 40q-24 -48 -53.5 -83.5t-35.5 -35.5q-3 0 -5.5 4t-2.5 9q0 9 28 51.5t56 96.5q1 4 5 6t5 2q4 0 9 -2.5t9 -8.5q12 -23 26.5 -46.5t27 -43.5t21 -35.5t8.5 -22.5q0 -2 -2 -5t-5 -3z" />
    <glyph glyph-name="Edieresis" unicode="&#xcb;" horiz-adv-x="387" 
d="M61 620q-10 0 -15 6t-5 11t4 7.5t13 3.5q26 3 90.5 8t176.5 5q13 0 18.5 -5.5t5.5 -9.5q0 -6 -8.5 -8.5t-24.5 -3.5q-15 -1 -38 -3t-48.5 -3.5t-52.5 -3t-51 -2.5q1 -18 2 -51t1.5 -75.5t0 -91.5t-0.5 -99q16 3 37 6t41 4.5t37.5 2.5t27.5 1q14 0 22.5 -7.5t8.5 -14.5
q0 -5 -4 -7t-12 -3q-8 0 -27.5 -1.5t-42.5 -3t-47 -3t-41 -2.5q-1 -82 -2 -153.5t-2 -106.5q41 5 87.5 9t79.5 4q19 0 29.5 -11t-5.5 -13q-7 -1 -37 -4t-65 -6t-65.5 -5t-37.5 -2q-4 0 -10.5 9t-7.5 23q-1 12 -1.5 83t-1 163.5t0 189t2.5 158.5v4v2q-10 -1 -18 -1h-14z
M249 724q-13 0 -20 8.5t-7 19.5q0 14 8.5 23t22.5 9t21 -8.5t7 -17.5q0 -16 -9.5 -25t-22.5 -9zM153 722q-15 0 -22.5 8.5t-7.5 20.5q0 15 9 24.5t24 9.5t21 -9.5t6 -19.5q0 -16 -8.5 -25t-21.5 -9z" />
    <glyph glyph-name="Igrave" unicode="&#xcc;" horiz-adv-x="214" 
d="M89 644q0 8 3.5 13.5t8.5 5.5q11 0 16.5 -8t6.5 -26q2 -36 2.5 -127t0 -189.5t-2 -183.5t-2.5 -110q-1 -11 -3 -17t-9 -6q-8 0 -12.5 7t-5.5 26q-1 21 -2 94.5t-1.5 166.5t-0.5 190.5t1 163.5zM63 859q11 -16 26.5 -40t29.5 -47t24 -41.5t10 -24.5q0 -4 -2 -6t-6 -2
q-5 0 -22.5 19.5t-37 44t-37 48t-22.5 30.5q-3 4 -4 7t-1 5q0 6 10.5 10.5t20.5 4.5q3 0 5.5 -2t5.5 -6z" />
    <glyph glyph-name="Iacute" unicode="&#xcd;" horiz-adv-x="214" 
d="M89 644q0 8 3.5 13.5t8.5 5.5q11 0 16.5 -8t6.5 -26q2 -36 2.5 -127t0 -189.5t-2 -183.5t-2.5 -110q-1 -11 -3 -17t-9 -6q-8 0 -12.5 7t-5.5 26q-1 21 -2 94.5t-1.5 166.5t-0.5 190.5t1 163.5zM159 859q3 4 5.5 6t5.5 2q8 0 17 -8t9 -14q0 -3 -1 -6t-4 -7
q-5 -7 -21.5 -29t-35.5 -45t-36 -41.5t-21 -18.5t-6 3t-2 9t10 24t24 40t29.5 45.5t26.5 39.5z" />
    <glyph glyph-name="Icircumflex" unicode="&#xce;" horiz-adv-x="214" 
d="M89 644q0 8 3.5 13.5t8.5 5.5q11 0 16.5 -8t6.5 -26q2 -36 2.5 -127t0 -189.5t-2 -183.5t-2.5 -110q-1 -11 -3 -17t-9 -6q-8 0 -12.5 7t-5.5 26q-1 21 -2 94.5t-1.5 166.5t-0.5 190.5t1 163.5zM198 700q-6 0 -17 11t-24 28t-26.5 38t-23.5 40q-24 -48 -53.5 -83.5
t-35.5 -35.5q-3 0 -5.5 4t-2.5 9q0 9 28 51.5t56 96.5q1 4 5 6t5 2q4 0 9 -2.5t9 -8.5q12 -23 26.5 -46.5t27 -43.5t21 -35.5t8.5 -22.5q0 -2 -2 -5t-5 -3z" />
    <glyph glyph-name="Idieresis" unicode="&#xcf;" horiz-adv-x="214" 
d="M89 644q0 8 3.5 13.5t8.5 5.5q11 0 16.5 -8t6.5 -26q2 -36 2.5 -127t0 -189.5t-2 -183.5t-2.5 -110q-1 -11 -3 -17t-9 -6q-8 0 -12.5 7t-5.5 26q-1 21 -2 94.5t-1.5 166.5t-0.5 190.5t1 163.5zM154 726q-13 0 -20 8.5t-7 19.5q0 14 8.5 23t22.5 9t21 -8.5t7 -17.5
q0 -16 -9.5 -25t-22.5 -9zM58 724q-15 0 -22.5 8.5t-7.5 20.5q0 15 9 24.5t24 9.5t21 -9.5t6 -19.5q0 -16 -8.5 -25t-21.5 -9z" />
    <glyph glyph-name="Eth" unicode="&#xd0;" horiz-adv-x="448" 
d="M205 321q-12 -1 -31.5 -2t-47.5 -1q0 -48 -0.5 -94t-1 -85t-1 -69.5t-1.5 -46.5q51 0 93.5 31t72.5 87t46.5 135.5t16.5 176.5q0 98 -33 143.5t-108 45.5q-22 0 -44 -2t-41 -4q1 -19 1.5 -49.5t0.5 -68v-80v-86.5q16 1 35 1h41q12 0 19 -8.5t7 -13.5q0 -4 -4 -6.5
t-20 -3.5zM135 -4q-24 0 -33 7t-10 26q-1 11 -1.5 38.5t-1 66t-1 86t-0.5 97.5h-16h-18t-15 8.5t-6 12.5t3.5 7t17.5 4q6 1 14.5 1t19.5 1v151t1 130q-9 -1 -16.5 -1.5t-13.5 -0.5q-8 0 -12 4.5t-4 9.5t17 10.5t42 9.5t53.5 6.5t50.5 2.5q102 0 143.5 -53.5t41.5 -170.5
q0 -105 -20 -189.5t-54.5 -142.5t-81.5 -89.5t-100 -31.5z" />
    <glyph glyph-name="Ntilde" unicode="&#xd1;" horiz-adv-x="480" 
d="M89 23q-1 20 -1 61.5v95.5q0 61 1 134t2.5 139t3.5 119t4 75q1 8 3 12.5t9 4.5t15 -4.5t13 -15.5q15 -32 43 -104.5t59.5 -159.5t64 -178.5t56.5 -162.5q-3 109 -4.5 213.5t-2 188t-1 139.5t-0.5 70q0 10 2 14t8 4q8 0 16.5 -8t9.5 -24q1 -19 1.5 -55.5t0.5 -71.5
q0 -62 -1 -141t-2.5 -152t-3.5 -129.5t-3 -74.5q-1 -9 -4 -14t-8 -5q-7 0 -17 3.5t-14 14.5q-16 40 -43 113t-58 158.5t-62.5 174.5t-55.5 162q1 -66 2.5 -160t2.5 -184.5t2 -163t1 -96.5q0 -10 -3 -15.5t-8 -5.5q-6 0 -16.5 7t-11.5 22zM278 683q-25 0 -37 24.5t-19.5 54
t-14.5 54t-22 24.5t-20.5 -24t-7.5 -53t-3 -53t-7 -24q-7 0 -12 12t-5 25q0 66 14.5 102.5t43.5 36.5q26 0 38.5 -24.5t19.5 -54t13.5 -54t20.5 -24.5q21 0 28 24t9.5 53t4.5 53t11 24q7 0 12.5 -10.5t5.5 -25.5q0 -68 -19.5 -104t-53.5 -36z" />
    <glyph glyph-name="Ograve" unicode="&#xd2;" horiz-adv-x="413" 
d="M206 23q57 0 86.5 94t29.5 263q0 82 -9.5 133t-24.5 78.5t-34 37t-38 9.5q-51 0 -88 -88t-37 -276q0 -134 31 -192.5t84 -58.5zM206 -10q-72 0 -113 70.5t-41 209.5q0 91 10.5 165t31 126t52 80.5t72.5 28.5q31 0 57.5 -14.5t45.5 -49t29.5 -91t10.5 -140.5
q0 -181 -37 -283t-118 -102zM155 866q11 -16 26.5 -40t29.5 -47t24 -41.5t10 -24.5q0 -4 -2 -6t-6 -2q-5 0 -22.5 19.5t-37 44t-37 48t-22.5 30.5q-3 4 -4 7t-1 5q0 6 10.5 10.5t20.5 4.5q3 0 5.5 -2t5.5 -6z" />
    <glyph glyph-name="Oacute" unicode="&#xd3;" horiz-adv-x="413" 
d="M206 23q57 0 86.5 94t29.5 263q0 82 -9.5 133t-24.5 78.5t-34 37t-38 9.5q-51 0 -88 -88t-37 -276q0 -134 31 -192.5t84 -58.5zM206 -10q-72 0 -113 70.5t-41 209.5q0 91 10.5 165t31 126t52 80.5t72.5 28.5q31 0 57.5 -14.5t45.5 -49t29.5 -91t10.5 -140.5
q0 -181 -37 -283t-118 -102zM261 866q3 4 5.5 6t5.5 2q8 0 17 -8t9 -14q0 -3 -1 -6t-4 -7q-5 -7 -21.5 -29t-35.5 -45t-36 -41.5t-21 -18.5t-6 3t-2 9t10 24t24 40t29.5 45.5t26.5 39.5z" />
    <glyph glyph-name="Ocircumflex" unicode="&#xd4;" horiz-adv-x="413" 
d="M206 23q57 0 86.5 94t29.5 263q0 82 -9.5 133t-24.5 78.5t-34 37t-38 9.5q-51 0 -88 -88t-37 -276q0 -134 31 -192.5t84 -58.5zM206 -10q-72 0 -113 70.5t-41 209.5q0 91 10.5 165t31 126t52 80.5t72.5 28.5q31 0 57.5 -14.5t45.5 -49t29.5 -91t10.5 -140.5
q0 -181 -37 -283t-118 -102zM300 707q-6 0 -17 11t-24 28t-26.5 38t-23.5 40q-24 -48 -53.5 -83.5t-35.5 -35.5q-3 0 -5.5 4t-2.5 9q0 9 28 51.5t56 96.5q1 4 5 6t5 2q4 0 9 -2.5t9 -8.5q12 -23 26.5 -46.5t27 -43.5t21 -35.5t8.5 -22.5q0 -2 -2 -5t-5 -3z" />
    <glyph glyph-name="Otilde" unicode="&#xd5;" horiz-adv-x="413" 
d="M206 23q57 0 86.5 94t29.5 263q0 82 -9.5 133t-24.5 78.5t-34 37t-38 9.5q-51 0 -88 -88t-37 -276q0 -134 31 -192.5t84 -58.5zM206 -10q-72 0 -113 70.5t-41 209.5q0 91 10.5 165t31 126t52 80.5t72.5 28.5q31 0 57.5 -14.5t45.5 -49t29.5 -91t10.5 -140.5
q0 -181 -37 -283t-118 -102zM247 685q-25 0 -37 24.5t-19.5 54t-14.5 54t-22 24.5t-20.5 -24t-7.5 -53t-3 -53t-7 -24q-7 0 -12 12t-5 25q0 66 14.5 102.5t43.5 36.5q26 0 38.5 -24.5t19.5 -54t13.5 -54t20.5 -24.5q21 0 28 24t9.5 53t4.5 53t11 24q7 0 12.5 -10.5
t5.5 -25.5q0 -68 -19.5 -104t-53.5 -36z" />
    <glyph glyph-name="Odieresis" unicode="&#xd6;" horiz-adv-x="413" 
d="M206 23q57 0 86.5 94t29.5 263q0 82 -9.5 133t-24.5 78.5t-34 37t-38 9.5q-51 0 -88 -88t-37 -276q0 -134 31 -192.5t84 -58.5zM206 -10q-72 0 -113 70.5t-41 209.5q0 91 10.5 165t31 126t52 80.5t72.5 28.5q31 0 57.5 -14.5t45.5 -49t29.5 -91t10.5 -140.5
q0 -181 -37 -283t-118 -102zM256 733q-13 0 -20 8.5t-7 19.5q0 14 8.5 23t22.5 9t21 -8.5t7 -17.5q0 -16 -9.5 -25t-22.5 -9zM160 731q-15 0 -22.5 8.5t-7.5 20.5q0 15 9 24.5t24 9.5t21 -9.5t6 -19.5q0 -16 -8.5 -25t-21.5 -9z" />
    <glyph glyph-name="multiply" unicode="&#xd7;" horiz-adv-x="381" 
d="M88 202q-3 -4 -7 -6t-8 -2q-11 1 -17 3.5t-6 7.5q0 7 32.5 42.5t80.5 82.5q-25 24 -50.5 49t-50.5 49q-4 4 -6.5 10.5t-2.5 13.5q0 4 1.5 8t2.5 5q2 2 6.5 1.5t17.5 -11.5q16 -13 45 -40.5t62 -58.5q25 25 52 51.5t52 51.5q4 4 10.5 6.5t13.5 1.5q4 0 8 -1.5t5 -2.5
q2 -2 1 -6.5t-11 -16.5q-14 -16 -42.5 -46t-62.5 -64q29 -28 56 -54t45 -43q4 -3 5.5 -7t1.5 -8q0 -11 -2.5 -17t-7.5 -6q-7 0 -41.5 31.5t-81.5 77.5q-29 -29 -56 -56.5t-45 -45.5z" />
    <glyph glyph-name="Oslash" unicode="&#xd8;" horiz-adv-x="413" 
d="M91 274q0 -44 3.5 -79.5t10.5 -63.5q3 8 6.5 17t7.5 19q17 42 36.5 90.5t40 97.5t41 96.5t39.5 87.5q4 10 9 20.5t9 20.5q-16 35 -36.5 46.5t-41.5 11.5q-51 0 -88 -88t-37 -276zM340 689q4 8 7 10.5t6 2.5q7 0 12.5 -8t5.5 -17t-11.5 -32.5t-29.5 -57.5q15 -34 23 -86.5
t8 -125.5q0 -181 -37 -283t-118 -102q-33 0 -60.5 15t-46.5 45q-2 -7 -4.5 -12t-3.5 -9q-10 -27 -16 -39.5t-12 -12.5q-4 0 -5.5 3.5t-1.5 7.5q0 7 7.5 30.5t20.5 59.5q-16 34 -24 82.5t-8 109.5q0 91 10.5 165t31 126t52 80.5t72.5 28.5q28 0 51.5 -11.5t41.5 -36.5
q8 20 15 37t14 30zM206 23q57 0 86.5 94t29.5 263q0 53 -4 92.5t-11 67.5q-2 -4 -4 -8.5t-4 -8.5q-22 -48 -44.5 -101.5t-44.5 -106t-42.5 -102t-37.5 -89.5q-4 -8 -7 -16t-6 -15q15 -37 37.5 -53.5t51.5 -16.5z" />
    <glyph glyph-name="Ugrave" unicode="&#xd9;" horiz-adv-x="458" 
d="M231 -10q-69 0 -108.5 45.5t-39.5 161.5q0 69 1 134t2 121.5t2 103t2 77.5q1 16 3 22t7 6q7 0 14 -5.5t8 -18.5q1 -7 1.5 -21t0.5 -32q0 -47 -0.5 -101t-0.5 -105t-0.5 -96t-0.5 -74q0 -107 29.5 -147t80.5 -40q43 0 73 43t30 152v72t0.5 116t1 127t1.5 105q1 16 4 21.5
t7 5.5q6 0 13 -7.5t8 -20.5q2 -32 3 -78t1.5 -99.5t0.5 -112v-114.5q0 -131 -40 -186t-104 -55zM175 859q11 -16 26.5 -40t29.5 -47t24 -41.5t10 -24.5q0 -4 -2 -6t-6 -2q-5 0 -22.5 19.5t-37 44t-37 48t-22.5 30.5q-3 4 -4 7t-1 5q0 6 10.5 10.5t20.5 4.5q3 0 5.5 -2
t5.5 -6z" />
    <glyph glyph-name="Uacute" unicode="&#xda;" horiz-adv-x="458" 
d="M231 -10q-69 0 -108.5 45.5t-39.5 161.5q0 69 1 134t2 121.5t2 103t2 77.5q1 16 3 22t7 6q7 0 14 -5.5t8 -18.5q1 -7 1.5 -21t0.5 -32q0 -47 -0.5 -101t-0.5 -105t-0.5 -96t-0.5 -74q0 -107 29.5 -147t80.5 -40q43 0 73 43t30 152v72t0.5 116t1 127t1.5 105q1 16 4 21.5
t7 5.5q6 0 13 -7.5t8 -20.5q2 -32 3 -78t1.5 -99.5t0.5 -112v-114.5q0 -131 -40 -186t-104 -55zM281 859q3 4 5.5 6t5.5 2q8 0 17 -8t9 -14q0 -3 -1 -6t-4 -7q-5 -7 -21.5 -29t-35.5 -45t-36 -41.5t-21 -18.5t-6 3t-2 9t10 24t24 40t29.5 45.5t26.5 39.5z" />
    <glyph glyph-name="Ucircumflex" unicode="&#xdb;" horiz-adv-x="458" 
d="M231 -10q-69 0 -108.5 45.5t-39.5 161.5q0 69 1 134t2 121.5t2 103t2 77.5q1 16 3 22t7 6q7 0 14 -5.5t8 -18.5q1 -7 1.5 -21t0.5 -32q0 -47 -0.5 -101t-0.5 -105t-0.5 -96t-0.5 -74q0 -107 29.5 -147t80.5 -40q43 0 73 43t30 152v72t0.5 116t1 127t1.5 105q1 16 4 21.5
t7 5.5q6 0 13 -7.5t8 -20.5q2 -32 3 -78t1.5 -99.5t0.5 -112v-114.5q0 -131 -40 -186t-104 -55zM320 700q-6 0 -17 11t-24 28t-26.5 38t-23.5 40q-24 -48 -53.5 -83.5t-35.5 -35.5q-3 0 -5.5 4t-2.5 9q0 9 28 51.5t56 96.5q1 4 5 6t5 2q4 0 9 -2.5t9 -8.5q12 -23 26.5 -46.5
t27 -43.5t21 -35.5t8.5 -22.5q0 -2 -2 -5t-5 -3z" />
    <glyph glyph-name="Udieresis" unicode="&#xdc;" horiz-adv-x="458" 
d="M231 -10q-69 0 -108.5 45.5t-39.5 161.5q0 69 1 134t2 121.5t2 103t2 77.5q1 16 3 22t7 6q7 0 14 -5.5t8 -18.5q1 -7 1.5 -21t0.5 -32q0 -47 -0.5 -101t-0.5 -105t-0.5 -96t-0.5 -74q0 -107 29.5 -147t80.5 -40q43 0 73 43t30 152v72t0.5 116t1 127t1.5 105q1 16 4 21.5
t7 5.5q6 0 13 -7.5t8 -20.5q2 -32 3 -78t1.5 -99.5t0.5 -112v-114.5q0 -131 -40 -186t-104 -55zM276 726q-13 0 -20 8.5t-7 19.5q0 14 8.5 23t22.5 9t21 -8.5t7 -17.5q0 -16 -9.5 -25t-22.5 -9zM180 724q-15 0 -22.5 8.5t-7.5 20.5q0 15 9 24.5t24 9.5t21 -9.5t6 -19.5
q0 -16 -8.5 -25t-21.5 -9z" />
    <glyph glyph-name="Yacute" unicode="&#xdd;" horiz-adv-x="394" 
d="M30 656q0 6 2 10t8 4q7 0 13 -5t10 -15q6 -16 22.5 -64.5t36.5 -110t41.5 -130t39.5 -124.5q17 54 36 117t36.5 122t32.5 109.5t23 78.5q4 12 6.5 17t6.5 5q5 0 12.5 -6t7.5 -16q0 -19 -15.5 -75t-38.5 -124t-48.5 -137.5t-44.5 -116.5v-40.5t-0.5 -48.5t-1 -44t-0.5 -28
q-1 -20 -3 -30.5t-9 -10.5t-14 6.5t-8 23.5v170q-19 47 -45 120.5t-49.5 145t-40 128t-16.5 69.5zM249 866q3 4 5.5 6t5.5 2q8 0 17 -8t9 -14q0 -3 -1 -6t-4 -7q-5 -7 -21.5 -29t-35.5 -45t-36 -41.5t-21 -18.5t-6 3t-2 9t10 24t24 40t29.5 45.5t26.5 39.5z" />
    <glyph glyph-name="Thorn" unicode="&#xde;" horiz-adv-x="409" 
d="M193 178q23 0 46 11.5t41 36t29.5 64t11.5 94.5q0 49 -8 80t-24 48.5t-42 23.5t-61 6q-15 0 -30.5 -1.5t-29.5 -2.5q0 -37 0.5 -81.5t0.5 -91.5t-0.5 -94.5t-1.5 -89.5q11 -1 28 -2t40 -1zM89 644q0 8 3.5 13.5t8.5 5.5q11 0 16.5 -8t6.5 -26q1 -10 1 -25.5t1 -34.5
q15 2 30.5 3t31.5 1q104 0 139 -45.5t35 -139.5q0 -122 -46 -182.5t-120 -61.5q-14 0 -36 3.5t-35 9.5q-1 -49 -1.5 -86t-1.5 -52q-1 -11 -3 -17t-9 -6q-8 0 -12.5 7t-5.5 26q-1 17 -2 71t-1.5 126t-0.5 153.5v153.5q-9 -1 -16.5 -2t-12.5 -1q-8 0 -12 4.5t-4 9.5t12.5 10
t32.5 9q1 22 1 42.5v38.5z" />
    <glyph glyph-name="germandbls" unicode="&#xdf;" horiz-adv-x="325" 
d="M140 24q31 0 53.5 28t22.5 71q0 34 -13 61t-33.5 48t-46.5 38t-52 32q-7 4 -8.5 9.5t-1.5 9.5q0 16 24 42t52 60.5t52 77t24 91.5q0 60 -26 90t-55 30q-40 0 -68.5 -42t-28.5 -126q0 -85 2 -171.5t2 -171.5v-61t-1 -76q14 -7 40 -23.5t62 -16.5zM-2 534q0 99 37.5 151.5
t88.5 52.5q30 0 53.5 -12.5t39.5 -34t24.5 -49.5t8.5 -59q0 -39 -16.5 -76t-41.5 -70t-54.5 -62t-54.5 -53q38 -21 69.5 -40t53 -40.5t33.5 -48.5t12 -65q0 -7 -0.5 -14t-1.5 -14q34 59 60.5 146t39.5 177q2 17 7 9.5t4 -18.5q-8 -68 -24.5 -142t-42 -135.5t-61.5 -102.5
t-83 -44h-2.5t-0.5 0h-2h-2q-32 0 -60 15t-44 31q-1 -51 -1.5 -95t-1.5 -57q0 -25 -3 -39t-11 -12q-7 1 -13 8.5t-7 27.5q-1 23 -1.5 103t-1 180t-0.5 205v177z" />
    <glyph glyph-name="agrave" unicode="&#xe0;" horiz-adv-x="326" 
d="M108 477q-33 0 -53.5 -84.5t-20.5 -274.5q0 -39 9 -66t30 -27t41 41.5t35.5 99.5t25 120t9.5 103q0 42 -21 65t-55 23zM235 -10q-25 0 -43 24t-17 68l4 137q-7 -45 -16.5 -86.5t-20.5 -73t-25.5 -50.5t-32.5 -19q-33 0 -61 37.5t-28 97.5q0 204 26.5 293.5t75.5 89.5
q31 0 53.5 -17t37.5 -43q3 26 5.5 37.5t10.5 11.5q10 0 16.5 -9t6.5 -22q0 -27 -2 -72.5t-4.5 -98.5t-4.5 -109t-2 -103q0 -33 8.5 -43.5t17.5 -10.5q17 0 33 35t29.5 91t25.5 126.5t22 141.5q2 17 7 9.5t4 -18.5q-8 -68 -19 -143.5t-26 -137.5t-35 -102.5t-46 -40.5z
M73 718q11 -16 26.5 -40t29.5 -47t24 -41.5t10 -24.5q0 -4 -2 -6t-6 -2q-5 0 -22.5 19.5t-37 44t-37 48t-22.5 30.5q-3 4 -4 7t-1 5q0 6 10.5 10.5t20.5 4.5q3 0 5.5 -2t5.5 -6z" />
    <glyph glyph-name="aacute" unicode="&#xe1;" horiz-adv-x="326" 
d="M108 477q-33 0 -53.5 -84.5t-20.5 -274.5q0 -39 9 -66t30 -27t41 41.5t35.5 99.5t25 120t9.5 103q0 42 -21 65t-55 23zM235 -10q-25 0 -43 24t-17 68l4 137q-7 -45 -16.5 -86.5t-20.5 -73t-25.5 -50.5t-32.5 -19q-33 0 -61 37.5t-28 97.5q0 204 26.5 293.5t75.5 89.5
q31 0 53.5 -17t37.5 -43q3 26 5.5 37.5t10.5 11.5q10 0 16.5 -9t6.5 -22q0 -27 -2 -72.5t-4.5 -98.5t-4.5 -109t-2 -103q0 -33 8.5 -43.5t17.5 -10.5q17 0 33 35t29.5 91t25.5 126.5t22 141.5q2 17 7 9.5t4 -18.5q-8 -68 -19 -143.5t-26 -137.5t-35 -102.5t-46 -40.5z
M179 718q3 4 5.5 6t5.5 2q8 0 17 -8t9 -14q0 -3 -1 -6t-4 -7q-5 -7 -21.5 -29t-35.5 -45t-36 -41.5t-21 -18.5t-6 3t-2 9t10 24t24 40t29.5 45.5t26.5 39.5z" />
    <glyph glyph-name="acircumflex" unicode="&#xe2;" horiz-adv-x="326" 
d="M108 477q-33 0 -53.5 -84.5t-20.5 -274.5q0 -39 9 -66t30 -27t41 41.5t35.5 99.5t25 120t9.5 103q0 42 -21 65t-55 23zM235 -10q-25 0 -43 24t-17 68l4 137q-7 -45 -16.5 -86.5t-20.5 -73t-25.5 -50.5t-32.5 -19q-33 0 -61 37.5t-28 97.5q0 204 26.5 293.5t75.5 89.5
q31 0 53.5 -17t37.5 -43q3 26 5.5 37.5t10.5 11.5q10 0 16.5 -9t6.5 -22q0 -27 -2 -72.5t-4.5 -98.5t-4.5 -109t-2 -103q0 -33 8.5 -43.5t17.5 -10.5q17 0 33 35t29.5 91t25.5 126.5t22 141.5q2 17 7 9.5t4 -18.5q-8 -68 -19 -143.5t-26 -137.5t-35 -102.5t-46 -40.5z
M218 559q-6 0 -17 11t-24 28t-26.5 38t-23.5 40q-24 -48 -53.5 -83.5t-35.5 -35.5q-3 0 -5.5 4t-2.5 9q0 9 28 51.5t56 96.5q1 4 5 6t5 2q4 0 9 -2.5t9 -8.5q12 -23 26.5 -46.5t27 -43.5t21 -35.5t8.5 -22.5q0 -2 -2 -5t-5 -3z" />
    <glyph glyph-name="atilde" unicode="&#xe3;" horiz-adv-x="326" 
d="M108 477q-33 0 -53.5 -84.5t-20.5 -274.5q0 -39 9 -66t30 -27t41 41.5t35.5 99.5t25 120t9.5 103q0 42 -21 65t-55 23zM235 -10q-25 0 -43 24t-17 68l4 137q-7 -45 -16.5 -86.5t-20.5 -73t-25.5 -50.5t-32.5 -19q-33 0 -61 37.5t-28 97.5q0 204 26.5 293.5t75.5 89.5
q31 0 53.5 -17t37.5 -43q3 26 5.5 37.5t10.5 11.5q10 0 16.5 -9t6.5 -22q0 -27 -2 -72.5t-4.5 -98.5t-4.5 -109t-2 -103q0 -33 8.5 -43.5t17.5 -10.5q17 0 33 35t29.5 91t25.5 126.5t22 141.5q2 17 7 9.5t4 -18.5q-8 -68 -19 -143.5t-26 -137.5t-35 -102.5t-46 -40.5z
M164 537q-25 0 -37 24.5t-19.5 54t-14.5 54t-22 24.5t-20.5 -24t-7.5 -53t-3 -53t-7 -24q-7 0 -12 12t-5 25q0 66 14.5 102.5t43.5 36.5q26 0 38.5 -24.5t19.5 -54t13.5 -54t20.5 -24.5q21 0 28 24t9.5 53t4.5 53t11 24q7 0 12.5 -10.5t5.5 -25.5q0 -68 -19.5 -104
t-53.5 -36z" />
    <glyph glyph-name="adieresis" unicode="&#xe4;" horiz-adv-x="326" 
d="M108 477q-33 0 -53.5 -84.5t-20.5 -274.5q0 -39 9 -66t30 -27t41 41.5t35.5 99.5t25 120t9.5 103q0 42 -21 65t-55 23zM174 585q-13 0 -20 8.5t-7 19.5q0 14 8.5 23t22.5 9t21 -8.5t7 -17.5q0 -16 -9.5 -25t-22.5 -9zM78 583q-15 0 -22.5 8.5t-7.5 20.5q0 15 9 24.5
t24 9.5t21 -9.5t6 -19.5q0 -16 -8.5 -25t-21.5 -9zM235 -10q-25 0 -43 24t-17 68l4 137q-7 -45 -16.5 -86.5t-20.5 -73t-25.5 -50.5t-32.5 -19q-33 0 -61 37.5t-28 97.5q0 204 26.5 293.5t75.5 89.5q31 0 53.5 -17t37.5 -43q3 26 5.5 37.5t10.5 11.5q10 0 16.5 -9t6.5 -22
q0 -27 -2 -72.5t-4.5 -98.5t-4.5 -109t-2 -103q0 -33 8.5 -43.5t17.5 -10.5q17 0 33 35t29.5 91t25.5 126.5t22 141.5q2 17 7 9.5t4 -18.5q-8 -68 -19 -143.5t-26 -137.5t-35 -102.5t-46 -40.5z" />
    <glyph glyph-name="aring" unicode="&#xe5;" horiz-adv-x="326" 
d="M108 477q-33 0 -53.5 -84.5t-20.5 -274.5q0 -39 9 -66t30 -27t41 41.5t35.5 99.5t25 120t9.5 103q0 42 -21 65t-55 23zM128 590q20 0 33 14.5t13 39.5q0 14 -10 29t-32 15q-24 0 -38 -15t-14 -37q0 -18 12 -32t36 -14zM129 563q-39 0 -58.5 21t-19.5 49q0 36 23 59.5
t62 23.5q37 0 52 -23t15 -45q0 -40 -20.5 -62.5t-53.5 -22.5zM235 -10q-25 0 -43 24t-17 68l4 137q-7 -45 -16.5 -86.5t-20.5 -73t-25.5 -50.5t-32.5 -19q-33 0 -61 37.5t-28 97.5q0 204 26.5 293.5t75.5 89.5q31 0 53.5 -17t37.5 -43q3 26 5.5 37.5t10.5 11.5q10 0 16.5 -9
t6.5 -22q0 -27 -2 -72.5t-4.5 -98.5t-4.5 -109t-2 -103q0 -33 8.5 -43.5t17.5 -10.5q17 0 33 35t29.5 91t25.5 126.5t22 141.5q2 17 7 9.5t4 -18.5q-8 -68 -19 -143.5t-26 -137.5t-35 -102.5t-46 -40.5z" />
    <glyph glyph-name="ae" unicode="&#xe6;" horiz-adv-x="454" 
d="M108 477q-33 0 -53.5 -84.5t-20.5 -274.5q0 -39 9 -66t30 -27t41 41.5t35.5 99.5t25 120t9.5 103q0 42 -21 65t-55 23zM301 484q-31 0 -51.5 -50t-27.5 -173q38 13 62 34t37 44t18 46t5 41q0 28 -11 43t-32 15zM178 131q0 31 1 54t2 43q-8 -46 -17 -89t-21 -76t-26.5 -53
t-32.5 -20q-33 0 -61 37.5t-28 97.5q0 204 26.5 293.5t75.5 89.5q31 0 54 -17.5t38 -45.5q2 28 4.5 40t10.5 12q10 0 16.5 -9t6.5 -22q0 -10 -0.5 -25t-1.5 -33q10 51 25.5 76.5t40.5 25.5q35 0 60.5 -27t25.5 -73q0 -61 -40 -101.5t-116 -65.5q-1 -23 -1.5 -49t-0.5 -55
q0 -57 19 -85.5t47 -28.5q30 0 60.5 35t56.5 90.5t46 127.5t30 145q1 4 2 7.5t2 3.5q3 0 5 -4.5t2 -10.5q0 -12 -12.5 -80.5t-37 -145.5t-61.5 -139.5t-86 -62.5q-60 0 -87 41.5t-27 98.5z" />
    <glyph glyph-name="ccedilla" unicode="&#xe7;" horiz-adv-x="281" 
d="M112 25q30 0 60.5 35t56.5 90.5t46 127.5t30 145q1 4 2 7.5t2 3.5q3 0 5 -4.5t2 -10.5q0 -12 -12.5 -80.5t-37 -145.5t-61.5 -139.5t-86 -62.5q-7 0 -13 0.5t-12 1.5q-1 -3 -3.5 -6t-3.5 -6q42 -20 66 -31.5t24 -37.5q0 -24 -18 -42t-53 -18q-37 0 -56 9.5t-19 15.5
q0 3 2.5 6.5t5.5 3.5q8 0 27 -5t38 -5t30.5 9t11.5 21q0 17 -14.5 27t-56.5 29q-6 3 -9 6.5t-3 8.5q0 4 2 8t7 11q-42 13 -59.5 54t-17.5 110q0 182 27.5 265.5t84.5 83.5q43 0 65 -43.5t22 -159.5q0 -13 -9 -22.5t-16 -9.5q-5 0 -8.5 3.5t-3.5 11.5q0 56 -2 93t-7.5 58
t-14.5 29t-24 8q-37 0 -55.5 -70t-18.5 -245q0 -77 23 -107.5t54 -30.5z" />
    <glyph glyph-name="egrave" unicode="&#xe8;" horiz-adv-x="271" 
d="M118 484q-31 0 -51.5 -50t-27.5 -173q38 13 62 34t37 44t18 46t5 41q0 28 -11 43t-32 15zM102 25q30 0 60.5 35t56.5 90.5t46 127.5t30 145q1 4 2 7.5t2 3.5q3 0 5 -4.5t2 -10.5q0 -12 -12.5 -80.5t-37 -145.5t-61.5 -139.5t-86 -62.5q-60 0 -87 41.5t-27 98.5
q0 195 26.5 287t86.5 92q35 0 60.5 -27t25.5 -73q0 -61 -40 -101.5t-116 -65.5q-1 -23 -1.5 -49t-0.5 -55q0 -57 19 -85.5t47 -28.5zM57 718q11 -16 26.5 -40t29.5 -47t24 -41.5t10 -24.5q0 -4 -2 -6t-6 -2q-5 0 -22.5 19.5t-37 44t-37 48t-22.5 30.5q-3 4 -4 7t-1 5
q0 6 10.5 10.5t20.5 4.5q3 0 5.5 -2t5.5 -6z" />
    <glyph glyph-name="eacute" unicode="&#xe9;" horiz-adv-x="271" 
d="M118 484q-31 0 -51.5 -50t-27.5 -173q38 13 62 34t37 44t18 46t5 41q0 28 -11 43t-32 15zM102 25q30 0 60.5 35t56.5 90.5t46 127.5t30 145q1 4 2 7.5t2 3.5q3 0 5 -4.5t2 -10.5q0 -12 -12.5 -80.5t-37 -145.5t-61.5 -139.5t-86 -62.5q-60 0 -87 41.5t-27 98.5
q0 195 26.5 287t86.5 92q35 0 60.5 -27t25.5 -73q0 -61 -40 -101.5t-116 -65.5q-1 -23 -1.5 -49t-0.5 -55q0 -57 19 -85.5t47 -28.5zM163 718q3 4 5.5 6t5.5 2q8 0 17 -8t9 -14q0 -3 -1 -6t-4 -7q-5 -7 -21.5 -29t-35.5 -45t-36 -41.5t-21 -18.5t-6 3t-2 9t10 24t24 40
t29.5 45.5t26.5 39.5z" />
    <glyph glyph-name="ecircumflex" unicode="&#xea;" horiz-adv-x="271" 
d="M118 484q-31 0 -51.5 -50t-27.5 -173q38 13 62 34t37 44t18 46t5 41q0 28 -11 43t-32 15zM102 25q30 0 60.5 35t56.5 90.5t46 127.5t30 145q1 4 2 7.5t2 3.5q3 0 5 -4.5t2 -10.5q0 -12 -12.5 -80.5t-37 -145.5t-61.5 -139.5t-86 -62.5q-60 0 -87 41.5t-27 98.5
q0 195 26.5 287t86.5 92q35 0 60.5 -27t25.5 -73q0 -61 -40 -101.5t-116 -65.5q-1 -23 -1.5 -49t-0.5 -55q0 -57 19 -85.5t47 -28.5zM201 559q-6 0 -17 11t-24 28t-26.5 38t-23.5 40q-24 -48 -53.5 -83.5t-35.5 -35.5q-3 0 -5.5 4t-2.5 9q0 9 28 51.5t56 96.5q1 4 5 6t5 2
q4 0 9 -2.5t9 -8.5q12 -23 26.5 -46.5t27 -43.5t21 -35.5t8.5 -22.5q0 -2 -2 -5t-5 -3z" />
    <glyph glyph-name="edieresis" unicode="&#xeb;" horiz-adv-x="271" 
d="M118 484q-31 0 -51.5 -50t-27.5 -173q38 13 62 34t37 44t18 46t5 41q0 28 -11 43t-32 15zM102 25q30 0 60.5 35t56.5 90.5t46 127.5t30 145q1 4 2 7.5t2 3.5q3 0 5 -4.5t2 -10.5q0 -12 -12.5 -80.5t-37 -145.5t-61.5 -139.5t-86 -62.5q-60 0 -87 41.5t-27 98.5
q0 195 26.5 287t86.5 92q35 0 60.5 -27t25.5 -73q0 -61 -40 -101.5t-116 -65.5q-1 -23 -1.5 -49t-0.5 -55q0 -57 19 -85.5t47 -28.5zM158 585q-13 0 -20 8.5t-7 19.5q0 14 8.5 23t22.5 9t21 -8.5t7 -17.5q0 -16 -9.5 -25t-22.5 -9zM62 583q-15 0 -22.5 8.5t-7.5 20.5
q0 15 9 24.5t24 9.5t21 -9.5t6 -19.5q0 -16 -8.5 -25t-21.5 -9z" />
    <glyph glyph-name="igrave" unicode="&#xec;" horiz-adv-x="141" 
d="M65 29q16 0 30 35t26 91t23 126.5t21 141.5q1 5 2 8t2 3q4 0 6 -6t1 -14q-8 -68 -18 -143.5t-24 -137.5t-32 -102.5t-42 -40.5q-26 0 -43.5 27t-17.5 78q0 19 1.5 75.5t3.5 119.5t5.5 119.5t6.5 76.5q1 8 3.5 12t6.5 5q4 0 9.5 -5t5.5 -18q0 -90 -0.5 -154t-0.5 -108
t-0.5 -72t-0.5 -46q0 -43 8.5 -57t17.5 -14zM-4 718q11 -16 26.5 -40t29.5 -47t24 -41.5t10 -24.5q0 -4 -2 -6t-6 -2q-5 0 -22.5 19.5t-37 44t-37 48t-22.5 30.5q-3 4 -4 7t-1 5q0 6 10.5 10.5t20.5 4.5q3 0 5.5 -2t5.5 -6z" />
    <glyph glyph-name="iacute" unicode="&#xed;" horiz-adv-x="141" 
d="M65 29q16 0 30 35t26 91t23 126.5t21 141.5q1 5 2 8t2 3q4 0 6 -6t1 -14q-8 -68 -18 -143.5t-24 -137.5t-32 -102.5t-42 -40.5q-26 0 -43.5 27t-17.5 78q0 19 1.5 75.5t3.5 119.5t5.5 119.5t6.5 76.5q1 8 3.5 12t6.5 5q4 0 9.5 -5t5.5 -18q0 -90 -0.5 -154t-0.5 -108
t-0.5 -72t-0.5 -46q0 -43 8.5 -57t17.5 -14zM102 718q3 4 5.5 6t5.5 2q8 0 17 -8t9 -14q0 -3 -1 -6t-4 -7q-5 -7 -21.5 -29t-35.5 -45t-36 -41.5t-21 -18.5t-6 3t-2 9t10 24t24 40t29.5 45.5t26.5 39.5z" />
    <glyph glyph-name="icircumflex" unicode="&#xee;" horiz-adv-x="141" 
d="M65 29q16 0 30 35t26 91t23 126.5t21 141.5q1 5 2 8t2 3q4 0 6 -6t1 -14q-8 -68 -18 -143.5t-24 -137.5t-32 -102.5t-42 -40.5q-26 0 -43.5 27t-17.5 78q0 19 1.5 75.5t3.5 119.5t5.5 119.5t6.5 76.5q1 8 3.5 12t6.5 5q4 0 9.5 -5t5.5 -18q0 -90 -0.5 -154t-0.5 -108
t-0.5 -72t-0.5 -46q0 -43 8.5 -57t17.5 -14zM131 559q-6 0 -17 11t-24 28t-26.5 38t-23.5 40q-24 -48 -53.5 -83.5t-35.5 -35.5q-3 0 -5.5 4t-2.5 9q0 9 28 51.5t56 96.5q1 4 5 6t5 2q4 0 9 -2.5t9 -8.5q12 -23 26.5 -46.5t27 -43.5t21 -35.5t8.5 -22.5q0 -2 -2 -5t-5 -3z
" />
    <glyph glyph-name="idieresis" unicode="&#xef;" horiz-adv-x="141" 
d="M65 29q16 0 30 35t26 91t23 126.5t21 141.5q1 5 2 8t2 3q4 0 6 -6t1 -14q-8 -68 -18 -143.5t-24 -137.5t-32 -102.5t-42 -40.5q-26 0 -43.5 27t-17.5 78q0 19 1.5 75.5t3.5 119.5t5.5 119.5t6.5 76.5q1 8 3.5 12t6.5 5q4 0 9.5 -5t5.5 -18q0 -90 -0.5 -154t-0.5 -108
t-0.5 -72t-0.5 -46q0 -43 8.5 -57t17.5 -14zM87 585q-13 0 -20 8.5t-7 19.5q0 14 8.5 23t22.5 9t21 -8.5t7 -17.5q0 -16 -9.5 -25t-22.5 -9zM-9 583q-15 0 -22.5 8.5t-7.5 20.5q0 15 9 24.5t24 9.5t21 -9.5t6 -19.5q0 -16 -8.5 -25t-21.5 -9z" />
    <glyph glyph-name="eth" unicode="&#xf0;" horiz-adv-x="277" 
d="M179 367q0 52 -19.5 82t-51.5 30q-34 0 -55 -68.5t-21 -205.5q0 -91 16 -133.5t47 -42.5q34 0 59 77t25 261zM107 -9q-54 0 -82.5 63.5t-28.5 175.5q0 57 6 108t18.5 89t32 60.5t45.5 22.5q27 0 42.5 -11t27.5 -23q-11 36 -24.5 65.5t-27.5 52.5q-28 -19 -53.5 -33.5
t-38.5 -14.5q-2 0 -4 2.5t-2 4.5q0 8 23 23.5t60 41.5q-41 58 -75.5 81.5t-34.5 33.5q0 2 1.5 3.5t5.5 1.5q28 0 64 -24.5t69 -72.5q16 13 33.5 28.5t35.5 33.5q2 2 6 5t8 3t10 -6t6 -10q0 -5 -2.5 -8.5t-8.5 -9.5q-8 -9 -27.5 -25.5t-44.5 -35.5q28 -49 47.5 -118
t19.5 -156q0 -80 -8.5 -145.5t-22.5 -111t-34 -70t-42 -24.5z" />
    <glyph glyph-name="ntilde" unicode="&#xf1;" horiz-adv-x="330" 
d="M244 29q17 0 33 35t29.5 91t25.5 126.5t22 141.5q1 4 2 7.5t2 3.5q3 0 5 -4.5t2 -10.5q0 -12 -8 -80.5t-23.5 -146t-39.5 -140t-55 -62.5q-26 0 -43.5 27t-17.5 78q0 90 11.5 180.5t11.5 162.5q0 17 -4 26t-14 9q-24 0 -47.5 -48t-42.5 -118t-32.5 -151t-18.5 -146
q-1 -6 -6 -9.5t-11 -3.5q-10 0 -17.5 9t-8.5 30q0 19 0.5 81.5t2 133t4.5 133.5t6 83q1 8 3.5 12t6.5 5q4 0 9.5 -5t5.5 -18q0 -110 -2 -200.5t-3 -146.5q10 75 24 146t33 126t44.5 88.5t58.5 33.5q27 0 37.5 -22t10.5 -58q0 -31 -3.5 -71.5t-7.5 -84t-7.5 -88.5t-3.5 -84
q0 -43 8.5 -57t17.5 -14zM160 537q-25 0 -37 24.5t-19.5 54t-14.5 54t-22 24.5t-20.5 -24t-7.5 -53t-3 -53t-7 -24q-7 0 -12 12t-5 25q0 66 14.5 102.5t43.5 36.5q26 0 38.5 -24.5t19.5 -54t13.5 -54t20.5 -24.5q21 0 28 24t9.5 53t4.5 53t11 24q7 0 12.5 -10.5t5.5 -25.5
q0 -68 -19.5 -104t-53.5 -36z" />
    <glyph glyph-name="ograve" unicode="&#xf2;" horiz-adv-x="289" 
d="M102 20q31 0 48.5 42t24.5 117q-6 4 -8.5 9t-2.5 11q0 7 3 14t10 11q1 17 1.5 36t0.5 39q0 108 -17.5 146t-48.5 38q-24 0 -39.5 -22t-24.5 -60.5t-12.5 -92.5t-3.5 -117q0 -75 17 -123t52 -48zM106 -9q-63 0 -86.5 59t-23.5 160q0 61 5.5 115.5t19 95.5t36 65t56.5 24
q51 0 76 -52.5t25 -183.5q0 -19 -0.5 -37.5t-1.5 -35.5q23 6 40 27t29.5 51t20 67.5t11.5 76.5q1 4 1.5 6.5t1.5 2.5q4 0 6.5 -4.5t1.5 -12.5q-3 -33 -10 -73.5t-20.5 -76t-34 -61.5t-49.5 -30q-8 -88 -34 -135.5t-70 -47.5zM52 718q11 -16 26.5 -40t29.5 -47t24 -41.5
t10 -24.5q0 -4 -2 -6t-6 -2q-5 0 -22.5 19.5t-37 44t-37 48t-22.5 30.5q-3 4 -4 7t-1 5q0 6 10.5 10.5t20.5 4.5q3 0 5.5 -2t5.5 -6z" />
    <glyph glyph-name="oacute" unicode="&#xf3;" horiz-adv-x="289" 
d="M102 20q31 0 48.5 42t24.5 117q-6 4 -8.5 9t-2.5 11q0 7 3 14t10 11q1 17 1.5 36t0.5 39q0 108 -17.5 146t-48.5 38q-24 0 -39.5 -22t-24.5 -60.5t-12.5 -92.5t-3.5 -117q0 -75 17 -123t52 -48zM106 -9q-63 0 -86.5 59t-23.5 160q0 61 5.5 115.5t19 95.5t36 65t56.5 24
q51 0 76 -52.5t25 -183.5q0 -19 -0.5 -37.5t-1.5 -35.5q23 6 40 27t29.5 51t20 67.5t11.5 76.5q1 4 1.5 6.5t1.5 2.5q4 0 6.5 -4.5t1.5 -12.5q-3 -33 -10 -73.5t-20.5 -76t-34 -61.5t-49.5 -30q-8 -88 -34 -135.5t-70 -47.5zM158 718q3 4 5.5 6t5.5 2q8 0 17 -8t9 -14
q0 -3 -1 -6t-4 -7q-5 -7 -21.5 -29t-35.5 -45t-36 -41.5t-21 -18.5t-6 3t-2 9t10 24t24 40t29.5 45.5t26.5 39.5z" />
    <glyph glyph-name="ocircumflex" unicode="&#xf4;" horiz-adv-x="289" 
d="M102 20q31 0 48.5 42t24.5 117q-6 4 -8.5 9t-2.5 11q0 7 3 14t10 11q1 17 1.5 36t0.5 39q0 108 -17.5 146t-48.5 38q-24 0 -39.5 -22t-24.5 -60.5t-12.5 -92.5t-3.5 -117q0 -75 17 -123t52 -48zM106 -9q-63 0 -86.5 59t-23.5 160q0 61 5.5 115.5t19 95.5t36 65t56.5 24
q51 0 76 -52.5t25 -183.5q0 -19 -0.5 -37.5t-1.5 -35.5q23 6 40 27t29.5 51t20 67.5t11.5 76.5q1 4 1.5 6.5t1.5 2.5q4 0 6.5 -4.5t1.5 -12.5q-3 -33 -10 -73.5t-20.5 -76t-34 -61.5t-49.5 -30q-8 -88 -34 -135.5t-70 -47.5zM196 559q-6 0 -17 11t-24 28t-26.5 38t-23.5 40
q-24 -48 -53.5 -83.5t-35.5 -35.5q-3 0 -5.5 4t-2.5 9q0 9 28 51.5t56 96.5q1 4 5 6t5 2q4 0 9 -2.5t9 -8.5q12 -23 26.5 -46.5t27 -43.5t21 -35.5t8.5 -22.5q0 -2 -2 -5t-5 -3z" />
    <glyph glyph-name="otilde" unicode="&#xf5;" horiz-adv-x="289" 
d="M102 20q31 0 48.5 42t24.5 117q-6 4 -8.5 9t-2.5 11q0 7 3 14t10 11q1 17 1.5 36t0.5 39q0 108 -17.5 146t-48.5 38q-24 0 -39.5 -22t-24.5 -60.5t-12.5 -92.5t-3.5 -117q0 -75 17 -123t52 -48zM106 -9q-63 0 -86.5 59t-23.5 160q0 61 5.5 115.5t19 95.5t36 65t56.5 24
q51 0 76 -52.5t25 -183.5q0 -19 -0.5 -37.5t-1.5 -35.5q23 6 40 27t29.5 51t20 67.5t11.5 76.5q1 4 1.5 6.5t1.5 2.5q4 0 6.5 -4.5t1.5 -12.5q-3 -33 -10 -73.5t-20.5 -76t-34 -61.5t-49.5 -30q-8 -88 -34 -135.5t-70 -47.5zM143 537q-25 0 -37 24.5t-19.5 54t-14.5 54
t-22 24.5t-20.5 -24t-7.5 -53t-3 -53t-7 -24q-7 0 -12 12t-5 25q0 66 14.5 102.5t43.5 36.5q26 0 38.5 -24.5t19.5 -54t13.5 -54t20.5 -24.5q21 0 28 24t9.5 53t4.5 53t11 24q7 0 12.5 -10.5t5.5 -25.5q0 -68 -19.5 -104t-53.5 -36z" />
    <glyph glyph-name="odieresis" unicode="&#xf6;" horiz-adv-x="289" 
d="M102 20q31 0 48.5 42t24.5 117q-6 4 -8.5 9t-2.5 11q0 7 3 14t10 11q1 17 1.5 36t0.5 39q0 108 -17.5 146t-48.5 38q-24 0 -39.5 -22t-24.5 -60.5t-12.5 -92.5t-3.5 -117q0 -75 17 -123t52 -48zM153 585q-13 0 -20 8.5t-7 19.5q0 14 8.5 23t22.5 9t21 -8.5t7 -17.5
q0 -16 -9.5 -25t-22.5 -9zM57 583q-15 0 -22.5 8.5t-7.5 20.5q0 15 9 24.5t24 9.5t21 -9.5t6 -19.5q0 -16 -8.5 -25t-21.5 -9zM106 -9q-63 0 -86.5 59t-23.5 160q0 61 5.5 115.5t19 95.5t36 65t56.5 24q51 0 76 -52.5t25 -183.5q0 -19 -0.5 -37.5t-1.5 -35.5q23 6 40 27
t29.5 51t20 67.5t11.5 76.5q1 4 1.5 6.5t1.5 2.5q4 0 6.5 -4.5t1.5 -12.5q-3 -33 -10 -73.5t-20.5 -76t-34 -61.5t-49.5 -30q-8 -88 -34 -135.5t-70 -47.5z" />
    <glyph glyph-name="divide" unicode="&#xf7;" horiz-adv-x="366" 
d="M185 173q-18 0 -27 10t-9 23q0 16 11 27t28 11q19 0 26.5 -10.5t7.5 -20.5q0 -19 -10.5 -29.5t-26.5 -10.5zM185 411q-17 0 -26 9.5t-9 22.5q0 16 10.5 26.5t27.5 10.5q19 0 26.5 -10.5t7.5 -20.5q0 -18 -10.5 -28t-26.5 -10zM66 308q-13 0 -19.5 10.5t-6.5 14.5q0 1 3 4
t16 4q28 1 90.5 2.5t147.5 1.5q10 0 19.5 -8.5t9.5 -15.5q0 -3 -4 -5.5t-20 -3.5q-19 -1 -48.5 -1.5t-61.5 -1t-65.5 -1t-60.5 -0.5z" />
    <glyph glyph-name="oslash" unicode="&#xf8;" horiz-adv-x="289" 
d="M200 509q3 7 6 9t5 2q6 0 10 -6.5t4 -13.5t-8 -23l-20 -40q9 -28 13 -68.5t4 -94.5q0 -19 -0.5 -37.5t-1.5 -35.5q23 6 40 27t29.5 51t20 67.5t11.5 76.5q1 4 1.5 6.5t1.5 2.5q4 0 6.5 -4.5t1.5 -12.5q-3 -33 -10 -73.5t-20.5 -76t-34 -61.5t-49.5 -30q-8 -88 -34 -135.5
t-70 -47.5q-28 0 -48 12t-33 35q-2 -6 -4 -10.5t-3 -8.5q-9 -22 -14 -32t-9 -10q-3 0 -4.5 2.5t-1.5 6.5q0 6 6.5 26.5t18.5 51.5q-10 27 -14 64t-4 82q0 61 5.5 115.5t19 95.5t36 65t56.5 24q22 0 39.5 -9t30.5 -30q4 11 8.5 21t8.5 17zM33 191q0 -18 1 -35t3 -32l3 8
q12 29 25.5 62t27.5 66.5t28 66t27 60.5q5 11 10 23t9 22q-9 28 -23 39.5t-31 11.5q-24 0 -39.5 -22t-24.5 -60.5t-12.5 -92.5t-3.5 -117zM102 20q31 0 49 41.5t25 116.5q-7 4 -9.5 9.5t-2.5 11.5q0 7 3.5 14.5t11.5 11.5q1 17 1.5 36t0.5 38q0 28 -1.5 51.5t-3.5 42.5
q-2 -4 -4.5 -9.5t-4.5 -9.5q-15 -33 -31 -70.5t-31 -74t-29.5 -71t-26.5 -61.5q-1 -3 -2.5 -6l-2.5 -5q8 -31 22.5 -48.5t35.5 -17.5z" />
    <glyph glyph-name="ugrave" unicode="&#xf9;" horiz-adv-x="342" 
d="M250 -10q-25 0 -43 24t-17 68l6 178q-7 -50 -16 -98.5t-20 -86.5t-26 -61.5t-35 -23.5q-33 0 -61 37.5t-28 97.5q0 47 1 95t3 94t5 87.5t7 74.5q1 14 4 20t8 6t12.5 -8t7.5 -25t-1.5 -58t-3 -91t-3 -104t-1.5 -98q0 -39 9 -66t30 -27t40 44t34 107t25 133.5t14 122.5
q2 35 4.5 50t12.5 15t15.5 -9t5.5 -22q0 -27 -1.5 -72.5t-3.5 -98.5t-3.5 -109t-1.5 -103q0 -33 8.5 -43.5t17.5 -10.5q17 0 33 35t30 91t26 126.5t22 141.5q2 17 7 9.5t4 -18.5q-8 -68 -19 -143.5t-26 -137.5t-35.5 -102.5t-46.5 -40.5zM76 718q11 -16 26.5 -40t29.5 -47
t24 -41.5t10 -24.5q0 -4 -2 -6t-6 -2q-5 0 -22.5 19.5t-37 44t-37 48t-22.5 30.5q-3 4 -4 7t-1 5q0 6 10.5 10.5t20.5 4.5q3 0 5.5 -2t5.5 -6z" />
    <glyph glyph-name="uacute" unicode="&#xfa;" horiz-adv-x="342" 
d="M250 -10q-25 0 -43 24t-17 68l6 178q-7 -50 -16 -98.5t-20 -86.5t-26 -61.5t-35 -23.5q-33 0 -61 37.5t-28 97.5q0 47 1 95t3 94t5 87.5t7 74.5q1 14 4 20t8 6t12.5 -8t7.5 -25t-1.5 -58t-3 -91t-3 -104t-1.5 -98q0 -39 9 -66t30 -27t40 44t34 107t25 133.5t14 122.5
q2 35 4.5 50t12.5 15t15.5 -9t5.5 -22q0 -27 -1.5 -72.5t-3.5 -98.5t-3.5 -109t-1.5 -103q0 -33 8.5 -43.5t17.5 -10.5q17 0 33 35t30 91t26 126.5t22 141.5q2 17 7 9.5t4 -18.5q-8 -68 -19 -143.5t-26 -137.5t-35.5 -102.5t-46.5 -40.5zM182 718q3 4 5.5 6t5.5 2q8 0 17 -8
t9 -14q0 -3 -1 -6t-4 -7q-5 -7 -21.5 -29t-35.5 -45t-36 -41.5t-21 -18.5t-6 3t-2 9t10 24t24 40t29.5 45.5t26.5 39.5z" />
    <glyph glyph-name="ucircumflex" unicode="&#xfb;" horiz-adv-x="342" 
d="M250 -10q-25 0 -43 24t-17 68l6 178q-7 -50 -16 -98.5t-20 -86.5t-26 -61.5t-35 -23.5q-33 0 -61 37.5t-28 97.5q0 47 1 95t3 94t5 87.5t7 74.5q1 14 4 20t8 6t12.5 -8t7.5 -25t-1.5 -58t-3 -91t-3 -104t-1.5 -98q0 -39 9 -66t30 -27t40 44t34 107t25 133.5t14 122.5
q2 35 4.5 50t12.5 15t15.5 -9t5.5 -22q0 -27 -1.5 -72.5t-3.5 -98.5t-3.5 -109t-1.5 -103q0 -33 8.5 -43.5t17.5 -10.5q17 0 33 35t30 91t26 126.5t22 141.5q2 17 7 9.5t4 -18.5q-8 -68 -19 -143.5t-26 -137.5t-35.5 -102.5t-46.5 -40.5zM221 559q-6 0 -17 11t-24 28
t-26.5 38t-23.5 40q-24 -48 -53.5 -83.5t-35.5 -35.5q-3 0 -5.5 4t-2.5 9q0 9 28 51.5t56 96.5q1 4 5 6t5 2q4 0 9 -2.5t9 -8.5q12 -23 26.5 -46.5t27 -43.5t21 -35.5t8.5 -22.5q0 -2 -2 -5t-5 -3z" />
    <glyph glyph-name="udieresis" unicode="&#xfc;" horiz-adv-x="342" 
d="M177 585q-13 0 -20 8.5t-7 19.5q0 14 8.5 23t22.5 9t21 -8.5t7 -17.5q0 -16 -9.5 -25t-22.5 -9zM81 583q-15 0 -22.5 8.5t-7.5 20.5q0 15 9 24.5t24 9.5t21 -9.5t6 -19.5q0 -16 -8.5 -25t-21.5 -9zM250 -10q-25 0 -43 24t-17 68l6 178q-7 -50 -16 -98.5t-20 -86.5
t-26 -61.5t-35 -23.5q-33 0 -61 37.5t-28 97.5q0 47 1 95t3 94t5 87.5t7 74.5q1 14 4 20t8 6t12.5 -8t7.5 -25t-1.5 -58t-3 -91t-3 -104t-1.5 -98q0 -39 9 -66t30 -27t40 44t34 107t25 133.5t14 122.5q2 35 4.5 50t12.5 15t15.5 -9t5.5 -22q0 -27 -1.5 -72.5t-3.5 -98.5
t-3.5 -109t-1.5 -103q0 -33 8.5 -43.5t17.5 -10.5q17 0 33 35t30 91t26 126.5t22 141.5q2 17 7 9.5t4 -18.5q-8 -68 -19 -143.5t-26 -137.5t-35.5 -102.5t-46.5 -40.5z" />
    <glyph glyph-name="yacute" unicode="&#xfd;" horiz-adv-x="327" 
d="M114 -167q-35 0 -62 16.5t-27 49.5q0 21 14 39t37 36.5t53 39t61 46.5v41v57t0.5 65.5t0.5 67.5q-7 -44 -16 -88t-21 -78.5t-27.5 -56t-36.5 -21.5q-33 0 -61 37.5t-28 97.5q0 78 4.5 158t11.5 136q1 14 4 20t8 6t12.5 -8t7.5 -25q0 -15 -1.5 -49t-3 -76t-3 -87t-1.5 -82
q0 -39 9 -66t30 -27t40.5 38t34 92t25 114.5t13.5 105.5q2 35 4.5 50t12.5 15t15.5 -9t5.5 -22q0 -27 -1 -72.5t-1.5 -98t-1.5 -107.5t-1 -101q46 67 78 142t48 194q1 4 2 7.5t2 3.5q3 0 5 -4.5t2 -10.5q0 -25 -9 -71t-26.5 -97.5t-43.5 -103t-58 -88.5q-1 -101 -24 -163.5
t-87 -62.5zM177 718q3 4 5.5 6t5.5 2q8 0 17 -8t9 -14q0 -3 -1 -6t-4 -7q-5 -7 -21.5 -29t-35.5 -45t-36 -41.5t-21 -18.5t-6 3t-2 9t10 24t24 40t29.5 45.5t26.5 39.5zM117 -136q37 0 54.5 49.5t18.5 122.5q-60 -46 -96 -77.5t-36 -56.5q0 -15 13 -26.5t46 -11.5z" />
    <glyph glyph-name="thorn" unicode="&#xfe;" horiz-adv-x="310" 
d="M117 21q33 0 53.5 84.5t20.5 274.5q0 42 -12 67.5t-32 25.5q-19 0 -38 -40t-33.5 -96t-24 -117.5t-10.5 -103.5v-4.5v-4.5q1 -41 21.5 -63.5t54.5 -22.5zM46 -115q0 -28 -4 -37.5t-11 -9.5q-11 0 -18 12t-8 38q0 7 -0.5 27t-0.5 49.5v66.5v77q0 72 1.5 150t4 153.5
t5 147.5t4.5 132q1 28 4.5 36.5t7.5 8.5q5 0 13 -12t8 -36q0 -29 -1 -73.5t-2.5 -99.5t-3 -119t-2.5 -133q8 47 17.5 91t22 78t28.5 55t37 21q31 0 56.5 -37.5t25.5 -97.5q0 -120 -9.5 -200.5t-27.5 -123.5q25 25 47.5 65t40.5 89.5t31.5 106t21.5 113.5q1 5 2 8t2 3
q4 0 6 -6t1 -14q-7 -66 -23 -138.5t-41 -133t-60.5 -102.5t-81.5 -49q-2 -1 -5 -1h-6h-2h-3q-26 1 -46.5 15t-34.5 36q2 -49 3 -84t1 -72z" />
    <glyph glyph-name="ydieresis" unicode="&#xff;" horiz-adv-x="327" 
d="M114 -167q-35 0 -62 16.5t-27 49.5q0 21 14 39t37 36.5t53 39t61 46.5v41v57t0.5 65.5t0.5 67.5q-7 -44 -16 -88t-21 -78.5t-27.5 -56t-36.5 -21.5q-33 0 -61 37.5t-28 97.5q0 78 4.5 158t11.5 136q1 14 4 20t8 6t12.5 -8t7.5 -25q0 -15 -1.5 -49t-3 -76t-3 -87t-1.5 -82
q0 -39 9 -66t30 -27t40.5 38t34 92t25 114.5t13.5 105.5q2 35 4.5 50t12.5 15t15.5 -9t5.5 -22q0 -27 -1 -72.5t-1.5 -98t-1.5 -107.5t-1 -101q46 67 78 142t48 194q1 4 2 7.5t2 3.5q3 0 5 -4.5t2 -10.5q0 -25 -9 -71t-26.5 -97.5t-43.5 -103t-58 -88.5q-1 -101 -24 -163.5
t-87 -62.5zM172 585q-13 0 -20 8.5t-7 19.5q0 14 8.5 23t22.5 9t21 -8.5t7 -17.5q0 -16 -9.5 -25t-22.5 -9zM76 583q-15 0 -22.5 8.5t-7.5 20.5q0 15 9 24.5t24 9.5t21 -9.5t6 -19.5q0 -16 -8.5 -25t-21.5 -9zM117 -136q37 0 54.5 49.5t18.5 122.5q-60 -46 -96 -77.5
t-36 -56.5q0 -15 13 -26.5t46 -11.5z" />
    <glyph glyph-name="Amacron" unicode="&#x100;" 
d="M226 626q13 -47 36.5 -143t46.5 -195t39.5 -180.5t16.5 -98.5q0 -9 -2 -14.5t-8 -5.5q-9 0 -15 6.5t-10 22.5q-5 16 -15.5 60t-23.5 104q-15 -1 -38.5 -3t-49.5 -4t-53 -3.5t-50 -2.5q-9 -46 -16.5 -84.5t-12.5 -63.5q-4 -17 -7 -24.5t-9 -7.5t-14 9t-8 22q0 15 7 54.5
t18 93.5h-4.5h-4.5q-14 1 -24 6t-10 12q0 4 3.5 7.5t10.5 4.5t16.5 1.5t19.5 1.5q12 54 26.5 116t29 120.5t28.5 110.5t24 87q6 21 10 28t9 7q13 0 20 -9.5t14 -34.5zM116 746q-11 0 -15.5 11t-4.5 13q0 3 2 5t9 3q11 2 30.5 4t41.5 3.5t44.5 2.5t40.5 1q9 0 15 -9t6 -13
t-2.5 -6t-6.5 -3q-32 -5 -79 -8.5t-81 -3.5zM107 203q46 2 96.5 3.5t81.5 2.5q-11 48 -23 102t-23.5 108.5t-23 108t-21.5 99.5q-10 -48 -21.5 -102t-22.5 -109t-22 -109.5t-21 -103.5z" />
    <glyph glyph-name="amacron" unicode="&#x101;" horiz-adv-x="326" 
d="M108 477q-33 0 -53.5 -84.5t-20.5 -274.5q0 -39 9 -66t30 -27t41 41.5t35.5 99.5t25 120t9.5 103q0 42 -21 65t-55 23zM235 -10q-25 0 -43 24t-17 68l4 137q-7 -45 -16.5 -86.5t-20.5 -73t-25.5 -50.5t-32.5 -19q-33 0 -61 37.5t-28 97.5q0 204 26.5 293.5t75.5 89.5
q31 0 53.5 -17t37.5 -43q3 26 5.5 37.5t10.5 11.5q10 0 16.5 -9t6.5 -22q0 -27 -2 -72.5t-4.5 -98.5t-4.5 -109t-2 -103q0 -33 8.5 -43.5t17.5 -10.5q17 0 33 35t29.5 91t25.5 126.5t22 141.5q2 17 7 9.5t4 -18.5q-8 -68 -19 -143.5t-26 -137.5t-35 -102.5t-46 -40.5z
M53 598q-11 0 -15.5 11t-4.5 13q0 3 2 5t9 3q11 2 30.5 4t41.5 3.5t44.5 2.5t40.5 1q9 0 15 -9t6 -13t-2.5 -6t-6.5 -3q-32 -5 -79 -8.5t-81 -3.5z" />
    <glyph glyph-name="Abreve" unicode="&#x102;" 
d="M226 626q13 -47 36.5 -143t46.5 -195t39.5 -180.5t16.5 -98.5q0 -9 -2 -14.5t-8 -5.5q-9 0 -15 6.5t-10 22.5q-5 16 -15.5 60t-23.5 104q-15 -1 -38.5 -3t-49.5 -4t-53 -3.5t-50 -2.5q-9 -46 -16.5 -84.5t-12.5 -63.5q-4 -17 -7 -24.5t-9 -7.5t-14 9t-8 22q0 15 7 54.5
t18 93.5h-4.5h-4.5q-14 1 -24 6t-10 12q0 4 3.5 7.5t10.5 4.5t16.5 1.5t19.5 1.5q12 54 26.5 116t29 120.5t28.5 110.5t24 87q6 21 10 28t9 7q13 0 20 -9.5t14 -34.5zM127 851q7 0 9.5 -18t7.5 -39.5t16 -39.5t34 -18q18 0 28 18t15.5 39t9 39t9.5 18q4 0 8.5 -5t4.5 -17
q0 -19 -4 -40t-14 -39t-25.5 -29.5t-37.5 -11.5q-45 0 -61 35.5t-16 80.5q0 13 6 20t10 7zM107 203q46 2 96.5 3.5t81.5 2.5q-11 48 -23 102t-23.5 108.5t-23 108t-21.5 99.5q-10 -48 -21.5 -102t-22.5 -109t-22 -109.5t-21 -103.5z" />
    <glyph glyph-name="abreve" unicode="&#x103;" horiz-adv-x="326" 
d="M108 477q-33 0 -53.5 -84.5t-20.5 -274.5q0 -39 9 -66t30 -27t41 41.5t35.5 99.5t25 120t9.5 103q0 42 -21 65t-55 23zM235 -10q-25 0 -43 24t-17 68l4 137q-7 -45 -16.5 -86.5t-20.5 -73t-25.5 -50.5t-32.5 -19q-33 0 -61 37.5t-28 97.5q0 204 26.5 293.5t75.5 89.5
q31 0 53.5 -17t37.5 -43q3 26 5.5 37.5t10.5 11.5q10 0 16.5 -9t6.5 -22q0 -27 -2 -72.5t-4.5 -98.5t-4.5 -109t-2 -103q0 -33 8.5 -43.5t17.5 -10.5q17 0 33 35t29.5 91t25.5 126.5t22 141.5q2 17 7 9.5t4 -18.5q-8 -68 -19 -143.5t-26 -137.5t-35 -102.5t-46 -40.5z
M64 703q7 0 9.5 -18t7.5 -39.5t16 -39.5t34 -18q18 0 28 18t15.5 39t9 39t9.5 18q4 0 8.5 -5t4.5 -17q0 -19 -4 -40t-14 -39t-25.5 -29.5t-37.5 -11.5q-45 0 -61 35.5t-16 80.5q0 13 6 20t10 7z" />
    <glyph glyph-name="Aogonek" unicode="&#x104;" 
d="M107 203q46 2 96.5 3.5t81.5 2.5q-11 48 -23 102t-23.5 108.5t-23 108t-21.5 99.5q-10 -48 -21.5 -102t-22.5 -109t-22 -109.5t-21 -103.5zM226 626q13 -47 36.5 -143t46.5 -195t39.5 -180.5t16.5 -98.5q0 -9 -2 -14.5t-8 -5.5h-4t-3 1q-34 -24 -54 -45t-20 -37
q0 -12 8 -20.5t24 -8.5q12 0 21.5 5.5t17 12t12.5 12t8 5.5t5.5 -3t2.5 -6q0 -12 -18.5 -32.5t-50.5 -20.5q-25 0 -40.5 15.5t-15.5 36.5q0 31 27 55.5t61 43.5q-1 3 -3 7t-3 8q-5 16 -15.5 60t-23.5 104q-15 -1 -38.5 -3t-49.5 -4t-53 -3.5t-50 -2.5q-9 -46 -16.5 -84.5
t-12.5 -63.5q-4 -17 -7 -24.5t-9 -7.5t-14 9t-8 22q0 15 7 54.5t18 93.5h-4.5h-4.5q-14 1 -24 6t-10 12q0 4 3.5 7.5t10.5 4.5t16.5 1.5t19.5 1.5q12 54 26.5 116t29 120.5t28.5 110.5t24 87q6 21 10 28t9 7q13 0 20 -9.5t14 -34.5z" />
    <glyph glyph-name="aogonek" unicode="&#x105;" horiz-adv-x="326" 
d="M108 477q-33 0 -53.5 -84.5t-20.5 -274.5q0 -39 9 -66t30 -27t41 41.5t35.5 99.5t25 120t9.5 103q0 42 -21 65t-55 23zM264 -95q0 -12 -18.5 -32.5t-50.5 -20.5q-25 0 -40.5 15.5t-15.5 36.5q0 26 19 51t50 43q-16 10 -25 31.5t-8 52.5l4 137q-7 -45 -16.5 -86.5
t-20.5 -73t-25.5 -50.5t-32.5 -19q-33 0 -61 37.5t-28 97.5q0 204 26.5 293.5t75.5 89.5q31 0 53.5 -17t37.5 -43q3 26 5.5 37.5t10.5 11.5q10 0 16.5 -9t6.5 -22q0 -27 -2 -72.5t-4.5 -98.5t-4.5 -109t-2 -103q0 -33 8.5 -43.5t17.5 -10.5q17 0 33 35t29.5 91t25.5 126.5
t22 141.5q2 17 7 9.5t4 -18.5q-8 -68 -19 -143.5t-26 -137.5t-35 -102.5t-46 -40.5q-4 0 -7 0.5t-6 1.5q-30 -24 -43.5 -46.5t-13.5 -37.5q0 -12 8 -20.5t24 -8.5q12 0 21.5 5.5t17 12t12.5 12t8 5.5t5.5 -3t2.5 -6z" />
    <glyph glyph-name="Cacute" unicode="&#x106;" horiz-adv-x="402" 
d="M326 306q-3 -3 -7 -4.5t-9 -1.5q-4 0 -7 3t-3 9q0 13 1 43.5t1 51.5q0 123 -22 177.5t-65 54.5q-56 0 -90 -98.5t-34 -288.5q0 -70 7.5 -115t22 -70t37.5 -34t53 -9q29 0 52 7.5t40 16.5t27.5 16.5t14.5 7.5t7.5 -6t3.5 -11q0 -7 -11.5 -18.5t-31.5 -21.5t-46.5 -17.5
t-55.5 -7.5q-40 0 -70 12t-49.5 42t-29 81.5t-9.5 129.5q0 209 46 311.5t119 102.5q63 0 92 -68.5t29 -179.5q0 -39 -2 -72.5t-11 -42.5zM262 865q3 4 5.5 6t5.5 2q8 0 17 -8t9 -14q0 -3 -1 -6t-4 -7q-5 -7 -21.5 -29t-35.5 -45t-36 -41.5t-21 -18.5t-6 3t-2 9t10 24t24 40
t29.5 45.5t26.5 39.5z" />
    <glyph glyph-name="cacute" unicode="&#x107;" horiz-adv-x="281" 
d="M112 25q30 0 60.5 35t56.5 90.5t46 127.5t30 145q1 4 2 7.5t2 3.5q3 0 5 -4.5t2 -10.5q0 -12 -12.5 -80.5t-37 -145.5t-61.5 -139.5t-86 -62.5q-68 0 -96 42t-28 128q0 182 27.5 265.5t84.5 83.5q43 0 65 -43.5t22 -159.5q0 -13 -9 -22.5t-16 -9.5q-5 0 -8.5 3.5
t-3.5 11.5q0 56 -2 93t-7.5 58t-14.5 29t-24 8q-37 0 -55.5 -70t-18.5 -245q0 -77 23 -107.5t54 -30.5zM159 718q3 4 5.5 6t5.5 2q8 0 17 -8t9 -14q0 -3 -1 -6t-4 -7q-5 -7 -21.5 -29t-35.5 -45t-36 -41.5t-21 -18.5t-6 3t-2 9t10 24t24 40t29.5 45.5t26.5 39.5z" />
    <glyph glyph-name="Ccircumflex" unicode="&#x108;" horiz-adv-x="402" 
d="M326 306q-3 -3 -7 -4.5t-9 -1.5q-4 0 -7 3t-3 9q0 13 1 43.5t1 51.5q0 123 -22 177.5t-65 54.5q-56 0 -90 -98.5t-34 -288.5q0 -70 7.5 -115t22 -70t37.5 -34t53 -9q29 0 52 7.5t40 16.5t27.5 16.5t14.5 7.5t7.5 -6t3.5 -11q0 -7 -11.5 -18.5t-31.5 -21.5t-46.5 -17.5
t-55.5 -7.5q-40 0 -70 12t-49.5 42t-29 81.5t-9.5 129.5q0 209 46 311.5t119 102.5q63 0 92 -68.5t29 -179.5q0 -39 -2 -72.5t-11 -42.5zM301 706q-6 0 -17 11t-24 28t-26.5 38t-23.5 40q-24 -48 -53.5 -83.5t-35.5 -35.5q-3 0 -5.5 4t-2.5 9q0 9 28 51.5t56 96.5q1 4 5 6
t5 2q4 0 9 -2.5t9 -8.5q12 -23 26.5 -46.5t27 -43.5t21 -35.5t8.5 -22.5q0 -2 -2 -5t-5 -3z" />
    <glyph glyph-name="ccircumflex" unicode="&#x109;" horiz-adv-x="281" 
d="M112 25q30 0 60.5 35t56.5 90.5t46 127.5t30 145q1 4 2 7.5t2 3.5q3 0 5 -4.5t2 -10.5q0 -12 -12.5 -80.5t-37 -145.5t-61.5 -139.5t-86 -62.5q-68 0 -96 42t-28 128q0 182 27.5 265.5t84.5 83.5q43 0 65 -43.5t22 -159.5q0 -13 -9 -22.5t-16 -9.5q-5 0 -8.5 3.5
t-3.5 11.5q0 56 -2 93t-7.5 58t-14.5 29t-24 8q-37 0 -55.5 -70t-18.5 -245q0 -77 23 -107.5t54 -30.5zM197 559q-6 0 -17 11t-24 28t-26.5 38t-23.5 40q-24 -48 -53.5 -83.5t-35.5 -35.5q-3 0 -5.5 4t-2.5 9q0 9 28 51.5t56 96.5q1 4 5 6t5 2q4 0 9 -2.5t9 -8.5
q12 -23 26.5 -46.5t27 -43.5t21 -35.5t8.5 -22.5q0 -2 -2 -5t-5 -3z" />
    <glyph glyph-name="Cdotaccent" unicode="&#x10a;" horiz-adv-x="402" 
d="M326 306q-3 -3 -7 -4.5t-9 -1.5q-4 0 -7 3t-3 9q0 13 1 43.5t1 51.5q0 123 -22 177.5t-65 54.5q-56 0 -90 -98.5t-34 -288.5q0 -70 7.5 -115t22 -70t37.5 -34t53 -9q29 0 52 7.5t40 16.5t27.5 16.5t14.5 7.5t7.5 -6t3.5 -11q0 -7 -11.5 -18.5t-31.5 -21.5t-46.5 -17.5
t-55.5 -7.5q-40 0 -70 12t-49.5 42t-29 81.5t-9.5 129.5q0 209 46 311.5t119 102.5q63 0 92 -68.5t29 -179.5q0 -39 -2 -72.5t-11 -42.5zM211 739q-20 0 -30 11t-10 25q0 18 12 30t33 12q19 0 26.5 -12t7.5 -22q0 -21 -10.5 -32.5t-28.5 -11.5z" />
    <glyph glyph-name="cdotaccent" unicode="&#x10b;" horiz-adv-x="281" 
d="M112 25q30 0 60.5 35t56.5 90.5t46 127.5t30 145q1 4 2 7.5t2 3.5q3 0 5 -4.5t2 -10.5q0 -12 -12.5 -80.5t-37 -145.5t-61.5 -139.5t-86 -62.5q-68 0 -96 42t-28 128q0 182 27.5 265.5t84.5 83.5q43 0 65 -43.5t22 -159.5q0 -13 -9 -22.5t-16 -9.5q-5 0 -8.5 3.5
t-3.5 11.5q0 56 -2 93t-7.5 58t-14.5 29t-24 8q-37 0 -55.5 -70t-18.5 -245q0 -77 23 -107.5t54 -30.5zM108 592q-20 0 -30 11t-10 25q0 18 12 30t33 12q19 0 26.5 -12t7.5 -22q0 -21 -10.5 -32.5t-28.5 -11.5z" />
    <glyph glyph-name="Ccaron" unicode="&#x10c;" horiz-adv-x="402" 
d="M326 306q-3 -3 -7 -4.5t-9 -1.5q-4 0 -7 3t-3 9q0 13 1 43.5t1 51.5q0 123 -22 177.5t-65 54.5q-56 0 -90 -98.5t-34 -288.5q0 -70 7.5 -115t22 -70t37.5 -34t53 -9q29 0 52 7.5t40 16.5t27.5 16.5t14.5 7.5t7.5 -6t3.5 -11q0 -7 -11.5 -18.5t-31.5 -21.5t-46.5 -17.5
t-55.5 -7.5q-40 0 -70 12t-49.5 42t-29 81.5t-9.5 129.5q0 209 46 311.5t119 102.5q63 0 92 -68.5t29 -179.5q0 -39 -2 -72.5t-11 -42.5zM214 706q-4 0 -9 2.5t-9 8.5q-12 23 -26.5 46.5t-27 43.5t-21 35.5t-8.5 22.5q0 2 2 5t5 3q6 0 17 -11t24 -28t26.5 -38t23.5 -40
q24 48 53.5 83.5t35.5 35.5q3 0 5.5 -4t2.5 -9q0 -9 -28 -51.5t-56 -96.5q-1 -4 -5 -6t-5 -2z" />
    <glyph glyph-name="ccaron" unicode="&#x10d;" horiz-adv-x="281" 
d="M112 25q30 0 60.5 35t56.5 90.5t46 127.5t30 145q1 4 2 7.5t2 3.5q3 0 5 -4.5t2 -10.5q0 -12 -12.5 -80.5t-37 -145.5t-61.5 -139.5t-86 -62.5q-68 0 -96 42t-28 128q0 182 27.5 265.5t84.5 83.5q43 0 65 -43.5t22 -159.5q0 -13 -9 -22.5t-16 -9.5q-5 0 -8.5 3.5
t-3.5 11.5q0 56 -2 93t-7.5 58t-14.5 29t-24 8q-37 0 -55.5 -70t-18.5 -245q0 -77 23 -107.5t54 -30.5zM110 559q-4 0 -9 2.5t-9 8.5q-12 23 -26.5 46.5t-27 43.5t-21 35.5t-8.5 22.5q0 2 2 5t5 3q6 0 17 -11t24 -28t26.5 -38t23.5 -40q24 48 53.5 83.5t35.5 35.5
q3 0 5.5 -4t2.5 -9q0 -9 -28 -51.5t-56 -96.5q-1 -4 -5 -6t-5 -2z" />
    <glyph glyph-name="Dcaron" unicode="&#x10e;" horiz-adv-x="448" 
d="M210 642q-22 0 -44 -2t-41 -4q2 -43 2 -132t-0.5 -184.5t-2 -179.5t-2.5 -117q51 0 93.5 31t72.5 87t46.5 135.5t16.5 176.5q0 98 -33 143.5t-108 45.5zM135 -4q-24 0 -33 7t-10 26q-1 20 -2 91.5t-1.5 162t-0.5 186t1 163.5q-9 -1 -16.5 -1.5t-13.5 -0.5q-8 0 -12 4.5
t-4 9.5t17 10.5t42 9.5t53.5 6.5t50.5 2.5q102 0 143.5 -53.5t41.5 -170.5q0 -105 -20 -189.5t-54.5 -142.5t-81.5 -89.5t-100 -31.5zM221 710q-4 0 -9 2.5t-9 8.5q-12 23 -26.5 46.5t-27 43.5t-21 35.5t-8.5 22.5q0 2 2 5t5 3q6 0 17 -11t24 -28t26.5 -38t23.5 -40
q24 48 53.5 83.5t35.5 35.5q3 0 5.5 -4t2.5 -9q0 -9 -28 -51.5t-56 -96.5q-1 -4 -5 -6t-5 -2z" />
    <glyph glyph-name="dcaron" unicode="&#x10f;" horiz-adv-x="313" 
d="M275 404q-3 0 -4.5 2.5t-1.5 6.5q0 12 4 27.5t8 42t8 68t4 103.5q0 7 1.5 11.5t6.5 4.5q10 0 19 -14t9 -36q0 -41 -5.5 -80.5t-13.5 -69.5t-17.5 -48t-17.5 -18zM108 477q-33 0 -53.5 -84.5t-20.5 -274.5q0 -39 9 -66t30 -27t41 41.5t35.5 99.5t25 120t9.5 103
q0 42 -21 65t-55 23zM240 29q17 0 33 35t29.5 91t25.5 126.5t22 141.5q1 4 1.5 7.5t2.5 3.5q4 0 6 -6t1 -14q-8 -68 -19 -143.5t-26 -137.5t-35 -102.5t-46 -40.5q-25 0 -43.5 24t-16.5 68l7 135q-8 -44 -17.5 -85.5t-21.5 -72.5t-26.5 -50t-32.5 -19q-33 0 -61 37.5
t-28 97.5q0 204 26.5 293.5t75.5 89.5q34 0 57.5 -19.5t38.5 -49.5q-2 109 -3 169.5t0.5 89t4.5 34t9 5.5q10 0 16.5 -8t6.5 -18q0 -45 -2 -119.5t-4.5 -161.5t-4.5 -178t-2 -169q0 -33 8.5 -43.5t17.5 -10.5z" />
    <glyph glyph-name="Dcroat" unicode="&#x110;" horiz-adv-x="448" 
d="M205 321q-12 -1 -31.5 -2t-47.5 -1q0 -48 -0.5 -94t-1 -85t-1 -69.5t-1.5 -46.5q51 0 93.5 31t72.5 87t46.5 135.5t16.5 176.5q0 98 -33 143.5t-108 45.5q-22 0 -44 -2t-41 -4q1 -19 1.5 -49.5t0.5 -68v-80v-86.5q16 1 35 1h41q12 0 19 -8.5t7 -13.5q0 -4 -4 -6.5
t-20 -3.5zM135 -4q-24 0 -33 7t-10 26q-1 11 -1.5 38.5t-1 66t-1 86t-0.5 97.5h-16h-18t-15 8.5t-6 12.5t3.5 7t17.5 4q6 1 14.5 1t19.5 1v151t1 130q-9 -1 -16.5 -1.5t-13.5 -0.5q-8 0 -12 4.5t-4 9.5t17 10.5t42 9.5t53.5 6.5t50.5 2.5q102 0 143.5 -53.5t41.5 -170.5
q0 -105 -20 -189.5t-54.5 -142.5t-81.5 -89.5t-100 -31.5z" />
    <glyph glyph-name="dcroat" unicode="&#x111;" horiz-adv-x="326" 
d="M108 477q-33 0 -53.5 -84.5t-20.5 -274.5q0 -39 9 -66t30 -27t41 41.5t35.5 99.5t25 120t9.5 103q0 42 -21 65t-55 23zM240 29q17 0 33 35t29.5 91t25.5 126.5t22 141.5q1 4 1.5 7.5t2.5 3.5q4 0 6 -6t1 -14q-8 -68 -19 -143.5t-26 -137.5t-35 -102.5t-46 -40.5
q-25 0 -43.5 24t-16.5 68l7 135q-8 -44 -17.5 -85.5t-21.5 -72.5t-26.5 -50t-32.5 -19q-33 0 -61 37.5t-28 97.5q0 204 26.5 293.5t75.5 89.5q34 0 57.5 -19.5t38.5 -49.5q-1 47 -1.5 85t-1.5 67h-9h-7h-30t-25 1q-9 0 -13.5 7t-4.5 13t5 8t13 3q13 1 30 1.5t35 0.5h3h3
q0 41 0.5 63.5t2 33.5t4.5 13t7 2q10 0 16.5 -8t6.5 -18v-39t-1 -48h14h14q9 -1 13.5 -8.5t4.5 -12.5q0 -4 -3.5 -6t-10.5 -3t-15.5 -1t-17.5 -1q-1 -54 -3 -118.5t-4 -131.5t-3 -134t-1 -125q0 -33 8.5 -43.5t17.5 -10.5z" />
    <glyph glyph-name="Emacron" unicode="&#x112;" horiz-adv-x="387" 
d="M61 620q-10 0 -15 6t-5 11t4 7.5t13 3.5q26 3 90.5 8t176.5 5q13 0 18.5 -5.5t5.5 -9.5q0 -6 -8.5 -8.5t-24.5 -3.5q-15 -1 -38 -3t-48.5 -3.5t-52.5 -3t-51 -2.5q1 -18 2 -51t1.5 -75.5t0 -91.5t-0.5 -99q16 3 37 6t41 4.5t37.5 2.5t27.5 1q14 0 22.5 -7.5t8.5 -14.5
q0 -5 -4 -7t-12 -3q-8 0 -27.5 -1.5t-42.5 -3t-47 -3t-41 -2.5q-1 -82 -2 -153.5t-2 -106.5q41 5 87.5 9t79.5 4q19 0 29.5 -11t-5.5 -13q-7 -1 -37 -4t-65 -6t-65.5 -5t-37.5 -2q-4 0 -10.5 9t-7.5 23q-1 12 -1.5 83t-1 163.5t0 189t2.5 158.5v4v2q-10 -1 -18 -1h-14z
M128 737q-11 0 -15.5 11t-4.5 13q0 3 2 5t9 3q11 2 30.5 4t41.5 3.5t44.5 2.5t40.5 1q9 0 15 -9t6 -13t-2.5 -6t-6.5 -3q-32 -5 -79 -8.5t-81 -3.5z" />
    <glyph glyph-name="emacron" unicode="&#x113;" horiz-adv-x="271" 
d="M118 484q-31 0 -51.5 -50t-27.5 -173q38 13 62 34t37 44t18 46t5 41q0 28 -11 43t-32 15zM102 25q30 0 60.5 35t56.5 90.5t46 127.5t30 145q1 4 2 7.5t2 3.5q3 0 5 -4.5t2 -10.5q0 -12 -12.5 -80.5t-37 -145.5t-61.5 -139.5t-86 -62.5q-60 0 -87 41.5t-27 98.5
q0 195 26.5 287t86.5 92q35 0 60.5 -27t25.5 -73q0 -61 -40 -101.5t-116 -65.5q-1 -23 -1.5 -49t-0.5 -55q0 -57 19 -85.5t47 -28.5zM36 598q-11 0 -15.5 11t-4.5 13q0 3 2 5t9 3q11 2 30.5 4t41.5 3.5t44.5 2.5t40.5 1q9 0 15 -9t6 -13t-2.5 -6t-6.5 -3q-32 -5 -79 -8.5
t-81 -3.5z" />
    <glyph glyph-name="Ebreve" unicode="&#x114;" horiz-adv-x="387" 
d="M61 620q-10 0 -15 6t-5 11t4 7.5t13 3.5q26 3 90.5 8t176.5 5q13 0 18.5 -5.5t5.5 -9.5q0 -6 -8.5 -8.5t-24.5 -3.5q-15 -1 -38 -3t-48.5 -3.5t-52.5 -3t-51 -2.5q1 -18 2 -51t1.5 -75.5t0 -91.5t-0.5 -99q16 3 37 6t41 4.5t37.5 2.5t27.5 1q14 0 22.5 -7.5t8.5 -14.5
q0 -5 -4 -7t-12 -3q-8 0 -27.5 -1.5t-42.5 -3t-47 -3t-41 -2.5q-1 -82 -2 -153.5t-2 -106.5q41 5 87.5 9t79.5 4q19 0 29.5 -11t-5.5 -13q-7 -1 -37 -4t-65 -6t-65.5 -5t-37.5 -2q-4 0 -10.5 9t-7.5 23q-1 12 -1.5 83t-1 163.5t0 189t2.5 158.5v4v2q-10 -1 -18 -1h-14z
M139 842q7 0 9.5 -18t7.5 -39.5t16 -39.5t34 -18q18 0 28 18t15.5 39t9 39t9.5 18q4 0 8.5 -5t4.5 -17q0 -19 -4 -40t-14 -39t-25.5 -29.5t-37.5 -11.5q-45 0 -61 35.5t-16 80.5q0 13 6 20t10 7z" />
    <glyph glyph-name="ebreve" unicode="&#x115;" horiz-adv-x="271" 
d="M118 484q-31 0 -51.5 -50t-27.5 -173q38 13 62 34t37 44t18 46t5 41q0 28 -11 43t-32 15zM102 25q30 0 60.5 35t56.5 90.5t46 127.5t30 145q1 4 2 7.5t2 3.5q3 0 5 -4.5t2 -10.5q0 -12 -12.5 -80.5t-37 -145.5t-61.5 -139.5t-86 -62.5q-60 0 -87 41.5t-27 98.5
q0 195 26.5 287t86.5 92q35 0 60.5 -27t25.5 -73q0 -61 -40 -101.5t-116 -65.5q-1 -23 -1.5 -49t-0.5 -55q0 -57 19 -85.5t47 -28.5zM48 703q7 0 9.5 -18t7.5 -39.5t16 -39.5t34 -18q18 0 28 18t15.5 39t9 39t9.5 18q4 0 8.5 -5t4.5 -17q0 -19 -4 -40t-14 -39t-25.5 -29.5
t-37.5 -11.5q-45 0 -61 35.5t-16 80.5q0 13 6 20t10 7z" />
    <glyph glyph-name="Edotaccent" unicode="&#x116;" horiz-adv-x="387" 
d="M61 620q-10 0 -15 6t-5 11t4 7.5t13 3.5q26 3 90.5 8t176.5 5q13 0 18.5 -5.5t5.5 -9.5q0 -6 -8.5 -8.5t-24.5 -3.5q-15 -1 -38 -3t-48.5 -3.5t-52.5 -3t-51 -2.5q1 -18 2 -51t1.5 -75.5t0 -91.5t-0.5 -99q16 3 37 6t41 4.5t37.5 2.5t27.5 1q14 0 22.5 -7.5t8.5 -14.5
q0 -5 -4 -7t-12 -3q-8 0 -27.5 -1.5t-42.5 -3t-47 -3t-41 -2.5q-1 -82 -2 -153.5t-2 -106.5q41 5 87.5 9t79.5 4q19 0 29.5 -11t-5.5 -13q-7 -1 -37 -4t-65 -6t-65.5 -5t-37.5 -2q-4 0 -10.5 9t-7.5 23q-1 12 -1.5 83t-1 163.5t0 189t2.5 158.5v4v2q-10 -1 -18 -1h-14z
M203 731q-20 0 -30 11t-10 25q0 18 12 30t33 12q19 0 26.5 -12t7.5 -22q0 -21 -10.5 -32.5t-28.5 -11.5z" />
    <glyph glyph-name="edotaccent" unicode="&#x117;" horiz-adv-x="271" 
d="M118 484q-31 0 -51.5 -50t-27.5 -173q38 13 62 34t37 44t18 46t5 41q0 28 -11 43t-32 15zM102 25q30 0 60.5 35t56.5 90.5t46 127.5t30 145q1 4 2 7.5t2 3.5q3 0 5 -4.5t2 -10.5q0 -12 -12.5 -80.5t-37 -145.5t-61.5 -139.5t-86 -62.5q-60 0 -87 41.5t-27 98.5
q0 195 26.5 287t86.5 92q35 0 60.5 -27t25.5 -73q0 -61 -40 -101.5t-116 -65.5q-1 -23 -1.5 -49t-0.5 -55q0 -57 19 -85.5t47 -28.5zM112 592q-20 0 -30 11t-10 25q0 18 12 30t33 12q19 0 26.5 -12t7.5 -22q0 -21 -10.5 -32.5t-28.5 -11.5z" />
    <glyph glyph-name="Eogonek" unicode="&#x118;" horiz-adv-x="387" 
d="M61 620q-10 0 -15 6t-5 11t4 7.5t13 3.5q26 3 90.5 8t176.5 5q13 0 18.5 -5.5t5.5 -9.5q0 -6 -8.5 -8.5t-24.5 -3.5q-15 -1 -38 -3t-48.5 -3.5t-52.5 -3t-51 -2.5q1 -18 2 -51t1.5 -75.5t0 -91.5t-0.5 -99q16 3 37 6t41 4.5t37.5 2.5t27.5 1q14 0 22.5 -7.5t8.5 -14.5
q0 -5 -4 -7t-12 -3q-8 0 -27.5 -1.5t-42.5 -3t-47 -3t-41 -2.5q-1 -82 -2 -153.5t-2 -106.5q41 5 87.5 9t79.5 4q19 0 29.5 -11t-5.5 -13q-1 0 -4.5 -0.5t-7.5 -0.5q-36 -26 -54.5 -52t-18.5 -45q0 -12 8 -20.5t24 -8.5q12 0 21.5 5.5t17 12t12.5 12t8 5.5t5.5 -3t2.5 -6
q0 -12 -18.5 -32.5t-50.5 -20.5q-25 0 -40.5 15.5t-15.5 36.5q0 29 21.5 55t52.5 43q-21 -2 -48 -4t-52 -4t-44 -3.5t-24 -1.5q-4 0 -10.5 9t-7.5 23q-1 12 -1.5 83t-1 163.5t0 189t2.5 158.5v4v2q-10 -1 -18 -1h-14z" />
    <glyph glyph-name="eogonek" unicode="&#x119;" horiz-adv-x="271" 
d="M118 484q-31 0 -51.5 -50t-27.5 -173q38 13 62 34t37 44t18 46t5 41q0 28 -11 43t-32 15zM102 25q30 0 60.5 35t56.5 90.5t46 127.5t30 145q1 4 2 7.5t2 3.5q3 0 5 -4.5t2 -10.5q0 -12 -12.5 -80.5t-37 -145.5t-61.5 -139.5t-86 -62.5q-60 0 -87 41.5t-27 98.5
q0 195 26.5 287t86.5 92q35 0 60.5 -27t25.5 -73q0 -61 -40 -101.5t-116 -65.5q-1 -23 -1.5 -49t-0.5 -55q0 -57 19 -85.5t47 -28.5zM164 3l12 -2q-42 -28 -66.5 -51.5t-24.5 -41.5q0 -12 8 -20.5t24 -8.5q12 0 21.5 5.5t17 12t12.5 12t8 5.5t5.5 -3t2.5 -6
q0 -12 -18.5 -32.5t-50.5 -20.5q-25 0 -40.5 15.5t-15.5 36.5q0 31 32.5 56.5t72.5 42.5z" />
    <glyph glyph-name="Ecaron" unicode="&#x11a;" horiz-adv-x="387" 
d="M61 620q-10 0 -15 6t-5 11t4 7.5t13 3.5q26 3 90.5 8t176.5 5q13 0 18.5 -5.5t5.5 -9.5q0 -6 -8.5 -8.5t-24.5 -3.5q-15 -1 -38 -3t-48.5 -3.5t-52.5 -3t-51 -2.5q1 -18 2 -51t1.5 -75.5t0 -91.5t-0.5 -99q16 3 37 6t41 4.5t37.5 2.5t27.5 1q14 0 22.5 -7.5t8.5 -14.5
q0 -5 -4 -7t-12 -3q-8 0 -27.5 -1.5t-42.5 -3t-47 -3t-41 -2.5q-1 -82 -2 -153.5t-2 -106.5q41 5 87.5 9t79.5 4q19 0 29.5 -11t-5.5 -13q-7 -1 -37 -4t-65 -6t-65.5 -5t-37.5 -2q-4 0 -10.5 9t-7.5 23q-1 12 -1.5 83t-1 163.5t0 189t2.5 158.5v4v2q-10 -1 -18 -1h-14z
M206 698q-4 0 -9 2.5t-9 8.5q-12 23 -26.5 46.5t-27 43.5t-21 35.5t-8.5 22.5q0 2 2 5t5 3q6 0 17 -11t24 -28t26.5 -38t23.5 -40q24 48 53.5 83.5t35.5 35.5q3 0 5.5 -4t2.5 -9q0 -9 -28 -51.5t-56 -96.5q-1 -4 -5 -6t-5 -2z" />
    <glyph glyph-name="ecaron" unicode="&#x11b;" horiz-adv-x="271" 
d="M118 484q-31 0 -51.5 -50t-27.5 -173q38 13 62 34t37 44t18 46t5 41q0 28 -11 43t-32 15zM102 25q30 0 60.5 35t56.5 90.5t46 127.5t30 145q1 4 2 7.5t2 3.5q3 0 5 -4.5t2 -10.5q0 -12 -12.5 -80.5t-37 -145.5t-61.5 -139.5t-86 -62.5q-60 0 -87 41.5t-27 98.5
q0 195 26.5 287t86.5 92q35 0 60.5 -27t25.5 -73q0 -61 -40 -101.5t-116 -65.5q-1 -23 -1.5 -49t-0.5 -55q0 -57 19 -85.5t47 -28.5zM114 559q-4 0 -9 2.5t-9 8.5q-12 23 -26.5 46.5t-27 43.5t-21 35.5t-8.5 22.5q0 2 2 5t5 3q6 0 17 -11t24 -28t26.5 -38t23.5 -40
q24 48 53.5 83.5t35.5 35.5q3 0 5.5 -4t2.5 -9q0 -9 -28 -51.5t-56 -96.5q-1 -4 -5 -6t-5 -2z" />
    <glyph glyph-name="Gcircumflex" unicode="&#x11c;" 
d="M339 249q0 -44 -3 -90t-16.5 -83.5t-41.5 -61.5t-77 -24q-77 0 -112.5 67t-35.5 210q0 86 8.5 160t27.5 127.5t49.5 84.5t74.5 31q64 0 93 -54.5t29 -143.5q0 -31 -2.5 -58t-10.5 -35q-3 -3 -7 -4.5t-9 -1.5q-4 0 -7 3t-3 9q0 10 1 33.5t1 39.5q0 96 -22 138.5t-66 42.5
q-34 0 -57 -27.5t-36.5 -76t-19.5 -115t-6 -142.5q0 -77 7.5 -127t21.5 -78t35 -39t48 -11q57 0 80.5 57t22.5 170q-23 -1 -45 -2t-38 -1q-8 0 -12 2t-4 6t4.5 13t16.5 10q17 2 41 3.5t46 1.5q10 0 17 -10t7 -24zM293 707q-6 0 -17 11t-24 28t-26.5 38t-23.5 40
q-24 -48 -53.5 -83.5t-35.5 -35.5q-3 0 -5.5 4t-2.5 9q0 9 28 51.5t56 96.5q1 4 5 6t5 2q4 0 9 -2.5t9 -8.5q12 -23 26.5 -46.5t27 -43.5t21 -35.5t8.5 -22.5q0 -2 -2 -5t-5 -3z" />
    <glyph glyph-name="gcircumflex" unicode="&#x11d;" horiz-adv-x="309" 
d="M77 80q18 0 36 30.5t32.5 74t24.5 93t13 87.5l1 26q-1 41 -21.5 63.5t-54.5 22.5q-33 0 -53.5 -70t-20.5 -224q0 -45 9.5 -74t33.5 -29zM106 -167q-35 0 -62 16.5t-27 49.5q0 20 13 37.5t35 35.5t51 38t60 45q0 29 0.5 63t0.5 79l1 30q-8 -36 -17.5 -69t-21.5 -58
t-27 -40t-33 -15q-31 0 -57.5 38.5t-26.5 101.5q0 172 26.5 247.5t75.5 75.5q31 0 53 -16t35 -40q0 30 2.5 38t6.5 8q8 0 11.5 -6.5t4.5 -16.5q3 -51 2.5 -145.5t-1.5 -236.5q44 66 75 139.5t47 190.5q1 4 2 7.5t2 3.5q3 0 5 -4.5t2 -10.5q0 -25 -9 -69.5t-26 -95
t-41.5 -102t-56.5 -88.5v-18v-18q0 -87 -20.5 -141t-84.5 -54zM109 -136q34 0 50 39t16 95v16.5v16.5q-57 -44 -91 -74t-34 -55q0 -15 13 -26.5t46 -11.5zM207 559q-6 0 -17 11t-24 28t-26.5 38t-23.5 40q-24 -48 -53.5 -83.5t-35.5 -35.5q-3 0 -5.5 4t-2.5 9q0 9 28 51.5
t56 96.5q1 4 5 6t5 2q4 0 9 -2.5t9 -8.5q12 -23 26.5 -46.5t27 -43.5t21 -35.5t8.5 -22.5q0 -2 -2 -5t-5 -3z" />
    <glyph glyph-name="Gbreve" unicode="&#x11e;" 
d="M339 249q0 -44 -3 -90t-16.5 -83.5t-41.5 -61.5t-77 -24q-77 0 -112.5 67t-35.5 210q0 86 8.5 160t27.5 127.5t49.5 84.5t74.5 31q64 0 93 -54.5t29 -143.5q0 -31 -2.5 -58t-10.5 -35q-3 -3 -7 -4.5t-9 -1.5q-4 0 -7 3t-3 9q0 10 1 33.5t1 39.5q0 96 -22 138.5t-66 42.5
q-34 0 -57 -27.5t-36.5 -76t-19.5 -115t-6 -142.5q0 -77 7.5 -127t21.5 -78t35 -39t48 -11q57 0 80.5 57t22.5 170q-23 -1 -45 -2t-38 -1q-8 0 -12 2t-4 6t4.5 13t16.5 10q17 2 41 3.5t46 1.5q10 0 17 -10t7 -24zM139 851q7 0 9.5 -18t7.5 -39.5t16 -39.5t34 -18q18 0 28 18
t15.5 39t9 39t9.5 18q4 0 8.5 -5t4.5 -17q0 -19 -4 -40t-14 -39t-25.5 -29.5t-37.5 -11.5q-45 0 -61 35.5t-16 80.5q0 13 6 20t10 7z" />
    <glyph glyph-name="gbreve" unicode="&#x11f;" horiz-adv-x="309" 
d="M77 80q18 0 36 30.5t32.5 74t24.5 93t13 87.5l1 26q-1 41 -21.5 63.5t-54.5 22.5q-33 0 -53.5 -70t-20.5 -224q0 -45 9.5 -74t33.5 -29zM106 -167q-35 0 -62 16.5t-27 49.5q0 20 13 37.5t35 35.5t51 38t60 45q0 29 0.5 63t0.5 79l1 30q-8 -36 -17.5 -69t-21.5 -58
t-27 -40t-33 -15q-31 0 -57.5 38.5t-26.5 101.5q0 172 26.5 247.5t75.5 75.5q31 0 53 -16t35 -40q0 30 2.5 38t6.5 8q8 0 11.5 -6.5t4.5 -16.5q3 -51 2.5 -145.5t-1.5 -236.5q44 66 75 139.5t47 190.5q1 4 2 7.5t2 3.5q3 0 5 -4.5t2 -10.5q0 -25 -9 -69.5t-26 -95
t-41.5 -102t-56.5 -88.5v-18v-18q0 -87 -20.5 -141t-84.5 -54zM109 -136q34 0 50 39t16 95v16.5v16.5q-57 -44 -91 -74t-34 -55q0 -15 13 -26.5t46 -11.5zM54 703q7 0 9.5 -18t7.5 -39.5t16 -39.5t34 -18q18 0 28 18t15.5 39t9 39t9.5 18q4 0 8.5 -5t4.5 -17q0 -19 -4 -40
t-14 -39t-25.5 -29.5t-37.5 -11.5q-45 0 -61 35.5t-16 80.5q0 13 6 20t10 7z" />
    <glyph glyph-name="Gdotaccent" unicode="&#x120;" 
d="M339 249q0 -44 -3 -90t-16.5 -83.5t-41.5 -61.5t-77 -24q-77 0 -112.5 67t-35.5 210q0 86 8.5 160t27.5 127.5t49.5 84.5t74.5 31q64 0 93 -54.5t29 -143.5q0 -31 -2.5 -58t-10.5 -35q-3 -3 -7 -4.5t-9 -1.5q-4 0 -7 3t-3 9q0 10 1 33.5t1 39.5q0 96 -22 138.5t-66 42.5
q-34 0 -57 -27.5t-36.5 -76t-19.5 -115t-6 -142.5q0 -77 7.5 -127t21.5 -78t35 -39t48 -11q57 0 80.5 57t22.5 170q-23 -1 -45 -2t-38 -1q-8 0 -12 2t-4 6t4.5 13t16.5 10q17 2 41 3.5t46 1.5q10 0 17 -10t7 -24zM203 740q-20 0 -30 11t-10 25q0 18 12 30t33 12
q19 0 26.5 -12t7.5 -22q0 -21 -10.5 -32.5t-28.5 -11.5z" />
    <glyph glyph-name="gdotaccent" unicode="&#x121;" horiz-adv-x="309" 
d="M77 80q18 0 36 30.5t32.5 74t24.5 93t13 87.5l1 26q-1 41 -21.5 63.5t-54.5 22.5q-33 0 -53.5 -70t-20.5 -224q0 -45 9.5 -74t33.5 -29zM106 -167q-35 0 -62 16.5t-27 49.5q0 20 13 37.5t35 35.5t51 38t60 45q0 29 0.5 63t0.5 79l1 30q-8 -36 -17.5 -69t-21.5 -58
t-27 -40t-33 -15q-31 0 -57.5 38.5t-26.5 101.5q0 172 26.5 247.5t75.5 75.5q31 0 53 -16t35 -40q0 30 2.5 38t6.5 8q8 0 11.5 -6.5t4.5 -16.5q3 -51 2.5 -145.5t-1.5 -236.5q44 66 75 139.5t47 190.5q1 4 2 7.5t2 3.5q3 0 5 -4.5t2 -10.5q0 -25 -9 -69.5t-26 -95
t-41.5 -102t-56.5 -88.5v-18v-18q0 -87 -20.5 -141t-84.5 -54zM109 -136q34 0 50 39t16 95v16.5v16.5q-57 -44 -91 -74t-34 -55q0 -15 13 -26.5t46 -11.5zM118 592q-20 0 -30 11t-10 25q0 18 12 30t33 12q19 0 26.5 -12t7.5 -22q0 -21 -10.5 -32.5t-28.5 -11.5z" />
    <glyph glyph-name="Gcommaaccent" unicode="&#x122;" 
d="M339 249q0 -44 -3 -90t-16.5 -83.5t-41.5 -61.5t-77 -24q-77 0 -112.5 67t-35.5 210q0 86 8.5 160t27.5 127.5t49.5 84.5t74.5 31q64 0 93 -54.5t29 -143.5q0 -31 -2.5 -58t-10.5 -35q-3 -3 -7 -4.5t-9 -1.5q-4 0 -7 3t-3 9q0 10 1 33.5t1 39.5q0 96 -22 138.5t-66 42.5
q-34 0 -57 -27.5t-36.5 -76t-19.5 -115t-6 -142.5q0 -77 7.5 -127t21.5 -78t35 -39t48 -11q57 0 80.5 57t22.5 170q-23 -1 -45 -2t-38 -1q-8 0 -12 2t-4 6t4.5 13t16.5 10q17 2 41 3.5t46 1.5q10 0 17 -10t7 -24zM159 -198q-4 0 -5.5 2.5t-1.5 4.5q0 6 5.5 16.5t12.5 27.5
t12.5 40.5t5.5 53.5q0 6 2.5 9.5t6.5 3.5q10 0 18 -6t8 -16q0 -24 -6 -48t-15.5 -43.5t-21 -32t-21.5 -12.5z" />
    <glyph glyph-name="gcommaaccent" unicode="&#x123;" horiz-adv-x="309" 
d="M77 80q18 0 36 30.5t32.5 74t24.5 93t13 87.5l1 26q-1 41 -21.5 63.5t-54.5 22.5q-33 0 -53.5 -70t-20.5 -224q0 -45 9.5 -74t33.5 -29zM106 -167q-35 0 -62 16.5t-27 49.5q0 20 13 37.5t35 35.5t51 38t60 45q0 29 0.5 63t0.5 79l1 30q-8 -36 -17.5 -69t-21.5 -58
t-27 -40t-33 -15q-31 0 -57.5 38.5t-26.5 101.5q0 172 26.5 247.5t75.5 75.5q31 0 53 -16t35 -40q0 30 2.5 38t6.5 8q8 0 11.5 -6.5t4.5 -16.5q3 -51 2.5 -145.5t-1.5 -236.5q44 66 75 139.5t47 190.5q1 4 2 7.5t2 3.5q3 0 5 -4.5t2 -10.5q0 -25 -9 -69.5t-26 -95
t-41.5 -102t-56.5 -88.5v-18v-18q0 -87 -20.5 -141t-84.5 -54zM109 -136q34 0 50 39t16 95v16.5v16.5q-57 -44 -91 -74t-34 -55q0 -15 13 -26.5t46 -11.5zM154 698q4 0 5.5 -2.5t1.5 -4.5q0 -6 -5.5 -16.5t-12.5 -27.5t-12.5 -40.5t-5.5 -53.5q0 -6 -2.5 -9.5t-6.5 -3.5
q-10 0 -18 6t-8 16q0 24 6 48t15.5 43.5t21 32t21.5 12.5z" />
    <glyph glyph-name="Hcircumflex" unicode="&#x124;" horiz-adv-x="460" 
d="M335 644q0 8 3.5 13.5t8.5 5.5q11 0 16.5 -8t6.5 -26q2 -36 2.5 -127t0 -189.5t-2 -183.5t-2.5 -110q-1 -11 -3 -17t-9 -6q-8 0 -12.5 7t-5.5 26q-1 10 -1.5 33t-1 55.5t-1 73t-0.5 84.5q-14 -1 -39 -3t-54 -4.5t-59 -5t-55 -3.5q0 -42 -0.5 -81t-1.5 -70.5t-1.5 -54.5
t-0.5 -34q-1 -11 -3 -17t-9 -6q-8 0 -12.5 7t-5.5 26t-2 82.5t-2 145.5h-4.5h-4.5q-22 0 -31 6.5t-9 13.5q0 4 5.5 7.5t20.5 4.5q5 0 11 0.5t12 0.5v95.5v95t0.5 88.5t0.5 75q0 8 3.5 13.5t8.5 5.5q11 0 16.5 -8t6.5 -26q1 -19 1.5 -54.5t1 -80.5t0 -97.5t-0.5 -103.5
q28 1 59 3t59.5 3.5t52 3t36.5 1.5v92v91t0.5 84.5t0.5 72.5zM324 700q-6 0 -17 11t-24 28t-26.5 38t-23.5 40q-24 -48 -53.5 -83.5t-35.5 -35.5q-3 0 -5.5 4t-2.5 9q0 9 28 51.5t56 96.5q1 4 5 6t5 2q4 0 9 -2.5t9 -8.5q12 -23 26.5 -46.5t27 -43.5t21 -35.5t8.5 -22.5
q0 -2 -2 -5t-5 -3z" />
    <glyph glyph-name="hcircumflex" unicode="&#x125;" horiz-adv-x="330" 
d="M12 632q1 8 3.5 12t6.5 5q4 0 9.5 -5t5.5 -18q0 -85 -0.5 -163.5t-1 -144.5t-1.5 -119t-2 -90q10 75 23.5 147t32.5 128t45 90t59 34q27 0 37.5 -22t10.5 -58q0 -31 -3.5 -71.5t-7.5 -84t-7.5 -88.5t-3.5 -84q0 -43 8.5 -57t17.5 -14q17 0 33 35t29.5 91t25.5 126.5
t22 141.5q1 4 2 7.5t2 3.5q3 0 5 -4.5t2 -10.5q0 -12 -8 -80.5t-23.5 -146t-39.5 -140t-55 -62.5q-26 0 -43.5 27t-17.5 78q0 90 11.5 180.5t11.5 162.5q0 17 -4 26t-14 9q-24 0 -47.5 -48t-42.5 -118t-32.5 -151t-18.5 -146q-1 -6 -6 -9.5t-11 -3.5q-10 0 -17.5 9t-8.5 30
q-1 27 -0.5 113.5t2 184t4.5 184t7 114.5zM121 644q-6 0 -17 11t-24 28t-26.5 38t-23.5 40q-24 -48 -53.5 -83.5t-35.5 -35.5q-3 0 -5.5 4t-2.5 9q0 9 28 51.5t56 96.5q1 4 5 6t5 2q4 0 9 -2.5t9 -8.5q12 -23 26.5 -46.5t27 -43.5t21 -35.5t8.5 -22.5q0 -2 -2 -5t-5 -3z" />
    <glyph glyph-name="Hbar" unicode="&#x126;" horiz-adv-x="512" 
d="M221 450h-39h-34v-77t-1 -80q28 1 59 3t59.5 3.5t52 3t36.5 1.5v73.5v73.5q-31 -1 -64.5 -1h-68.5zM355 644q0 8 3.5 13.5t8.5 5.5q11 0 16.5 -8t6.5 -26q1 -20 1.5 -58t1.5 -86q18 0 36 -0.5t35 -0.5q8 0 14 -7t6 -12t-2.5 -8t-6.5 -3q-19 -1 -39.5 -1t-42.5 -1
q0 -62 -0.5 -131.5t-1 -130.5t-1.5 -107.5t-2 -63.5q-1 -11 -3 -17t-9 -6q-8 0 -12.5 7t-5.5 26q-1 10 -1.5 33t-1 55.5t-1 73t-0.5 84.5q-14 -1 -39 -3t-54 -4.5t-59 -5t-55 -3.5q0 -42 -0.5 -81t-1.5 -70.5t-1.5 -54.5t-0.5 -34q-1 -11 -3 -17t-9 -6q-8 0 -12.5 7t-5.5 26
t-2 82.5t-2 145.5h-4.5h-4.5q-22 0 -31 6.5t-9 13.5q0 4 5.5 7.5t20.5 4.5q5 0 11 0.5t12 0.5v79.5v80.5h-32h-32q-6 0 -11.5 8t-5.5 14q0 5 2.5 7t7.5 2q16 1 34 1.5t37 1.5q0 45 0.5 86t0.5 74q0 8 3.5 13.5t8.5 5.5q11 0 16.5 -8t6.5 -26q1 -20 1.5 -58t1.5 -86
q19 1 39.5 1h40.5h63t63 -1q0 45 0.5 86t0.5 73z" />
    <glyph glyph-name="hbar" unicode="&#x127;" horiz-adv-x="330" 
d="M12 721q1 8 3.5 12t6.5 5q4 0 9.5 -5t5.5 -18v-45.5v-44.5h4h4q18 0 36 -0.5t34 -0.5q9 -1 13.5 -8.5t4.5 -12.5q0 -4 -3.5 -6t-10.5 -3q-19 -1 -45.5 -2t-36.5 -1q-1 -162 -3 -288.5t-3 -195.5q10 75 24 147.5t33 128.5t44.5 90.5t59.5 34.5q27 0 37.5 -22t10.5 -58
q0 -31 -3.5 -71.5t-7.5 -84t-7.5 -88.5t-3.5 -84q0 -43 8.5 -57t17.5 -14q17 0 33 35t29.5 91t25.5 126.5t22 141.5q1 4 2 7.5t2 3.5q3 0 5 -4.5t2 -10.5q0 -12 -8 -80.5t-23.5 -146t-39.5 -140t-55 -62.5q-26 0 -43.5 27t-17.5 78q0 90 11.5 180.5t11.5 162.5q0 17 -4 26
t-14 9q-24 0 -47.5 -48t-42.5 -118t-32.5 -151t-18.5 -146q-1 -6 -6 -9.5t-11 -3.5q-10 0 -17.5 9t-8.5 30q-1 23 -1 87t0.5 144.5t2 167.5t3.5 156q-7 0 -12.5 0.5t-11.5 0.5q-9 0 -13.5 7t-4.5 13t5 8t13 3q6 0 12 0.5t13 0.5q1 34 3 59t4 38z" />
    <glyph glyph-name="Itilde" unicode="&#x128;" horiz-adv-x="214" 
d="M89 644q0 8 3.5 13.5t8.5 5.5q11 0 16.5 -8t6.5 -26q2 -36 2.5 -127t0 -189.5t-2 -183.5t-2.5 -110q-1 -11 -3 -17t-9 -6q-8 0 -12.5 7t-5.5 26q-1 21 -2 94.5t-1.5 166.5t-0.5 190.5t1 163.5zM145 678q-25 0 -37 24.5t-19.5 54t-14.5 54t-22 24.5t-20.5 -24t-7.5 -53
t-3 -53t-7 -24q-7 0 -12 12t-5 25q0 66 14.5 102.5t43.5 36.5q26 0 38.5 -24.5t19.5 -54t13.5 -54t20.5 -24.5q21 0 28 24t9.5 53t4.5 53t11 24q7 0 12.5 -10.5t5.5 -25.5q0 -68 -19.5 -104t-53.5 -36z" />
    <glyph glyph-name="itilde" unicode="&#x129;" horiz-adv-x="141" 
d="M84 557q-20 0 -29.5 18.5t-15 40t-11 40t-17.5 18.5q-15 0 -20.5 -18t-7.5 -39t-3 -39t-7 -18q-7 0 -12 12t-5 25q0 47 14.5 73t43.5 26q21 0 30.5 -18.5t15 -40t10.5 -40t16 -18.5q13 0 17.5 18t6 39t2.5 39t7 18q7 0 12.5 -10.5t5.5 -25.5q0 -49 -14 -74.5t-39 -25.5z
M65 29q16 0 30 35t26 91t23 126.5t21 141.5q1 5 2 8t2 3q4 0 6 -6t1 -14q-8 -68 -18 -143.5t-24 -137.5t-32 -102.5t-42 -40.5q-26 0 -43.5 27t-17.5 78q0 19 1.5 75.5t3.5 119.5t5.5 119.5t6.5 76.5q1 8 3.5 12t6.5 5q4 0 9.5 -5t5.5 -18q0 -90 -0.5 -154t-0.5 -108
t-0.5 -72t-0.5 -46q0 -43 8.5 -57t17.5 -14z" />
    <glyph glyph-name="Imacron" unicode="&#x12a;" horiz-adv-x="214" 
d="M89 644q0 8 3.5 13.5t8.5 5.5q11 0 16.5 -8t6.5 -26q2 -36 2.5 -127t0 -189.5t-2 -183.5t-2.5 -110q-1 -11 -3 -17t-9 -6q-8 0 -12.5 7t-5.5 26q-1 21 -2 94.5t-1.5 166.5t-0.5 190.5t1 163.5zM33 739q-11 0 -15.5 11t-4.5 13q0 3 2 5t9 3q11 2 30.5 4t41.5 3.5t44.5 2.5
t40.5 1q9 0 15 -9t6 -13t-2.5 -6t-6.5 -3q-32 -5 -79 -8.5t-81 -3.5z" />
    <glyph glyph-name="imacron" unicode="&#x12b;" horiz-adv-x="141" 
d="M-24 598q-11 0 -15.5 11t-4.5 13q0 3 2 5t9 3q9 2 25 4t33.5 3.5t36 2.5t32.5 1q9 0 15 -9t6 -13t-2.5 -6t-6.5 -3q-26 -4 -64 -8t-66 -4zM65 29q16 0 30 35t26 91t23 126.5t21 141.5q1 5 2 8t2 3q4 0 6 -6t1 -14q-8 -68 -18 -143.5t-24 -137.5t-32 -102.5t-42 -40.5
q-26 0 -43.5 27t-17.5 78q0 19 1.5 75.5t3.5 119.5t5.5 119.5t6.5 76.5q1 8 3.5 12t6.5 5q4 0 9.5 -5t5.5 -18q0 -90 -0.5 -154t-0.5 -108t-0.5 -72t-0.5 -46q0 -43 8.5 -57t17.5 -14z" />
    <glyph glyph-name="Ibreve" unicode="&#x12c;" horiz-adv-x="214" 
d="M89 644q0 8 3.5 13.5t8.5 5.5q11 0 16.5 -8t6.5 -26q2 -36 2.5 -127t0 -189.5t-2 -183.5t-2.5 -110q-1 -11 -3 -17t-9 -6q-8 0 -12.5 7t-5.5 26q-1 21 -2 94.5t-1.5 166.5t-0.5 190.5t1 163.5zM44 844q7 0 9.5 -18t7.5 -39.5t16 -39.5t34 -18q18 0 28 18t15.5 39t9 39
t9.5 18q4 0 8.5 -5t4.5 -17q0 -19 -4 -40t-14 -39t-25.5 -29.5t-37.5 -11.5q-45 0 -61 35.5t-16 80.5q0 13 6 20t10 7z" />
    <glyph glyph-name="ibreve" unicode="&#x12d;" horiz-adv-x="141" 
d="M65 29q16 0 30 35t26 91t23 126.5t21 141.5q1 5 2 8t2 3q4 0 6 -6t1 -14q-8 -68 -18 -143.5t-24 -137.5t-32 -102.5t-42 -40.5q-26 0 -43.5 27t-17.5 78q0 19 1.5 75.5t3.5 119.5t5.5 119.5t6.5 76.5q1 8 3.5 12t6.5 5q4 0 9.5 -5t5.5 -18q0 -90 -0.5 -154t-0.5 -108
t-0.5 -72t-0.5 -46q0 -43 8.5 -57t17.5 -14zM-22 703q7 0 9.5 -18t7.5 -39.5t16 -39.5t34 -18q18 0 28 18t15.5 39t9 39t9.5 18q4 0 8.5 -5t4.5 -17q0 -19 -4 -40t-14 -39t-25.5 -29.5t-37.5 -11.5q-45 0 -61 35.5t-16 80.5q0 13 6 20t10 7z" />
    <glyph glyph-name="Iogonek" unicode="&#x12e;" horiz-adv-x="214" 
d="M89 644q0 8 3.5 13.5t8.5 5.5q11 0 16.5 -8t6.5 -26q2 -36 2.5 -127t0 -189.5t-2 -183.5t-2.5 -110q-1 -11 -3 -17t-9 -6h-2.5t-2.5 1q-36 -25 -55.5 -48t-19.5 -41q0 -12 8 -20.5t24 -8.5q12 0 21.5 5.5t17 12t12.5 12t8 5.5t5.5 -3t2.5 -6q0 -12 -18.5 -32.5
t-50.5 -20.5q-25 0 -40.5 15.5t-15.5 36.5q0 31 28 57t65 44q-2 3 -3 9t-2 15q-1 21 -2 94.5t-1.5 166.5t-0.5 190.5t1 163.5z" />
    <glyph glyph-name="iogonek" unicode="&#x12f;" horiz-adv-x="145" 
d="M38 583q-13 0 -20.5 11.5t-7.5 25.5q0 19 9 31t22 12q15 0 21 -12t6 -23q0 -21 -8.5 -33t-21.5 -12zM68 29q16 0 30 35t26.5 91t23.5 126.5t21 141.5q1 5 2 8t2 3q4 0 6 -6t1 -14q-7 -65 -17 -137t-22.5 -133t-30 -103.5t-39.5 -49.5q-22 -24 -36.5 -45t-14.5 -38
q0 -12 8 -20.5t24 -8.5q12 0 21.5 5.5t17 12t12.5 12t8 5.5t5.5 -3t2.5 -6q0 -12 -18.5 -32.5t-50.5 -20.5q-25 0 -40.5 15.5t-15.5 36.5q0 26 15 48t38 41q-20 7 -32.5 33t-12.5 69q0 19 1.5 75.5t3.5 119.5t5.5 119.5t6.5 76.5q1 8 3.5 12t6.5 5q4 0 9.5 -5t5.5 -18
q0 -90 -0.5 -154t-0.5 -108t-0.5 -72t-0.5 -46q0 -43 8.5 -57t17.5 -14z" />
    <glyph glyph-name="Idotaccent" unicode="&#x130;" horiz-adv-x="214" 
d="M89 644q0 8 3.5 13.5t8.5 5.5q11 0 16.5 -8t6.5 -26q2 -36 2.5 -127t0 -189.5t-2 -183.5t-2.5 -110q-1 -11 -3 -17t-9 -6q-8 0 -12.5 7t-5.5 26q-1 21 -2 94.5t-1.5 166.5t-0.5 190.5t1 163.5zM108 733q-20 0 -30 11t-10 25q0 18 12 30t33 12q19 0 26.5 -12t7.5 -22
q0 -21 -10.5 -32.5t-28.5 -11.5z" />
    <glyph glyph-name="dotlessi" unicode="&#x131;" horiz-adv-x="141" 
d="M65 29q16 0 30 35t26 91t23 126.5t21 141.5q1 5 2 8t2 3q4 0 6 -6t1 -14q-8 -68 -18 -143.5t-24 -137.5t-32 -102.5t-42 -40.5q-26 0 -43.5 27t-17.5 78q0 19 1.5 75.5t3.5 119.5t5.5 119.5t6.5 76.5q1 8 3.5 12t6.5 5q4 0 9.5 -5t5.5 -18q0 -90 -0.5 -154t-0.5 -108
t-0.5 -72t-0.5 -46q0 -43 8.5 -57t17.5 -14z" />
    <glyph glyph-name="IJ" unicode="&#x132;" horiz-adv-x="437" 
d="M89 644q0 8 3.5 13.5t8.5 5.5q11 0 16.5 -8t6.5 -26q2 -36 2.5 -127t0 -189.5t-2 -183.5t-2.5 -110q-1 -11 -3 -17t-9 -6q-8 0 -12.5 7t-5.5 26q-1 21 -2 94.5t-1.5 166.5t-0.5 190.5t1 163.5zM250 -95q-20 0 -32 4t-12 12q0 5 4 9t11 5q43 5 66.5 24.5t23.5 65.5
q0 31 -0.5 74.5t-1 93.5t-1 103.5t-0.5 103.5q-1 61 -0.5 122t1.5 107q1 17 3.5 27t9.5 10q4 0 11.5 -4t8.5 -14q4 -31 6 -97.5t2 -144.5v-114t-0.5 -105.5t-1.5 -84.5t-2 -50q-2 -22 -5.5 -48t-13 -48t-28 -36.5t-49.5 -14.5z" />
    <glyph glyph-name="ij" unicode="&#x133;" horiz-adv-x="274" 
d="M38 583q-13 0 -20.5 11.5t-7.5 25.5q0 19 9 31t22 12q15 0 21 -12t6 -23q0 -21 -8.5 -33t-21.5 -12zM180 583q-13 0 -20.5 11.5t-7.5 25.5q0 19 9 31t22 12q15 0 21 -12t6 -23q0 -21 -8.5 -33t-21.5 -12zM157 -167q-10 0 -19.5 8.5t-9.5 21.5q0 24 8.5 51.5t20.5 61.5
q1 51 1 118.5v148.5q-7 -50 -16.5 -96t-21 -80.5t-26 -55.5t-31.5 -21q-26 0 -43.5 27t-17.5 78q0 19 1.5 75.5t3.5 119.5t5.5 119.5t6.5 76.5q1 8 3.5 12t6.5 5q4 0 9.5 -5t5.5 -18q0 -90 -0.5 -154t-0.5 -108t-0.5 -72t-0.5 -46q0 -43 8.5 -57t17.5 -14q13 0 25.5 26.5
t24 70t21.5 101t19 118.5v63.5v66.5q0 17 2.5 22.5t6.5 5.5q9 0 13.5 -11.5t5.5 -26.5q1 -21 1.5 -50t0.5 -60.5v-64v-60.5q0 -59 -0.5 -107.5t-1.5 -88.5q39 90 67.5 183.5t44.5 205.5q1 4 2 7.5t2 3.5q3 0 5 -4.5t2 -10.5q0 -24 -8.5 -72.5t-24 -107t-39 -123
t-53.5 -120.5q-4 -88 -10.5 -125.5t-16.5 -37.5z" />
    <glyph glyph-name="Jcircumflex" unicode="&#x134;" horiz-adv-x="223" 
d="M36 -95q-20 0 -32 4t-12 12q0 5 4 9t11 5q43 5 66.5 24.5t23.5 65.5q0 31 -0.5 74.5t-1 93.5t-1 103.5t-0.5 103.5q-1 61 -0.5 122t1.5 107q1 17 3.5 27t9.5 10q4 0 11.5 -4t8.5 -14q4 -31 6 -97.5t2 -144.5v-114t-0.5 -105.5t-1.5 -84.5t-2 -50q-2 -22 -5.5 -48t-13 -48
t-28 -36.5t-49.5 -14.5zM206 703q-6 0 -17 11t-24 28t-26.5 38t-23.5 40q-24 -48 -53.5 -83.5t-35.5 -35.5q-3 0 -5.5 4t-2.5 9q0 9 28 51.5t56 96.5q1 4 5 6t5 2q4 0 9 -2.5t9 -8.5q12 -23 26.5 -46.5t27 -43.5t21 -35.5t8.5 -22.5q0 -2 -2 -5t-5 -3z" />
    <glyph glyph-name="jcircumflex" unicode="&#x135;" horiz-adv-x="248" 
d="M12 -167q-10 0 -19.5 8.5t-9.5 21.5q0 24 8.5 51.5t20.5 61.5q1 84 1 211.5v287.5q0 17 2.5 22.5t6.5 5.5q9 0 13.5 -11.5t5.5 -26.5q1 -21 2 -50t1 -60.5t-0.5 -64t-0.5 -60.5q0 -59 -0.5 -107.5t-1.5 -88.5q39 90 67.5 183.5t44.5 205.5q1 4 2 7.5t2 3.5q3 0 5 -4.5
t2 -10.5q0 -24 -8.5 -72.5t-24 -107t-39 -123t-53.5 -120.5q-4 -88 -10.5 -125.5t-16.5 -37.5zM119 559q-6 0 -17 11t-24 28t-26.5 38t-23.5 40q-24 -48 -53.5 -83.5t-35.5 -35.5q-3 0 -5.5 4t-2.5 9q0 9 28 51.5t56 96.5q1 4 5 6t5 2q4 0 9 -2.5t9 -8.5q12 -23 26.5 -46.5
t27 -43.5t21 -35.5t8.5 -22.5q0 -2 -2 -5t-5 -3z" />
    <glyph glyph-name="Kcommaaccent" unicode="&#x136;" horiz-adv-x="424" 
d="M122 19q-1 -11 -3 -17t-9 -6q-8 0 -12.5 7t-5.5 26q-1 21 -2 94.5t-1.5 166.5t-0.5 190.5t1 163.5q0 8 3.5 13.5t8.5 5.5q11 0 16.5 -8t6.5 -26q1 -19 1.5 -55.5t1 -82t0 -98.5t-0.5 -105q38 41 72.5 90t63.5 98.5t52.5 96.5t39.5 82q3 7 5.5 9.5t4.5 2.5q6 0 12 -5
t6 -12q0 -16 -20.5 -61t-52.5 -99.5t-72 -112t-79 -98.5q29 -32 60 -67.5t59.5 -68.5t53.5 -61.5t42 -47.5q4 -5 6 -8.5t2 -5.5q0 -7 -6.5 -14.5t-12.5 -7.5q-4 0 -8.5 3t-9.5 9q-21 24 -50 58t-59 70.5t-58.5 72t-50.5 62.5q0 -44 -0.5 -85t-1.5 -74.5t-1.5 -58.5t-0.5 -36
zM192 -198q-4 0 -5.5 2.5t-1.5 4.5q0 6 5.5 16.5t12.5 27.5t12.5 40.5t5.5 53.5q0 6 2.5 9.5t6.5 3.5q10 0 18 -6t8 -16q0 -24 -6 -48t-15.5 -43.5t-21 -32t-21.5 -12.5z" />
    <glyph glyph-name="kcommaaccent" unicode="&#x137;" horiz-adv-x="290" 
d="M82 -198q-4 0 -5.5 2.5t-1.5 4.5q0 6 5.5 16.5t12.5 27.5t12.5 40.5t5.5 53.5q0 6 2.5 9.5t6.5 3.5q10 0 18 -6t8 -16q0 -24 -6 -48t-15.5 -43.5t-21 -32t-21.5 -12.5zM4 644q0 8 3.5 13.5t8.5 5.5q11 0 16.5 -8t6.5 -26q1 -21 2 -63.5t1 -95.5t-0.5 -113t-0.5 -116
q59 57 91.5 118.5t53.5 133.5q2 7 5 10.5t8 3.5q6 0 15.5 -6.5t9.5 -19.5q0 -21 -13.5 -52t-35.5 -65t-51 -67.5t-59 -59.5q48 -96 77.5 -152t61.5 -56q17 0 33 35t29.5 91t25.5 126.5t22 141.5q1 4 2 7.5t2 3.5q3 0 5 -4.5t2 -10.5q0 -12 -8 -80.5t-23.5 -146t-39.5 -140
t-55 -62.5q-21 0 -40 17.5t-37.5 48.5t-38.5 74.5t-42 94.5q-1 -72 -2 -129.5t-2 -76.5q-1 -11 -3 -17t-9 -6q-8 0 -12.5 7t-5.5 26q-1 21 -2 94.5t-1.5 166.5t-0.5 190.5t1 163.5z" />
    <glyph glyph-name="kgreenlandic" unicode="&#x138;" horiz-adv-x="290" 
d="M204 29q17 0 33 35t29.5 91t25.5 126.5t22 141.5q1 4 2 7.5t2 3.5q3 0 5 -4.5t2 -10.5q0 -12 -8 -80.5t-23.5 -146t-39.5 -140t-55 -62.5q-21 0 -40 17.5t-38 49t-38.5 75t-42.5 95.5q0 -35 -0.5 -69t-1 -61.5t-1 -48t-0.5 -29.5q-1 -11 -3 -17t-9 -6q-8 0 -12.5 7
t-5.5 26q-1 15 -2 70t-1 123.5v140v120.5q0 8 3.5 13.5t8.5 5.5q11 0 16.5 -8t6.5 -26q1 -13 1.5 -37t0.5 -54t-0.5 -65.5t-0.5 -71.5q60 58 92.5 119.5t53.5 133.5q2 7 5 10.5t8 3.5q6 0 15.5 -6.5t9.5 -19.5q0 -21 -13.5 -52t-35.5 -65t-51 -67.5t-59 -59.5
q48 -96 77.5 -152t61.5 -56z" />
    <glyph glyph-name="Lacute" unicode="&#x139;" horiz-adv-x="363" 
d="M268 859q3 4 5.5 6t5.5 2q8 0 17 -8t9 -14q0 -3 -1 -6t-4 -7q-5 -7 -21.5 -29t-35.5 -45t-36 -41.5t-21 -18.5t-6 3t-2 9t10 24t24 40t29.5 45.5t26.5 39.5zM89 644q0 8 3.5 13.5t8.5 5.5q11 0 16.5 -8t6.5 -26q2 -35 2.5 -123t0 -184.5t-2 -181.5t-2.5 -116q24 1 52 2
t53.5 1.5t46 1t28.5 0.5q22 0 31 -4t9 -11q0 -6 -6 -8.5t-27 -4.5q-6 -1 -22.5 -2t-37 -2t-43 -2t-41.5 -1q-23 0 -36.5 0.5t-20.5 1.5t-11 8t-5 25q-1 21 -2 94.5t-1.5 166.5t-0.5 190.5t1 163.5z" />
    <glyph glyph-name="lacute" unicode="&#x13a;" horiz-adv-x="202" 
d="M38 329v-20v-20q41 89 63 176.5t22 150.5q0 57 -8.5 75.5t-19.5 18.5q-13 0 -23.5 -29.5t-18 -80t-11.5 -120.5t-4 -151zM108 29q19 0 36 35t32.5 91t28 126.5t22.5 141.5q2 17 7 9.5t4 -18.5q-8 -68 -19.5 -143.5t-28 -137.5t-38 -102.5t-49.5 -40.5q-55 0 -80 90.5
t-24 296.5q0 81 6.5 148t19 114t30.5 73t40 26q30 0 44 -28.5t14 -81.5q0 -100 -32.5 -192t-81.5 -175q2 -119 18 -175.5t51 -56.5zM145 920q3 4 5.5 6t5.5 2q8 0 17 -8t9 -14q0 -3 -1 -6t-4 -7q-5 -7 -21.5 -29t-35.5 -45t-36 -41.5t-21 -18.5t-6 3t-2 9t10 24t24 40
t29.5 45.5t26.5 39.5z" />
    <glyph glyph-name="Lcommaaccent" unicode="&#x13b;" horiz-adv-x="363" 
d="M89 644q0 8 3.5 13.5t8.5 5.5q11 0 16.5 -8t6.5 -26q2 -35 2.5 -123t0 -184.5t-2 -181.5t-2.5 -116q24 1 52 2t53.5 1.5t46 1t28.5 0.5q22 0 31 -4t9 -11q0 -6 -6 -8.5t-27 -4.5q-6 -1 -22.5 -2t-37 -2t-43 -2t-41.5 -1q-23 0 -36.5 0.5t-20.5 1.5t-11 8t-5 25
q-1 21 -2 94.5t-1.5 166.5t-0.5 190.5t1 163.5zM173 -198q-4 0 -5.5 2.5t-1.5 4.5q0 6 5.5 16.5t12.5 27.5t12.5 40.5t5.5 53.5q0 6 2.5 9.5t6.5 3.5q10 0 18 -6t8 -16q0 -24 -6 -48t-15.5 -43.5t-21 -32t-21.5 -12.5z" />
    <glyph glyph-name="lcommaaccent" unicode="&#x13c;" horiz-adv-x="202" 
d="M38 329v-20v-20q41 89 63 176.5t22 150.5q0 57 -8.5 75.5t-19.5 18.5q-13 0 -23.5 -29.5t-18 -80t-11.5 -120.5t-4 -151zM108 29q19 0 36 35t32.5 91t28 126.5t22.5 141.5q2 17 7 9.5t4 -18.5q-8 -68 -19.5 -143.5t-28 -137.5t-38 -102.5t-49.5 -40.5q-55 0 -80 90.5
t-24 296.5q0 81 6.5 148t19 114t30.5 73t40 26q30 0 44 -28.5t14 -81.5q0 -100 -32.5 -192t-81.5 -175q2 -119 18 -175.5t51 -56.5zM55 -198q-4 0 -5.5 2.5t-1.5 4.5q0 6 5.5 16.5t12.5 27.5t12.5 40.5t5.5 53.5q0 6 2.5 9.5t6.5 3.5q10 0 18 -6t8 -16q0 -24 -6 -48
t-15.5 -43.5t-21 -32t-21.5 -12.5z" />
    <glyph glyph-name="Lcaron" unicode="&#x13d;" horiz-adv-x="363" 
d="M89 644q0 8 3.5 13.5t8.5 5.5q11 0 16.5 -8t6.5 -26q2 -35 2.5 -123t0 -184.5t-2 -181.5t-2.5 -116q24 1 52 2t53.5 1.5t46 1t28.5 0.5q22 0 31 -4t9 -11q0 -6 -6 -8.5t-27 -4.5q-6 -1 -22.5 -2t-37 -2t-43 -2t-41.5 -1q-23 0 -36.5 0.5t-20.5 1.5t-11 8t-5 25
q-1 21 -2 94.5t-1.5 166.5t-0.5 190.5t1 163.5zM254 405q-3 0 -4.5 2.5t-1.5 6.5q0 12 4 27.5t8 42t8 68t4 103.5q0 7 1.5 11.5t6.5 4.5q10 0 19 -14t9 -36q0 -41 -5.5 -80.5t-13.5 -69.5t-17.5 -48t-17.5 -18z" />
    <glyph glyph-name="lcaron" unicode="&#x13e;" horiz-adv-x="256" 
d="M177 404q-3 0 -4.5 2.5t-1.5 6.5q0 12 4 27.5t8 42t8 68t4 103.5q0 7 1.5 11.5t6.5 4.5q10 0 19 -14t9 -36q0 -41 -5.5 -80.5t-13.5 -69.5t-17.5 -48t-17.5 -18zM38 329v-20v-19q40 87 59.5 175t19.5 151q0 57 -6.5 75.5t-15.5 18.5q-13 0 -23.5 -29.5t-18 -80
t-11.5 -120.5t-4 -151zM108 29q27 0 54 34.5t50 90.5t41 126.5t28 142.5q1 5 2 8t2 3q3 0 5.5 -6.5t1.5 -13.5q-8 -69 -24 -144t-39.5 -137t-55 -102.5t-70.5 -40.5q-55 0 -80 90.5t-24 296.5q0 81 6.5 148t19 114t30.5 73t40 26q27 0 39.5 -28.5t12.5 -81.5
q0 -100 -29.5 -193t-78.5 -174q2 -119 18 -175.5t51 -56.5z" />
    <glyph glyph-name="Ldot" unicode="&#x13f;" horiz-adv-x="363" 
d="M89 644q0 8 3.5 13.5t8.5 5.5q11 0 16.5 -8t6.5 -26q2 -35 2.5 -123t0 -184.5t-2 -181.5t-2.5 -116q24 1 52 2t53.5 1.5t46 1t28.5 0.5q22 0 31 -4t9 -11q0 -6 -6 -8.5t-27 -4.5q-6 -1 -22.5 -2t-37 -2t-43 -2t-41.5 -1q-23 0 -36.5 0.5t-20.5 1.5t-11 8t-5 25
q-1 21 -2 94.5t-1.5 166.5t-0.5 190.5t1 163.5zM261 314q-20 0 -30 11t-10 25q0 18 12 30t33 12q19 0 26.5 -12t7.5 -22q0 -21 -10.5 -32.5t-28.5 -11.5z" />
    <glyph glyph-name="ldot" unicode="&#x140;" horiz-adv-x="202" 
d="M99 222q-20 0 -30 11t-10 25q0 18 12 30t33 12q19 0 26.5 -12t7.5 -22q0 -21 -10.5 -32.5t-28.5 -11.5zM38 329v-20v-20q41 89 63 176.5t22 150.5q0 57 -8.5 75.5t-19.5 18.5q-13 0 -23.5 -29.5t-18 -80t-11.5 -120.5t-4 -151zM108 29q19 0 36 35t32.5 91t28 126.5
t22.5 141.5q2 17 7 9.5t4 -18.5q-8 -68 -19.5 -143.5t-28 -137.5t-38 -102.5t-49.5 -40.5q-55 0 -80 90.5t-24 296.5q0 81 6.5 148t19 114t30.5 73t40 26q30 0 44 -28.5t14 -81.5q0 -100 -32.5 -192t-81.5 -175q2 -119 18 -175.5t51 -56.5z" />
    <glyph glyph-name="Lslash" unicode="&#x141;" horiz-adv-x="409" 
d="M89 644q0 8 3.5 13.5t8.5 5.5q11 0 16.5 -8t6.5 -26q1 -20 1.5 -57.5t1 -85t0 -102.5t-0.5 -108q34 13 63.5 24.5t40.5 12.5q4 1 6.5 -6t2.5 -10t-1.5 -5t-4.5 -3q-26 -13 -54 -25.5t-53 -22.5q-1 -73 -2 -133t-2 -84q24 1 52 2t53.5 1.5t46 1t28.5 0.5q22 0 31 -4t9 -11
q0 -6 -6 -8.5t-27 -4.5q-6 -1 -22.5 -2t-37 -2t-43 -2t-41.5 -1q-23 0 -36.5 0.5t-20.5 1.5t-11 8t-5 25q-1 17 -2 71t-1 126q-18 -7 -32 -11.5t-21 -5.5q-4 -1 -6.5 5.5t-3.5 11.5q0 4 1.5 6t5.5 3q12 5 26 11.5t29 13.5v102v103.5t0.5 96.5t0.5 82z" />
    <glyph glyph-name="lslash" unicode="&#x142;" horiz-adv-x="202" 
d="M37 329v-10.5v-9.5q40 84 62.5 165.5t22.5 141.5q0 57 -8.5 75.5t-19.5 18.5q-13 0 -23.5 -29.5t-18 -80t-11.5 -120.5t-4 -151zM107 29q19 0 36 35t32.5 91t28 126.5t22.5 141.5q2 17 7 9.5t4 -18.5q-8 -68 -19.5 -143.5t-28 -137.5t-38 -102.5t-49.5 -40.5
q-45 0 -69.5 58t-31.5 188q-7 -1 -12 -1.5t-9 -0.5t-7.5 5.5t-3.5 9.5t2 6.5t6 3.5t10 3t12 3q-1 25 -1 53v59q0 81 6.5 148t19 114t30.5 73t40 26q30 0 44 -28.5t14 -81.5q0 -96 -33.5 -182t-81.5 -165v-3v-3q30 7 57.5 13.5t36.5 6.5q7 0 11 -8t4 -12t-2.5 -7t-7.5 -4
q-22 -7 -48.5 -13t-49.5 -10q4 -108 19.5 -160t49.5 -52z" />
    <glyph glyph-name="Nacute" unicode="&#x143;" horiz-adv-x="480" 
d="M89 23q-1 20 -1 61.5v95.5q0 61 1 134t2.5 139t3.5 119t4 75q1 8 3 12.5t9 4.5t15 -4.5t13 -15.5q15 -32 43 -104.5t59.5 -159.5t64 -178.5t56.5 -162.5q-3 109 -4.5 213.5t-2 188t-1 139.5t-0.5 70q0 10 2 14t8 4q8 0 16.5 -8t9.5 -24q1 -19 1.5 -55.5t0.5 -71.5
q0 -62 -1 -141t-2.5 -152t-3.5 -129.5t-3 -74.5q-1 -9 -4 -14t-8 -5q-7 0 -17 3.5t-14 14.5q-16 40 -43 113t-58 158.5t-62.5 174.5t-55.5 162q1 -66 2.5 -160t2.5 -184.5t2 -163t1 -96.5q0 -10 -3 -15.5t-8 -5.5q-6 0 -16.5 7t-11.5 22zM292 864q3 4 5.5 6t5.5 2q8 0 17 -8
t9 -14q0 -3 -1 -6t-4 -7q-5 -7 -21.5 -29t-35.5 -45t-36 -41.5t-21 -18.5t-6 3t-2 9t10 24t24 40t29.5 45.5t26.5 39.5z" />
    <glyph glyph-name="nacute" unicode="&#x144;" horiz-adv-x="330" 
d="M244 29q17 0 33 35t29.5 91t25.5 126.5t22 141.5q1 4 2 7.5t2 3.5q3 0 5 -4.5t2 -10.5q0 -12 -8 -80.5t-23.5 -146t-39.5 -140t-55 -62.5q-26 0 -43.5 27t-17.5 78q0 90 11.5 180.5t11.5 162.5q0 17 -4 26t-14 9q-24 0 -47.5 -48t-42.5 -118t-32.5 -151t-18.5 -146
q-1 -6 -6 -9.5t-11 -3.5q-10 0 -17.5 9t-8.5 30q0 19 0.5 81.5t2 133t4.5 133.5t6 83q1 8 3.5 12t6.5 5q4 0 9.5 -5t5.5 -18q0 -110 -2 -200.5t-3 -146.5q10 75 24 146t33 126t44.5 88.5t58.5 33.5q27 0 37.5 -22t10.5 -58q0 -31 -3.5 -71.5t-7.5 -84t-7.5 -88.5t-3.5 -84
q0 -43 8.5 -57t17.5 -14zM175 718q3 4 5.5 6t5.5 2q8 0 17 -8t9 -14q0 -3 -1 -6t-4 -7q-5 -7 -21.5 -29t-35.5 -45t-36 -41.5t-21 -18.5t-6 3t-2 9t10 24t24 40t29.5 45.5t26.5 39.5z" />
    <glyph glyph-name="Ncommaaccent" unicode="&#x145;" horiz-adv-x="480" 
d="M89 23q-1 20 -1 61.5v95.5q0 61 1 134t2.5 139t3.5 119t4 75q1 8 3 12.5t9 4.5t15 -4.5t13 -15.5q15 -32 43 -104.5t59.5 -159.5t64 -178.5t56.5 -162.5q-3 109 -4.5 213.5t-2 188t-1 139.5t-0.5 70q0 10 2 14t8 4q8 0 16.5 -8t9.5 -24q1 -19 1.5 -55.5t0.5 -71.5
q0 -62 -1 -141t-2.5 -152t-3.5 -129.5t-3 -74.5q-1 -9 -4 -14t-8 -5q-7 0 -17 3.5t-14 14.5q-16 40 -43 113t-58 158.5t-62.5 174.5t-55.5 162q1 -66 2.5 -160t2.5 -184.5t2 -163t1 -96.5q0 -10 -3 -15.5t-8 -5.5q-6 0 -16.5 7t-11.5 22zM197 -198q-4 0 -5.5 2.5t-1.5 4.5
q0 6 5.5 16.5t12.5 27.5t12.5 40.5t5.5 53.5q0 6 2.5 9.5t6.5 3.5q10 0 18 -6t8 -16q0 -24 -6 -48t-15.5 -43.5t-21 -32t-21.5 -12.5z" />
    <glyph glyph-name="ncommaaccent" unicode="&#x146;" horiz-adv-x="330" 
d="M80 -198q-4 0 -5.5 2.5t-1.5 4.5q0 6 5.5 16.5t12.5 27.5t12.5 40.5t5.5 53.5q0 6 2.5 9.5t6.5 3.5q10 0 18 -6t8 -16q0 -24 -6 -48t-15.5 -43.5t-21 -32t-21.5 -12.5zM244 29q17 0 33 35t29.5 91t25.5 126.5t22 141.5q1 4 2 7.5t2 3.5q3 0 5 -4.5t2 -10.5
q0 -12 -8 -80.5t-23.5 -146t-39.5 -140t-55 -62.5q-26 0 -43.5 27t-17.5 78q0 90 11.5 180.5t11.5 162.5q0 17 -4 26t-14 9q-24 0 -47.5 -48t-42.5 -118t-32.5 -151t-18.5 -146q-1 -6 -6 -9.5t-11 -3.5q-10 0 -17.5 9t-8.5 30q0 19 0.5 81.5t2 133t4.5 133.5t6 83
q1 8 3.5 12t6.5 5q4 0 9.5 -5t5.5 -18q0 -110 -2 -200.5t-3 -146.5q10 75 24 146t33 126t44.5 88.5t58.5 33.5q27 0 37.5 -22t10.5 -58q0 -31 -3.5 -71.5t-7.5 -84t-7.5 -88.5t-3.5 -84q0 -43 8.5 -57t17.5 -14z" />
    <glyph glyph-name="Ncaron" unicode="&#x147;" horiz-adv-x="480" 
d="M89 23q-1 20 -1 61.5v95.5q0 61 1 134t2.5 139t3.5 119t4 75q1 8 3 12.5t9 4.5t15 -4.5t13 -15.5q15 -32 43 -104.5t59.5 -159.5t64 -178.5t56.5 -162.5q-3 109 -4.5 213.5t-2 188t-1 139.5t-0.5 70q0 10 2 14t8 4q8 0 16.5 -8t9.5 -24q1 -19 1.5 -55.5t0.5 -71.5
q0 -62 -1 -141t-2.5 -152t-3.5 -129.5t-3 -74.5q-1 -9 -4 -14t-8 -5q-7 0 -17 3.5t-14 14.5q-16 40 -43 113t-58 158.5t-62.5 174.5t-55.5 162q1 -66 2.5 -160t2.5 -184.5t2 -163t1 -96.5q0 -10 -3 -15.5t-8 -5.5q-6 0 -16.5 7t-11.5 22zM244 705q-4 0 -9 2.5t-9 8.5
q-12 23 -26.5 46.5t-27 43.5t-21 35.5t-8.5 22.5q0 2 2 5t5 3q6 0 17 -11t24 -28t26.5 -38t23.5 -40q24 48 53.5 83.5t35.5 35.5q3 0 5.5 -4t2.5 -9q0 -9 -28 -51.5t-56 -96.5q-1 -4 -5 -6t-5 -2z" />
    <glyph glyph-name="ncaron" unicode="&#x148;" horiz-adv-x="330" 
d="M244 29q17 0 33 35t29.5 91t25.5 126.5t22 141.5q1 4 2 7.5t2 3.5q3 0 5 -4.5t2 -10.5q0 -12 -8 -80.5t-23.5 -146t-39.5 -140t-55 -62.5q-26 0 -43.5 27t-17.5 78q0 90 11.5 180.5t11.5 162.5q0 17 -4 26t-14 9q-24 0 -47.5 -48t-42.5 -118t-32.5 -151t-18.5 -146
q-1 -6 -6 -9.5t-11 -3.5q-10 0 -17.5 9t-8.5 30q0 19 0.5 81.5t2 133t4.5 133.5t6 83q1 8 3.5 12t6.5 5q4 0 9.5 -5t5.5 -18q0 -110 -2 -200.5t-3 -146.5q10 75 24 146t33 126t44.5 88.5t58.5 33.5q27 0 37.5 -22t10.5 -58q0 -31 -3.5 -71.5t-7.5 -84t-7.5 -88.5t-3.5 -84
q0 -43 8.5 -57t17.5 -14zM127 559q-4 0 -9 2.5t-9 8.5q-12 23 -26.5 46.5t-27 43.5t-21 35.5t-8.5 22.5q0 2 2 5t5 3q6 0 17 -11t24 -28t26.5 -38t23.5 -40q24 48 53.5 83.5t35.5 35.5q3 0 5.5 -4t2.5 -9q0 -9 -28 -51.5t-56 -96.5q-1 -4 -5 -6t-5 -2z" />
    <glyph glyph-name="napostrophe" unicode="&#x149;" horiz-adv-x="330" 
d="M-1 513q-4 0 -5.5 2t-1.5 4q0 3 6 15.5t13 32t13 45.5t6 55q0 6 3.5 9.5t7.5 3.5q10 0 20 -7.5t10 -20.5q0 -29 -8.5 -55t-20 -44.5t-24 -29t-19.5 -10.5zM244 29q17 0 33 35t29.5 91t25.5 126.5t22 141.5q1 4 2 7.5t2 3.5q3 0 5 -4.5t2 -10.5q0 -12 -8 -80.5t-23.5 -146
t-39.5 -140t-55 -62.5q-26 0 -43.5 27t-17.5 78q0 90 11.5 180.5t11.5 162.5q0 17 -4 26t-14 9q-24 0 -47.5 -48t-42.5 -118t-32.5 -151t-18.5 -146q-1 -6 -6 -9.5t-11 -3.5q-10 0 -17.5 9t-8.5 30q0 19 0.5 81.5t2 133t4.5 133.5t6 83q1 8 3.5 12t6.5 5q4 0 9.5 -5t5.5 -18
q0 -110 -2 -200.5t-3 -146.5q10 75 24 146t33 126t44.5 88.5t58.5 33.5q27 0 37.5 -22t10.5 -58q0 -31 -3.5 -71.5t-7.5 -84t-7.5 -88.5t-3.5 -84q0 -43 8.5 -57t17.5 -14z" />
    <glyph glyph-name="Eng" unicode="&#x14a;" horiz-adv-x="480" 
d="M290 -95q-20 0 -32 4t-12 12q0 5 4 9t11 5q38 4 61 20t28 50q-22 49 -52 125.5t-61.5 161.5t-62.5 172t-54 158q1 -65 2.5 -159.5t2.5 -186t2 -164.5t1 -97q0 -10 -3 -15.5t-8 -5.5q-6 0 -16.5 7t-11.5 22q-1 20 -1 61.5v95.5q0 61 1 134t2.5 139t3.5 119t4 75
q1 8 3 12.5t9 4.5t15 -4.5t13 -15.5q15 -33 43 -106t60 -160.5t64.5 -179.5t56.5 -163q-3 110 -4.5 215t-2.5 189t-1.5 140.5t-0.5 70.5q0 10 2 14t8 4q8 0 16.5 -8t9.5 -24q1 -19 1.5 -55.5t0.5 -71.5q0 -57 -0.5 -130t-2 -140.5t-3 -121t-2.5 -72.5q-2 -19 -5 -43.5
t-12.5 -46t-27.5 -36t-49 -14.5z" />
    <glyph glyph-name="eng" unicode="&#x14b;" horiz-adv-x="314" 
d="M199 45q2 102 2.5 206.5t-0.5 186.5q0 17 -4 26t-14 9q-24 0 -47.5 -48t-42.5 -118t-32.5 -151t-18.5 -146q-1 -6 -6 -9.5t-11 -3.5q-10 0 -17.5 9t-8.5 30q0 19 0.5 81.5t2 133t4.5 133.5t6 83q1 8 3.5 12t6.5 5q4 0 9.5 -5t5.5 -18q0 -110 -2 -200.5t-3 -146.5
q10 75 24 146t33 126t44.5 88.5t58.5 33.5q27 0 37 -22t11 -58q1 -35 1 -81.5t-0.5 -96.5t-1.5 -101.5t-2 -96.5q0 -22 -3.5 -48t-13.5 -48t-29 -36.5t-50 -14.5q-20 0 -32 4t-12 12q0 5 4 9t11 5q42 5 64 29.5t23 80.5z" />
    <glyph glyph-name="Omacron" unicode="&#x14c;" horiz-adv-x="413" 
d="M206 23q57 0 86.5 94t29.5 263q0 82 -9.5 133t-24.5 78.5t-34 37t-38 9.5q-51 0 -88 -88t-37 -276q0 -134 31 -192.5t84 -58.5zM206 -10q-72 0 -113 70.5t-41 209.5q0 91 10.5 165t31 126t52 80.5t72.5 28.5q31 0 57.5 -14.5t45.5 -49t29.5 -91t10.5 -140.5
q0 -181 -37 -283t-118 -102zM135 746q-11 0 -15.5 11t-4.5 13q0 3 2 5t9 3q11 2 30.5 4t41.5 3.5t44.5 2.5t40.5 1q9 0 15 -9t6 -13t-2.5 -6t-6.5 -3q-32 -5 -79 -8.5t-81 -3.5z" />
    <glyph glyph-name="omacron" unicode="&#x14d;" horiz-adv-x="289" 
d="M102 20q31 0 48.5 42t24.5 117q-6 4 -8.5 9t-2.5 11q0 7 3 14t10 11q1 17 1.5 36t0.5 39q0 108 -17.5 146t-48.5 38q-24 0 -39.5 -22t-24.5 -60.5t-12.5 -92.5t-3.5 -117q0 -75 17 -123t52 -48zM106 -9q-63 0 -86.5 59t-23.5 160q0 61 5.5 115.5t19 95.5t36 65t56.5 24
q51 0 76 -52.5t25 -183.5q0 -19 -0.5 -37.5t-1.5 -35.5q23 6 40 27t29.5 51t20 67.5t11.5 76.5q1 4 1.5 6.5t1.5 2.5q4 0 6.5 -4.5t1.5 -12.5q-3 -33 -10 -73.5t-20.5 -76t-34 -61.5t-49.5 -30q-8 -88 -34 -135.5t-70 -47.5zM31 598q-11 0 -15.5 11t-4.5 13q0 3 2 5t9 3
q11 2 30.5 4t41.5 3.5t44.5 2.5t40.5 1q9 0 15 -9t6 -13t-2.5 -6t-6.5 -3q-32 -5 -79 -8.5t-81 -3.5z" />
    <glyph glyph-name="Obreve" unicode="&#x14e;" horiz-adv-x="413" 
d="M206 23q57 0 86.5 94t29.5 263q0 82 -9.5 133t-24.5 78.5t-34 37t-38 9.5q-51 0 -88 -88t-37 -276q0 -134 31 -192.5t84 -58.5zM206 -10q-72 0 -113 70.5t-41 209.5q0 91 10.5 165t31 126t52 80.5t72.5 28.5q31 0 57.5 -14.5t45.5 -49t29.5 -91t10.5 -140.5
q0 -181 -37 -283t-118 -102zM146 851q7 0 9.5 -18t7.5 -39.5t16 -39.5t34 -18q18 0 28 18t15.5 39t9 39t9.5 18q4 0 8.5 -5t4.5 -17q0 -19 -4 -40t-14 -39t-25.5 -29.5t-37.5 -11.5q-45 0 -61 35.5t-16 80.5q0 13 6 20t10 7z" />
    <glyph glyph-name="obreve" unicode="&#x14f;" horiz-adv-x="289" 
d="M102 20q31 0 48.5 42t24.5 117q-6 4 -8.5 9t-2.5 11q0 7 3 14t10 11q1 17 1.5 36t0.5 39q0 108 -17.5 146t-48.5 38q-24 0 -39.5 -22t-24.5 -60.5t-12.5 -92.5t-3.5 -117q0 -75 17 -123t52 -48zM106 -9q-63 0 -86.5 59t-23.5 160q0 61 5.5 115.5t19 95.5t36 65t56.5 24
q51 0 76 -52.5t25 -183.5q0 -19 -0.5 -37.5t-1.5 -35.5q23 6 40 27t29.5 51t20 67.5t11.5 76.5q1 4 1.5 6.5t1.5 2.5q4 0 6.5 -4.5t1.5 -12.5q-3 -33 -10 -73.5t-20.5 -76t-34 -61.5t-49.5 -30q-8 -88 -34 -135.5t-70 -47.5zM43 703q7 0 9.5 -18t7.5 -39.5t16 -39.5t34 -18
q18 0 28 18t15.5 39t9 39t9.5 18q4 0 8.5 -5t4.5 -17q0 -19 -4 -40t-14 -39t-25.5 -29.5t-37.5 -11.5q-45 0 -61 35.5t-16 80.5q0 13 6 20t10 7z" />
    <glyph glyph-name="Ohungarumlaut" unicode="&#x150;" horiz-adv-x="413" 
d="M206 23q57 0 86.5 94t29.5 263q0 82 -9.5 133t-24.5 78.5t-34 37t-38 9.5q-51 0 -88 -88t-37 -276q0 -134 31 -192.5t84 -58.5zM206 -10q-72 0 -113 70.5t-41 209.5q0 91 10.5 165t31 126t52 80.5t72.5 28.5q31 0 57.5 -14.5t45.5 -49t29.5 -91t10.5 -140.5
q0 -181 -37 -283t-118 -102zM205 862q4 8 6.5 10t5.5 2q5 0 13.5 -7.5t8.5 -14.5q0 -3 -1.5 -6.5t-3.5 -8.5q-3 -7 -14 -28.5t-22.5 -44.5t-22.5 -41t-14 -18t-5.5 3t-2.5 9t6 23.5t14 40t17 44.5t15 37zM280 862q4 8 6.5 10t5.5 2q5 0 13.5 -7.5t8.5 -14.5q0 -3 -1.5 -6.5
t-3.5 -8.5q-3 -7 -14 -28.5t-22.5 -44.5t-22.5 -41t-14 -18t-5.5 3t-2.5 9t6 23.5t14 40t17 44.5t15 37z" />
    <glyph glyph-name="ohungarumlaut" unicode="&#x151;" horiz-adv-x="289" 
d="M102 20q31 0 48.5 42t24.5 117q-6 4 -8.5 9t-2.5 11q0 7 3 14t10 11q1 17 1.5 36t0.5 39q0 108 -17.5 146t-48.5 38q-24 0 -39.5 -22t-24.5 -60.5t-12.5 -92.5t-3.5 -117q0 -75 17 -123t52 -48zM106 -9q-63 0 -86.5 59t-23.5 160q0 61 5.5 115.5t19 95.5t36 65t56.5 24
q51 0 76 -52.5t25 -183.5q0 -19 -0.5 -37.5t-1.5 -35.5q23 6 40 27t29.5 51t20 67.5t11.5 76.5q1 4 1.5 6.5t1.5 2.5q4 0 6.5 -4.5t1.5 -12.5q-3 -33 -10 -73.5t-20.5 -76t-34 -61.5t-49.5 -30q-8 -88 -34 -135.5t-70 -47.5zM102 714q4 8 6.5 10t5.5 2q5 0 13.5 -7.5
t8.5 -14.5q0 -3 -1.5 -6.5t-3.5 -8.5q-3 -7 -14 -28.5t-22.5 -44.5t-22.5 -41t-14 -18t-5.5 3t-2.5 9t6 23.5t14 40t17 44.5t15 37zM177 714q4 8 6.5 10t5.5 2q5 0 13.5 -7.5t8.5 -14.5q0 -3 -1.5 -6.5t-3.5 -8.5q-3 -7 -14 -28.5t-22.5 -44.5t-22.5 -41t-14 -18t-5.5 3
t-2.5 9t6 23.5t14 40t17 44.5t15 37z" />
    <glyph glyph-name="OE" unicode="&#x152;" horiz-adv-x="619" 
d="M206 23q57 0 86.5 94t29.5 263q0 82 -9.5 133t-24.5 78.5t-34 37t-38 9.5q-51 0 -88 -88t-37 -276q0 -134 31 -192.5t84 -58.5zM206 -10q-72 0 -113 70.5t-41 209.5q0 91 10.5 165t31 126t52 80.5t72.5 28.5q37 0 65 -30t42 -104v53.5v47.5q0 5 4 7.5t13 3.5q21 2 73 7.5
t142 5.5q13 0 18.5 -5.5t5.5 -9.5q0 -6 -8.5 -8.5t-24.5 -3.5t-40.5 -3.5t-51.5 -4.5t-53 -3.5t-44 -2.5q1 -21 1.5 -54.5t1 -75t0 -89.5t-0.5 -96q16 3 37 6t41 4.5t37.5 2.5t27.5 1q14 0 22.5 -7.5t8.5 -14.5q0 -5 -4 -7t-12 -3q-8 0 -27.5 -1.5t-42.5 -3t-47 -3t-41 -2.5
q-1 -82 -2 -153.5t-2 -106.5q41 5 87.5 9t79.5 4q13 0 23 -6.5t10 -11.5q0 -2 -2.5 -3.5t-6.5 -2.5q-7 -1 -37 -4t-65 -6t-65.5 -5t-37.5 -2q-4 0 -10.5 9t-7.5 23q-1 8 -1 50v102q-13 -88 -42.5 -135.5t-75.5 -47.5z" />
    <glyph glyph-name="oe" unicode="&#x153;" horiz-adv-x="452" 
d="M299 484q-31 0 -51.5 -50t-27.5 -173q38 13 62 34t37 44t18 46t5 41q0 28 -11 43t-32 15zM283 25q30 0 60.5 35t56.5 90.5t46 127.5t30 145q1 4 2 7.5t2 3.5q3 0 5 -4.5t2 -10.5q0 -12 -12.5 -80.5t-37 -145.5t-61.5 -139.5t-86 -62.5q-50 0 -77 29.5t-34 73.5
q-9 -49 -28 -76t-45 -27q-63 0 -86.5 59t-23.5 160q0 61 5.5 115.5t19 95.5t36 65t56.5 24q43 0 67 -35t31 -121q10 74 25.5 115t52.5 41q35 0 60.5 -27t25.5 -73q0 -61 -40 -101.5t-116 -65.5q-1 -23 -1.5 -49t-0.5 -55q0 -57 19 -85.5t47 -28.5zM102 20q42 0 59.5 75.5
t17.5 203.5q0 108 -17.5 146t-48.5 38q-24 0 -39.5 -22t-24.5 -60.5t-12.5 -92.5t-3.5 -117q0 -75 17 -123t52 -48z" />
    <glyph glyph-name="Racute" unicode="&#x154;" horiz-adv-x="429" 
d="M59 630q-8 0 -12 4.5t-4 9.5t13 10.5t34 9.5t47 6.5t51 2.5q93 0 133.5 -39.5t40.5 -143.5q0 -105 -42 -167t-100 -78q17 -26 36.5 -56.5t38 -60t35 -56.5l27.5 -45q4 -7 6 -11t2 -8q0 -6 -6 -10t-13 -4t-23 20.5t-36.5 54t-44.5 78.5t-48 93q-4 -1 -8.5 -1h-8.5
q-6 0 -23 2t-28 6q-1 -80 -2 -143.5t-2 -84.5q-1 -11 -3 -17t-9 -6q-8 0 -12.5 7t-5.5 26q-1 20 -2 91.5t-1.5 162.5t-0.5 186.5t1 163.5q-9 -1 -17 -2t-13 -1zM178 267q26 0 52 12.5t46 38.5t32.5 68t12.5 100q0 93 -32 124.5t-103 31.5q-16 0 -32 -1.5t-31 -2.5
q1 -2 1 -4.5v-4.5q1 -20 1.5 -58.5t1 -87t0 -103.5t-0.5 -109q9 -2 22 -3t30 -1zM270 869q3 4 5.5 6t5.5 2q8 0 17 -8t9 -14q0 -3 -1 -6t-4 -7q-5 -7 -21.5 -29t-35.5 -45t-36 -41.5t-21 -18.5t-6 3t-2 9t10 24t24 40t29.5 45.5t26.5 39.5z" />
    <glyph glyph-name="racute" unicode="&#x155;" horiz-adv-x="242" 
d="M156 29q17 0 33 35t29.5 91t25.5 126.5t22 141.5q2 17 7 9.5t4 -18.5q-8 -68 -19 -143.5t-26 -137.5t-35 -102.5t-46 -40.5q-29 0 -45.5 23.5t-16.5 49.5q0 33 3.5 83t7.5 106t7.5 113.5t3.5 106.5q-15 0 -35 -0.5t-36 -0.5q-2 -23 -5.5 -52.5t-5.5 -49.5
q-1 -8 -2.5 -10.5t-3.5 -2.5q-3 0 -5.5 2t-1.5 7q2 18 5.5 46.5t6.5 59.5h-7h-5q-24 0 -31 10t-7 17q0 4 4 7t11 3t22 -1t33.5 -2.5t39.5 -4t39 -5.5q11 -2 16.5 -7t5.5 -20q0 -37 -3 -91t-7 -110.5t-7 -109t-3 -86.5q0 -18 7.5 -30t19.5 -12zM110 718q3 4 5.5 6t5.5 2
q8 0 17 -8t9 -14q0 -3 -1 -6t-4 -7q-5 -7 -21.5 -29t-35.5 -45t-36 -41.5t-21 -18.5t-6 3t-2 9t10 24t24 40t29.5 45.5t26.5 39.5z" />
    <glyph glyph-name="Rcommaaccent" unicode="&#x156;" horiz-adv-x="429" 
d="M59 630q-8 0 -12 4.5t-4 9.5t13 10.5t34 9.5t47 6.5t51 2.5q93 0 133.5 -39.5t40.5 -143.5q0 -105 -42 -167t-100 -78q17 -26 36.5 -56.5t38 -60t35 -56.5l27.5 -45q4 -7 6 -11t2 -8q0 -6 -6 -10t-13 -4t-23 20.5t-36.5 54t-44.5 78.5t-48 93q-4 -1 -8.5 -1h-8.5
q-6 0 -23 2t-28 6q-1 -80 -2 -143.5t-2 -84.5q-1 -11 -3 -17t-9 -6q-8 0 -12.5 7t-5.5 26q-1 20 -2 91.5t-1.5 162.5t-0.5 186.5t1 163.5q-9 -1 -17 -2t-13 -1zM178 267q26 0 52 12.5t46 38.5t32.5 68t12.5 100q0 93 -32 124.5t-103 31.5q-16 0 -32 -1.5t-31 -2.5
q1 -2 1 -4.5v-4.5q1 -20 1.5 -58.5t1 -87t0 -103.5t-0.5 -109q9 -2 22 -3t30 -1zM175 -198q-4 0 -5.5 2.5t-1.5 4.5q0 6 5.5 16.5t12.5 27.5t12.5 40.5t5.5 53.5q0 6 2.5 9.5t6.5 3.5q10 0 18 -6t8 -16q0 -24 -6 -48t-15.5 -43.5t-21 -32t-21.5 -12.5z" />
    <glyph glyph-name="rcommaaccent" unicode="&#x157;" horiz-adv-x="242" 
d="M156 29q17 0 33 35t29.5 91t25.5 126.5t22 141.5q2 17 7 9.5t4 -18.5q-8 -68 -19 -143.5t-26 -137.5t-35 -102.5t-46 -40.5q-29 0 -45.5 23.5t-16.5 49.5q0 33 3.5 83t7.5 106t7.5 113.5t3.5 106.5q-15 0 -35 -0.5t-36 -0.5q-2 -23 -5.5 -52.5t-5.5 -49.5
q-1 -8 -2.5 -10.5t-3.5 -2.5q-3 0 -5.5 2t-1.5 7q2 18 5.5 46.5t6.5 59.5h-7h-5q-24 0 -31 10t-7 17q0 4 4 7t11 3t22 -1t33.5 -2.5t39.5 -4t39 -5.5q11 -2 16.5 -7t5.5 -20q0 -37 -3 -91t-7 -110.5t-7 -109t-3 -86.5q0 -18 7.5 -30t19.5 -12zM41 -198q-4 0 -5.5 2.5
t-1.5 4.5q0 6 5.5 16.5t12.5 27.5t12.5 40.5t5.5 53.5q0 6 2.5 9.5t6.5 3.5q10 0 18 -6t8 -16q0 -24 -6 -48t-15.5 -43.5t-21 -32t-21.5 -12.5z" />
    <glyph glyph-name="Rcaron" unicode="&#x158;" horiz-adv-x="429" 
d="M59 630q-8 0 -12 4.5t-4 9.5t13 10.5t34 9.5t47 6.5t51 2.5q93 0 133.5 -39.5t40.5 -143.5q0 -105 -42 -167t-100 -78q17 -26 36.5 -56.5t38 -60t35 -56.5l27.5 -45q4 -7 6 -11t2 -8q0 -6 -6 -10t-13 -4t-23 20.5t-36.5 54t-44.5 78.5t-48 93q-4 -1 -8.5 -1h-8.5
q-6 0 -23 2t-28 6q-1 -80 -2 -143.5t-2 -84.5q-1 -11 -3 -17t-9 -6q-8 0 -12.5 7t-5.5 26q-1 20 -2 91.5t-1.5 162.5t-0.5 186.5t1 163.5q-9 -1 -17 -2t-13 -1zM178 267q26 0 52 12.5t46 38.5t32.5 68t12.5 100q0 93 -32 124.5t-103 31.5q-16 0 -32 -1.5t-31 -2.5
q1 -2 1 -4.5v-4.5q1 -20 1.5 -58.5t1 -87t0 -103.5t-0.5 -109q9 -2 22 -3t30 -1zM222 710q-4 0 -9 2.5t-9 8.5q-12 23 -26.5 46.5t-27 43.5t-21 35.5t-8.5 22.5q0 2 2 5t5 3q6 0 17 -11t24 -28t26.5 -38t23.5 -40q24 48 53.5 83.5t35.5 35.5q3 0 5.5 -4t2.5 -9
q0 -9 -28 -51.5t-56 -96.5q-1 -4 -5 -6t-5 -2z" />
    <glyph glyph-name="rcaron" unicode="&#x159;" horiz-adv-x="242" 
d="M156 29q17 0 33 35t29.5 91t25.5 126.5t22 141.5q2 17 7 9.5t4 -18.5q-8 -68 -19 -143.5t-26 -137.5t-35 -102.5t-46 -40.5q-29 0 -45.5 23.5t-16.5 49.5q0 33 3.5 83t7.5 106t7.5 113.5t3.5 106.5q-15 0 -35 -0.5t-36 -0.5q-2 -23 -5.5 -52.5t-5.5 -49.5
q-1 -8 -2.5 -10.5t-3.5 -2.5q-3 0 -5.5 2t-1.5 7q2 18 5.5 46.5t6.5 59.5h-7h-5q-24 0 -31 10t-7 17q0 4 4 7t11 3t22 -1t33.5 -2.5t39.5 -4t39 -5.5q11 -2 16.5 -7t5.5 -20q0 -37 -3 -91t-7 -110.5t-7 -109t-3 -86.5q0 -18 7.5 -30t19.5 -12zM87 559q-4 0 -9 2.5t-9 8.5
q-12 23 -26.5 46.5t-27 43.5t-21 35.5t-8.5 22.5q0 2 2 5t5 3q6 0 17 -11t24 -28t26.5 -38t23.5 -40q24 48 53.5 83.5t35.5 35.5q3 0 5.5 -4t2.5 -9q0 -9 -28 -51.5t-56 -96.5q-1 -4 -5 -6t-5 -2z" />
    <glyph glyph-name="Sacute" unicode="&#x15a;" horiz-adv-x="395" 
d="M50 69q4 0 16 -7t31 -15.5t45 -15.5t57 -7q43 0 72.5 24.5t29.5 67.5q0 44 -38 70t-83.5 52.5t-83.5 65t-38 106.5q0 118 38 189t100 71q37 0 61 -24t37.5 -62.5t18.5 -86.5t5 -95q0 -12 -9 -23.5t-22 -11.5q-3 0 -5.5 3t-2.5 8q0 137 -23.5 198.5t-57.5 61.5
q-45 0 -73.5 -58t-28.5 -171q0 -56 38 -89t83.5 -59.5t83.5 -57.5t38 -83q0 -61 -42 -96.5t-101 -35.5q-31 0 -60 6t-51 14.5t-35.5 18.5t-13.5 19q0 6 4 14.5t10 8.5zM245 866q3 4 5.5 6t5.5 2q8 0 17 -8t9 -14q0 -3 -1 -6t-4 -7q-5 -7 -21.5 -29t-35.5 -45t-36 -41.5
t-21 -18.5t-6 3t-2 9t10 24t24 40t29.5 45.5t26.5 39.5z" />
    <glyph glyph-name="sacute" unicode="&#x15b;" horiz-adv-x="226" 
d="M164 148q0 -19 -1.5 -35.5t-4.5 -30.5q44 89 64 178t29 165q1 13 6.5 8t4.5 -17q-3 -44 -14 -116.5t-33.5 -141t-57 -118.5t-83.5 -50h-3q-39 0 -66 30.5t-36 76.5q-1 7 1.5 12t6.5 -1q25 -43 46 -63t46 -20q23 0 41 27t18 85q0 64 -10 119t-23.5 98.5t-28 75.5t-23.5 50
q-1 -25 -6 -57.5t-7 -53.5q-1 -8 -2.5 -10.5t-3.5 -2.5q-3 0 -5.5 2t-1.5 7q3 23 8 61t9 76q0 4 3.5 6.5t6.5 2.5q4 0 10 -7.5t13 -18.5q37 -63 67 -149.5t30 -187.5zM131 718q3 4 5.5 6t5.5 2q8 0 17 -8t9 -14q0 -3 -1 -6t-4 -7q-5 -7 -21.5 -29t-35.5 -45t-36 -41.5
t-21 -18.5t-6 3t-2 9t10 24t24 40t29.5 45.5t26.5 39.5z" />
    <glyph glyph-name="Scircumflex" unicode="&#x15c;" horiz-adv-x="395" 
d="M50 69q4 0 16 -7t31 -15.5t45 -15.5t57 -7q43 0 72.5 24.5t29.5 67.5q0 44 -38 70t-83.5 52.5t-83.5 65t-38 106.5q0 118 38 189t100 71q37 0 61 -24t37.5 -62.5t18.5 -86.5t5 -95q0 -12 -9 -23.5t-22 -11.5q-3 0 -5.5 3t-2.5 8q0 137 -23.5 198.5t-57.5 61.5
q-45 0 -73.5 -58t-28.5 -171q0 -56 38 -89t83.5 -59.5t83.5 -57.5t38 -83q0 -61 -42 -96.5t-101 -35.5q-31 0 -60 6t-51 14.5t-35.5 18.5t-13.5 19q0 6 4 14.5t10 8.5zM284 707q-6 0 -17 11t-24 28t-26.5 38t-23.5 40q-24 -48 -53.5 -83.5t-35.5 -35.5q-3 0 -5.5 4t-2.5 9
q0 9 28 51.5t56 96.5q1 4 5 6t5 2q4 0 9 -2.5t9 -8.5q12 -23 26.5 -46.5t27 -43.5t21 -35.5t8.5 -22.5q0 -2 -2 -5t-5 -3z" />
    <glyph glyph-name="scircumflex" unicode="&#x15d;" horiz-adv-x="226" 
d="M164 148q0 -19 -1.5 -35.5t-4.5 -30.5q44 89 64 178t29 165q1 13 6.5 8t4.5 -17q-3 -44 -14 -116.5t-33.5 -141t-57 -118.5t-83.5 -50h-3q-39 0 -66 30.5t-36 76.5q-1 7 1.5 12t6.5 -1q25 -43 46 -63t46 -20q23 0 41 27t18 85q0 64 -10 119t-23.5 98.5t-28 75.5t-23.5 50
q-1 -25 -6 -57.5t-7 -53.5q-1 -8 -2.5 -10.5t-3.5 -2.5q-3 0 -5.5 2t-1.5 7q3 23 8 61t9 76q0 4 3.5 6.5t6.5 2.5q4 0 10 -7.5t13 -18.5q37 -63 67 -149.5t30 -187.5zM169 559q-6 0 -17 11t-24 28t-26.5 38t-23.5 40q-24 -48 -53.5 -83.5t-35.5 -35.5q-3 0 -5.5 4t-2.5 9
q0 9 28 51.5t56 96.5q1 4 5 6t5 2q4 0 9 -2.5t9 -8.5q12 -23 26.5 -46.5t27 -43.5t21 -35.5t8.5 -22.5q0 -2 -2 -5t-5 -3z" />
    <glyph glyph-name="Scedilla" unicode="&#x15e;" horiz-adv-x="395" 
d="M50 69q4 0 16 -7t31 -15.5t45 -15.5t57 -7q43 0 72.5 24.5t29.5 67.5q0 44 -38 70t-83.5 52.5t-83.5 65t-38 106.5q0 118 38 189t100 71q37 0 61 -24t37.5 -62.5t18.5 -86.5t5 -95q0 -12 -9 -23.5t-22 -11.5q-3 0 -5.5 3t-2.5 8q0 137 -23.5 198.5t-57.5 61.5
q-45 0 -73.5 -58t-28.5 -171q0 -56 38 -89t83.5 -59.5t83.5 -57.5t38 -83q0 -61 -42 -96.5t-101 -35.5h-9t-9 1q-1 -2 -2.5 -4.5t-2.5 -3.5q42 -20 66 -31.5t24 -37.5q0 -24 -18 -42t-53 -18q-37 0 -56 9.5t-19 15.5q0 3 2.5 6.5t5.5 3.5q8 0 27 -5t38 -5t30.5 9t11.5 21
q0 17 -14.5 27t-56.5 29q-6 3 -9 6.5t-3 8.5q0 4 1 6.5t4 6.5q-49 7 -83.5 24t-34.5 31q0 6 4 14.5t10 8.5z" />
    <glyph glyph-name="scedilla" unicode="&#x15f;" horiz-adv-x="226" 
d="M164 148q0 -19 -1.5 -35.5t-4.5 -30.5q44 89 64 178t29 165q1 13 6.5 8t4.5 -17q-3 -44 -14 -116.5t-33.5 -141t-57 -118.5t-83.5 -50h-3h-3h-3q-1 -2 -3 -4.5t-3 -4.5q42 -20 66 -31.5t24 -37.5q0 -24 -18 -42t-53 -18q-37 0 -56 9.5t-19 15.5q0 3 2.5 6.5t5.5 3.5
q8 0 27 -5t38 -5t30.5 9t11.5 21q0 17 -14.5 27t-56.5 29q-6 3 -9 6.5t-3 8.5q0 4 2 7.5t6 9.5q-28 10 -47.5 37.5t-26.5 64.5q-1 7 1.5 12t6.5 -1q25 -43 46 -63t46 -20q23 0 41 27t18 85q0 64 -10 119t-23.5 98.5t-28 75.5t-23.5 50q-1 -25 -6 -57.5t-7 -53.5
q-1 -8 -2.5 -10.5t-3.5 -2.5q-3 0 -5.5 2t-1.5 7q3 23 8 61t9 76q0 4 3.5 6.5t6.5 2.5q4 0 10 -7.5t13 -18.5q37 -63 67 -149.5t30 -187.5z" />
    <glyph glyph-name="Scaron" unicode="&#x160;" horiz-adv-x="395" 
d="M50 69q4 0 16 -7t31 -15.5t45 -15.5t57 -7q43 0 72.5 24.5t29.5 67.5q0 44 -38 70t-83.5 52.5t-83.5 65t-38 106.5q0 118 38 189t100 71q37 0 61 -24t37.5 -62.5t18.5 -86.5t5 -95q0 -12 -9 -23.5t-22 -11.5q-3 0 -5.5 3t-2.5 8q0 137 -23.5 198.5t-57.5 61.5
q-45 0 -73.5 -58t-28.5 -171q0 -56 38 -89t83.5 -59.5t83.5 -57.5t38 -83q0 -61 -42 -96.5t-101 -35.5q-31 0 -60 6t-51 14.5t-35.5 18.5t-13.5 19q0 6 4 14.5t10 8.5zM197 707q-4 0 -9 2.5t-9 8.5q-12 23 -26.5 46.5t-27 43.5t-21 35.5t-8.5 22.5q0 2 2 5t5 3q6 0 17 -11
t24 -28t26.5 -38t23.5 -40q24 48 53.5 83.5t35.5 35.5q3 0 5.5 -4t2.5 -9q0 -9 -28 -51.5t-56 -96.5q-1 -4 -5 -6t-5 -2z" />
    <glyph glyph-name="scaron" unicode="&#x161;" horiz-adv-x="226" 
d="M164 148q0 -19 -1.5 -35.5t-4.5 -30.5q44 89 64 178t29 165q1 13 6.5 8t4.5 -17q-3 -44 -14 -116.5t-33.5 -141t-57 -118.5t-83.5 -50h-3q-39 0 -66 30.5t-36 76.5q-1 7 1.5 12t6.5 -1q25 -43 46 -63t46 -20q23 0 41 27t18 85q0 64 -10 119t-23.5 98.5t-28 75.5t-23.5 50
q-1 -25 -6 -57.5t-7 -53.5q-1 -8 -2.5 -10.5t-3.5 -2.5q-3 0 -5.5 2t-1.5 7q3 23 8 61t9 76q0 4 3.5 6.5t6.5 2.5q4 0 10 -7.5t13 -18.5q37 -63 67 -149.5t30 -187.5zM82 559q-4 0 -9 2.5t-9 8.5q-12 23 -26.5 46.5t-27 43.5t-21 35.5t-8.5 22.5q0 2 2 5t5 3q6 0 17 -11
t24 -28t26.5 -38t23.5 -40q24 48 53.5 83.5t35.5 35.5q3 0 5.5 -4t2.5 -9q0 -9 -28 -51.5t-56 -96.5q-1 -4 -5 -6t-5 -2z" />
    <glyph glyph-name="Tcommaaccent" unicode="&#x162;" horiz-adv-x="348" 
d="M40 620q-10 0 -15 6t-5 11t4 7.5t13 3.5q26 3 90.5 8t176.5 5q13 0 18.5 -5.5t5.5 -9.5q0 -6 -8.5 -8.5t-24.5 -3.5q-18 -1 -45 -3.5t-58 -3.5q2 -38 2.5 -129t0 -188.5t-2 -181.5t-2.5 -109q-1 -8 -2 -13.5t-4 -7.5q-3 -4 -6 -8.5t-5 -8.5q42 -20 66 -31.5t24 -37.5
q0 -24 -18 -42t-53 -18q-37 0 -56 9.5t-19 15.5q0 3 2.5 6.5t5.5 3.5q8 0 27 -5t38 -5t30.5 9t11.5 21q0 17 -14.5 27t-56.5 29q-6 3 -9 6.5t-3 8.5q0 6 3.5 10.5t11.5 17.5q-1 4 -2 10t-2 13q-1 20 -2 90t-1.5 158.5t-0.5 183.5t1 164q-35 -2 -67 -3.5t-50 -1.5z" />
    <glyph glyph-name="tcommaaccent" unicode="&#x163;" horiz-adv-x="190" 
d="M41 -198q-4 0 -5.5 2.5t-1.5 4.5q0 6 5.5 16.5t12.5 27.5t12.5 40.5t5.5 53.5q0 6 2.5 9.5t6.5 3.5q10 0 18 -6t8 -16q0 -24 -6 -48t-15.5 -43.5t-21 -32t-21.5 -12.5zM14 95q0 153 2 254t5 160h-10.5h-7.5q-11 0 -21 5.5t-10 12.5q0 4 15 7t36 4q4 43 8 60.5t9 17.5
q7 0 13 -9.5t6 -18.5v-22.5t-1 -25.5q16 1 29 1h20q16 0 24 -7.5t8 -11.5q0 -2 -1.5 -4t-3.5 -3q-4 -1 -27.5 -2t-48.5 -2q-1 -62 -3 -161.5t-2 -249.5q0 -43 9 -57t18 -14q26 0 46.5 35t36.5 91t28.5 126.5t22.5 141.5q2 17 7 9.5t4 -18.5q-8 -68 -19.5 -143.5t-29 -137.5
t-42.5 -102.5t-59 -40.5q-26 0 -43.5 27t-17.5 78z" />
    <glyph glyph-name="Tcaron" unicode="&#x164;" horiz-adv-x="348" 
d="M40 620q-10 0 -15 6t-5 11t4 7.5t13 3.5q26 3 90.5 8t176.5 5q13 0 18.5 -5.5t5.5 -9.5q0 -6 -8.5 -8.5t-24.5 -3.5q-18 -1 -45 -3.5t-58 -3.5q2 -38 2.5 -129t0 -188.5t-2 -181.5t-2.5 -109q-1 -11 -3 -17t-9 -6q-8 0 -12.5 7t-5.5 26q-1 20 -2 90t-1.5 158.5
t-0.5 183.5t1 164q-35 -2 -67 -3.5t-50 -1.5zM178 698q-4 0 -9 2.5t-9 8.5q-12 23 -26.5 46.5t-27 43.5t-21 35.5t-8.5 22.5q0 2 2 5t5 3q6 0 17 -11t24 -28t26.5 -38t23.5 -40q24 48 53.5 83.5t35.5 35.5q3 0 5.5 -4t2.5 -9q0 -9 -28 -51.5t-56 -96.5q-1 -4 -5 -6t-5 -2z
" />
    <glyph glyph-name="tcaron" unicode="&#x165;" horiz-adv-x="210" 
d="M130 404q-3 0 -4.5 2.5t-1.5 6.5q0 12 4 27.5t8 42t8 68t4 103.5q0 7 1.5 11.5t6.5 4.5q10 0 19 -14t9 -36q0 -41 -5.5 -80.5t-13.5 -69.5t-17.5 -48t-17.5 -18zM14 95q0 153 2 254t5 160h-10.5h-7.5q-11 0 -21 5.5t-10 12.5q0 4 15.5 7t35.5 4q4 43 8.5 60.5t8.5 17.5
q7 0 13 -9.5t6 -18.5v-22t-1 -26q9 1 16.5 1h12.5q16 0 24 -7.5t8 -11.5q0 -2 -1.5 -4t-3.5 -3q-4 -1 -20.5 -2t-35.5 -2q-1 -61 -3 -160.5t-2 -250.5q0 -43 9 -57t18 -14q29 0 53.5 35t43.5 90.5t33 126.5t24 142q1 4 2 7.5t2 3.5q4 0 6 -6t1 -14q-8 -68 -21 -143.5
t-33 -137.5t-48.5 -102.5t-67.5 -40.5q-26 0 -43.5 27t-17.5 78z" />
    <glyph glyph-name="Tbar" unicode="&#x166;" horiz-adv-x="348" 
d="M53 620q-10 0 -15 6t-5 11t4 7.5t13 3.5q26 3 90.5 8t176.5 5q13 0 18.5 -5.5t5.5 -9.5q0 -6 -8.5 -8.5t-24.5 -3.5q-18 -1 -45 -3.5t-58 -3.5q1 -17 1.5 -46t1 -65.5t0.5 -79v-86.5q19 1 36 1h30q9 -1 13.5 -8.5t4.5 -12.5q0 -4 -3.5 -6t-10.5 -3q-16 -1 -34 -2t-37 -2
q0 -50 -0.5 -98.5t-1 -88t-1 -69t-1.5 -42.5q-1 -11 -3 -17t-9 -6q-8 0 -12.5 7t-5.5 26q-1 11 -1.5 38t-1 65t-1 85.5t-0.5 97.5q-23 -1 -42 -1t-28 1q-9 0 -13.5 7t-4.5 13t5 8t13 3q11 1 30 1.5t40 1.5v147t1 129q-35 -2 -67 -3.5t-50 -1.5z" />
    <glyph glyph-name="tbar" unicode="&#x167;" horiz-adv-x="190" 
d="M14 95v101.5t1 87.5h-14t-12 1q-9 0 -13.5 7t-4.5 13t5 8t13 3q6 0 12.5 0.5t13.5 0.5q1 63 3 110.5t3 81.5h-10.5h-7.5q-11 0 -21 5.5t-10 12.5q0 4 15 7t36 4q4 43 8 60.5t9 17.5q7 0 13 -9.5t6 -18.5v-22.5t-1 -25.5q16 1 29 1h20q16 0 24 -7.5t8 -11.5q0 -2 -1.5 -4
t-3.5 -3q-4 -1 -27.5 -2t-48.5 -2q-1 -36 -2 -83.5t-2 -108.5q18 1 36 1.5t34 0.5q9 -1 13.5 -8.5t4.5 -12.5q0 -4 -3.5 -6t-10.5 -3q-20 -1 -39 -2.5t-35 -2.5q-1 -40 -1 -86.5v-99.5q0 -43 9 -57t18 -14q26 0 46.5 35t36.5 91t28.5 126.5t22.5 141.5q2 17 7 9.5t4 -18.5
q-8 -68 -19.5 -143.5t-29 -137.5t-42.5 -102.5t-59 -40.5q-26 0 -43.5 27t-17.5 78z" />
    <glyph glyph-name="Utilde" unicode="&#x168;" horiz-adv-x="458" 
d="M231 -10q-69 0 -108.5 45.5t-39.5 161.5q0 69 1 134t2 121.5t2 103t2 77.5q1 16 3 22t7 6q7 0 14 -5.5t8 -18.5q1 -7 1.5 -21t0.5 -32q0 -47 -0.5 -101t-0.5 -105t-0.5 -96t-0.5 -74q0 -107 29.5 -147t80.5 -40q43 0 73 43t30 152v72t0.5 116t1 127t1.5 105q1 16 4 21.5
t7 5.5q6 0 13 -7.5t8 -20.5q2 -32 3 -78t1.5 -99.5t0.5 -112v-114.5q0 -131 -40 -186t-104 -55zM267 678q-25 0 -37 24.5t-19.5 54t-14.5 54t-22 24.5t-20.5 -24t-7.5 -53t-3 -53t-7 -24q-7 0 -12 12t-5 25q0 66 14.5 102.5t43.5 36.5q26 0 38.5 -24.5t19.5 -54t13.5 -54
t20.5 -24.5q21 0 28 24t9.5 53t4.5 53t11 24q7 0 12.5 -10.5t5.5 -25.5q0 -68 -19.5 -104t-53.5 -36z" />
    <glyph glyph-name="utilde" unicode="&#x169;" horiz-adv-x="342" 
d="M250 -10q-25 0 -43 24t-17 68l6 178q-7 -50 -16 -98.5t-20 -86.5t-26 -61.5t-35 -23.5q-33 0 -61 37.5t-28 97.5q0 47 1 95t3 94t5 87.5t7 74.5q1 14 4 20t8 6t12.5 -8t7.5 -25t-1.5 -58t-3 -91t-3 -104t-1.5 -98q0 -39 9 -66t30 -27t40 44t34 107t25 133.5t14 122.5
q2 35 4.5 50t12.5 15t15.5 -9t5.5 -22q0 -27 -1.5 -72.5t-3.5 -98.5t-3.5 -109t-1.5 -103q0 -33 8.5 -43.5t17.5 -10.5q17 0 33 35t30 91t26 126.5t22 141.5q2 17 7 9.5t4 -18.5q-8 -68 -19 -143.5t-26 -137.5t-35.5 -102.5t-46.5 -40.5zM167 537q-25 0 -37 24.5t-19.5 54
t-14.5 54t-22 24.5t-20.5 -24t-7.5 -53t-3 -53t-7 -24q-7 0 -12 12t-5 25q0 66 14.5 102.5t43.5 36.5q26 0 38.5 -24.5t19.5 -54t13.5 -54t20.5 -24.5q21 0 28 24t9.5 53t4.5 53t11 24q7 0 12.5 -10.5t5.5 -25.5q0 -68 -19.5 -104t-53.5 -36z" />
    <glyph glyph-name="Umacron" unicode="&#x16a;" horiz-adv-x="458" 
d="M231 -10q-69 0 -108.5 45.5t-39.5 161.5q0 69 1 134t2 121.5t2 103t2 77.5q1 16 3 22t7 6q7 0 14 -5.5t8 -18.5q1 -7 1.5 -21t0.5 -32q0 -47 -0.5 -101t-0.5 -105t-0.5 -96t-0.5 -74q0 -107 29.5 -147t80.5 -40q43 0 73 43t30 152v72t0.5 116t1 127t1.5 105q1 16 4 21.5
t7 5.5q6 0 13 -7.5t8 -20.5q2 -32 3 -78t1.5 -99.5t0.5 -112v-114.5q0 -131 -40 -186t-104 -55zM155 739q-11 0 -15.5 11t-4.5 13q0 3 2 5t9 3q11 2 30.5 4t41.5 3.5t44.5 2.5t40.5 1q9 0 15 -9t6 -13t-2.5 -6t-6.5 -3q-32 -5 -79 -8.5t-81 -3.5z" />
    <glyph glyph-name="umacron" unicode="&#x16b;" horiz-adv-x="342" 
d="M250 -10q-25 0 -43 24t-17 68l6 178q-7 -50 -16 -98.5t-20 -86.5t-26 -61.5t-35 -23.5q-33 0 -61 37.5t-28 97.5q0 47 1 95t3 94t5 87.5t7 74.5q1 14 4 20t8 6t12.5 -8t7.5 -25t-1.5 -58t-3 -91t-3 -104t-1.5 -98q0 -39 9 -66t30 -27t40 44t34 107t25 133.5t14 122.5
q2 35 4.5 50t12.5 15t15.5 -9t5.5 -22q0 -27 -1.5 -72.5t-3.5 -98.5t-3.5 -109t-1.5 -103q0 -33 8.5 -43.5t17.5 -10.5q17 0 33 35t30 91t26 126.5t22 141.5q2 17 7 9.5t4 -18.5q-8 -68 -19 -143.5t-26 -137.5t-35.5 -102.5t-46.5 -40.5zM56 598q-11 0 -15.5 11t-4.5 13
q0 3 2 5t9 3q11 2 30.5 4t41.5 3.5t44.5 2.5t40.5 1q9 0 15 -9t6 -13t-2.5 -6t-6.5 -3q-32 -5 -79 -8.5t-81 -3.5z" />
    <glyph glyph-name="Ubreve" unicode="&#x16c;" horiz-adv-x="458" 
d="M231 -10q-69 0 -108.5 45.5t-39.5 161.5q0 69 1 134t2 121.5t2 103t2 77.5q1 16 3 22t7 6q7 0 14 -5.5t8 -18.5q1 -7 1.5 -21t0.5 -32q0 -47 -0.5 -101t-0.5 -105t-0.5 -96t-0.5 -74q0 -107 29.5 -147t80.5 -40q43 0 73 43t30 152v72t0.5 116t1 127t1.5 105q1 16 4 21.5
t7 5.5q6 0 13 -7.5t8 -20.5q2 -32 3 -78t1.5 -99.5t0.5 -112v-114.5q0 -131 -40 -186t-104 -55zM166 844q7 0 9.5 -18t7.5 -39.5t16 -39.5t34 -18q18 0 28 18t15.5 39t9 39t9.5 18q4 0 8.5 -5t4.5 -17q0 -19 -4 -40t-14 -39t-25.5 -29.5t-37.5 -11.5q-45 0 -61 35.5
t-16 80.5q0 13 6 20t10 7z" />
    <glyph glyph-name="ubreve" unicode="&#x16d;" horiz-adv-x="342" 
d="M250 -10q-25 0 -43 24t-17 68l6 178q-7 -50 -16 -98.5t-20 -86.5t-26 -61.5t-35 -23.5q-33 0 -61 37.5t-28 97.5q0 47 1 95t3 94t5 87.5t7 74.5q1 14 4 20t8 6t12.5 -8t7.5 -25t-1.5 -58t-3 -91t-3 -104t-1.5 -98q0 -39 9 -66t30 -27t40 44t34 107t25 133.5t14 122.5
q2 35 4.5 50t12.5 15t15.5 -9t5.5 -22q0 -27 -1.5 -72.5t-3.5 -98.5t-3.5 -109t-1.5 -103q0 -33 8.5 -43.5t17.5 -10.5q17 0 33 35t30 91t26 126.5t22 141.5q2 17 7 9.5t4 -18.5q-8 -68 -19 -143.5t-26 -137.5t-35.5 -102.5t-46.5 -40.5zM67 703q7 0 9.5 -18t7.5 -39.5
t16 -39.5t34 -18q18 0 28 18t15.5 39t9 39t9.5 18q4 0 8.5 -5t4.5 -17q0 -19 -4 -40t-14 -39t-25.5 -29.5t-37.5 -11.5q-45 0 -61 35.5t-16 80.5q0 13 6 20t10 7z" />
    <glyph glyph-name="Uring" unicode="&#x16e;" horiz-adv-x="458" 
d="M231 -10q-69 0 -108.5 45.5t-39.5 161.5q0 69 1 134t2 121.5t2 103t2 77.5q1 16 3 22t7 6q7 0 14 -5.5t8 -18.5q1 -7 1.5 -21t0.5 -32q0 -47 -0.5 -101t-0.5 -105t-0.5 -96t-0.5 -74q0 -107 29.5 -147t80.5 -40q43 0 73 43t30 152v72t0.5 116t1 127t1.5 105q1 16 4 21.5
t7 5.5q6 0 13 -7.5t8 -20.5q2 -32 3 -78t1.5 -99.5t0.5 -112v-114.5q0 -131 -40 -186t-104 -55zM231 704q-39 0 -58.5 21t-19.5 49q0 36 23 59.5t62 23.5q37 0 52 -23t15 -45q0 -40 -20.5 -62.5t-53.5 -22.5zM230 731q20 0 33 14.5t13 39.5q0 14 -10 29t-32 15
q-24 0 -38 -15t-14 -37q0 -18 12 -32t36 -14z" />
    <glyph glyph-name="uring" unicode="&#x16f;" horiz-adv-x="342" 
d="M131 590q20 0 33 14.5t13 39.5q0 14 -10 29t-32 15q-24 0 -38 -15t-14 -37q0 -18 12 -32t36 -14zM132 563q-39 0 -58.5 21t-19.5 49q0 36 23 59.5t62 23.5q37 0 52 -23t15 -45q0 -40 -20.5 -62.5t-53.5 -22.5zM250 -10q-25 0 -43 24t-17 68l6 178q-7 -50 -16 -98.5
t-20 -86.5t-26 -61.5t-35 -23.5q-33 0 -61 37.5t-28 97.5q0 47 1 95t3 94t5 87.5t7 74.5q1 14 4 20t8 6t12.5 -8t7.5 -25t-1.5 -58t-3 -91t-3 -104t-1.5 -98q0 -39 9 -66t30 -27t40 44t34 107t25 133.5t14 122.5q2 35 4.5 50t12.5 15t15.5 -9t5.5 -22q0 -27 -1.5 -72.5
t-3.5 -98.5t-3.5 -109t-1.5 -103q0 -33 8.5 -43.5t17.5 -10.5q17 0 33 35t30 91t26 126.5t22 141.5q2 17 7 9.5t4 -18.5q-8 -68 -19 -143.5t-26 -137.5t-35.5 -102.5t-46.5 -40.5z" />
    <glyph glyph-name="Uhungarumlaut" unicode="&#x170;" horiz-adv-x="458" 
d="M231 -10q-69 0 -108.5 45.5t-39.5 161.5q0 69 1 134t2 121.5t2 103t2 77.5q1 16 3 22t7 6q7 0 14 -5.5t8 -18.5q1 -7 1.5 -21t0.5 -32q0 -47 -0.5 -101t-0.5 -105t-0.5 -96t-0.5 -74q0 -107 29.5 -147t80.5 -40q43 0 73 43t30 152v72t0.5 116t1 127t1.5 105q1 16 4 21.5
t7 5.5q6 0 13 -7.5t8 -20.5q2 -32 3 -78t1.5 -99.5t0.5 -112v-114.5q0 -131 -40 -186t-104 -55zM225 855q4 8 6.5 10t5.5 2q5 0 13.5 -7.5t8.5 -14.5q0 -3 -1.5 -6.5t-3.5 -8.5q-3 -7 -14 -28.5t-22.5 -44.5t-22.5 -41t-14 -18t-5.5 3t-2.5 9t6 23.5t14 40t17 44.5t15 37z
M300 855q4 8 6.5 10t5.5 2q5 0 13.5 -7.5t8.5 -14.5q0 -3 -1.5 -6.5t-3.5 -8.5q-3 -7 -14 -28.5t-22.5 -44.5t-22.5 -41t-14 -18t-5.5 3t-2.5 9t6 23.5t14 40t17 44.5t15 37z" />
    <glyph glyph-name="uhungarumlaut" unicode="&#x171;" horiz-adv-x="342" 
d="M250 -10q-25 0 -43 24t-17 68l6 178q-7 -50 -16 -98.5t-20 -86.5t-26 -61.5t-35 -23.5q-33 0 -61 37.5t-28 97.5q0 47 1 95t3 94t5 87.5t7 74.5q1 14 4 20t8 6t12.5 -8t7.5 -25t-1.5 -58t-3 -91t-3 -104t-1.5 -98q0 -39 9 -66t30 -27t40 44t34 107t25 133.5t14 122.5
q2 35 4.5 50t12.5 15t15.5 -9t5.5 -22q0 -27 -1.5 -72.5t-3.5 -98.5t-3.5 -109t-1.5 -103q0 -33 8.5 -43.5t17.5 -10.5q17 0 33 35t30 91t26 126.5t22 141.5q2 17 7 9.5t4 -18.5q-8 -68 -19 -143.5t-26 -137.5t-35.5 -102.5t-46.5 -40.5zM126 714q4 8 6.5 10t5.5 2
q5 0 13.5 -7.5t8.5 -14.5q0 -3 -1.5 -6.5t-3.5 -8.5q-3 -7 -14 -28.5t-22.5 -44.5t-22.5 -41t-14 -18t-5.5 3t-2.5 9t6 23.5t14 40t17 44.5t15 37zM201 714q4 8 6.5 10t5.5 2q5 0 13.5 -7.5t8.5 -14.5q0 -3 -1.5 -6.5t-3.5 -8.5q-3 -7 -14 -28.5t-22.5 -44.5t-22.5 -41
t-14 -18t-5.5 3t-2.5 9t6 23.5t14 40t17 44.5t15 37z" />
    <glyph glyph-name="Uogonek" unicode="&#x172;" horiz-adv-x="458" 
d="M231 -10q-69 0 -108.5 45.5t-39.5 161.5q0 69 1 134t2 121.5t2 103t2 77.5q1 16 3 22t7 6q7 0 14 -5.5t8 -18.5q1 -7 1.5 -21t0.5 -32q0 -47 -0.5 -101t-0.5 -105t-0.5 -96t-0.5 -74q0 -107 29.5 -147t80.5 -40q43 0 73 43t30 152v72t0.5 116t1 127t1.5 105q1 16 4 21.5
t7 5.5q6 0 13 -7.5t8 -20.5q2 -32 3 -78t1.5 -99.5t0.5 -112v-114.5q0 -107 -27 -162.5t-73 -71.5q-40 -27 -62.5 -49.5t-22.5 -39.5q0 -12 8 -20.5t24 -8.5q12 0 21.5 5.5t17 12t12.5 12t8 5.5t5.5 -3t2.5 -6q0 -12 -18.5 -32.5t-50.5 -20.5q-25 0 -40.5 15.5t-15.5 36.5
q0 26 23 48t55 38h-5.5h-5.5z" />
    <glyph glyph-name="uogonek" unicode="&#x173;" horiz-adv-x="342" 
d="M213 -148q-25 0 -40.5 15.5t-15.5 36.5q0 27 24 49t56 39q-21 5 -34.5 28t-12.5 62l6 178q-7 -50 -16 -98.5t-20 -86.5t-26 -61.5t-35 -23.5q-33 0 -61 37.5t-28 97.5q0 47 1 95t3 94t5 87.5t7 74.5q1 14 4 20t8 6t12.5 -8t7.5 -25t-1.5 -58t-3 -91t-3 -104t-1.5 -98
q0 -39 9 -66t30 -27t40 44t34 107t25 133.5t14 122.5q2 35 4.5 50t12.5 15t15.5 -9t5.5 -22q0 -27 -1.5 -72.5t-3.5 -98.5t-3.5 -109t-1.5 -103q0 -33 8.5 -43.5t17.5 -10.5q17 0 33 35t30 91t26 126.5t22 141.5q2 17 7 9.5t4 -18.5q-7 -65 -17.5 -136t-24.5 -131t-32 -103
t-42 -52q-36 -25 -57 -46.5t-21 -37.5q0 -12 8 -20.5t24 -8.5q12 0 21.5 5.5t17 12t12.5 12t8 5.5t5.5 -3t2.5 -6q0 -12 -18.5 -32.5t-50.5 -20.5z" />
    <glyph glyph-name="Wcircumflex" unicode="&#x174;" horiz-adv-x="643" 
d="M420 33q-9 28 -21 75t-26 103t-28.5 117t-26.5 117q-12 -56 -24.5 -116.5t-25 -118t-24.5 -108.5t-22 -88q-4 -13 -7 -19t-8 -6q-14 0 -21 9.5t-15 34.5q-15 47 -38.5 142.5t-46.5 194t-39.5 180t-16.5 100.5q0 9 2 14.5t8 5.5q7 0 14 -6.5t11 -22.5q6 -22 21.5 -90.5
t35.5 -156.5t41.5 -185.5t39.5 -177.5q12 55 25.5 117.5l27 125t26 123t22.5 111.5q-11 54 -18 92t-7 50q0 9 2 14.5t8 5.5q8 0 15 -6.5t11 -22.5q9 -36 25 -107t35 -156t39 -177.5t38 -171.5q16 76 35 166t36.5 174.5t32.5 156.5t23 112q4 17 7 24.5t9 7.5q5 0 11.5 -9
t6.5 -22q0 -28 -15.5 -106.5t-37.5 -173.5t-46.5 -190t-42.5 -155q-4 -13 -7 -19t-8 -6q-14 0 -21 9.5t-15 34.5zM412 707q-6 0 -17 11t-24 28t-26.5 38t-23.5 40q-24 -48 -53.5 -83.5t-35.5 -35.5q-3 0 -5.5 4t-2.5 9q0 9 28 51.5t56 96.5q1 4 5 6t5 2q4 0 9 -2.5t9 -8.5
q12 -23 26.5 -46.5t27 -43.5t21 -35.5t8.5 -22.5q0 -2 -2 -5t-5 -3z" />
    <glyph glyph-name="wcircumflex" unicode="&#x175;" horiz-adv-x="439" 
d="M264 -10q-34 0 -54 53t-29 140q-11 -84 -30.5 -138.5t-51.5 -54.5q-27 0 -45 30t-28.5 81.5t-14.5 121t-4 147.5v64v36.5t0.5 17t1.5 6.5q1 5 3 7.5t6 2.5q10 0 17 -11.5t7 -36.5q0 -18 -1 -44t-1 -42q0 -169 20 -258t45 -89q13 0 24.5 19.5t20 51.5t14.5 75t10 90
q-3 49 -4 104t-1 113q0 14 3 21t10 7q9 0 18 -8.5t9 -23.5q0 -30 -0.5 -72t-5.5 -108q13 -151 25 -210t37 -59q13 0 25 22t22.5 55.5t17.5 75.5t9 81q-9 17 -13 48t-4 55q0 69 5.5 108t17.5 39t19 -40.5t7 -112.5q0 -19 -0.5 -37.5t-1.5 -36.5q43 14 67.5 54t28.5 89
q1 4 1.5 6.5t1.5 2.5q4 0 6.5 -5t1.5 -12q-1 -21 -7.5 -47t-20 -50t-33.5 -42.5t-48 -24.5q-5 -57 -15 -105t-23.5 -82.5t-30 -54t-34.5 -19.5zM283 559q-6 0 -17 11t-24 28t-26.5 38t-23.5 40q-24 -48 -53.5 -83.5t-35.5 -35.5q-3 0 -5.5 4t-2.5 9q0 9 28 51.5t56 96.5
q1 4 5 6t5 2q4 0 9 -2.5t9 -8.5q12 -23 26.5 -46.5t27 -43.5t21 -35.5t8.5 -22.5q0 -2 -2 -5t-5 -3z" />
    <glyph glyph-name="Ycircumflex" unicode="&#x176;" horiz-adv-x="394" 
d="M30 656q0 6 2 10t8 4q7 0 13 -5t10 -15q6 -16 22.5 -64.5t36.5 -110t41.5 -130t39.5 -124.5q17 54 36 117t36.5 122t32.5 109.5t23 78.5q4 12 6.5 17t6.5 5q5 0 12.5 -6t7.5 -16q0 -19 -15.5 -75t-38.5 -124t-48.5 -137.5t-44.5 -116.5v-40.5t-0.5 -48.5t-1 -44t-0.5 -28
q-1 -20 -3 -30.5t-9 -10.5t-14 6.5t-8 23.5v170q-19 47 -45 120.5t-49.5 145t-40 128t-16.5 69.5zM288 707q-6 0 -17 11t-24 28t-26.5 38t-23.5 40q-24 -48 -53.5 -83.5t-35.5 -35.5q-3 0 -5.5 4t-2.5 9q0 9 28 51.5t56 96.5q1 4 5 6t5 2q4 0 9 -2.5t9 -8.5
q12 -23 26.5 -46.5t27 -43.5t21 -35.5t8.5 -22.5q0 -2 -2 -5t-5 -3z" />
    <glyph glyph-name="ycircumflex" unicode="&#x177;" horiz-adv-x="327" 
d="M114 -167q-35 0 -62 16.5t-27 49.5q0 21 14 39t37 36.5t53 39t61 46.5v41v57t0.5 65.5t0.5 67.5q-7 -44 -16 -88t-21 -78.5t-27.5 -56t-36.5 -21.5q-33 0 -61 37.5t-28 97.5q0 78 4.5 158t11.5 136q1 14 4 20t8 6t12.5 -8t7.5 -25q0 -15 -1.5 -49t-3 -76t-3 -87t-1.5 -82
q0 -39 9 -66t30 -27t40.5 38t34 92t25 114.5t13.5 105.5q2 35 4.5 50t12.5 15t15.5 -9t5.5 -22q0 -27 -1 -72.5t-1.5 -98t-1.5 -107.5t-1 -101q46 67 78 142t48 194q1 4 2 7.5t2 3.5q3 0 5 -4.5t2 -10.5q0 -25 -9 -71t-26.5 -97.5t-43.5 -103t-58 -88.5q-1 -101 -24 -163.5
t-87 -62.5zM216 559q-6 0 -17 11t-24 28t-26.5 38t-23.5 40q-24 -48 -53.5 -83.5t-35.5 -35.5q-3 0 -5.5 4t-2.5 9q0 9 28 51.5t56 96.5q1 4 5 6t5 2q4 0 9 -2.5t9 -8.5q12 -23 26.5 -46.5t27 -43.5t21 -35.5t8.5 -22.5q0 -2 -2 -5t-5 -3zM117 -136q37 0 54.5 49.5
t18.5 122.5q-60 -46 -96 -77.5t-36 -56.5q0 -15 13 -26.5t46 -11.5z" />
    <glyph glyph-name="Ydieresis" unicode="&#x178;" horiz-adv-x="394" 
d="M30 656q0 6 2 10t8 4q7 0 13 -5t10 -15q6 -16 22.5 -64.5t36.5 -110t41.5 -130t39.5 -124.5q17 54 36 117t36.5 122t32.5 109.5t23 78.5q4 12 6.5 17t6.5 5q5 0 12.5 -6t7.5 -16q0 -19 -15.5 -75t-38.5 -124t-48.5 -137.5t-44.5 -116.5v-40.5t-0.5 -48.5t-1 -44t-0.5 -28
q-1 -20 -3 -30.5t-9 -10.5t-14 6.5t-8 23.5v170q-19 47 -45 120.5t-49.5 145t-40 128t-16.5 69.5zM244 733q-13 0 -20 8.5t-7 19.5q0 14 8.5 23t22.5 9t21 -8.5t7 -17.5q0 -16 -9.5 -25t-22.5 -9zM148 731q-15 0 -22.5 8.5t-7.5 20.5q0 15 9 24.5t24 9.5t21 -9.5t6 -19.5
q0 -16 -8.5 -25t-21.5 -9z" />
    <glyph glyph-name="Zacute" unicode="&#x179;" horiz-adv-x="389" 
d="M62 -5q-9 0 -18 11t-9 24q0 12 32 87t76 171t90.5 194t74.5 155q-29 -2 -66 -5t-71 -5.5t-61.5 -4.5t-37.5 -2q-8 0 -12.5 7.5t-4.5 11.5q0 5 4.5 8.5t17.5 5.5t42.5 3.5t64 3t69.5 2.5t57 1q17 0 25 -7t8 -14q0 -6 -35 -84t-81 -179t-93 -202t-71 -152q31 3 65.5 6
t67 5.5t61 4.5t46.5 2q9 0 17 -8.5t8 -17.5q0 -6 -5 -9t-15 -4q-20 -2 -49 -4t-61.5 -3t-67.5 -1.5t-68 -0.5zM247 859q3 4 5.5 6t5.5 2q8 0 17 -8t9 -14q0 -3 -1 -6t-4 -7q-5 -7 -21.5 -29t-35.5 -45t-36 -41.5t-21 -18.5t-6 3t-2 9t10 24t24 40t29.5 45.5t26.5 39.5z" />
    <glyph glyph-name="zacute" unicode="&#x17a;" horiz-adv-x="298" 
d="M121 -5q-20 0 -43 0.5t-39 1.5h-6t-5 1q-10 1 -15 5t-5 10q0 13 3 22.5t7 15.5q21 34 48 94.5t53.5 124.5t48.5 121.5t32 84.5q-40 -4 -83.5 -8.5t-77.5 -6.5q-1 -22 -4 -48.5t-5 -45.5q-1 -8 -3 -9.5t-4 -1.5q-3 0 -5.5 2t-1.5 7q2 18 5 42.5t6 52.5h-10.5h-9.5
q-12 0 -19.5 7t-7.5 12t7 7.5t18 3.5q49 3 108.5 7.5t104.5 4.5q6 0 11 -5.5t5 -15.5q0 -4 -19.5 -56.5t-48.5 -123.5t-64 -146.5t-66 -124.5q16 -2 44 -3t38 -1q28 0 51 6.5t41 25.5q24 25 41.5 66t31 90t23 103t16.5 106q1 4 2 7.5t2 3.5q3 0 5 -4.5t2 -10.5
q0 -29 -7.5 -82t-20.5 -109.5t-32 -107.5t-42 -76q-22 -25 -47.5 -37t-62.5 -12zM172 718q3 4 5.5 6t5.5 2q8 0 17 -8t9 -14q0 -3 -1 -6t-4 -7q-5 -7 -21.5 -29t-35.5 -45t-36 -41.5t-21 -18.5t-6 3t-2 9t10 24t24 40t29.5 45.5t26.5 39.5z" />
    <glyph glyph-name="Zdotaccent" unicode="&#x17b;" horiz-adv-x="389" 
d="M62 -5q-9 0 -18 11t-9 24q0 12 32 87t76 171t90.5 194t74.5 155q-29 -2 -66 -5t-71 -5.5t-61.5 -4.5t-37.5 -2q-8 0 -12.5 7.5t-4.5 11.5q0 5 4.5 8.5t17.5 5.5t42.5 3.5t64 3t69.5 2.5t57 1q17 0 25 -7t8 -14q0 -6 -35 -84t-81 -179t-93 -202t-71 -152q31 3 65.5 6
t67 5.5t61 4.5t46.5 2q9 0 17 -8.5t8 -17.5q0 -6 -5 -9t-15 -4q-20 -2 -49 -4t-61.5 -3t-67.5 -1.5t-68 -0.5zM196 733q-20 0 -30 11t-10 25q0 18 12 30t33 12q19 0 26.5 -12t7.5 -22q0 -21 -10.5 -32.5t-28.5 -11.5z" />
    <glyph glyph-name="zdotaccent" unicode="&#x17c;" horiz-adv-x="298" 
d="M121 -5q-20 0 -43 0.5t-39 1.5h-6t-5 1q-10 1 -15 5t-5 10q0 13 3 22.5t7 15.5q21 34 48 94.5t53.5 124.5t48.5 121.5t32 84.5q-40 -4 -83.5 -8.5t-77.5 -6.5q-1 -22 -4 -48.5t-5 -45.5q-1 -8 -3 -9.5t-4 -1.5q-3 0 -5.5 2t-1.5 7q2 18 5 42.5t6 52.5h-10.5h-9.5
q-12 0 -19.5 7t-7.5 12t7 7.5t18 3.5q49 3 108.5 7.5t104.5 4.5q6 0 11 -5.5t5 -15.5q0 -4 -19.5 -56.5t-48.5 -123.5t-64 -146.5t-66 -124.5q16 -2 44 -3t38 -1q28 0 51 6.5t41 25.5q24 25 41.5 66t31 90t23 103t16.5 106q1 4 2 7.5t2 3.5q3 0 5 -4.5t2 -10.5
q0 -29 -7.5 -82t-20.5 -109.5t-32 -107.5t-42 -76q-22 -25 -47.5 -37t-62.5 -12zM121 592q-20 0 -30 11t-10 25q0 18 12 30t33 12q19 0 26.5 -12t7.5 -22q0 -21 -10.5 -32.5t-28.5 -11.5z" />
    <glyph glyph-name="Zcaron" unicode="&#x17d;" horiz-adv-x="389" 
d="M62 -5q-9 0 -18 11t-9 24q0 12 32 87t76 171t90.5 194t74.5 155q-29 -2 -66 -5t-71 -5.5t-61.5 -4.5t-37.5 -2q-8 0 -12.5 7.5t-4.5 11.5q0 5 4.5 8.5t17.5 5.5t42.5 3.5t64 3t69.5 2.5t57 1q17 0 25 -7t8 -14q0 -6 -35 -84t-81 -179t-93 -202t-71 -152q31 3 65.5 6
t67 5.5t61 4.5t46.5 2q9 0 17 -8.5t8 -17.5q0 -6 -5 -9t-15 -4q-20 -2 -49 -4t-61.5 -3t-67.5 -1.5t-68 -0.5zM199 700q-4 0 -9 2.5t-9 8.5q-12 23 -26.5 46.5t-27 43.5t-21 35.5t-8.5 22.5q0 2 2 5t5 3q6 0 17 -11t24 -28t26.5 -38t23.5 -40q24 48 53.5 83.5t35.5 35.5
q3 0 5.5 -4t2.5 -9q0 -9 -28 -51.5t-56 -96.5q-1 -4 -5 -6t-5 -2z" />
    <glyph glyph-name="zcaron" unicode="&#x17e;" horiz-adv-x="298" 
d="M121 -5q-20 0 -43 0.5t-39 1.5h-6t-5 1q-10 1 -15 5t-5 10q0 13 3 22.5t7 15.5q21 34 48 94.5t53.5 124.5t48.5 121.5t32 84.5q-40 -4 -83.5 -8.5t-77.5 -6.5q-1 -22 -4 -48.5t-5 -45.5q-1 -8 -3 -9.5t-4 -1.5q-3 0 -5.5 2t-1.5 7q2 18 5 42.5t6 52.5h-10.5h-9.5
q-12 0 -19.5 7t-7.5 12t7 7.5t18 3.5q49 3 108.5 7.5t104.5 4.5q6 0 11 -5.5t5 -15.5q0 -4 -19.5 -56.5t-48.5 -123.5t-64 -146.5t-66 -124.5q16 -2 44 -3t38 -1q28 0 51 6.5t41 25.5q24 25 41.5 66t31 90t23 103t16.5 106q1 4 2 7.5t2 3.5q3 0 5 -4.5t2 -10.5
q0 -29 -7.5 -82t-20.5 -109.5t-32 -107.5t-42 -76q-22 -25 -47.5 -37t-62.5 -12zM124 559q-4 0 -9 2.5t-9 8.5q-12 23 -26.5 46.5t-27 43.5t-21 35.5t-8.5 22.5q0 2 2 5t5 3q6 0 17 -11t24 -28t26.5 -38t23.5 -40q24 48 53.5 83.5t35.5 35.5q3 0 5.5 -4t2.5 -9
q0 -9 -28 -51.5t-56 -96.5q-1 -4 -5 -6t-5 -2z" />
    <glyph glyph-name="Aringacute" unicode="&#x1fa;" 
d="M273 994q3 4 5.5 6t5.5 2q8 0 17 -8t9 -14q0 -3 -1 -6t-4 -7q-5 -7 -21.5 -29t-35.5 -45t-36 -41.5t-21 -18.5t-6 3t-2 9t10 24t24 40t29.5 45.5t26.5 39.5zM203 672q20 0 33 14.5t13 39.5q0 14 -10 29t-32 15q-24 0 -38 -15t-14 -37q0 -18 12 -32t36 -14zM362 -11
q-9 0 -15 6.5t-10 22.5q-5 16 -15.5 60t-23.5 104q-15 -1 -38.5 -3t-49.5 -4t-53 -3.5t-50 -2.5q-9 -46 -16.5 -84.5t-12.5 -63.5q-4 -17 -7 -24.5t-9 -7.5t-14 9t-8 22q0 15 7 54.5t18 93.5h-4.5h-4.5q-14 1 -24 6t-10 12q0 4 3.5 7.5t10.5 4.5t16.5 1.5t19.5 1.5
q12 54 26.5 116t29 120.5t28.5 110.5t24 87q1 4 2 7t2 5q-29 5 -43.5 24.5t-14.5 43.5q0 36 23 59.5t62 23.5q37 0 52 -23t15 -45q0 -33 -14 -54t-38 -28q1 -4 3 -9.5t4 -12.5q13 -47 36.5 -143t46.5 -195t39.5 -180.5t16.5 -98.5q0 -9 -2 -14.5t-8 -5.5zM114 203
q46 2 96.5 3.5t81.5 2.5q-11 48 -23 102t-23.5 108.5t-23 108t-21.5 99.5q-10 -48 -21.5 -102t-22.5 -109t-22 -109.5t-21 -103.5z" />
    <glyph glyph-name="aringacute" unicode="&#x1fb;" horiz-adv-x="486" 
d="M108 477q-33 0 -53.5 -84.5t-20.5 -274.5q0 -39 9 -66t30 -27t41 41.5t35.5 99.5t25 120t9.5 103q0 42 -21 65t-55 23zM137 581q20 0 33 14.5t13 39.5q0 14 -10 29t-32 15q-24 0 -38 -15t-14 -37q0 -18 12 -32t36 -14zM138 554q-39 0 -58.5 21t-19.5 49q0 36 23 59.5
t62 23.5q37 0 52 -23t15 -45q0 -40 -20.5 -62.5t-53.5 -22.5zM235 -10q-25 0 -43 24t-17 68l4 137q-7 -45 -16.5 -86.5t-20.5 -73t-25.5 -50.5t-32.5 -19q-33 0 -61 37.5t-28 97.5q0 204 26.5 293.5t75.5 89.5q31 0 53.5 -17t37.5 -43q3 26 5.5 37.5t10.5 11.5q10 0 16.5 -9
t6.5 -22q0 -27 -2 -72.5t-4.5 -98.5t-4.5 -109t-2 -103q0 -33 8.5 -43.5t17.5 -10.5q17 0 33 35t29.5 91t25.5 126.5t22 141.5q2 17 7 9.5t4 -18.5q-8 -68 -19 -143.5t-26 -137.5t-35 -102.5t-46 -40.5zM197 925q3 4 5.5 6t5.5 2q8 0 17 -8t9 -14q0 -3 -1 -6t-4 -7
q-5 -7 -21.5 -29t-35.5 -45t-36 -41.5t-21 -18.5t-6 3t-2 9t10 24t24 40t29.5 45.5t26.5 39.5z" />
    <glyph glyph-name="AEacute" unicode="&#x1fc;" horiz-adv-x="541" 
d="M504 646q0 -6 -8.5 -8.5t-24.5 -3.5q-15 -1 -38 -3t-48.5 -3.5t-52.5 -3t-51 -2.5q1 -23 2 -58t1.5 -76.5t0 -88.5t-0.5 -94q16 3 37 6t41 4.5t37.5 2.5t27.5 1q14 0 22.5 -7.5t8.5 -14.5q0 -5 -4 -7t-12 -3q-8 0 -27.5 -1.5t-42.5 -3t-47 -3t-41 -2.5q-1 -82 -2 -153.5
t-2 -106.5q41 5 87.5 9t79.5 4q19 0 29.5 -11t-5.5 -13q-7 -1 -37 -4t-65 -6t-65.5 -5t-37.5 -2q-4 0 -10.5 9t-7.5 23q-1 9 -1.5 53t-0.5 107q-28 -3 -72 -7t-78 -5q-14 -46 -26 -84t-20 -63q-6 -17 -10 -24.5t-10 -7.5t-12.5 9t-5.5 22q2 15 13.5 54.5t27.5 92.5
q-13 1 -23 6t-10 12q0 4 3.5 7.5t10.5 4.5q6 1 13.5 1.5t16.5 0.5q17 53 37 111.5t39.5 114t38.5 104.5t33 82q8 21 13 27.5t14 7.5q13 2 31.5 4.5t46 4.5t67.5 3.5t96 1.5q13 0 18.5 -5.5t5.5 -9.5zM106 203q36 1 74.5 3t65.5 3v104.5t0.5 110t1.5 105.5t2 92q-4 -1 -7 -1
h-6q-16 -46 -33 -99t-34 -107t-33 -108t-31 -103zM344 863q3 4 5.5 6t5.5 2q8 0 17 -8t9 -14q0 -3 -1 -6t-4 -7q-5 -7 -21.5 -29t-35.5 -45t-36 -41.5t-21 -18.5t-6 3t-2 9t10 24t24 40t29.5 45.5t26.5 39.5z" />
    <glyph glyph-name="aeacute" unicode="&#x1fd;" horiz-adv-x="454" 
d="M108 477q-33 0 -53.5 -84.5t-20.5 -274.5q0 -39 9 -66t30 -27t41 41.5t35.5 99.5t25 120t9.5 103q0 42 -21 65t-55 23zM301 484q-31 0 -51.5 -50t-27.5 -173q38 13 62 34t37 44t18 46t5 41q0 28 -11 43t-32 15zM178 131q0 31 1 54t2 43q-8 -46 -17 -89t-21 -76t-26.5 -53
t-32.5 -20q-33 0 -61 37.5t-28 97.5q0 204 26.5 293.5t75.5 89.5q31 0 54 -17.5t38 -45.5q2 28 4.5 40t10.5 12q10 0 16.5 -9t6.5 -22q0 -10 -0.5 -25t-1.5 -33q10 51 25.5 76.5t40.5 25.5q35 0 60.5 -27t25.5 -73q0 -61 -40 -101.5t-116 -65.5q-1 -23 -1.5 -49t-0.5 -55
q0 -57 19 -85.5t47 -28.5q30 0 60.5 35t56.5 90.5t46 127.5t30 145q1 4 2 7.5t2 3.5q3 0 5 -4.5t2 -10.5q0 -12 -12.5 -80.5t-37 -145.5t-61.5 -139.5t-86 -62.5q-60 0 -87 41.5t-27 98.5zM341 718q3 4 5.5 6t5.5 2q8 0 17 -8t9 -14q0 -3 -1 -6t-4 -7q-5 -7 -21.5 -29
t-35.5 -45t-36 -41.5t-21 -18.5t-6 3t-2 9t10 24t24 40t29.5 45.5t26.5 39.5z" />
    <glyph glyph-name="Oslashacute" unicode="&#x1fe;" horiz-adv-x="413" 
d="M340 689q4 8 7 10.5t6 2.5q7 0 12.5 -8t5.5 -17t-11.5 -32.5t-29.5 -57.5q15 -34 23 -86.5t8 -125.5q0 -181 -37 -283t-118 -102q-33 0 -60.5 15t-46.5 45q-2 -7 -4.5 -12t-3.5 -9q-10 -27 -16 -39.5t-12 -12.5q-4 0 -5.5 3.5t-1.5 7.5q0 7 7.5 30.5t20.5 59.5
q-16 34 -24 82.5t-8 109.5q0 91 10.5 165t31 126t52 80.5t72.5 28.5q28 0 51.5 -11.5t41.5 -36.5q8 20 15 37t14 30zM206 23q57 0 86.5 94t29.5 263q0 53 -4 92.5t-11 67.5q-2 -4 -4 -8.5t-4 -8.5q-22 -48 -44.5 -101.5t-44.5 -106t-42.5 -102t-37.5 -89.5q-4 -8 -7 -16
t-6 -15q15 -37 37.5 -53.5t51.5 -16.5zM91 274q0 -44 3.5 -79.5t10.5 -63.5q3 8 6.5 17t7.5 19q17 42 36.5 90.5t40 97.5t41 96.5t39.5 87.5q4 10 9 20.5t9 20.5q-16 35 -36.5 46.5t-41.5 11.5q-51 0 -88 -88t-37 -276zM293 865q3 4 5.5 6t5.5 2q8 0 17 -8t9 -14q0 -3 -1 -6
t-4 -7q-5 -7 -21.5 -29t-35.5 -45t-36 -41.5t-21 -18.5t-6 3t-2 9t10 24t24 40t29.5 45.5t26.5 39.5z" />
    <glyph glyph-name="oslashacute" unicode="&#x1ff;" horiz-adv-x="289" 
d="M200 509q3 7 6 9t5 2q6 0 10 -6.5t4 -13.5t-8 -23l-20 -40q9 -28 13 -68.5t4 -94.5q0 -19 -0.5 -37.5t-1.5 -35.5q23 6 40 27t29.5 51t20 67.5t11.5 76.5q1 4 1.5 6.5t1.5 2.5q4 0 6.5 -4.5t1.5 -12.5q-3 -33 -10 -73.5t-20.5 -76t-34 -61.5t-49.5 -30q-8 -88 -34 -135.5
t-70 -47.5q-28 0 -48 12t-33 35q-2 -6 -4 -10.5t-3 -8.5q-9 -22 -14 -32t-9 -10q-3 0 -4.5 2.5t-1.5 6.5q0 6 6.5 26.5t18.5 51.5q-10 27 -14 64t-4 82q0 61 5.5 115.5t19 95.5t36 65t56.5 24q22 0 39.5 -9t30.5 -30q4 11 8.5 21t8.5 17zM33 191q0 -18 1 -35t3 -32l3 8
q12 29 25.5 62t27.5 66.5t28 66t27 60.5q5 11 10 23t9 22q-9 28 -23 39.5t-31 11.5q-24 0 -39.5 -22t-24.5 -60.5t-12.5 -92.5t-3.5 -117zM102 20q31 0 49 41.5t25 116.5q-7 4 -9.5 9.5t-2.5 11.5q0 7 3.5 14.5t11.5 11.5q1 17 1.5 36t0.5 38q0 28 -1.5 51.5t-3.5 42.5
q-2 -4 -4.5 -9.5t-4.5 -9.5q-15 -33 -31 -70.5t-31 -74t-29.5 -71t-26.5 -61.5q-1 -3 -2.5 -6l-2.5 -5q8 -31 22.5 -48.5t35.5 -17.5zM188 718q3 4 5.5 6t5.5 2q8 0 17 -8t9 -14q0 -3 -1 -6t-4 -7q-5 -7 -21.5 -29t-35.5 -45t-36 -41.5t-21 -18.5t-6 3t-2 9t10 24t24 40
t29.5 45.5t26.5 39.5z" />
    <glyph glyph-name="Scommaaccent" unicode="&#x218;" horiz-adv-x="395" 
d="M50 69q4 0 16 -7t31 -15.5t45 -15.5t57 -7q43 0 72.5 24.5t29.5 67.5q0 44 -38 70t-83.5 52.5t-83.5 65t-38 106.5q0 118 38 189t100 71q37 0 61 -24t37.5 -62.5t18.5 -86.5t5 -95q0 -12 -9 -23.5t-22 -11.5q-3 0 -5.5 3t-2.5 8q0 137 -23.5 198.5t-57.5 61.5
q-45 0 -73.5 -58t-28.5 -171q0 -56 38 -89t83.5 -59.5t83.5 -57.5t38 -83q0 -61 -42 -96.5t-101 -35.5q-31 0 -60 6t-51 14.5t-35.5 18.5t-13.5 19q0 6 4 14.5t10 8.5zM150 -198q-4 0 -5.5 2.5t-1.5 4.5q0 6 5.5 16.5t12.5 27.5t12.5 40.5t5.5 53.5q0 6 2.5 9.5t6.5 3.5
q10 0 18 -6t8 -16q0 -24 -6 -48t-15.5 -43.5t-21 -32t-21.5 -12.5z" />
    <glyph glyph-name="scommaaccent" unicode="&#x219;" horiz-adv-x="226" 
d="M164 148q0 -19 -1.5 -35.5t-4.5 -30.5q44 89 64 178t29 165q1 13 6.5 8t4.5 -17q-3 -44 -14 -116.5t-33.5 -141t-57 -118.5t-83.5 -50h-3q-39 0 -66 30.5t-36 76.5q-1 7 1.5 12t6.5 -1q25 -43 46 -63t46 -20q23 0 41 27t18 85q0 64 -10 119t-23.5 98.5t-28 75.5t-23.5 50
q-1 -25 -6 -57.5t-7 -53.5q-1 -8 -2.5 -10.5t-3.5 -2.5q-3 0 -5.5 2t-1.5 7q3 23 8 61t9 76q0 4 3.5 6.5t6.5 2.5q4 0 10 -7.5t13 -18.5q37 -63 67 -149.5t30 -187.5zM36 -198q-4 0 -5.5 2.5t-1.5 4.5q0 6 5.5 16.5t12.5 27.5t12.5 40.5t5.5 53.5q0 6 2.5 9.5t6.5 3.5
q10 0 18 -6t8 -16q0 -24 -6 -48t-15.5 -43.5t-21 -32t-21.5 -12.5z" />
    <glyph glyph-name="uni021A" unicode="&#x21a;" horiz-adv-x="419" 
d="M40 620q-10 0 -15 6t-5 11t4 7.5t13 3.5q26 3 90.5 8t176.5 5q13 0 18.5 -5.5t5.5 -9.5q0 -6 -8.5 -8.5t-24.5 -3.5q-18 -1 -45 -3.5t-58 -3.5q2 -38 2.5 -129t0 -188.5t-2 -181.5t-2.5 -109q-1 -11 -3 -17t-9 -6q-8 0 -12.5 7t-5.5 26q-1 20 -2 90t-1.5 158.5
t-0.5 183.5t1 164q-35 -2 -67 -3.5t-50 -1.5zM137 -198q-4 0 -5.5 2.5t-1.5 4.5q0 6 5.5 16.5t12.5 27.5t12.5 40.5t5.5 53.5q0 6 2.5 9.5t6.5 3.5q10 0 18 -6t8 -16q0 -24 -6 -48t-15.5 -43.5t-21 -32t-21.5 -12.5z" />
    </font>
</defs>
</svg>
