<svg width="100" height="100" viewBox="0 0 100 100" fill="none" xmlns="http://www.w3.org/2000/svg">
<circle cx="50" cy="50" r="50" fill="url(#paint0_linear_271_187)"/>
<path d="M71.5674 68.7127C71.1015 68.6847 70.6436 68.8411 70.2931 69.1485C69.9423 69.4563 69.7269 69.8895 69.6938 70.355C69.7026 70.6746 69.8072 70.9844 69.9941 71.2441L71.5653 73.5861C72.214 72.6154 73.0357 71.3843 73.0587 71.3499V71.3495C73.2277 71.1212 73.3489 70.8606 73.415 70.5846L73.4154 70.5829V70.5825C73.4318 70.5077 73.4401 70.4315 73.441 70.355C73.4075 69.8896 73.1925 69.4563 72.8417 69.1484C72.4908 68.8411 72.0329 68.6847 71.5674 68.7127L71.5674 68.7127Z" fill="white"/>
<path d="M71.5669 63.0922C69.6527 63.0918 67.7959 63.7454 66.3051 64.9456L62.5797 61.2161H62.5793C62.1623 61.6815 61.7199 62.1236 61.2544 62.5405L64.9811 66.2713V66.2709C63.3844 68.2774 62.788 70.9017 63.3613 73.4009C63.9343 75.9001 65.6142 78.0024 67.9252 79.1128C70.2366 80.2231 72.9274 80.2207 75.2367 79.1061C77.5455 77.9912 79.2218 75.8859 79.7901 73.3854C80.3584 70.8851 79.757 68.2621 78.157 66.2589C76.5565 64.2557 74.131 63.0901 71.5669 63.0922L71.5669 63.0922ZM75.2488 70.9682H75.2483C75.1338 71.4847 74.9159 71.9727 74.6077 72.4026C74.5253 72.5272 74.1506 73.0876 72.3456 75.7901V75.7905C72.1724 76.0506 71.8801 76.207 71.5677 76.207H71.5669C71.2545 76.207 70.9626 76.0514 70.7886 75.7922L68.4375 72.2881C68.0414 71.7206 67.8261 71.0468 67.8198 70.3551C67.9013 69.0728 68.6328 67.9216 69.759 67.303C70.8848 66.6845 72.2485 66.6845 73.3744 67.303C74.5007 67.9215 75.2321 69.0728 75.314 70.3551C75.3132 70.5613 75.2914 70.7666 75.2483 70.9682L75.2488 70.9682Z" fill="white"/>
<path d="M65.012 49.9772C65.012 46.0022 63.4329 42.1899 60.6221 39.3787C57.8109 36.5679 53.9986 34.9888 50.0236 34.9888C46.0485 34.9888 42.2362 36.5679 39.4251 39.3787C36.6143 42.1899 35.0352 46.0022 35.0352 49.9772C35.0352 53.9522 36.6143 57.7646 39.4251 60.5757C42.2362 63.3865 46.0485 64.9656 50.0236 64.9656C53.9986 64.9656 57.8109 63.3865 60.6221 60.5757C63.4329 57.7646 65.012 53.9522 65.012 49.9772ZM50.9604 63.0546V50.914H52.3655V51.7462C52.3655 52.095 52.5596 52.4149 52.8686 52.5763L55.0261 53.7034V53.7029C54.8689 54.5824 55.1378 55.4845 55.7513 56.134C56.3652 56.7834 57.2505 57.1034 58.1375 56.9959C59.0241 56.8884 59.8079 56.3669 60.2487 55.5899C60.6899 54.8128 60.7363 53.8727 60.3737 53.056C60.0111 52.2396 59.2827 51.6433 58.4102 51.4496C57.5383 51.2556 56.6257 51.4868 55.9512 52.0727L54.239 51.1782V48.991L56.0411 47.9572C56.7399 48.5146 57.6617 48.7074 58.5252 48.477C59.3888 48.2462 60.0918 47.6197 60.4196 46.7883C60.7479 45.957 60.6622 45.0194 60.1884 44.2612C59.715 43.5034 58.91 43.0149 58.0187 42.9447C57.1279 42.8748 56.2564 43.232 55.6704 43.907C55.0845 44.5819 54.8532 45.4944 55.0477 46.3672L52.8358 47.6356C52.5452 47.8029 52.3654 48.1128 52.3654 48.4482V49.0404H47.9546V48.4482C47.9546 48.1128 47.7748 47.8029 47.4841 47.6356L45.2723 46.3672C45.4663 45.4948 45.2355 44.5819 44.6495 43.9073C44.0636 43.2323 43.1926 42.8756 42.3017 42.9454C41.4105 43.0152 40.6059 43.5037 40.132 44.2615C39.6586 45.0197 39.5729 45.9573 39.9008 46.7883C40.2291 47.6197 40.9316 48.2462 41.7952 48.4767C42.6584 48.7071 43.5801 48.5143 44.2789 47.9573L46.0809 48.991V51.1783L44.3688 52.0728C43.6905 51.4807 42.7708 51.2456 41.8918 51.4397C41.0123 51.6337 40.2771 52.2334 39.9112 53.0565C39.5448 53.8791 39.5912 54.8267 40.0358 55.6101C40.4803 56.3934 41.2703 56.9191 42.1645 57.0262C43.0586 57.1337 43.9507 56.8104 44.5679 56.1546C45.1851 55.4993 45.4549 54.5893 45.2938 53.7032L47.4513 52.5762V52.5766C47.7604 52.4151 47.9544 52.0952 47.9544 51.7464V50.9142H49.0865V63.0548C44.5243 62.7282 40.4615 60.048 38.3655 55.9826C36.2699 51.9167 36.4438 47.0531 38.8247 43.1471C41.2055 39.2415 45.449 36.8582 50.0232 36.8582C54.5973 36.8582 58.8405 39.2415 61.2217 43.1471C63.6025 47.0527 63.7764 51.9164 61.6809 55.9826C59.5853 60.048 55.5224 62.7282 50.9598 63.0548L50.9604 63.0546Z" fill="white"/>
<path d="M28.4795 20.0002C25.7444 19.9965 23.1775 21.3196 21.5938 23.5495C20.01 25.7793 19.6065 28.6395 20.5115 31.2206C21.4161 33.8017 23.5171 35.7832 26.1464 36.5363C28.776 37.2895 31.6073 36.7199 33.7414 35.009L37.4667 38.7386V38.7381C37.8841 38.2727 38.3261 37.8306 38.792 37.4137L35.0654 33.6829V33.6833C36.3953 32.0221 37.0473 29.9195 36.89 27.7979C36.7327 25.6759 35.778 23.6923 34.2177 22.2454C32.6574 20.7988 30.6073 19.9967 28.4795 20V20.0002ZM27.4477 27.1005C27.6523 27.4262 28.2172 27.5818 28.8149 27.7462C29.7383 28.0004 31.0033 28.348 31.4458 29.6791C31.6206 30.2663 31.5612 30.8987 31.2806 31.4432C30.9996 31.9877 30.5191 32.4025 29.9395 32.6007C29.6806 32.7053 29.41 32.7776 29.1336 32.8161V33.1151C29.1336 33.6324 28.7145 34.0519 28.1968 34.0519C27.6795 34.0519 27.26 33.6324 27.26 33.1151V32.5986C27.1961 32.5739 27.1312 32.553 27.0681 32.5246C26.2296 32.1729 25.5734 31.4904 25.2555 30.6385C25.082 30.1513 25.3363 29.6156 25.8235 29.442C26.3107 29.2684 26.8464 29.5227 27.02 30.0103C27.1709 30.3763 27.4633 30.6657 27.8305 30.8133C28.2692 31.0174 28.7714 31.037 29.2247 30.8689C29.3811 30.8045 29.7663 30.5699 29.6672 30.2671C29.5542 29.9271 29.1498 29.7816 28.3184 29.5528C27.4874 29.3245 26.4528 29.0397 25.8611 28.0966V28.0962C25.6014 27.6943 25.4646 27.2255 25.4667 26.747C25.4688 26.2685 25.6101 25.8014 25.8732 25.4017C26.2713 24.8384 26.8677 24.4457 27.5427 24.303V23.7472C27.5427 23.2299 27.9621 22.8105 28.4795 22.8105C28.9968 22.8105 29.4162 23.2299 29.4162 23.7472V24.2972C30.4978 24.5565 31.3684 25.3552 31.7209 26.4095C31.7912 26.6483 31.7636 26.905 31.644 27.1234C31.5244 27.3417 31.3232 27.5035 31.084 27.5733C30.8452 27.6428 30.5884 27.6143 30.3705 27.4943C30.1522 27.3743 29.9912 27.1723 29.9222 26.9335C29.7491 26.5015 29.3689 26.187 28.9127 26.0971C28.8031 26.0783 28.6923 26.067 28.5815 26.0632C28.5154 26.077 28.4472 26.077 28.3811 26.0636C28.0202 26.044 27.6698 26.1866 27.4247 26.4517C27.3072 26.6545 27.316 26.9063 27.4477 27.1003L27.4477 27.1005Z" fill="white"/>
<path d="M71.567 20.0005C69.4391 19.9972 67.3892 20.7993 65.8288 22.2459C64.2685 23.6929 63.3137 25.6764 63.1564 27.7983C62.9992 29.9198 63.6512 32.0226 64.9811 33.6838L61.2544 37.4142C61.7203 37.8311 62.1623 38.2732 62.5797 38.7386L66.3051 35.0091V35.0095C68.4388 36.717 71.2683 37.2841 73.8951 36.5305C76.5223 35.7769 78.6209 33.7963 79.525 31.2172C80.4291 28.6381 80.0268 25.781 78.4452 23.5519C76.8639 21.3229 74.2999 19.9992 71.567 20.0005V20.0005ZM69.6934 31.2418C69.6934 31.7591 69.274 32.1786 68.7566 32.1786C68.2393 32.1786 67.8199 31.7591 67.8199 31.2418V29.3683C67.8199 28.851 68.2393 28.4315 68.7566 28.4315C69.274 28.4315 69.6934 28.851 69.6934 29.3683V31.2418ZM72.5037 31.2418C72.5037 31.7591 72.0843 32.1786 71.567 32.1786C71.0497 32.1786 70.6302 31.7591 70.6302 31.2418V27.4947C70.6302 26.9774 71.0497 26.5579 71.567 26.5579C72.0843 26.5579 72.5037 26.9774 72.5037 27.4947V31.2418ZM75.3141 31.2418C75.3141 31.7591 74.8946 32.1786 74.3773 32.1786C73.86 32.1786 73.4405 31.7591 73.4405 31.2418V25.6212C73.4405 25.1038 73.86 24.6844 74.3773 24.6844C74.8946 24.6844 75.3141 25.1038 75.3141 25.6212V31.2418Z" fill="white"/>
<path d="M37.4663 61.2163L33.7409 64.9459H33.7405C31.4692 63.1276 28.4226 62.6048 25.675 63.5616C22.9274 64.5184 20.8644 66.8206 20.2141 69.6565C19.5638 72.4923 20.4169 75.4637 22.4729 77.5226C24.5287 79.581 27.4988 80.4382 30.3355 79.7917C33.1721 79.1447 35.4773 77.0851 36.4379 74.3387C37.3986 71.5923 36.88 68.5453 35.0645 66.2712L38.7912 62.5403V62.5407C38.3257 62.1238 37.8833 61.6818 37.4663 61.2163L37.4663 61.2163ZM28.4787 68.713C29.0466 68.713 29.5585 69.0551 29.776 69.5795C29.993 70.1039 29.873 70.7078 29.4715 71.1093C29.07 71.5108 28.4662 71.6308 27.9417 71.4138C27.4169 71.1963 27.0752 70.6844 27.0752 70.1169C27.076 69.342 27.7042 68.7139 28.4787 68.7131L28.4787 68.713ZM31.7574 77.1942C30.7625 77.7751 29.6309 78.0808 28.4787 78.0808C27.3265 78.0808 26.1953 77.7747 25.2 77.1942V75.1847C25.2 74.3278 26.0761 73.8657 26.8996 73.8657L30.0583 73.8653C30.8821 73.8653 31.7574 74.3278 31.7574 75.1843V77.1942Z" fill="white"/>
<defs>
<linearGradient id="paint0_linear_271_187" x1="88.5" y1="21.5" x2="17.5" y2="85" gradientUnits="userSpaceOnUse">
<stop stop-color="#64B1FA"/>
<stop offset="1" stop-color="#2C96FA"/>
</linearGradient>
</defs>
</svg>
