<svg width="100" height="100" viewBox="0 0 100 100" fill="none" xmlns="http://www.w3.org/2000/svg">
<circle cx="50" cy="50" r="50" fill="url(#paint0_linear_271_186)"/>
<path d="M52.2096 53.7501C52.2096 54.9708 51.2205 55.9599 49.9998 55.9599C48.7792 55.9599 47.79 54.9707 47.79 53.7501C47.79 52.5294 48.7792 51.5403 49.9998 51.5403C51.2205 51.5403 52.2096 52.5294 52.2096 53.7501Z" fill="white"/>
<path d="M71.3801 46.1046C71.3903 45.874 71.3973 45.6419 71.3973 45.4085C71.3973 36.8989 64.4934 30 55.9757 30C49.8075 30 44.4875 33.6193 42.0208 38.8468C40.6508 37.8702 38.958 37.2913 37.1254 37.2913C32.5662 37.2913 28.8701 40.8646 28.8701 45.2712C28.8701 45.926 28.9533 46.5608 29.1068 47.1686C23.9067 48.2763 20 52.9801 20 58.6164C20 65.0752 25.1303 70.0004 31.458 70.0004H69.0345C75.0907 70.0004 80 64.8292 80 58.0658C80 52.2026 76.3081 47.3043 71.3792 46.1037L71.3801 46.1046ZM58.6228 54.8562C58.5902 55.1022 58.36 55.3133 58.1126 55.3277L57.0184 55.3877C56.771 55.4012 56.5046 55.6049 56.4264 55.8397L56.0223 56.8177C55.9112 57.039 55.9549 57.3711 56.1204 57.5557L56.851 58.3704C57.0165 58.555 57.0217 58.862 56.8631 59.0517L55.301 60.6137C55.1108 60.7723 54.8044 60.7672 54.6198 60.6017L53.805 59.8711C53.6204 59.7055 53.2884 59.6618 53.067 59.773L52.0891 60.1771C51.8542 60.2552 51.6505 60.5226 51.637 60.7695L51.577 61.8628C51.5636 62.1102 51.3515 62.34 51.1064 62.3734C51.1064 62.3734 50.5298 62.4516 49.9992 62.4516C49.469 62.4516 48.8924 62.3734 48.8924 62.3734C48.6469 62.34 48.4353 62.1102 48.4209 61.8628L48.3609 60.7695C48.3474 60.5221 48.1442 60.2557 47.9089 60.1771L46.9309 59.773C46.7095 59.6618 46.3784 59.7055 46.1933 59.8711L45.3781 60.6017C45.1935 60.7672 44.8875 60.7723 44.6973 60.6137L43.1353 59.0517C42.9767 58.8615 42.9818 58.555 43.1474 58.3704L43.8779 57.5557C44.0435 57.3711 44.0872 57.039 43.9751 56.8177L43.571 55.8397C43.4924 55.6049 43.2264 55.4012 42.979 55.3877L41.8857 55.3277C41.6383 55.3142 41.4091 55.1022 41.3756 54.8562C41.3756 54.8562 41.2975 54.28 41.2975 53.7503C41.2975 53.2202 41.3756 52.6435 41.3756 52.6435C41.4091 52.3975 41.6383 52.1864 41.8857 52.172L42.979 52.112C43.2264 52.0985 43.4924 51.8953 43.571 51.66L43.9751 50.682C44.0872 50.4607 44.043 50.1296 43.8779 49.9445L43.1474 49.1293C42.9818 48.9446 42.9767 48.6386 43.1353 48.4484L44.6973 46.8864C44.8875 46.7278 45.1935 46.7329 45.3781 46.8976L46.1933 47.6281C46.3775 47.7937 46.7095 47.8374 46.9309 47.7253L47.9089 47.3212C48.1442 47.2426 48.3474 46.9766 48.3609 46.7292L48.4209 45.6359C48.4343 45.3885 48.6464 45.1593 48.8924 45.1258C48.8924 45.1258 49.469 45.0477 49.9992 45.0477C50.5298 45.0477 51.1064 45.1258 51.1064 45.1258C51.3524 45.1593 51.5636 45.3885 51.578 45.6359L51.638 46.7292C51.6515 46.9766 51.8551 47.2426 52.09 47.3212L53.0689 47.7253C53.2898 47.8374 53.6223 47.7932 53.8064 47.6281L54.6212 46.8976C54.8058 46.732 55.1127 46.7269 55.3025 46.8864L56.8645 48.4484C57.0231 48.6386 57.018 48.9446 56.8524 49.1293L56.1218 49.9445C55.9563 50.1286 55.9126 50.4607 56.0237 50.682L56.4278 51.66C56.5059 51.8948 56.7724 52.0985 57.0198 52.112L58.114 52.172C58.3614 52.1855 58.5907 52.3975 58.6242 52.6435C58.6242 52.6435 58.7023 53.2202 58.7023 53.7503C58.7009 54.2804 58.6228 54.8562 58.6228 54.8562H58.6228Z" fill="white"/>
<defs>
<linearGradient id="paint0_linear_271_186" x1="88.5" y1="21.5" x2="17.5" y2="85" gradientUnits="userSpaceOnUse">
<stop stop-color="#FFA766"/>
<stop offset="1" stop-color="#FF9240"/>
</linearGradient>
</defs>
</svg>
