<svg width="100" height="100" viewBox="0 0 100 100" fill="none" xmlns="http://www.w3.org/2000/svg">
<circle cx="50" cy="50" r="50" fill="url(#paint0_linear_271_188)"/>
<path d="M67.5113 20.6652C67.5113 20.2982 67.1975 20 66.8113 20H34.0165C33.6255 20 33.3076 20.3018 33.3076 20.6741V25.5878H67.5115L67.5113 20.6652ZM57.1544 24.329C56.3124 24.329 55.6303 23.6558 55.6303 22.825C55.6303 21.9942 56.3124 21.321 57.1544 21.321C57.9954 21.321 58.6785 21.9942 58.6785 22.825C58.6785 23.6558 57.9963 24.329 57.1544 24.329ZM61.0435 24.329C60.2025 24.329 59.5195 23.6558 59.5195 22.825C59.5195 21.9942 60.2016 21.321 61.0435 21.321C61.8855 21.321 62.5676 21.9942 62.5676 22.825C62.5672 23.6558 61.8842 24.329 61.0435 24.329ZM64.9315 24.329C64.0904 24.329 63.4074 23.6558 63.4074 22.825C63.4074 21.9942 64.0895 21.321 64.9315 21.321C65.7734 21.321 66.4556 21.9942 66.4556 22.825C66.4551 23.6558 65.7734 24.329 64.9315 24.329Z" fill="white"/>
<path d="M80.2185 56.9422H67.013C66.5822 56.9422 66.2322 57.2904 66.2322 57.7181V62.7421H60.8394V47.3424H66.8103C67.1964 47.3424 67.5103 47.0433 67.5103 46.6763V27.1384H33.3064V46.6763C33.3064 47.0433 33.6193 47.3424 34.0054 47.3424H39.7901L39.791 62.7421H33.767V57.7181C33.767 57.29 33.417 56.9422 32.9862 56.9422H19.7808C19.35 56.9422 19 57.2904 19 57.7185V70.7503C19 71.1784 19.35 71.5262 19.7808 71.5262H32.9851C33.4159 71.5262 33.7659 71.1793 33.7659 70.7503V64.8115H40.8318C41.1059 64.8115 41.3747 64.7017 41.5688 64.5084C41.7657 64.3133 41.8738 64.0526 41.8738 63.7776L41.8729 47.3437H49.3736C49.3727 47.3588 49.3647 47.3704 49.3647 47.3856V65.0493C49.3647 65.1792 49.3946 65.3002 49.4397 65.4153H44.03C43.5992 65.4153 43.2492 65.7622 43.2492 66.1912V79.2241C43.2492 79.6522 43.5992 80 44.03 80H57.2343C57.6651 80 58.0151 79.6518 58.0151 79.2241L58.0155 66.1912C58.0155 65.7631 57.6655 65.4153 57.2347 65.4153H51.3751C51.4193 65.3015 51.4501 65.1792 51.4501 65.0493L51.4496 47.3856C51.4496 47.3704 51.4416 47.3575 51.4407 47.3437H58.7544V63.7776C58.7544 64.0535 58.8624 64.3138 59.0593 64.5084C59.2535 64.7013 59.5214 64.8115 59.7963 64.8115H66.2302V70.7503C66.2302 71.1784 66.5802 71.5262 67.0109 71.5262H80.2153C80.646 71.5262 80.996 71.1793 80.996 70.7503L80.9969 57.7197C80.9978 57.2915 80.6478 56.9433 80.217 56.9433L80.2185 56.9422ZM25.6767 67.1443L22.8285 68.7782L22.7017 68.8291L22.4048 67.9702L24.3298 66.772L22.4048 65.5739L22.7079 64.6949L25.6758 66.3988V67.1444L25.6767 67.1443ZM25.6767 62.0685L22.8285 63.7024L22.7017 63.7524L22.4048 62.8935L24.3298 61.6954L22.4048 60.4994L22.7079 59.6204L25.6758 61.3243V62.0685L25.6767 62.0685ZM28.0775 67.2483H26.1307V66.2894H28.0775V67.2483ZM28.0775 62.1725H26.1307V61.2136H28.0775V62.1725ZM30.3377 67.2483H28.3918V66.2894H30.3377V67.2483ZM30.3377 62.1725H28.3918V61.2136H30.3377V62.1725ZM49.9259 75.6168L47.0777 77.2507L46.951 77.3016L46.6541 76.4427L48.5791 75.2446L46.6541 74.0464L46.9572 73.1674L49.925 74.8714V75.6169L49.9259 75.6168ZM49.9259 70.541L47.0777 72.1749L46.951 72.2258L46.6541 71.3669L48.5791 70.1688L46.6541 68.9706L46.9572 68.0916L49.925 69.7956V70.5411L49.9259 70.541ZM52.3268 75.7208H50.38V74.7619H52.3268V75.7208ZM52.6411 69.6861H54.587V70.645H52.6411V69.6861ZM52.6411 74.7618H54.587V75.7208H52.6411V74.7618ZM52.3268 70.645H50.38V69.6861H52.3268V70.645ZM43.1292 38.3896V37.1075L47.7113 34.4527L48.2881 36.1227L45.5931 37.7486L48.2881 39.3745L47.7113 41.0446L43.1292 38.3896ZM51.0921 33.1246H53.042L49.747 42.3736H47.776L51.0921 33.1246ZM57.6901 38.3896L53.108 41.0444L52.533 39.3744L55.2272 37.7485L52.533 36.1226L53.108 34.4526L57.6901 37.1074V38.3896ZM72.9081 67.1445L70.0599 68.7784L69.9331 68.8293L69.6363 67.9704L71.5613 66.7723L69.6363 65.5741L69.9394 64.6951L72.9072 66.3991V67.1446L72.9081 67.1445ZM72.9081 62.0687L70.0599 63.7026L69.9331 63.7526L69.6363 62.8937L71.5613 61.6956L69.6372 60.4996L69.9403 59.6206L72.9081 61.3246L72.9081 62.0687ZM75.309 67.2485H73.3622V66.2896H75.309V67.2485ZM75.309 62.1727H73.3622V61.2138H75.309V62.1727ZM77.5692 67.2485H75.6233V66.2896H77.5692V67.2485ZM77.5692 62.1727H75.6233V61.2138H77.5692V62.1727Z" fill="white"/>
<defs>
<linearGradient id="paint0_linear_271_188" x1="88.5" y1="21.5" x2="17.5" y2="85" gradientUnits="userSpaceOnUse">
<stop stop-color="#5FED9F"/>
<stop offset="1" stop-color="#49D387"/>
</linearGradient>
</defs>
</svg>
