<svg width="47" height="44" viewBox="0 0 47 44" fill="none" xmlns="http://www.w3.org/2000/svg">
<path d="M17.6125 21.1239C17.1526 21.0364 16.7245 20.8275 16.3724 20.5188C16.0202 20.2101 15.7569 19.8127 15.6096 19.3679C15.4622 18.9231 15.4363 18.447 15.5345 17.9888C15.6326 17.5305 15.8513 17.1069 16.1679 16.7617L25.7527 6.08951C25.9847 5.83039 26.2657 5.61995 26.5795 5.47039C26.8933 5.32082 27.2337 5.2351 27.5808 5.21819C27.9279 5.20129 28.275 5.25354 28.6018 5.37191C28.9286 5.49029 29.2287 5.67243 29.4847 5.90778C29.7407 6.14314 29.9474 6.42702 30.093 6.74299C30.2386 7.05895 30.3201 7.4007 30.3328 7.74843C30.3455 8.09617 30.2892 8.44297 30.167 8.76873C30.0449 9.0945 29.8593 9.39274 29.6212 9.64619L20.0371 20.3184C19.7349 20.6483 19.3536 20.8955 18.9293 21.0364C18.5049 21.1774 18.0517 21.2075 17.6125 21.1239Z" fill="#DF7F81"/>
<path d="M29.6702 32.021C29.2083 31.9506 28.7735 31.7582 28.4106 31.4634C28.0477 31.1687 27.7699 30.7824 27.6058 30.3444C27.4417 29.9064 27.3973 29.4325 27.4771 28.9715C27.5569 28.5105 27.7581 28.0792 28.0599 27.7221L41.7102 11.5772C41.9325 11.3121 42.205 11.0935 42.5119 10.934C42.8188 10.7745 43.1542 10.6773 43.4987 10.6479C43.8433 10.6185 44.1902 10.6576 44.5197 10.7628C44.8491 10.868 45.1546 11.0373 45.4185 11.261C45.6824 11.4847 45.8996 11.7584 46.0576 12.0664C46.2156 12.3743 46.3114 12.7105 46.3393 13.0556C46.3672 13.4007 46.3268 13.7479 46.2203 14.0773C46.1139 14.4067 45.9435 14.7118 45.719 14.9751L32.0679 31.12C31.7784 31.4627 31.406 31.7254 30.9863 31.8832C30.5666 32.0409 30.1135 32.0884 29.6702 32.021Z" fill="#DF7F81"/>
<path d="M2.89587 41.3232C2.34243 41.2394 1.81815 41.0204 1.36943 40.6854C0.920715 40.3504 0.561406 39.9098 0.323327 39.4026C0.0852483 38.8955 -0.0242573 38.3373 0.00449565 37.7777C0.0332486 37.218 0.199372 36.674 0.48817 36.194L6.81529 25.6853C1.95612 14.0617 15.0108 4.03439 15.5831 3.60292C16.1399 3.195 16.8346 3.02283 17.5171 3.1236C18.1997 3.22438 18.8152 3.59001 19.2306 4.14147C19.6461 4.69293 19.8281 5.38593 19.7374 6.07068C19.6467 6.75544 19.2905 7.37695 18.7458 7.80088C18.6381 7.88351 7.91616 16.1591 11.9307 24.2504C12.1926 24.7717 12.3183 25.351 12.2959 25.9342C12.2736 26.5173 12.104 27.0853 11.8029 27.585L7.2082 35.2168L13.1478 33.9044C14.0136 33.7109 14.9207 33.8657 15.6735 34.3355C20.2238 37.1626 26.4587 39.3727 29.3971 37.5455C34.7697 34.2044 35.5527 32.2184 35.595 32.1527C35.9748 31.5709 36.5692 31.1632 37.2482 31.019C37.9273 30.8747 38.6358 31.0055 39.2188 31.3827C39.8019 31.76 40.212 32.353 40.3596 33.0321C40.5072 33.7113 40.3802 34.4213 40.0064 35.007C39.8076 35.3149 38.5582 38.0399 32.1679 42.0126C26.0586 45.8111 17.0525 41.2657 13.5583 39.1999L4.1374 41.2804C3.72969 41.3708 3.30883 41.3853 2.89587 41.3232Z" fill="#DF7F81"/>
<path d="M23.9151 26.7789C23.3962 26.7013 22.9096 26.4789 22.5111 26.1373C22.2329 25.9002 22.0044 25.6102 21.8387 25.2842C21.6731 24.9581 21.5736 24.6024 21.546 24.2377C21.5184 23.8729 21.5632 23.5063 21.678 23.159C21.7927 22.8117 21.975 22.4906 22.2143 22.2142L28.7854 14.6507C29.2715 14.0912 29.9584 13.7464 30.6969 13.6912C31.4355 13.6359 32.1659 13.8748 32.7296 14.3557C33.0078 14.5929 33.2362 14.8828 33.4018 15.2089C33.5675 15.5349 33.6669 15.8906 33.6945 16.2554C33.7221 16.6201 33.6773 16.9867 33.5626 17.334C33.4479 17.6813 33.2657 18.0024 33.0263 18.2788L26.4549 25.8424C26.1448 26.2003 25.7494 26.4739 25.3053 26.6376C24.8612 26.8014 24.383 26.85 23.9151 26.7789Z" fill="#DF7F81"/>
<path d="M35.1696 13.9271C34.6807 13.8374 34.2248 13.6179 33.8495 13.2915C33.4743 12.9652 33.1934 12.544 33.0361 12.0719C32.8789 11.5998 32.8511 11.0941 32.9557 10.6076C33.0602 10.1211 33.2933 9.67155 33.6306 9.30598L36.2015 6.34064C36.7067 5.79848 37.4052 5.47781 38.1452 5.44828C38.8852 5.41875 39.6069 5.68275 40.1536 6.18292C40.4233 6.42971 40.6414 6.72755 40.7955 7.05923C40.9496 7.3909 41.0365 7.74985 41.0512 8.11534C41.066 8.48083 41.0082 8.84563 40.8814 9.18867C40.7546 9.5317 40.5611 9.84619 40.3122 10.114L37.7409 13.0793C37.4185 13.4263 37.0137 13.686 36.5641 13.8342C36.1145 13.9825 35.6348 14.0144 35.1696 13.9271Z" fill="#DF7F81"/>
<path d="M42.8524 5.85082C44.4013 5.85082 45.657 4.602 45.657 3.06151C45.657 1.52103 44.4013 0.272217 42.8524 0.272217C41.3035 0.272217 40.0479 1.52103 40.0479 3.06151C40.0479 4.602 41.3035 5.85082 42.8524 5.85082Z" fill="#DF7F81"/>
<path d="M42.4976 30.5992C43.952 30.5992 45.131 29.4187 45.131 27.9625C45.131 26.5064 43.952 25.3259 42.4976 25.3259C41.0433 25.3259 39.8643 26.5064 39.8643 27.9625C39.8643 29.4187 41.0433 30.5992 42.4976 30.5992Z" fill="#DF7F81"/>
<path d="M34.6903 2.85498C34.7438 1.3998 33.609 0.176683 32.1556 0.12307C30.7022 0.0694565 29.4806 1.20565 29.427 2.66083C29.3735 4.116 30.5083 5.33912 31.9617 5.39273C33.4151 5.44634 34.6367 4.31016 34.6903 2.85498Z" fill="#DF7F81"/>
</svg>
