<svg width="370" height="65" viewBox="0 0 370 65" fill="none" xmlns="http://www.w3.org/2000/svg">
<path d="M26.0664 31.1867C25.3859 31.0574 24.7522 30.7486 24.231 30.2923C23.7099 29.8359 23.3201 29.2486 23.1021 28.5911C22.8841 27.9335 22.8457 27.2297 22.991 26.5524C23.1363 25.8751 23.4599 25.2488 23.9284 24.7386L38.114 8.96297C38.4573 8.57995 38.8732 8.26888 39.3377 8.04779C39.8021 7.8267 40.3058 7.69998 40.8195 7.675C41.3333 7.65001 41.8469 7.72725 42.3306 7.90223C42.8143 8.07721 43.2584 8.34645 43.6373 8.69435C44.0161 9.04225 44.3222 9.46189 44.5376 9.92894C44.7531 10.396 44.8738 10.9012 44.8926 11.4152C44.9114 11.9292 44.8279 12.4418 44.6472 12.9234C44.4664 13.4049 44.1918 13.8458 43.8393 14.2204L29.6548 29.996C29.2076 30.4837 28.6432 30.8491 28.0153 31.0574C27.3873 31.2658 26.7164 31.3103 26.0664 31.1867Z" fill="#DF7F81"/>
<path d="M43.9122 47.2951C43.2285 47.1911 42.5849 46.9066 42.0479 46.4709C41.5108 46.0353 41.0996 45.4643 40.8568 44.8168C40.6139 44.1693 40.5481 43.4687 40.6663 42.7874C40.7844 42.106 41.0821 41.4684 41.5288 40.9405L61.7313 17.0753C62.0603 16.6833 62.4635 16.3602 62.9178 16.1244C63.3721 15.8887 63.8684 15.745 64.3783 15.7015C64.8883 15.6581 65.4018 15.7158 65.8893 15.8713C66.3769 16.0268 66.829 16.2771 67.2196 16.6078C67.6102 16.9385 67.9316 17.343 68.1655 17.7983C68.3994 18.2535 68.541 18.7504 68.5823 19.2605C68.6236 19.7706 68.5638 20.2839 68.4063 20.7708C68.2487 21.2578 67.9965 21.7088 67.6642 22.098L47.4607 45.9632C47.0322 46.4698 46.4811 46.8582 45.8599 47.0914C45.2387 47.3245 44.5681 47.3947 43.9122 47.2951Z" fill="#DF7F81"/>
<path d="M4.28589 61.0451C3.4668 60.9214 2.69086 60.5975 2.02676 60.1024C1.36266 59.6072 0.830882 58.9559 0.478525 58.2062C0.126168 57.4565 -0.0359008 56.6314 0.00665356 55.8041C0.0492079 54.9769 0.295071 54.1728 0.722492 53.4632L10.0866 37.9292C2.89505 20.7474 22.216 5.92503 23.063 5.28723C23.8871 4.68426 24.9152 4.42975 25.9254 4.57871C26.9355 4.72768 27.8465 5.26815 28.4614 6.08332C29.0762 6.89849 29.3457 7.92287 29.2114 8.93507C29.0771 9.94727 28.5499 10.866 27.7438 11.4926C27.5845 11.6148 11.7159 23.8477 17.6574 35.8082C18.0451 36.5788 18.231 37.4352 18.198 38.2972C18.1649 39.1592 17.9139 39.9988 17.4683 40.7375L10.6681 52.0187L19.4587 50.0788C20.7401 49.7927 22.0826 50.0216 23.1969 50.716C29.9312 54.8949 39.1589 58.162 43.5077 55.461C51.4592 50.5222 52.618 47.5865 52.6807 47.4893C53.2427 46.6293 54.1224 46.0268 55.1274 45.8135C56.1325 45.6002 57.181 45.7935 58.0439 46.3512C58.9068 46.9088 59.5139 47.7854 59.7323 48.7894C59.9507 49.7933 59.7627 50.8428 59.2095 51.7086C58.9153 52.1637 57.0661 56.1918 47.6085 62.0642C38.5667 67.6791 25.2377 60.9601 20.0663 57.9066L6.12336 60.9819C5.51995 61.1156 4.89707 61.137 4.28589 61.0451Z" fill="#DF7F81"/>
<path d="M35.394 39.5458C34.626 39.431 33.9059 39.1024 33.316 38.5974C32.9043 38.2468 32.5661 37.8182 32.3209 37.3362C32.0757 36.8543 31.9285 36.3285 31.8877 35.7893C31.8468 35.2501 31.9132 34.7082 32.083 34.1948C32.2528 33.6814 32.5226 33.2068 32.8768 32.7982L42.6021 21.6179C43.3214 20.7909 44.3381 20.2812 45.4311 20.1996C46.5241 20.1179 47.6052 20.4709 48.4394 21.1819C48.8511 21.5324 49.1893 21.9611 49.4344 22.443C49.6795 22.925 49.8267 23.4507 49.8675 23.9899C49.9084 24.5291 49.842 25.071 49.6723 25.5844C49.5025 26.0978 49.2328 26.5724 48.8786 26.981L39.1528 38.1614C38.694 38.6905 38.1087 39.0949 37.4515 39.337C36.7942 39.579 36.0865 39.6509 35.394 39.5458Z" fill="#DF7F81"/>
<path d="M52.0509 20.5477C51.3273 20.415 50.6526 20.0905 50.0972 19.6082C49.5418 19.1258 49.1261 18.5031 48.8934 17.8053C48.6607 17.1074 48.6196 16.3599 48.7743 15.6407C48.9291 14.9216 49.274 14.2571 49.7732 13.7167L53.5782 9.33336C54.3259 8.53196 55.3596 8.05794 56.4548 8.01429C57.55 7.97064 58.6181 8.36088 59.4273 9.10023C59.8264 9.46504 60.1492 9.9053 60.3772 10.3956C60.6053 10.8859 60.7339 11.4165 60.7557 11.9567C60.7775 12.497 60.6921 13.0362 60.5044 13.5433C60.3167 14.0504 60.0304 14.5153 59.662 14.9111L55.8564 19.2944C55.3793 19.8073 54.7801 20.1912 54.1148 20.4104C53.4494 20.6295 52.7394 20.6767 52.0509 20.5477Z" fill="#DF7F81"/>
<path d="M63.4215 8.60954C65.7139 8.60954 67.5722 6.76355 67.5722 4.48641C67.5722 2.20926 65.7139 0.363281 63.4215 0.363281C61.1291 0.363281 59.2708 2.20926 59.2708 4.48641C59.2708 6.76355 61.1291 8.60954 63.4215 8.60954Z" fill="#DF7F81"/>
<path d="M62.8965 45.1931C65.0489 45.1931 66.7939 43.4481 66.7939 41.2956C66.7939 39.1431 65.0489 37.3982 62.8965 37.3982C60.744 37.3982 58.999 39.1431 58.999 41.2956C58.999 43.4481 60.744 45.1931 62.8965 45.1931Z" fill="#DF7F81"/>
<path d="M51.3418 4.18176C51.421 2.03072 49.7415 0.222714 47.5905 0.143463C45.4394 0.0642126 43.6314 1.74373 43.5522 3.89477C43.4729 6.0458 45.1524 7.8538 47.3035 7.93305C49.4545 8.0123 51.2625 6.33279 51.3418 4.18176Z" fill="#DF7F81"/>
<path d="M86.5757 17.2676H98.8654C105.034 17.2676 107.274 20.9483 107.274 25.2281C107.274 27.9726 106.105 31.0634 103.191 31.6008C105.677 32.0522 107.751 34.528 107.751 38.3192C107.751 43.8614 105.248 47.0743 98.9769 47.0743H86.5757V17.2676ZM98.5298 29.0762C100.575 29.0762 101.663 27.8282 101.663 25.6981C101.663 22.9366 99.9753 22.2962 98.5298 22.2962H92.2952V29.0762H98.5298ZM98.7528 42.0457C100.484 42.0457 102.05 41.2247 102.05 38.0585C102.05 35.8742 101.166 33.8807 98.7528 33.8807H92.2952V42.0457H98.7528Z" fill="#356C8D"/>
<path d="M110.78 17.2676H123.821C128.473 17.2676 131.934 19.4449 131.934 26.5611C131.934 33.9396 128.843 34.8158 127.188 35.3368L132.832 47.0732H126.416L121.489 35.7941L116.481 35.2242V47.0732H110.78V17.2676ZM123.26 30.7453C125.244 30.7453 126.191 30.1611 126.191 26.5611C126.191 23.1756 125.052 22.3365 123.26 22.3365H116.501V30.7453H123.26Z" fill="#356C8D"/>
<path d="M146.607 17.0637C153.651 17.0637 158.56 18.4073 158.56 32.3746C158.56 45.5268 153.936 47.2374 146.607 47.2374C139.277 47.2374 134.616 45.9341 134.616 32.3746C134.616 18.4073 139.766 17.0637 146.607 17.0637ZM146.607 41.9841C151.391 41.9841 152.859 40.409 152.859 32.3752C152.859 23.0891 151.137 22.3169 146.607 22.3169C142.199 22.3169 140.317 22.8868 140.317 32.3752C140.317 40.5099 141.516 41.9836 146.607 41.9836V41.9841Z" fill="#356C8D"/>
<path d="M162.392 17.2676H167.869V29.7273H170.267L177.82 17.2676H184.463L175.342 32.1951L184.462 47.0721H177.818L170.266 34.7542H167.907V47.0721H162.39L162.392 17.2676Z" fill="#356C8D"/>
<path d="M186.629 23.4563C186.629 18.2838 190.293 17.2126 193.103 17.2673C193.103 17.2673 203.597 17.5599 206.217 17.9184V22.6315H194.447C192.33 22.6315 192.33 23.8126 192.33 24.9119V29.5619L204.365 29.9915V34.6786L192.33 35.0626V39.713C192.348 41.8707 193.673 41.8304 194.854 41.8304H206.219V46.5037C203.912 46.8175 193.511 47.194 193.511 47.194C190.856 47.3125 186.63 46.7097 186.63 41.2122L186.629 23.4563Z" fill="#356C8D"/>
<path d="M209.827 17.2676H215.609L227.439 36.5285V17.2676H233.14V47.0743H227.439L215.571 28.0374V47.0743H209.827V17.2676Z" fill="#356C8D"/>
<path d="M240.492 17.1355H246.221V29.9637H256.494V17.1355H262.223V47.0925H256.494V35.2446H246.221V47.0925H240.492V17.1355Z" fill="#DF7F81"/>
<path d="M275.535 17.1355H282.052L291.782 47.0925H285.682L283.554 40.4543H273.742L271.581 47.0925H265.427L275.535 17.1355ZM282.197 35.3773L278.831 24.6861L275.23 35.3773H282.197Z" fill="#DF7F81"/>
<path d="M294.844 17.1355H300.655L312.542 36.4926V17.1355H318.271V47.0925H312.542L300.614 27.9601V47.0925H294.844V17.1355Z" fill="#DF7F81"/>
<path d="M322.593 17.1355H335.323C343.945 17.1355 345.715 24.8146 345.715 32.2367C345.715 41.0559 342.635 47.0925 335.323 47.0925H322.593V17.1355ZM334.872 41.9826C338.586 41.9826 339.985 38.2052 339.985 32.1952C339.985 24.18 338.066 22.1891 334.872 22.1891H328.322V41.9821L334.872 41.9826Z" fill="#DF7F81"/>
<path d="M349.23 24.6245C349.23 18.6904 352.749 16.9571 357.332 16.8896C361.64 16.7999 366.549 17.375 368.914 18.0749V22.5788C366.295 22.3473 360.393 22.1694 358.908 22.1694C356.403 22.1163 354.959 22.2884 354.959 25.0753V26.5384C354.959 28.9122 355.867 29.4231 358.187 29.4231H362.918C368.789 29.4231 370 34.0518 370 37.363V39.3576C370 46.1594 365.762 47.4196 361.711 47.4196C356.6 47.4196 353.25 47.1063 350.151 46.1939V41.69C351.789 41.8536 356.78 42.1404 360.585 42.1404C362.308 42.1404 364.271 41.8557 364.271 39.5599V37.9477C364.271 36.2451 363.755 35.1527 361.568 35.1527H356.963C349.741 35.1527 349.229 29.8177 349.229 27.2134L349.23 24.6245Z" fill="#DF7F81"/>
</svg>
