<svg width="210" height="180" viewBox="0 0 210 180" fill="none" xmlns="http://www.w3.org/2000/svg">
<path opacity="0.1" d="M109.173 224.344L111.343 221.616L113.46 219.044C114.107 218.159 114.708 217.242 115.261 216.295C116.402 214.422 117.665 212.81 118.677 210.985C120.754 207.258 123.028 203.644 125.489 200.158C128.173 196.408 131.698 193.339 135.782 191.199C141.699 188.06 148.593 187.312 155.041 189.11C159.307 190.45 163.306 192.527 166.857 195.246C169.604 197.223 171.581 198.848 172.943 199.952C174.305 201.057 175.01 201.625 175.01 201.625C168.347 201.349 161.59 199.224 155.727 198.663C149.994 198.233 145.097 199.449 141.512 201.845L141.133 202.036C136.983 204.536 133.391 209.464 129.288 214.438C127.298 216.862 125.104 219.111 122.731 221.161L119.492 223.988C118.41 224.779 117.284 225.509 116.12 226.174C112.765 228.306 109.125 229.95 105.308 231.059C104.313 231.42 103.283 231.674 102.235 231.818L101.139 231.996C103.09 230.423 104.93 228.719 106.647 226.894C107.51 225.98 108.383 225.211 109.173 224.344Z" fill="#8594AA"/>
<path opacity="0.1" d="M103.622 185.964C107.867 182.652 112.085 178.484 117.144 175.185C118.394 174.322 119.707 173.554 121.072 172.889C122.428 172.152 123.847 171.538 125.312 171.054C126.708 170.528 128.156 170.148 129.631 169.919C130.967 169.73 132.276 169.522 133.535 169.445C143.602 168.64 151.564 170.787 156.63 173.336C158.589 174.283 160.419 175.476 162.075 176.887C162.654 177.389 163.195 177.932 163.695 178.512C157.008 176.285 150.897 176.938 145.079 177.683C142.224 178.086 139.394 178.647 136.601 179.364C134.064 179.929 131.602 180.79 129.266 181.93C125.062 184.05 121.166 187.314 116.79 190.796C114.558 192.572 112.223 194.212 109.796 195.709C107.35 197.153 104.773 198.36 102.1 199.315C99.6194 200.149 97.0813 200.8 94.5061 201.263C92.152 201.605 89.7716 201.73 87.3949 201.638C85.3358 201.596 83.2865 201.345 81.2786 200.888C79.5978 200.58 77.9465 200.129 76.3427 199.54C74.899 199.01 73.6202 198.539 72.5413 198.097C71.4624 197.654 70.6104 197.121 69.8841 196.744C68.4722 195.989 67.7152 195.576 67.7152 195.576C75.1872 196.109 82.2784 195.803 88.2516 193.999C93.7961 192.219 98.9951 189.501 103.622 185.964Z" fill="#8594AA"/>
<path opacity="0.1" d="M106.272 154.49C111.501 153.447 116.441 152.385 121.467 151.874C131.264 150.884 139.561 152.288 144.78 154.338C146.063 154.881 147.207 155.369 148.208 155.785C149.21 156.201 149.91 156.835 150.539 157.214C151.727 158.034 152.396 158.496 152.396 158.496C146.064 157.754 139.65 158.134 133.448 159.619C127.505 160.882 121.997 162.568 116.357 164.287C104.913 167.803 92.8207 169.994 81.8782 168.274C76.8742 167.554 72.0459 165.919 67.6339 163.453C65.8353 162.382 64.1105 161.192 62.471 159.891C61.0464 158.579 59.7161 157.428 58.6455 156.278C57.0131 154.506 55.555 152.582 54.2914 150.53L53.0305 148.385C58.6714 152.59 65.1473 155.538 72.0234 157.031C77.9262 158.137 83.9711 158.267 89.9174 157.416C95.5544 156.655 101.084 155.574 106.272 154.49Z" fill="#8594AA"/>
<path opacity="0.1" d="M96.4525 129.569C100.812 130.976 105.298 131.958 109.848 132.501C114.223 133.133 118.405 133.467 122.047 133.771C125.799 133.811 129.544 134.104 133.257 134.647C136.245 135.096 139.17 135.898 141.969 137.037C143.782 137.772 145.492 138.739 147.055 139.915C147.62 140.292 148.139 140.733 148.602 141.229C142.385 140.109 137.052 141.244 131.809 142.248L123.966 143.901C121.165 144.424 118.325 144.713 115.476 144.765C109.958 144.981 104.439 144.36 99.1084 142.922C94.0889 141.513 89.373 139.19 85.1977 136.068C79.2411 131.374 74.4094 125.407 71.0559 118.603C70.1024 116.784 69.2458 114.916 68.4896 113.006L67.6935 110.962C72.8265 115.203 77.7123 119.245 82.505 122.47C86.8092 125.46 91.5017 127.848 96.4525 129.569Z" fill="#8594AA"/>
<path opacity="0.1" d="M114.616 107.989C122.611 109.829 129.586 112.255 133.87 114.826C134.93 115.475 135.866 116.066 136.687 116.564C137.508 117.062 138.083 117.678 138.59 118.096C139.572 118.938 140.1 119.385 140.1 119.385C127.948 117.132 117.559 119.318 106.004 117.711C100.269 116.945 94.7247 115.129 89.6493 112.353C85.0944 109.818 80.9692 106.578 77.4264 102.754C72.4152 97.2298 68.1261 91.0906 64.6624 84.484C62.1216 79.8232 60.8156 76.9882 60.8156 76.9882C71.9727 84.7544 81.105 93.4689 89.8161 98.6422C93.8096 101.099 98.0601 103.112 102.492 104.644C106.672 106.074 110.478 107.013 114.616 107.989Z" fill="#8594AA"/>
<path opacity="0.1" d="M213.233 177.768C210.309 177.457 207.354 177.655 204.497 178.352L204.296 178.406L204.063 178.465C200.332 179.419 196.959 181.437 194.353 184.274C192.057 187.006 190.026 189.949 188.288 193.065C186.609 195.857 185.17 198.142 184.103 199.628C183.572 200.407 183 201.157 182.389 201.874C182.94 194.917 182.839 188.469 185.244 181.665C186.598 178.08 188.767 174.858 191.579 172.254C194.391 169.65 197.77 167.736 201.448 166.661L201.036 166.761C205.168 165.47 209.536 165.119 213.82 165.733C217.196 166.205 220.533 166.917 223.807 167.864C226.714 168.717 229.322 169.268 231.811 169.792C233.058 170.09 234.271 170.379 235.431 170.644C236.591 170.909 237.702 170.908 238.786 171.066C242.276 171.527 245.796 171.737 249.317 171.693C250.669 171.735 252.022 171.697 253.369 171.581C251.319 172.996 249.121 174.184 246.814 175.123C245.672 175.625 244.543 176.19 243.375 176.591C242.207 176.992 240.98 177.202 239.804 177.515L236.191 178.342C235.01 178.512 233.818 178.606 232.625 178.625C230.251 178.729 227.819 178.916 225.533 178.793C220.875 178.611 216.739 177.951 213.233 177.768Z" fill="#8594AA"/>
<path opacity="0.1" d="M214.344 151.981C208.018 154.475 202.35 155.46 197.845 156.865C195.787 157.456 193.779 158.208 191.839 159.113C190.374 159.705 189.058 160.615 187.987 161.777C185.564 164.49 183.346 167.379 181.351 170.421L176.461 177.828C173.761 181.959 172.168 184.248 172.168 184.248C172.37 177.98 173.384 171.763 175.183 165.754C176.1 162.663 177.349 159.68 178.908 156.858C179.758 155.301 180.767 153.837 181.922 152.49C182.628 151.745 183.384 151.047 184.184 150.403L186.39 148.934C192.36 145.208 198.543 143.933 203.649 142.751L207.362 141.897C208.587 141.631 209.669 141.335 210.694 141.041C211.746 140.789 212.77 140.435 213.754 139.984L216.777 138.86C223.146 136.075 228.777 131.838 233.22 126.489L235.566 123.664L237.192 121.426L238.625 119.548C237.854 126.734 235.203 133.591 230.94 139.428C226.543 144.934 220.837 149.25 214.344 151.981Z" fill="#8594AA"/>
<path opacity="0.1" d="M208.469 123.568C199.293 133.312 188.858 138.842 181.668 143.482C175.928 147.026 170.638 151.251 165.914 156.067L163.766 158.425L162.451 160.33L161.255 161.905C161.272 155.703 163.983 149.29 167.773 143.936C171.593 138.729 176.161 134.116 181.33 130.246C190.833 122.867 199.723 116.876 205.699 110.479C210.781 105.378 214.536 99.1105 216.635 92.2238C217.259 90.1316 217.761 88.0047 218.138 85.854L218.589 83.491C221.008 90.5451 221.239 98.1673 219.251 105.358C217.181 112.209 213.481 118.458 208.469 123.568Z" fill="#8594AA"/>
<path opacity="0.1" d="M191.493 106.535C189.141 111.574 185.912 116.154 181.955 120.062C178.644 123.305 175.014 126.204 171.119 128.716L168.857 130.186C168.212 130.605 167.549 130.93 166.928 131.393C165.701 132.398 164.47 133.208 163.365 134.174C161.112 136.049 159.156 137.772 157.533 139.19C154.307 142.039 152.404 143.606 152.404 143.606C153.659 138.172 155.727 132.959 158.537 128.141C159.338 126.979 160.152 125.799 160.973 124.61C161.793 123.42 162.968 122.433 164.018 121.348L169.153 116.03C176.021 109.096 181.115 102.666 184.156 96.0135C187.197 89.3608 188.898 82.703 190.192 77.9862L191.615 72.329L192.167 70.2963C194.015 76.287 195.015 82.5077 195.137 88.777C195.231 94.8902 193.987 100.951 191.493 106.535Z" fill="#8594AA"/>
<path opacity="0.1" d="M154.061 70.0656C153.303 72.1427 152.374 74.1536 151.284 76.0774C150.805 76.9762 150.264 77.8403 149.664 78.6633C149.118 79.3692 148.611 80.1044 148.145 80.8657C147.382 82.15 146.621 83.3529 145.857 84.4995L144.716 86.1535L143.698 87.9066C142.36 90.165 141.095 92.077 140.047 93.6167C138.026 96.8038 136.674 98.5047 136.674 98.5047C136.24 93.6783 136.373 88.8172 137.073 84.0213C137.92 79.4451 139.27 74.9764 141.099 70.6965C143.41 63.825 145.029 56.7402 145.932 49.5477C146.825 42.9086 147.394 37.019 147.754 32.7823L148.34 25.9724C153.833 35.0302 156.663 45.4535 156.508 56.0494C156.43 60.8202 155.604 65.5496 154.061 70.0656Z" fill="#8594AA"/>
<path opacity="0.1" d="M167.619 185.142C164.846 179.347 162.367 173.206 159.634 167.055C156.902 160.905 154.606 154.479 152.052 148.108C149.737 141.67 147.271 135.291 145.109 128.93C142.946 122.569 140.747 116.32 138.86 110.176C137.562 106.098 136.303 102.103 135.133 98.1958C130.449 95.6088 125.979 95.2542 121.579 94.619C116.861 94.125 112.216 93.0839 107.739 91.5167C98.1745 87.7985 91.6696 80.5401 87.4615 74.0845C84.1007 68.7806 81.6344 62.9596 80.1612 56.8544C79.5722 54.5379 79.1751 52.1767 78.974 49.7946C85.4015 57.4146 92.3053 64.6193 99.6439 71.3657C102.52 73.9622 105.555 76.3769 108.731 78.5955C111.458 80.4518 114.323 82.0977 117.299 83.5192C120.21 85.0611 122.989 86.4569 125.471 87.964C127.707 89.3043 129.781 90.8966 131.654 92.7096C132.86 93.9062 133.884 95.2734 134.693 96.7675C134.29 95.3649 133.826 93.8924 133.426 92.5055C131.708 86.8902 130.287 81.5206 128.89 76.5927L128.592 75.4954C127.094 73.8722 125.662 72.2125 124.315 70.529C122.881 68.6344 121.714 66.6907 120.534 64.7657C119.354 62.8406 118.303 60.9082 117.326 58.9863C116.35 57.0644 115.642 55.1498 114.941 53.2259C113.535 49.7126 112.428 46.0861 111.634 42.3855C110.883 39.2154 110.356 35.9965 110.057 32.7523C109.564 28.0512 109.542 23.3124 109.99 18.6061C110.15 16.8577 110.432 15.1224 110.832 13.4126C121.02 27.8073 124.957 43.0595 126.945 55.1161C127.39 58.1662 127.887 60.8821 128.14 63.4158C128.393 65.9495 128.462 68.2329 128.727 70.0342C129.005 72.5714 129.098 74.4044 129.154 75.3758L129.471 76.486C130.943 81.3836 132.421 86.751 134.227 92.3176C136.033 97.8842 137.834 103.817 139.919 109.892C141.627 115.185 143.557 120.631 145.524 126.103C145.702 120.536 147.125 115.078 149.69 110.132C152.214 104.905 155.419 100.08 157.921 95.7988C162.524 88.1383 165.692 79.7028 167.268 70.907C168.807 62.8753 169.608 55.4175 170.526 50.1939C171.443 44.9703 172.157 41.8693 172.157 41.8693C174.045 48.1273 175.552 54.494 176.67 60.9345C177.735 67.0734 177.875 73.3377 177.088 79.5195C176.283 85.3244 174.398 90.9278 171.529 96.039C169.076 100.297 166.115 104.241 162.712 107.786C156.897 113.91 152.44 118.146 149.658 121.521L147.797 123.762L146.592 125.509L145.765 126.708L146.442 128.547C148.696 134.875 151.241 141.199 153.644 147.588C156.259 153.891 158.804 160.214 161.48 166.367C164.156 172.52 166.797 178.526 169.683 184.275C172.569 190.025 175.139 195.597 177.973 200.707C180.807 205.816 183.4 210.719 185.973 215.114L193.293 226.953C195.413 230.515 197.674 233.336 199.327 235.807L204.699 243.436L202.187 245.31L196.858 237.519C195.215 235.014 192.977 232.099 190.889 228.491C188.8 224.883 186.334 220.849 183.692 216.434C181.05 212.019 178.631 207.004 175.848 201.819C173.066 196.635 170.442 190.902 167.619 185.142Z" fill="#8594AA"/>
</svg>
