<svg width="10" height="15" viewBox="0 0 10 15" fill="none" xmlns="http://www.w3.org/2000/svg">
<path d="M5.73038 10.3995C4.97976 10.3366 4.66436 9.93348 4.07569 9.54647C3.75215 11.3849 3.35675 13.1472 2.1856 14.0679C1.82366 11.2893 2.71622 9.20221 3.13074 6.98693C2.42419 5.69882 3.21569 3.10612 4.70596 3.745C6.54012 4.53052 3.11799 8.53458 5.41534 9.03468C7.81375 9.55682 8.79286 4.52764 7.30543 2.89182C5.1564 0.530095 1.05003 2.83815 1.55498 6.21905C1.67799 7.04559 2.46667 7.2965 1.87003 8.43701C0.49463 8.10712 0.0843645 6.9323 0.137108 5.36606C0.222241 2.8023 2.26419 1.00719 4.31233 0.758772C6.90259 0.444796 9.33375 1.78888 9.66932 4.42758C10.0468 7.40576 8.49994 10.631 5.73038 10.3995Z" fill="white"/>
</svg>
