<svg width="14" height="9" viewBox="0 0 14 9" fill="none" xmlns="http://www.w3.org/2000/svg">
<path fill-rule="evenodd" clip-rule="evenodd" d="M6.55384 8.46926H7.33313C7.33313 8.46926 7.56853 8.44128 7.68871 8.30096C7.79933 8.17215 7.79579 7.93025 7.79579 7.93025C7.79579 7.93025 7.78056 6.79779 8.26587 6.63102C8.74428 6.46675 9.35862 7.72553 10.0098 8.20953C10.5022 8.57584 10.8763 8.49552 10.8763 8.49552L12.6174 8.46926C12.6174 8.46926 13.5282 8.4085 13.0963 7.63295C13.0609 7.5695 12.8448 7.05924 11.8018 6.01074C10.7101 4.91335 10.8563 5.09085 12.1714 3.19262C12.9722 2.03658 13.2924 1.3308 13.1924 1.02852C13.097 0.740612 12.508 0.81671 12.508 0.81671L10.5476 0.829936C10.5476 0.829936 10.4023 0.808467 10.2945 0.87824C10.1892 0.946671 10.1214 1.10615 10.1214 1.10615C10.1214 1.10615 9.81118 2.00073 9.39738 2.76152C8.52446 4.36687 8.17543 4.45159 8.03278 4.35192C7.70092 4.1196 7.78375 3.41861 7.78375 2.92062C7.78375 1.36492 8.00163 0.716268 7.3595 0.548354C7.1464 0.492574 6.98959 0.455771 6.44464 0.449829C5.74517 0.44197 5.15313 0.452129 4.81791 0.630011C4.5949 0.748279 4.42286 1.01184 4.52764 1.02699C4.6572 1.04577 4.95065 1.11267 5.10623 1.34211C5.30711 1.63807 5.30003 2.30283 5.30003 2.30283C5.30003 2.30283 5.41543 4.13416 5.03048 4.36169C4.76623 4.51772 4.40375 4.19914 3.62552 2.74274C3.22676 1.99671 2.9257 1.17209 2.9257 1.17209C2.9257 1.17209 2.86764 1.01798 2.7641 0.935553C2.63844 0.835686 2.46286 0.803867 2.46286 0.803867L0.600033 0.817093C0.600033 0.817093 0.320386 0.825527 0.217732 0.957213C0.126404 1.07433 0.210475 1.31662 0.210475 1.31662C0.210475 1.31662 1.66888 5.01188 3.32021 6.87408C4.83437 8.5814 6.55384 8.46926 6.55384 8.46926Z" fill="white"/>
</svg>
