<svg version="1.2" xmlns="http://www.w3.org/2000/svg" xmlns:xlink="http://www.w3.org/1999/xlink" overflow="visible" preserveAspectRatio="none" viewBox="-11.506 0 44 44" width="64" height="64"><g><path xmlns:default="http://www.w3.org/2000/svg" d="M15,44H4V23l-4,0l0-9h4l0.2-4.2c0-4.7,2.6-9.8,10-9.8l7.6,0v9.2H16c-0.6,0-1,0.1-1,0.8v4h6l0,9l-6,0V44z M6,42h7l0.1-21h6.1  L19,16h-6l0.1-5.8c0-2.1,1.5-3,2.9-3h3.8V2l-5.6,0C6.8,2,6.3,8,6.3,9.8L6,16H2v5h4V42z" style="fill: rgb(59, 89, 152);" vector-effect="non-scaling-stroke"/></g></svg>