<svg version="1.2" xmlns="http://www.w3.org/2000/svg" xmlns:xlink="http://www.w3.org/1999/xlink" overflow="visible" preserveAspectRatio="none" viewBox="0 0 24 24" width="24" height="24"><g><path xmlns:default="http://www.w3.org/2000/svg" id="expand" d="M11.86,13.67c0-0.09-0.04-0.18-0.1-0.24l-1.19-1.19c-0.13-0.13-0.33-0.14-0.47-0.01c0,0-0.01,0.01-0.01,0.01  L6.64,15.7l-1.5-1.5c-0.26-0.26-0.69-0.26-0.95,0.01C4.07,14.33,4,14.5,4,14.67v4.66C4.01,19.7,4.3,19.99,4.67,20h4.66  c0.36,0,0.66-0.29,0.67-0.65c0-0.18-0.07-0.35-0.2-0.48l-1.5-1.5l3.46-3.46C11.82,13.85,11.86,13.76,11.86,13.67  C11.86,13.67,11.86,13.67,11.86,13.67z M19.99,4.67c-0.01-0.36-0.3-0.66-0.66-0.67h-4.66C14.31,4,14.01,4.29,14,4.65  c0,0.18,0.07,0.35,0.2,0.48l1.5,1.5l-3.46,3.46c-0.13,0.13-0.14,0.33-0.01,0.47c0,0,0.01,0.01,0.01,0.01l1.19,1.19  c0.13,0.13,0.33,0.14,0.47,0.01c0,0,0.01-0.01,0.01-0.01l3.45-3.46l1.5,1.5c0.26,0.26,0.69,0.26,0.95-0.01  C19.93,9.67,20,9.5,20,9.33V4.67l0,0H19.99z" style="fill: rgb(248, 147, 68);" vector-effect="non-scaling-stroke"/></g></svg>