<svg version="1.2" xmlns="http://www.w3.org/2000/svg" xmlns:xlink="http://www.w3.org/1999/xlink" overflow="visible" preserveAspectRatio="none" viewBox="0 0 24 24" width="24" height="24"><g><path xmlns:default="http://www.w3.org/2000/svg" id="ship" d="M19.33,19.72l-0.86-0.86c-0.25-0.26-0.66-0.27-0.92-0.02c-0.01,0.01-0.01,0.01-0.02,0.02l-0.86,0.86l-0.86-0.86  c-0.25-0.26-0.66-0.27-0.92-0.02c-0.01,0.01-0.01,0.01-0.02,0.02L14,19.72l-0.86-0.86c-0.25-0.26-0.66-0.27-0.92-0.02  c-0.01,0.01-0.01,0.01-0.02,0.02l-0.86,0.86l-0.86-0.86c-0.25-0.26-0.66-0.27-0.92-0.02c-0.01,0.01-0.01,0.01-0.02,0.02l-0.86,0.86  L7.8,18.85c-0.25-0.26-0.66-0.27-0.92-0.02c-0.01,0.01-0.01,0.01-0.02,0.02L6,19.72l-0.86-0.86C4.9,18.6,4.49,18.6,4.23,18.84  c-0.01,0.01-0.01,0.01-0.02,0.02l-0.86,0.86l-0.86-0.86L1.54,19.8l1.33,1.33c0.25,0.26,0.66,0.27,0.92,0.02  c0.01-0.01,0.01-0.01,0.02-0.02l0.86-0.86l0.86,0.86c0.25,0.26,0.66,0.27,0.92,0.02c0.01-0.01,0.01-0.01,0.02-0.02l0.86-0.86  l0.87,0.85c0.25,0.26,0.66,0.27,0.92,0.02c0.01-0.01,0.01-0.01,0.02-0.02L10,20.26l0.86,0.86c0.25,0.26,0.66,0.27,0.92,0.02  c0.01-0.01,0.01-0.01,0.02-0.02l0.86-0.86l0.86,0.86c0.25,0.26,0.66,0.27,0.92,0.02c0.01-0.01,0.01-0.01,0.02-0.02l0.86-0.86  l0.86,0.86c0.25,0.26,0.66,0.27,0.92,0.02c0.01-0.01,0.01-0.01,0.02-0.02L18,20.26l0.86,0.86c0.25,0.26,0.66,0.27,0.92,0.02  c0.01-0.01,0.01-0.01,0.02-0.02l0.86-0.86l0.86,0.86l0.94-0.94l-1.33-1.33c-0.25-0.26-0.66-0.27-0.92-0.02  c-0.01,0.01-0.01,0.01-0.02,0.02L19.33,19.72z M4.67,17.59l0.86,0.86c0.25,0.26,0.66,0.27,0.92,0.02c0.01-0.01,0.01-0.01,0.02-0.02  l0.86-0.86l0.87,0.87c0.25,0.26,0.66,0.27,0.92,0.02c0.01-0.01,0.01-0.01,0.02-0.02L10,17.59l0.86,0.86  c0.25,0.26,0.66,0.27,0.92,0.02c0.01-0.01,0.01-0.01,0.02-0.02l0.86-0.86l0.86,0.86c0.25,0.26,0.66,0.27,0.92,0.02  c0.01-0.01,0.01-0.01,0.02-0.02l0.86-0.86l0.86,0.86c0.25,0.26,0.66,0.27,0.92,0.02c0.01-0.01,0.01-0.01,0.02-0.02L18,17.59  l0.86,0.86c0.25,0.26,0.66,0.27,0.92,0.02c0.01-0.01,0.01-0.01,0.02-0.02l0.86-0.86l0.86,0.86l0.94-0.94l-1.33-1.32  c-0.25-0.26-0.66-0.27-0.92-0.02c-0.01,0.01-0.01,0.01-0.02,0.02l-0.86,0.8l-0.86-0.85c-0.25-0.26-0.66-0.27-0.92-0.02  c-0.01,0.01-0.01,0.01-0.02,0.02l-0.2,0.19v-3.01l2.19-3.27c0.12-0.17,0.14-0.39,0.07-0.59c-0.06-0.2-0.22-0.36-0.42-0.42l-1.84-0.6  V5.33H16V3.99h-2.67V2.66h-2.66v1.33H8v1.34H6.67v3.11l-1.84,0.6c-0.2,0.06-0.36,0.22-0.42,0.42c-0.07,0.2-0.05,0.42,0.07,0.59  l2.19,3.27v3.05L6,16.99l-0.86-0.8c-0.25-0.26-0.66-0.27-0.92-0.02c-0.01,0.01-0.01,0.01-0.02,0.02l-0.86,0.8l-0.87-0.8l-0.94,0.94  l1.33,1.33c0.25,0.26,0.66,0.27,0.92,0.02c0.01-0.01,0.01-0.01,0.02-0.02L4.67,17.59z M8,6.66h1.33V5.33h5.33v1.33H16v1.33l-4-1.33  L8,7.99V6.66L8,6.66z" style="fill: rgb(199, 199, 199);" vector-effect="non-scaling-stroke"/></g></svg>