<svg version="1.2" xmlns="http://www.w3.org/2000/svg" xmlns:xlink="http://www.w3.org/1999/xlink" overflow="visible" preserveAspectRatio="none" viewBox="0 0 24 24" width="24" height="24"><g><path xmlns:default="http://www.w3.org/2000/svg" id="flag" d="M5.67,5.34C5.68,4.61,5.08,4.01,4.35,4c0,0-0.01,0-0.01,0C3.61,3.99,3.01,4.59,3,5.32c0,0.01,0,0.01,0,0.02  C2.99,5.82,3.25,6.27,3.67,6.49v13.17c0,0.18,0.15,0.33,0.33,0.34h0.67C4.85,19.99,5,19.84,5,19.66V6.48  c0.42-0.22,0.68-0.67,0.67-1.15l0,0V5.34z M21,6c-0.01-0.37-0.3-0.66-0.67-0.67c-0.2,0.04-0.39,0.11-0.57,0.22L18.85,6  c-0.37,0.2-0.75,0.36-1.15,0.49c-0.39,0.14-0.8,0.21-1.22,0.22c-0.32,0.01-0.63-0.06-0.92-0.2c-0.74-0.36-1.5-0.66-2.28-0.92  c-0.67-0.2-1.38-0.31-2.08-0.3c-1.54,0.09-3.04,0.53-4.38,1.3C6.54,6.71,6.27,6.85,6,7C5.81,7.13,5.69,7.34,5.68,7.57v7.73  c0.01,0.37,0.3,0.66,0.67,0.67c0.12,0,0.24-0.03,0.34-0.09c1.46-0.89,3.12-1.41,4.83-1.52c0.5,0,1,0.08,1.48,0.23  c0.42,0.13,0.82,0.29,1.2,0.5c0.36,0.2,0.74,0.37,1.13,0.5c0.41,0.15,0.85,0.23,1.29,0.23c1.36-0.09,2.68-0.5,3.84-1.21  c0.15-0.07,0.29-0.17,0.41-0.29c0.09-0.11,0.14-0.25,0.13-0.4L21,6C21,6,21,6,21,6z" style="fill: rgb(199, 199, 199);" vector-effect="non-scaling-stroke"/></g></svg>