<svg version="1.2" xmlns="http://www.w3.org/2000/svg" xmlns:xlink="http://www.w3.org/1999/xlink" overflow="visible" preserveAspectRatio="none" viewBox="0 0 24 24" width="24" height="24"><g><path xmlns:default="http://www.w3.org/2000/svg" id="plane" d="M19.03,4.97c-0.45-0.32-1.04-0.36-1.54-0.12c-0.67,0.23-1.27,0.62-1.76,1.12l-1.7,1.63L7.14,5.97  c-0.11-0.04-0.23,0-0.31,0.08L5.49,7.37C5.42,7.44,5.39,7.55,5.4,7.65c0.02,0.11,0.08,0.2,0.18,0.25l5.29,2.9l-2.7,2.7l-2-0.55H6.03  c-0.09,0-0.18,0.03-0.24,0.09l-1,1c-0.06,0.07-0.1,0.16-0.09,0.26c0.01,0.1,0.06,0.19,0.14,0.24l2.62,2l2,2.62  c0.06,0.08,0.15,0.13,0.25,0.14l0,0c0.09,0,0.18-0.03,0.24-0.09l1-1c0.1-0.09,0.13-0.24,0.08-0.36l-0.55-2l2.7-2.7l2.9,5.29  c0.04,0.09,0.12,0.15,0.22,0.17h0.07c0.07,0.01,0.14-0.02,0.2-0.06l1.33-1c0.12-0.08,0.17-0.22,0.13-0.36l-1.64-7.22l1.64-1.7  c0.51-0.5,0.89-1.11,1.12-1.79C19.38,5.99,19.34,5.42,19.03,4.97L19.03,4.97z" style="fill: rgb(199, 199, 199);" vector-effect="non-scaling-stroke"/></g></svg>