<svg version="1.2" xmlns="http://www.w3.org/2000/svg" xmlns:xlink="http://www.w3.org/1999/xlink" overflow="visible" preserveAspectRatio="none" viewBox="0 0 24 24" width="24" height="24"><g><path xmlns:default="http://www.w3.org/2000/svg" id="cutlery" d="M11.33,3.34c-0.05-0.37-0.38-0.63-0.75-0.58C10.28,2.79,10.04,3.03,10,3.34v4.33C9.95,8.04,9.62,8.3,9.25,8.25  C8.95,8.22,8.71,7.98,8.67,7.67V3.34C8.62,2.97,8.29,2.71,7.92,2.76C7.62,2.79,7.38,3.03,7.34,3.34v4.33c0,0.37-0.3,0.67-0.67,0.67  S6,8.04,6,7.67V3.34C5.95,2.97,5.62,2.71,5.25,2.76C4.95,2.79,4.71,3.03,4.67,3.34V10c0,0.85,0.53,1.61,1.33,1.89V20  c0.01,0.73,0.6,1.32,1.33,1.33h1.34C9.4,21.32,9.99,20.73,10,20v-8.11c0.8-0.28,1.33-1.04,1.33-1.89V3.34L11.33,3.34z M19.33,3.34  c-0.01-0.37-0.3-0.66-0.67-0.67H16c-0.89-0.01-1.74,0.36-2.35,1c-0.64,0.61-1.01,1.46-1,2.35v8.33c0.01,0.18,0.15,0.32,0.33,0.33  h2.33V20c0.01,0.73,0.6,1.32,1.33,1.33H18c0.73-0.01,1.32-0.6,1.33-1.33V3.34L19.33,3.34z" style="fill: rgb(199, 199, 199);" vector-effect="non-scaling-stroke"/></g></svg>