<svg version="1.2" xmlns="http://www.w3.org/2000/svg" xmlns:xlink="http://www.w3.org/1999/xlink" overflow="visible" preserveAspectRatio="none" viewBox="0 0 24 24" width="32" height="32"><g><path xmlns:default="http://www.w3.org/2000/svg" id="file-text" d="M15,3.38c-0.11-0.11-0.24-0.21-0.37-0.29V8h4.91c-0.08-0.13-0.18-0.26-0.29-0.37L15,3.38z M13.62,9  c-0.19-0.19-0.29-0.44-0.29-0.71V2.67H5c-0.55,0-1,0.45-1,1v16.66c0,0.55,0.45,1,1,1h14c0.55,0,1-0.45,1-1v-11h-5.67  C14.06,9.32,13.8,9.2,13.62,9z M15.9,17.19c-0.06,0.06-0.15,0.09-0.24,0.09H8.34C8.17,17.29,8.02,17.17,8,17v-0.67  C7.99,16.15,8.13,16.01,8.31,16c0.01,0,0.02,0,0.03,0h7.33c0.18-0.01,0.32,0.13,0.33,0.31c0,0.01,0,0.01,0,0.02V17  c0,0.09-0.03,0.18-0.1,0.24V17.19z M16,14.33c0.01,0.18-0.13,0.32-0.31,0.33c-0.01,0-0.01,0-0.02,0H8.34  c-0.18,0.01-0.33-0.12-0.34-0.3c0-0.01,0-0.02,0-0.03v-0.66c-0.01-0.18,0.13-0.32,0.31-0.33c0.01,0,0.01,0,0.02,0h7.33  c0.18-0.01,0.32,0.13,0.33,0.31c0,0.01,0,0.01,0,0.02v0.67l0,0L16,14.33z M15.9,11.91C15.84,11.97,15.75,12,15.66,12H8.34  C8.16,12.01,8.01,11.88,8,11.7c0-0.01,0-0.02,0-0.03V11c-0.01-0.18,0.13-0.32,0.31-0.33c0.01,0,0.01,0,0.02,0h7.33  c0.18-0.01,0.33,0.12,0.34,0.3c0,0.01,0,0.02,0,0.03v0.67C16,11.76,15.97,11.85,15.9,11.91z" style="fill: rgb(248, 147, 68);" vector-effect="non-scaling-stroke"/></g></svg>