<svg version="1.2" xmlns="http://www.w3.org/2000/svg" xmlns:xlink="http://www.w3.org/1999/xlink" overflow="visible" preserveAspectRatio="none" viewBox="0 0 24 24" width="16" height="16"><g><path xmlns:default="http://www.w3.org/2000/svg" id="clone" d="M20,19.66c-0.01,0.18-0.15,0.32-0.33,0.33H8.34c-0.18,0-0.33-0.15-0.34-0.33V8.34C8,8.15,8.15,8,8.34,8l0,0  h11.32c0.18,0.01,0.32,0.15,0.33,0.33v11.33l0,0H20z M20.84,7.16c-0.31-0.32-0.74-0.5-1.18-0.49H8.34c-0.92,0-1.67,0.75-1.67,1.67  l0,0v11.32c0,0.92,0.75,1.67,1.67,1.67l0,0h11.32c0.92,0,1.67-0.75,1.67-1.67l0,0V8.34C21.34,7.9,21.16,7.47,20.84,7.16z   M17.33,4.34c0-0.92-0.75-1.67-1.67-1.67l0,0H4.34c-0.92,0-1.67,0.75-1.67,1.67l0,0v11.32c0,0.92,0.75,1.67,1.67,1.67l0,0H6V16H4.34  C4.15,16,4,15.85,4,15.66l0,0V4.34C4,4.15,4.15,4,4.34,4c0,0,0,0,0,0h11.32c0.18,0.01,0.32,0.15,0.33,0.33V6h1.33V4.34l0,0H17.33z" style="fill: rgb(199, 199, 199);" vector-effect="non-scaling-stroke"/></g></svg>