<svg version="1.2" xmlns="http://www.w3.org/2000/svg" xmlns:xlink="http://www.w3.org/1999/xlink" overflow="visible" preserveAspectRatio="none" viewBox="0 -7.494661921708186 52 52" width="32" height="32"><g>
	<g>
		<path d="M47,0H5C2.2,0,0,2.2,0,5v23c0,2.8,2.2,5,5,5h42c2.8,0,5-2.2,5-5V5C52,2.2,49.8,0,47,0z M50,28c0,1.7-1.3,3-3,3H5    c-1.7,0-3-1.3-3-3V5c0-1.7,1.3-3,3-3h42c1.7,0,3,1.3,3,3V28z M51,35H1c-0.6,0-1,0.4-1,1c0,0.6,0.4,1,1,1h50c0.6,0,1-0.4,1-1    C52,35.4,51.6,35,51,35z M5.2,13.1c0.3,0,0.5-0.1,0.7-0.3l6.7-6.7c0.4-0.4,0.4-1,0-1.4c-0.4-0.4-1-0.4-1.4,0l-6.7,6.7    c-0.4,0.4-0.4,1,0,1.4C4.7,13,4.9,13.1,5.2,13.1z M17,4.9L4.6,17.2c-0.4,0.4-0.4,1,0,1.4c0.2,0.2,0.5,0.3,0.7,0.3s0.5-0.1,0.7-0.3    L18.4,6.3c0.4-0.4,0.4-1,0-1.4C18,4.5,17.4,4.5,17,4.9z" style="fill: rgb(245, 128, 37);" vector-effect="non-scaling-stroke"/>
	</g>
</g><g/></svg>