<svg version="1.2" xmlns="http://www.w3.org/2000/svg" xmlns:xlink="http://www.w3.org/1999/xlink" overflow="visible" preserveAspectRatio="none" viewBox="-5.453000000000003 0 266 266" width="74" height="71"><g><g xmlns:default="http://www.w3.org/2000/svg">
	<path d="M187.8,0h-11H0v265.2h254.1V77.4v-11L187.8,0z M238.6,66.3h-50.8V15.5L238.6,66.3z M61.9,254.1l92.8-102.8l88.4,88.4v14.4   H61.9z M243.1,224.3l-88.4-88.4L47.5,254.1H11V11h165.7v66.3h66.3L243.1,224.3L243.1,224.3z" style="fill: rgb(248, 147, 68);" vector-effect="non-scaling-stroke"/>
	<path d="M71.8,66.3c-18.8,0-33.1,14.4-33.1,33.1s14.4,33.1,33.1,33.1S105,118.2,105,99.5S90.6,66.3,71.8,66.3z M71.8,121.6   c-12.1,0-22.1-10-22.1-22.1s10-22.1,22.1-22.1c12.1,0,22.1,10,22.1,22.1C93.9,111.6,84,121.6,71.8,121.6z" style="fill: rgb(248, 147, 68);" vector-effect="non-scaling-stroke"/>
</g></g></svg>