<svg version="1.2" xmlns="http://www.w3.org/2000/svg" xmlns:xlink="http://www.w3.org/1999/xlink" overflow="visible" preserveAspectRatio="none" viewBox="-6.495999999999999 0 56 56" width="32" height="32"><g>
	<g>
		<path d="M38,0H5C2.2,0,0,2.2,0,5v46c0,2.8,2.2,5,5,5h33c2.8,0,5-2.2,5-5V5C43,2.2,40.8,0,38,0z M41,51c0,1.7-1.3,3-3,3H5    c-1.7,0-3-1.3-3-3V5c0-1.7,1.3-3,3-3h33c1.7,0,3,1.3,3,3V51z M21.2,6c0.6,0,1-0.4,1-1c0-0.6-0.4-1-1-1c-0.6,0-1,0.4-1,1    C20.2,5.6,20.6,6,21.2,6z M21.6,46h-0.1c-1.9,0-3.4,1.5-3.4,3.4v0.1c0,1.9,1.5,3.4,3.4,3.4h0.1c1.9,0,3.4-1.5,3.4-3.4v-0.1    C25,47.5,23.5,46,21.6,46z M23,49.6c0,0.8-0.6,1.4-1.4,1.4h-0.1c-0.8,0-1.4-0.6-1.4-1.4v-0.1c0-0.8,0.6-1.4,1.4-1.4h0.1    c0.8,0,1.4,0.6,1.4,1.4V49.6z" style="fill: rgb(255, 255, 255);" vector-effect="non-scaling-stroke"/>
	</g>
</g><g/></svg>