<svg version="1.2" xmlns="http://www.w3.org/2000/svg" xmlns:xlink="http://www.w3.org/1999/xlink" overflow="visible" preserveAspectRatio="none" viewBox="-12.995999999999999 0 57 57" width="32" height="32"><g>
	<g>
		<path d="M26,0H5C2.2,0,0,2.2,0,5v47c0,2.8,2.2,5,5,5h21c2.8,0,5-2.2,5-5V5C31,2.2,28.8,0,26,0z M29,52c0,1.7-1.3,3-3,3H5    c-1.7,0-3-1.3-3-3V5c0-1.7,1.3-3,3-3h21c1.7,0,3,1.3,3,3V52z M15.7,5c0.6,0,1-0.4,1-1c0-0.6-0.4-1-1-1s-1,0.4-1,1    C14.7,4.6,15.1,5,15.7,5z M18,6h-5c-0.6,0-1,0.4-1,1c0,0.6,0.4,1,1,1h5c0.6,0,1-0.4,1-1C19,6.4,18.6,6,18,6z M15.6,47h-0.1    c-1.9,0-3.4,1.5-3.4,3.4v0.1c0,1.9,1.5,3.4,3.4,3.4h0.1c1.9,0,3.4-1.5,3.4-3.4v-0.1C19,48.5,17.5,47,15.6,47z M17,50.6    c0,0.8-0.6,1.4-1.4,1.4h-0.1c-0.8,0-1.4-0.6-1.4-1.4v-0.1c0-0.8,0.6-1.4,1.4-1.4h0.1c0.8,0,1.4,0.6,1.4,1.4V50.6z" style="fill: rgb(245, 128, 37);" vector-effect="non-scaling-stroke"/>
	</g>
</g><g/></svg>