<svg width="22" height="22" viewBox="0 0 22 22" fill="none" xmlns="http://www.w3.org/2000/svg">
<path d="M13.4589 4.31517L2.53529 15.8321C2.48034 15.8902 2.44147 15.9628 2.42409 16.0401L1.31228 21.0646C1.27905 21.2158 1.32742 21.3745 1.43998 21.4812C1.52514 21.562 1.63941 21.605 1.75505 21.6019C1.79047 21.601 1.82659 21.5956 1.86161 21.5858L6.82038 20.2102C6.89766 20.1888 6.96727 20.1463 7.02223 20.0884L17.9468 8.57219L13.4589 4.31517Z" fill="#643B17"/>
<path d="M20.5704 2.59654L19.2885 1.38056C18.4317 0.567867 16.9768 0.607092 16.1651 1.46304L14.6756 3.03333L19.1634 7.29019L20.6529 5.71989C21.0588 5.29208 21.2738 4.73125 21.2583 4.14122C21.2427 3.55119 20.9984 3.00249 20.5704 2.59654Z" fill="#643B17"/>
</svg>
