<svg width="19" height="20" viewBox="0 0 19 20" fill="none" xmlns="http://www.w3.org/2000/svg">
<path d="M17.2777 0.51001H2.55043C1.64634 0.51001 0.914062 1.26825 0.914062 2.2044V17.4539C0.914062 18.3901 1.64634 19.1483 2.55043 19.1483H10.7322V11.5235H8.2777V8.98196H10.7322V7.61713C10.7322 5.03319 11.9481 3.89879 14.0222 3.89879C15.0154 3.89879 15.5407 3.97504 15.7894 4.00977V6.44038H14.3748C13.4944 6.44038 13.1868 6.92158 13.1868 7.89586V8.98196H15.7673L15.4172 11.5235H13.1868V19.1483H17.2777C18.1818 19.1483 18.9141 18.3901 18.9141 17.4539V2.2044C18.9141 1.26825 18.181 0.51001 17.2777 0.51001Z" fill="#643B17"/>
</svg>
