<svg width="19" height="21" viewBox="0 0 19 21" fill="none" xmlns="http://www.w3.org/2000/svg">
<path d="M17.1332 0.996582H2.40589C1.5018 0.996582 0.769531 1.77703 0.769531 2.74059V18.4367C0.769531 19.4002 1.5018 20.1807 2.40589 20.1807H10.5877V12.3326H8.13317V9.71662H10.5877V8.31182C10.5877 5.65221 11.8035 4.4846 13.8776 4.4846C14.8709 4.4846 15.3962 4.56308 15.6449 4.59883V7.10061H14.2303C13.3499 7.10061 13.0423 7.59591 13.0423 8.59871V9.71662H15.6228L15.2726 12.3326H13.0423V20.1807H17.1332C18.0373 20.1807 18.7695 19.4002 18.7695 18.4367V2.74059C18.7695 1.77703 18.0364 0.996582 17.1332 0.996582Z" fill="white"/>
</svg>
