<svg width="11" height="11" viewBox="0 0 11 11" fill="none" xmlns="http://www.w3.org/2000/svg">
<path d="M10.272 6.06836C10.1515 6.06836 10.0358 6.11625 9.9506 6.20149C9.86536 6.28674 9.81747 6.40235 9.81747 6.5229V8.4379C9.81711 8.77377 9.68353 9.09579 9.44603 9.33328C9.20853 9.57078 8.88652 9.70436 8.55065 9.70472H2.90247C2.5666 9.70436 2.24459 9.57078 2.00709 9.33328C1.7696 9.09579 1.63601 8.77377 1.63565 8.4379V6.5229C1.63565 6.40235 1.58776 6.28674 1.50252 6.20149C1.41728 6.11625 1.30166 6.06836 1.18111 6.06836C1.06056 6.06836 0.94494 6.11625 0.859696 6.20149C0.774452 6.28674 0.726563 6.40235 0.726562 6.5229V8.4379C0.727164 9.01481 0.956604 9.56791 1.36454 9.97584C1.77247 10.3838 2.32557 10.6132 2.90247 10.6138H8.55065C9.12756 10.6132 9.68066 10.3838 10.0886 9.97584C10.4965 9.56791 10.726 9.01481 10.7266 8.4379V6.5229C10.7266 6.40235 10.6787 6.28674 10.5934 6.20149C10.5082 6.11625 10.3926 6.06836 10.272 6.06836Z" fill="#643B17"/>
<path d="M3.32013 4.11734L5.27149 2.16598V7.88689C5.27149 8.00744 5.31938 8.12306 5.40462 8.2083C5.48987 8.29354 5.60548 8.34143 5.72604 8.34143C5.84659 8.34143 5.96221 8.29354 6.04745 8.2083C6.13269 8.12306 6.18058 8.00744 6.18058 7.88689V2.16598L8.13195 4.11734C8.21767 4.20014 8.33249 4.24596 8.45167 4.24492C8.57085 4.24389 8.68486 4.19608 8.76914 4.11181C8.85341 4.02753 8.90122 3.91352 8.90225 3.79434C8.90329 3.67516 8.85747 3.56034 8.77467 3.47462L6.0474 0.747343C5.96216 0.662128 5.84657 0.614258 5.72604 0.614258C5.60551 0.614258 5.48991 0.662128 5.40467 0.747343L2.6774 3.47462C2.5946 3.56034 2.54879 3.67516 2.54982 3.79434C2.55086 3.91352 2.59866 4.02753 2.68294 4.11181C2.76721 4.19608 2.88122 4.24389 3.0004 4.24492C3.11958 4.24596 3.2344 4.20014 3.32013 4.11734Z" fill="#643B17"/>
</svg>
