<svg width="22" height="22" viewBox="0 0 22 22" fill="none" xmlns="http://www.w3.org/2000/svg">
<path d="M12.3819 13.7527C12.435 13.8058 12.5027 13.842 12.5763 13.8566C12.65 13.8713 12.7263 13.8637 12.7957 13.835C12.8651 13.8063 12.9244 13.7576 12.9662 13.6952C13.0079 13.6327 13.0302 13.5593 13.0302 13.4842V10.8256H14.1696C14.4718 10.8256 14.7616 10.7056 14.9752 10.4919C15.1889 10.2782 15.309 9.98844 15.309 9.68626V1.33079C15.309 1.02861 15.1889 0.738799 14.9752 0.525124C14.7616 0.311448 14.4718 0.191406 14.1696 0.191406H1.25657C0.954387 0.191406 0.66458 0.311448 0.450905 0.525124C0.237229 0.738799 0.117188 1.02861 0.117188 1.33079V9.68626C0.117188 9.98844 0.237229 10.2782 0.450905 10.4919C0.66458 10.7056 0.954387 10.8256 1.25657 10.8256H9.4548L12.3819 13.7527ZM2.77575 3.22976H12.6504C12.7511 3.22976 12.8477 3.26977 12.9189 3.341C12.9902 3.41222 13.0302 3.50883 13.0302 3.60955C13.0302 3.71028 12.9902 3.80688 12.9189 3.87811C12.8477 3.94933 12.7511 3.98935 12.6504 3.98935H2.77575C2.67502 3.98935 2.57842 3.94933 2.50719 3.87811C2.43597 3.80688 2.39595 3.71028 2.39595 3.60955C2.39595 3.50883 2.43597 3.41222 2.50719 3.341C2.57842 3.26977 2.67502 3.22976 2.77575 3.22976ZM2.77575 5.12873H12.6504C12.7511 5.12873 12.8477 5.16874 12.9189 5.23997C12.9902 5.31119 13.0302 5.4078 13.0302 5.50852C13.0302 5.60925 12.9902 5.70585 12.9189 5.77708C12.8477 5.8483 12.7511 5.88832 12.6504 5.88832H2.77575C2.67502 5.88832 2.57842 5.8483 2.50719 5.77708C2.43597 5.70585 2.39595 5.60925 2.39595 5.50852C2.39595 5.4078 2.43597 5.31119 2.50719 5.23997C2.57842 5.16874 2.67502 5.12873 2.77575 5.12873ZM2.39595 7.40749C2.39595 7.30677 2.43597 7.21016 2.50719 7.13894C2.57842 7.06771 2.67502 7.0277 2.77575 7.0277H12.6504C12.7511 7.0277 12.8477 7.06771 12.9189 7.13894C12.9902 7.21016 13.0302 7.30677 13.0302 7.40749C13.0302 7.50822 12.9902 7.60482 12.9189 7.67605C12.8477 7.74727 12.7511 7.78729 12.6504 7.78729H2.77575C2.67502 7.78729 2.57842 7.74727 2.50719 7.67605C2.43597 7.60482 2.39595 7.50822 2.39595 7.40749Z" fill="#643B17"/>
<path d="M20.2463 7.78723H16.0686V9.6862C16.068 10.1897 15.8677 10.6723 15.5117 11.0283C15.1557 11.3843 14.673 11.5846 14.1696 11.5852H13.7898V15.3182C13.7898 15.3933 13.7675 15.4667 13.7258 15.5291C13.684 15.5916 13.6247 15.6402 13.5553 15.669C13.4859 15.6977 13.4096 15.7052 13.3359 15.6906C13.2623 15.6759 13.1946 15.6398 13.1415 15.5867L9.13997 11.5852H6.19391V17.2821C6.19391 17.5843 6.31395 17.8741 6.52763 18.0877C6.7413 18.3014 7.03111 18.4215 7.33329 18.4215H8.47267V21.08C8.47269 21.1551 8.49497 21.2285 8.53671 21.291C8.57844 21.3534 8.63775 21.4021 8.70714 21.4308C8.77653 21.4596 8.85288 21.4671 8.92654 21.4524C9.0002 21.4378 9.06787 21.4016 9.12098 21.3485L12.0481 18.4215H20.2463C20.5485 18.4215 20.8383 18.3014 21.052 18.0877C21.2656 17.8741 21.3857 17.5843 21.3857 17.2821V8.92661C21.3857 8.62443 21.2656 8.33462 21.052 8.12095C20.8383 7.90727 20.5485 7.78723 20.2463 7.78723Z" fill="#643B17"/>
</svg>
