<svg width="19" height="21" viewBox="0 0 19 21" fill="none" xmlns="http://www.w3.org/2000/svg">
<path d="M17.1332 0.996582H2.40589C1.5018 0.996582 0.769531 1.77703 0.769531 2.74059V18.4367C0.769531 19.4002 1.5018 20.1807 2.40589 20.1807H17.1332C18.0373 20.1807 18.7695 19.4002 18.7695 18.4367V2.74059C18.7695 1.77703 18.0373 0.996582 17.1332 0.996582ZM6.45917 16.6926H4.04553V8.41559H6.45917V16.6926ZM5.2278 7.23228C4.44971 7.23228 3.82053 6.55997 3.82053 5.73243C3.82053 4.9049 4.45053 4.23346 5.2278 4.23346C6.00344 4.23346 6.63426 4.90577 6.63426 5.73243C6.63426 6.55997 6.00344 7.23228 5.2278 7.23228ZM15.5001 16.6926H13.0881V12.6675C13.0881 11.7074 13.0717 10.4726 11.8338 10.4726C10.5779 10.4726 10.3848 11.5182 10.3848 12.5977V16.6926H7.9728V8.41559H10.2883V9.54658H10.321C10.6433 8.89606 11.4304 8.2098 12.6045 8.2098C15.0484 8.2098 15.5001 9.92416 15.5001 12.153V16.6926Z" fill="white"/>
</svg>
