<svg width="19" height="20" viewBox="0 0 19 20" fill="none" xmlns="http://www.w3.org/2000/svg">
<path d="M17.2777 0.596191H2.55043C1.64634 0.596191 0.914062 1.35443 0.914062 2.29058V17.5401C0.914062 18.4762 1.64634 19.2345 2.55043 19.2345H17.2777C18.1818 19.2345 18.9141 18.4762 18.9141 17.5401V2.29058C18.9141 1.35443 18.1818 0.596191 17.2777 0.596191ZM6.6037 15.8457H4.19006V7.80413H6.6037V15.8457ZM5.37234 6.65449C4.59424 6.65449 3.96506 6.0013 3.96506 5.19731C3.96506 4.39332 4.59506 3.74098 5.37234 3.74098C6.14797 3.74098 6.77879 4.39417 6.77879 5.19731C6.77879 6.0013 6.14797 6.65449 5.37234 6.65449ZM15.6446 15.8457H13.2326V11.9351C13.2326 11.0023 13.2162 9.80266 11.9783 9.80266C10.7224 9.80266 10.5293 10.8185 10.5293 11.8673V15.8457H8.11734V7.80413H10.4328V8.90294H10.4655C10.7879 8.27093 11.575 7.60419 12.7491 7.60419C15.193 7.60419 15.6446 9.26978 15.6446 11.4352V15.8457Z" fill="#643B17"/>
</svg>
