<svg width="15" height="16" viewBox="0 0 15 16" fill="none" xmlns="http://www.w3.org/2000/svg">
<path d="M14.5696 13.8848L10.9951 10.1672C11.9141 9.07462 12.4177 7.69998 12.4177 6.26891C12.4177 2.92537 9.69742 0.205078 6.35387 0.205078C3.01033 0.205078 0.290039 2.92537 0.290039 6.26891C0.290039 9.61246 3.01033 12.3327 6.35387 12.3327C7.60909 12.3327 8.80524 11.9542 9.82792 11.2355L13.4296 14.9813C13.5801 15.1377 13.7826 15.2239 13.9996 15.2239C14.205 15.2239 14.3998 15.1456 14.5477 15.0032C14.862 14.7008 14.872 14.1994 14.5696 13.8848ZM6.35387 1.78695C8.82528 1.78695 10.8358 3.7975 10.8358 6.26891C10.8358 8.74032 8.82528 10.7509 6.35387 10.7509C3.88247 10.7509 1.87191 8.74032 1.87191 6.26891C1.87191 3.7975 3.88247 1.78695 6.35387 1.78695Z" fill="#643B17"/>
</svg>
