<svg width="19" height="19" viewBox="0 0 19 19" fill="none" xmlns="http://www.w3.org/2000/svg">
<path d="M18.1928 11.5609C19.5439 5.50467 14.233 0.00743043 7.99035 1.05563C4.61281 -1.04077 0.117188 1.33515 0.117188 5.36491C0.117188 6.29664 0.373415 7.18179 0.815989 7.92718C-0.41856 14.0067 4.91562 19.4341 11.1582 18.2927C15.5607 20.6221 20.4057 15.9867 18.1928 11.5609ZM12.2763 15.218C10.6458 15.8935 7.94376 15.8935 6.31322 15.0317C3.98389 13.7971 3.5879 11.0019 5.59113 11.0019C7.1052 11.0019 6.61604 12.7722 8.1534 13.471C8.8522 13.7971 10.3663 13.8204 11.2281 13.2381C12.09 12.6557 12.0201 11.7473 11.5542 11.328C10.3197 10.1866 6.7558 10.6292 5.12526 8.62598C4.42646 7.76412 4.2867 6.22676 5.14856 5.10868C6.66262 3.15204 11.1117 3.03557 13.0217 4.50305C14.792 5.87736 14.3029 7.67095 12.882 7.67095C11.1815 7.67095 12.0667 5.43479 9.29478 5.43479C7.29155 5.43479 6.49957 6.85568 7.92047 7.55448C9.83052 8.5328 14.6988 8.2067 14.6988 11.9336C14.6988 13.471 13.7438 14.6124 12.2763 15.218Z" fill="#643B17"/>
</svg>
