<svg width="19" height="16" viewBox="0 0 19 16" fill="none" xmlns="http://www.w3.org/2000/svg">
<path d="M18.7695 1.89458C18.107 2.1947 17.3954 2.39667 16.6484 2.48777C17.4113 2.02169 17.9963 1.28373 18.2718 0.403829C17.5587 0.835305 16.7681 1.14885 15.9263 1.31833C15.2527 0.586023 14.2932 0.128418 13.2313 0.128418C11.1918 0.128418 9.53866 1.81548 9.53866 3.89519C9.53866 4.19037 9.57189 4.47849 9.63419 4.7532C6.56531 4.59642 3.84464 3.0965 2.02256 0.816944C1.7055 1.37341 1.52343 2.02028 1.52343 2.71163C1.52343 4.01806 2.17486 5.17126 3.16552 5.84636C2.56046 5.82659 1.99072 5.65711 1.49296 5.37534C1.49296 5.39158 1.49296 5.40641 1.49296 5.42266C1.49296 7.24813 2.76538 8.77066 4.45524 9.11598C4.14579 9.20214 3.81903 9.24804 3.48189 9.24804C3.24444 9.24804 3.01252 9.22403 2.78753 9.18095C3.25759 10.6773 4.62138 11.767 6.23717 11.7974C4.97375 12.8079 3.38151 13.4103 1.65081 13.4103C1.35312 13.4103 1.0589 13.3926 0.769531 13.3573C2.40401 14.4258 4.34447 15.0493 6.43031 15.0493C13.223 15.0493 16.9364 9.30948 16.9364 4.33161C16.9364 4.16848 16.9329 4.00606 16.926 3.84434C17.648 3.31259 18.2745 2.64948 18.7695 1.89458Z" fill="white"/>
</svg>
