<svg width="16" height="13" viewBox="0 0 16 13" fill="none" xmlns="http://www.w3.org/2000/svg">
<path d="M15.4268 1.88617C14.8689 2.13086 14.2746 2.29305 13.6549 2.3718C14.2924 1.99117 14.7789 1.39305 15.0077 0.672109C14.4133 1.02648 13.7571 1.2768 13.0577 1.41648C12.4933 0.815547 11.6889 0.443359 10.8114 0.443359C9.10894 0.443359 7.73832 1.82523 7.73832 3.5193C7.73832 3.76305 7.75895 3.99742 7.80957 4.22055C5.25301 4.09586 2.99082 2.87055 1.47113 1.00398C1.20582 1.4643 1.0502 1.99117 1.0502 2.55836C1.0502 3.62336 1.59863 4.56742 2.41613 5.11398C1.92207 5.10461 1.43738 4.96117 1.02676 4.73523C1.02676 4.74461 1.02676 4.7568 1.02676 4.76898C1.02676 6.26336 2.0927 7.50461 3.49051 7.79055C3.2402 7.85898 2.96738 7.8918 2.68426 7.8918C2.48738 7.8918 2.28863 7.88055 2.10207 7.8393C2.50051 9.05711 3.63113 9.95242 4.97551 9.98148C3.92926 10.7999 2.60082 11.293 1.1627 11.293C0.910508 11.293 0.668633 11.2818 0.426758 11.2509C1.78895 12.1293 3.40332 12.6309 5.14426 12.6309C10.803 12.6309 13.8968 7.94336 13.8968 3.88023C13.8968 3.7443 13.8921 3.61305 13.8855 3.48273C14.4958 3.04961 15.0086 2.50867 15.4268 1.88617Z" fill="#643B17"/>
</svg>
