<svg width="19" height="17" viewBox="0 0 19 17" fill="none" xmlns="http://www.w3.org/2000/svg">
<path d="M18.3933 2.31262C18.1863 1.45333 17.5761 0.775884 16.8021 0.546074C15.3981 0.128418 9.76953 0.128418 9.76953 0.128418C9.76953 0.128418 4.14093 0.128418 2.73693 0.546074C1.96293 0.775884 1.35273 1.45333 1.14573 2.31262C0.769531 3.87133 0.769531 8.12183 0.769531 8.12183C0.769531 8.12183 0.769531 12.3723 1.14573 13.931C1.35273 14.7903 1.96293 15.4678 2.73693 15.6976C4.14093 16.1152 9.76953 16.1152 9.76953 16.1152C9.76953 16.1152 15.3981 16.1152 16.8021 15.6976C17.577 15.4678 18.1863 14.7903 18.3933 13.931C18.7695 12.3723 18.7695 8.12183 18.7695 8.12183C18.7695 8.12183 18.7695 3.87133 18.3933 2.31262ZM7.96953 10.7177V5.52597C7.96953 5.14128 8.34483 4.90148 8.64453 5.09332L12.6945 7.68918C12.9942 7.88103 12.9942 8.36263 12.6945 8.55447L8.64453 11.1503C8.34483 11.3432 7.96953 11.1024 7.96953 10.7177Z" fill="white"/>
</svg>
