<svg width="18" height="13" viewBox="0 0 18 13" fill="none" xmlns="http://www.w3.org/2000/svg">
<path d="M17.4852 2.39931C17.2795 1.63447 16.6765 1.03156 15.9117 0.825614C14.5147 0.443359 8.92633 0.443359 8.92633 0.443359C8.92633 0.443359 3.33819 0.443359 1.94113 0.811122C1.19111 1.01685 0.573382 1.63458 0.367653 2.39931C0 3.79626 0 6.69336 0 6.69336C0 6.69336 0 9.60506 0.367653 10.9874C0.5736 11.7521 1.1764 12.355 1.94124 12.561C3.3529 12.9434 8.92655 12.9434 8.92655 12.9434C8.92655 12.9434 14.5147 12.9434 15.9117 12.5756C16.6766 12.3698 17.2795 11.7668 17.4854 11.0021C17.853 9.60506 17.853 6.70807 17.853 6.70807C17.853 6.70807 17.8677 3.79626 17.4852 2.39931ZM7.14712 9.3698V4.01692L11.7941 6.69336L7.14712 9.3698Z" fill="#643B17"/>
</svg>
