<?xml version="1.0" standalone="no"?>
<!DOCTYPE svg PUBLIC "-//W3C//DTD SVG 1.1//EN" "http://www.w3.org/Graphics/SVG/1.1/DTD/svg11.dtd" >
<svg xmlns="http://www.w3.org/2000/svg" xmlns:xlink="http://www.w3.org/1999/xlink" version="1.1">
<metadata>
Created by FontForge 20170731 at Wed May 25 07:35:18 2022
 By Aleksey,,,
Copyright The Monotype Corporation. All rights reserved.
</metadata>
<defs>
<font id="CenturyGothicPro-Bold" horiz-adv-x="1228" >
  <font-face 
    font-family="Century Gothic Pro"
    font-weight="700"
    font-stretch="normal"
    units-per-em="2048"
    panose-1="2 11 8 2 2 2 2 2 2 4"
    ascent="1507"
    descent="-541"
    x-height="1087"
    cap-height="1470"
    bbox="-236 -479 2580 2019"
    underline-thickness="102"
    underline-position="-307"
    unicode-range="U+0020-FB04"
  />
<missing-glyph horiz-adv-x="1024" 
d="M25 0v1362h972v-1362h-972zM180 1266l332 -498l330 498h-662zM123 1178v-992q0 -1 82.5 123t164.5 249l83 124zM901 1178l-332 -496l332 -498v994zM842 98l-330 496l-332 -496h662z" />
    <glyph glyph-name="f_f" unicode="ff" horiz-adv-x="1140" 
d="M766 1487q91 49 190 49q105 0 215 -39v-209q-71 19 -120 19q-57 0 -79 -29t-22 -107v-84h172v-231h-172v-856h-272v856h-289v-856h-274v856h-101v231h101q0 139 35 232q38 97 140.5 157t246.5 60q125 0 229 -49zM678 1087v125q-35 95 -143 95q-60 0 -103 -45t-43 -144
v-31h289z" />
    <glyph glyph-name="fi" unicode="fi" horiz-adv-x="1064" 
d="M10 858v229h103q0 121 20 191q38 123 142.5 190.5t259.5 67.5q357 0 413 -326h-284q-15 46 -51.5 71.5t-82.5 25.5q-72 0 -114 -60q-6 -9 -11 -19t-8.5 -18t-5.5 -20.5t-3.5 -19t-2 -21.5t-0.5 -19.5v-22v-20.5h160v-229h-160v-858h-272v858h-103zM676 0v1087h272v-1087
h-272z" />
    <glyph glyph-name="fl" unicode="fl" horiz-adv-x="1064" 
d="M10 858v229h103q0 123 20 191q38 124 141 191t256 67q216 0 330 -129q54 -61 71 -133t17 -187v-1087h-272v1108q0 199 -146 199q-79 0 -112 -55.5t-33 -164.5h160v-229h-160v-858h-272v858h-103z" />
    <glyph glyph-name="f_f_i" unicode="ffi" horiz-adv-x="1626" 
d="M815 1452q110 84 281 84q357 0 413 -326h-284q-31 97 -131 97q-48 0 -90 -31q-36 -30 -46 -66t-10 -123h160v-229h-160v-858h-274v858h-289v-858h-274v858h-101v229h101q0 155 39 240q39 93 141 151t241 58q170 0 283 -84zM678 1178q-40 129 -148 129q-48 0 -90 -31
q-36 -30 -45.5 -65.5t-9.5 -123.5h289q0 55 4 91zM1237 0v1087h272v-1087h-272z" />
    <glyph glyph-name="f_f_l" unicode="ffl" horiz-adv-x="1628" 
d="M815 1454q107 82 275 82q144 0 239 -53q93 -52 137 -135q45 -80 45 -261v-1087h-274v1067q0 135 -31.5 187.5t-111.5 52.5q-78 0 -112 -54t-34 -166h160v-229h-160v-858h-274v858h-289v-858h-274v858h-101v229h101q0 151 36 236q38 95 140.5 154t244.5 59q176 0 283 -82z
M385 1087h289q0 49 4 89q-43 131 -148 131q-48 0 -90 -31q-36 -30 -45.5 -65.5t-9.5 -123.5z" />
    <glyph glyph-name=".notdef" horiz-adv-x="1024" 
d="M25 0v1362h972v-1362h-972zM180 1266l332 -498l330 498h-662zM123 1178v-992q0 -1 82.5 123t164.5 249l83 124zM901 1178l-332 -496l332 -498v994zM842 98l-330 496l-332 -496h662z" />
    <glyph glyph-name=".null" horiz-adv-x="0" 
 />
    <glyph glyph-name="nonmarkingreturn" horiz-adv-x="682" 
 />
    <glyph glyph-name="space" unicode=" " horiz-adv-x="573" 
 />
    <glyph glyph-name="exclam" unicode="!" horiz-adv-x="573" 
d="M150 434v1073h272v-1073h-272zM287 315q71 0 120.5 -50.5t49.5 -121.5t-49.5 -121.5t-120.5 -50.5q-72 0 -122 50.5t-50 121.5t50.5 121.5t121.5 50.5z" />
    <glyph glyph-name="quotedbl" unicode="&#x22;" horiz-adv-x="737" 
d="M709 1507l-56 -503h-157l-54 503h267zM297 1507l-55 -503h-156l-55 503h266z" />
    <glyph glyph-name="numbersign" unicode="#" 
d="M911 678h199v-199h-229l-72 -479h-201l70 479h-193l-69 -479h-199l70 479h-226v199h256l31 188h-223v199h250l65 442h195l-62 -442h191l65 442h201l-65 -442h202v-199h-231zM707 678l30 188h-194l-27 -188h191z" />
    <glyph glyph-name="dollar" unicode="$" horiz-adv-x="1146" 
d="M715 1608v-113q59 -14 105 -33t85.5 -47t66 -51.5t66.5 -63.5l-192 -188q-134 137 -262 137q-74 0 -122 -40.5t-48 -98.5q0 -66 53 -102.5t244 -118.5q66 -29 104 -45q124 -54 203.5 -167.5t79.5 -262.5q0 -162 -103 -293q-57 -72 -120 -102.5t-160 -51.5v-268h-189v262
q-121 13 -231 70.5t-225 181.5l190 195q185 -195 352 -195q86 0 148.5 58.5t62.5 144.5q0 45 -17.5 86.5t-45.5 60.5q-148 101 -354 189q-105 46 -186 151.5t-81 231.5q0 155 111.5 259.5t275.5 112.5v101h189z" />
    <glyph glyph-name="percent" unicode="%" horiz-adv-x="1761" 
d="M895 1442q267 0 459 94h200l-1165 -1636h-201l996 1405q-188 -29 -316 -29q-74 0 -145 6q22 -73 22 -127q0 -146 -101 -248t-249 -102q-147 0 -249.5 101t-102.5 247q0 100 50.5 182.5t129 127t164.5 44.5q45 0 213 -32.5t295 -32.5zM393 1325q-70 0 -119 -49.5
t-49 -118.5q0 -70 49 -120t119 -50q69 0 119.5 50.5t50.5 119.5q0 70 -50 119t-120 49zM1368 664q145 0 248.5 -103.5t103.5 -249.5t-103.5 -248t-248.5 -102q-146 0 -248 102t-102 248q0 147 102 250t248 103zM1368 481q-70 0 -119 -49.5t-49 -120.5t49 -119.5t119 -48.5
q71 0 120.5 49t49.5 119q0 71 -50 120.5t-120 49.5z" />
    <glyph glyph-name="ampersand" unicode="&#x26;" horiz-adv-x="1392" 
d="M1004 0l-97 100q-230 -135 -430 -135q-167 0 -273 96t-106 254q0 125 63.5 229.5t196.5 207.5q-139 189 -139 335q0 126 100.5 224t258.5 98q81 0 150 -28t113.5 -73.5t69.5 -101.5t25 -114q0 -52 -15.5 -99t-51.5 -97t-72 -89.5t-99 -101.5q20 -23 68.5 -81.5t86 -101
t75.5 -80.5q16 12 164 136l165 -191q-29 -27 -79.5 -73t-69.5 -64l235 -250h-339zM725 295q-98 98 -217 250q-150 -125 -150 -213q0 -43 40 -80t104 -37q39 0 80 12.5t69 26.5t74 41zM559 901q111 96 111 168q0 38 -25 64t-65 26q-38 0 -65.5 -29t-27.5 -63q0 -75 72 -166z
" />
    <glyph glyph-name="quotesingle" unicode="'" horiz-adv-x="450" 
d="M358 1507l-55 -503h-156l-55 503h266z" />
    <glyph glyph-name="parenleft" unicode="(" horiz-adv-x="778" 
d="M725 -426h-346q-156 247 -221.5 469.5t-65.5 529.5q0 279 64 502.5t223 460.5h346q-184 -208 -267 -444.5t-83 -528.5q0 -318 83 -539.5t267 -449.5z" />
    <glyph glyph-name="parenright" unicode=")" horiz-adv-x="778" 
d="M53 1536h346q154 -243 219.5 -466t65.5 -533q0 -280 -63 -503.5t-222 -459.5h-346q186 210 271.5 446.5t85.5 526.5q0 216 -42.5 390.5t-116.5 309.5t-198 289z" />
    <glyph glyph-name="asterisk" unicode="*" horiz-adv-x="901" 
d="M408 1206l-78 301h254l-78 -301l225 213l117 -219l-305 -78l305 -88l-131 -215l-219 215l77 -299h-245l78 299l-224 -215l-133 215l305 88l-305 84l133 224z" />
    <glyph glyph-name="plus" unicode="+" 
d="M115 860h374v375h252v-375h373v-250h-373v-374h-252v374h-374v250z" />
    <glyph glyph-name="comma" unicode="," horiz-adv-x="573" 
d="M80 -178l188 454l195 -98l-246 -422z" />
    <glyph glyph-name="hyphen" unicode="-" horiz-adv-x="860" 
d="M176 418v250h508v-250h-508z" />
    <glyph glyph-name="period" unicode="." horiz-adv-x="573" 
d="M287 285q64 0 109.5 -45.5t45.5 -110.5t-45 -111.5t-110 -46.5t-111.5 46.5t-46.5 111.5t46.5 110.5t111.5 45.5z" />
    <glyph glyph-name="slash" unicode="/" horiz-adv-x="942" 
d="M236 -262h-193l662 1775h192z" />
    <glyph glyph-name="zero" unicode="0" horiz-adv-x="1146" 
d="M569 1507q262 0 390 -192t128 -580t-126 -579t-383 -191q-124 0 -215.5 41t-161.5 129q-80 103 -112 243t-32 343q0 219 35.5 370t116.5 250q134 166 360 166zM575 1239q-131 0 -183 -126t-52 -398q0 -492 238 -492q235 0 235 508t-238 508z" />
    <glyph glyph-name="one" unicode="1" horiz-adv-x="1146" 
d="M174 1204l162 266h422v-1470h-281v1204h-303z" />
    <glyph glyph-name="two" unicode="2" horiz-adv-x="1146" 
d="M43 135l455 463q139 140 207.5 246.5t68.5 206.5q0 85 -57 141.5t-146 56.5q-92 0 -151.5 -69t-63.5 -183h-272q10 240 148.5 375t355.5 135q104 0 192.5 -37t146.5 -98.5t90 -140.5t32 -164q0 -152 -87 -303t-260 -332l-163 -172h522v-260h-1018v135z" />
    <glyph glyph-name="three" unicode="3" horiz-adv-x="1146" 
d="M717 1100q0 61 -42 100t-110 39q-62 0 -109.5 -36.5t-66.5 -94.5h-268q23 187 148.5 293t305.5 106q182 0 303 -114t121 -273q0 -207 -206 -309q135 -41 208.5 -140t73.5 -235q0 -201 -146.5 -337t-369.5 -136q-214 0 -349.5 129t-148.5 352h277q37 -223 235 -223
q99 0 163.5 63.5t64.5 151.5q0 104 -89 172.5t-249 69.5v240q254 21 254 182z" />
    <glyph glyph-name="four" unicode="4" horiz-adv-x="1146" 
d="M41 561l637 946h278v-946h131v-260h-131v-301h-272v301h-643v260zM346 561h338v494z" />
    <glyph glyph-name="five" unicode="5" horiz-adv-x="1146" 
d="M164 655l178 815h688v-258h-479l-59 -266q47 15 94 15q203 0 334 -138t131 -350q0 -106 -39 -200t-106.5 -161.5t-161 -107t-197.5 -39.5q-187 0 -322.5 104.5t-177.5 292.5h295q68 -139 211 -139q92 0 157.5 66.5t65.5 173.5q0 102 -60 165.5t-147 63.5q-53 0 -94 -22
t-84 -66z" />
    <glyph glyph-name="six" unicode="6" horiz-adv-x="1146" 
d="M215 768l379 739l237 -118l-256 -500q194 -5 321.5 -137t127.5 -330q0 -131 -64 -237t-168.5 -163t-226.5 -57q-126 0 -232.5 60t-169.5 167.5t-63 239.5q0 71 28.5 147.5t86.5 188.5zM557 625q-80 0 -131 -57.5t-51 -141.5q0 -88 55.5 -145.5t128.5 -57.5q77 0 134 58
t57 145q0 81 -53.5 140t-139.5 59z" />
    <glyph glyph-name="seven" unicode="7" horiz-adv-x="1146" 
d="M123 1204v266h964v-147l-663 -1360l-238 115l553 1126h-616z" />
    <glyph glyph-name="eight" unicode="8" horiz-adv-x="1146" 
d="M133 1100q0 179 121.5 293t320.5 114q196 0 318.5 -119t122.5 -292q0 -87 -34.5 -154t-107.5 -145q100 -64 154.5 -164t54.5 -217q0 -96 -32.5 -178t-94 -144t-159 -97.5t-219.5 -35.5q-77 0 -125 6t-107 27q-131 46 -207 159.5t-76 262.5q0 119 49.5 211.5t153.5 169.5
q-133 133 -133 303zM578 651q-98 0 -169 -61.5t-71 -149.5t63.5 -149.5t171.5 -61.5q106 0 171 55.5t65 149.5t-68 155.5t-163 61.5zM565 1239q-70 0 -113.5 -46t-43.5 -116q0 -71 46 -119.5t117 -48.5q73 0 117.5 47.5t44.5 120.5q0 72 -47 117t-121 45z" />
    <glyph glyph-name="nine" unicode="9" horiz-adv-x="1146" 
d="M932 702l-379 -739l-238 119l256 500q-194 5 -321 137t-127 330q0 131 64 236.5t168.5 162.5t226.5 57q194 0 329.5 -134t135.5 -333q0 -71 -28.5 -147.5t-86.5 -188.5zM588 846q81 0 132.5 57t51.5 141q0 87 -56 145t-130 58q-77 0 -133 -58.5t-56 -144.5
q0 -82 52.5 -140t138.5 -58z" />
    <glyph glyph-name="colon" unicode=":" horiz-adv-x="573" 
d="M287 285q64 0 109.5 -45.5t45.5 -110.5t-45 -111.5t-110 -46.5t-111.5 46.5t-46.5 111.5t46.5 110.5t111.5 45.5zM287 1116q64 0 109.5 -46.5t45.5 -111.5q0 -64 -45 -109.5t-110 -45.5t-111.5 45t-46.5 110t46 111.5t112 46.5z" />
    <glyph glyph-name="semicolon" unicode=";" horiz-adv-x="573" 
d="M80 -178l190 457l191 -101l-244 -422zM287 1116q65 0 111 -46t46 -112q0 -65 -46 -110t-111 -45t-110.5 45.5t-45.5 109.5q0 65 45.5 111.5t110.5 46.5z" />
    <glyph glyph-name="less" unicode="&#x3c;" 
d="M401 735l713 -368v-250l-999 508v221l999 508v-248z" />
    <glyph glyph-name="equal" unicode="=" 
d="M115 825v250h999v-250h-999zM115 397v250h999v-250h-999z" />
    <glyph glyph-name="greater" unicode="&#x3e;" 
d="M827 735l-712 371v248l999 -508v-221l-999 -508v250z" />
    <glyph glyph-name="question" unicode="?" horiz-adv-x="1146" 
d="M412 430v29q0 90 15 161.5t45 126.5t63.5 94t82.5 83q10 9 44.5 39t44.5 40.5t29.5 34t25.5 44.5t6 46q0 72 -56 115t-137 43q-96 0 -155 -52t-60 -142h-262q-1 198 134.5 321t349.5 123q108 0 196.5 -34t145.5 -91.5t87.5 -130.5t30.5 -154q0 -78 -36.5 -158t-98.5 -137
q-17 -15 -46.5 -41t-42 -37t-34 -32.5t-30.5 -34.5t-23 -35t-20 -42t-13.5 -48t-10.5 -59.5t-5 -71.5h-270zM551 315q72 0 124 -50t52 -122t-52 -122t-124 -50q-70 0 -120 51.5t-50 122.5t49.5 120.5t120.5 49.5z" />
    <glyph glyph-name="at" unicode="@" horiz-adv-x="1515" 
d="M1217 1135l-101 -582q-10 -58 -10 -70q0 -13 12.5 -21.5t26.5 -8.5q24 0 60 24.5t74 69.5t64.5 123t26.5 170q0 251 -159.5 401t-415.5 150q-187 0 -333.5 -83t-226 -226.5t-79.5 -321.5q0 -184 84 -329.5t234 -226.5t339 -81q118 0 215.5 43t200.5 135h190
q-66 -82 -126.5 -138.5t-135.5 -102t-166 -67.5t-200 -22q-158 0 -302.5 61t-250 164.5t-168 250t-62.5 309.5q0 162 61 308t164.5 250.5t246.5 166t300 61.5q154 0 291 -52.5t231.5 -140t149.5 -205t55 -245.5q0 -198 -98.5 -343.5t-280.5 -217.5q-82 -33 -135 -33
q-118 0 -121 107q-87 -97 -215 -97q-140 0 -234.5 102t-94.5 267q0 132 54.5 241t152 172.5t217.5 63.5q156 0 247 -131l21 105h197zM739 526q85 0 143 69.5t58 162.5q0 76 -45.5 127t-120.5 51q-82 0 -141.5 -69t-59.5 -165q0 -75 45.5 -125.5t120.5 -50.5z" />
    <glyph glyph-name="A" unicode="A" horiz-adv-x="1515" 
d="M49 0l567 1470h283l567 -1470h-290l-115 303h-600l-121 -303h-291zM954 578l-194 503l-195 -503h389z" />
    <glyph glyph-name="B" unicode="B" horiz-adv-x="1187" 
d="M606 0h-438v1470h268q252 0 371 -71q83 -49 129.5 -130.5t46.5 -176.5q0 -163 -154 -283q130 -62 194 -154.5t64 -224.5q0 -183 -126 -303q-71 -70 -154.5 -98.5t-200.5 -28.5zM520 1204h-71v-309h61q97 0 148 41.5t51 118.5q0 71 -48 110t-141 39zM518 645h-69v-379h94
q136 0 203 41t67 133q0 98 -74.5 151.5t-220.5 53.5z" />
    <glyph glyph-name="C" unicode="C" horiz-adv-x="1597" 
d="M1323 444l190 -198q-153 -150 -296.5 -216.5t-342.5 -66.5q-170 0 -315.5 57.5t-247 159t-158.5 245.5t-57 312q0 170 63 315.5t170 244.5t249.5 154.5t300.5 55.5q183 0 351.5 -77t289.5 -218l-197 -188q-203 215 -451 215q-137 0 -251.5 -64.5t-182 -180t-67.5 -257.5
q0 -225 143.5 -365.5t364.5 -140.5q131 0 232.5 51.5t211.5 161.5z" />
    <glyph glyph-name="D" unicode="D" horiz-adv-x="1433" 
d="M170 0v1470h354q212 0 349.5 -38t250.5 -148q101 -98 157 -246t56 -321q0 -187 -66 -339t-186 -245q-61 -47 -124 -75.5t-141 -40.5t-134 -14.5t-158 -2.5h-358zM565 1196h-114v-922h147q125 0 206 24t142 89q109 119 109 336q0 230 -125.5 351.5t-364.5 121.5z" />
    <glyph glyph-name="E" unicode="E" horiz-adv-x="1064" 
d="M170 0v1470h803v-274h-522v-262h522v-275h-522v-385h522v-274h-803z" />
    <glyph glyph-name="F" unicode="F" horiz-adv-x="983" 
d="M174 0v1470h729v-274h-457v-262h457v-275h-457v-659h-272z" />
    <glyph glyph-name="G" unicode="G" horiz-adv-x="1720" 
d="M889 748h741q0 -166 -36.5 -291.5t-139.5 -247.5q-209 -246 -555 -246q-179 0 -330 63t-252.5 170t-158 248.5t-56.5 298.5q0 154 58.5 293.5t161 243t251 164.5t318.5 61q209 0 359.5 -69t275.5 -205l-197 -195q-192 201 -436 201q-108 0 -203.5 -39.5t-161.5 -107
t-104.5 -159t-38.5 -192.5q0 -140 69.5 -257t190.5 -184t266 -67q146 0 245 61t159 189h-426v267z" />
    <glyph glyph-name="H" unicode="H" horiz-adv-x="1392" 
d="M170 0v1470h281v-552h495v552h281v-1470h-281v643h-495v-643h-281z" />
    <glyph glyph-name="I" unicode="I" horiz-adv-x="573" 
d="M147 0v1470h281v-1470h-281z" />
    <glyph glyph-name="J" unicode="J" horiz-adv-x="983" 
d="M535 397v1073h280v-1026q0 -122 -16 -203.5t-62 -144.5q-97 -133 -286 -133q-243 0 -414 213l201 189q59 -64 105.5 -95.5t100.5 -31.5q91 0 91 159z" />
    <glyph glyph-name="K" unicode="K" horiz-adv-x="1269" 
d="M172 0v1470h281v-505l399 505h338l-516 -655l565 -815h-332l-454 653v-653h-281z" />
    <glyph glyph-name="L" unicode="L" horiz-adv-x="901" 
d="M168 0v1470h281v-1204h407v-266h-688z" />
    <glyph glyph-name="M" unicode="M" horiz-adv-x="1843" 
d="M55 0l254 1470h275l340 -1026l344 1026h270l248 -1470h-270l-158 930l-314 -930h-245l-310 930l-161 -930h-273z" />
    <glyph glyph-name="N" unicode="N" horiz-adv-x="1515" 
d="M168 0v1470h268l631 -966v966h281v-1470h-271l-628 965v-965h-281z" />
    <glyph glyph-name="O" unicode="O" horiz-adv-x="1720" 
d="M862 1507q151 0 290.5 -59t244 -160t167 -247t62.5 -310q0 -159 -60 -301.5t-161.5 -244t-242 -161t-296.5 -59.5q-160 0 -303.5 61t-245.5 164.5t-161.5 246t-59.5 300.5q0 160 61.5 303.5t164.5 245.5t244 161.5t296 59.5zM860 1239q-98 0 -186.5 -37t-153.5 -103
t-103 -161.5t-38 -206.5q0 -109 39.5 -203.5t105.5 -158.5t154.5 -100t185.5 -36q200 0 339.5 145t139.5 355q0 135 -61.5 250.5t-173 185.5t-248.5 70z" />
    <glyph glyph-name="P" unicode="P" horiz-adv-x="1146" 
d="M166 0v1470h342q150 0 250 -26.5t166 -91.5q55 -53 86.5 -134.5t31.5 -173.5q0 -233 -186 -348q-45 -27 -90.5 -43t-108 -22t-95.5 -7t-116 -1v-623h-280zM446 1196v-301h132q190 0 190 149q0 74 -52 113t-151 39h-119z" />
    <glyph glyph-name="Q" unicode="Q" horiz-adv-x="1720" 
d="M1354 -115l-129 166q-155 -86 -361 -86q-160 0 -302.5 60.5t-244.5 164t-161.5 246t-59.5 301.5q0 213 104.5 391t280 278.5t381.5 100.5q152 0 291.5 -59t244 -160t166.5 -247t62 -310q0 -298 -194 -516l256 -330h-334zM1124 612l131 -170q88 133 88 291
q0 135 -61.5 251t-172.5 185.5t-247 69.5q-203 0 -343 -142.5t-140 -365.5q0 -110 39.5 -204.5t106 -158t155 -99.5t184.5 -36q100 0 189 39l-265 340h336z" />
    <glyph glyph-name="R" unicode="R" horiz-adv-x="1187" 
d="M186 0v1470h342q151 0 249 -25t167 -93q56 -55 87.5 -135t31.5 -173q0 -288 -283 -391l348 -653h-305l-329 623h-27v-623h-281zM467 1196v-301h129q192 0 192 152q0 73 -50.5 111t-149.5 38h-121z" />
    <glyph glyph-name="S" unicode="S" horiz-adv-x="1064" 
d="M41 283l235 141q103 -193 244 -193q70 0 120 40.5t50 97.5q0 40 -25 83t-69 80q-224 188 -288 249q-143 138 -180 249q-17 52 -17 107q0 156 118 263t285 107q129 0 228 -60.5t198 -174.5l-209 -185q-109 152 -221 152q-55 0 -90 -29t-35 -73q0 -27 14.5 -52.5
t28.5 -39.5t43 -39q52 -46 130 -110.5t121.5 -101t96.5 -90t80.5 -97t46.5 -102.5t19 -124q0 -185 -126 -301.5t-325 -116.5q-160 0 -275.5 79t-197.5 241z" />
    <glyph glyph-name="T" unicode="T" horiz-adv-x="860" 
d="M23 1196v274h813v-274h-271v-1196h-280v1196h-262z" />
    <glyph glyph-name="U" unicode="U" horiz-adv-x="1310" 
d="M158 551v919h280v-995q0 -119 55.5 -180.5t157.5 -61.5q60 0 110.5 24t76.5 65q34 52 34 192v956h281v-935q0 -144 -21.5 -235t-97.5 -179q-135 -156 -377 -156q-231 0 -364 139q-83 86 -109 186t-26 261z" />
    <glyph glyph-name="V" unicode="V" horiz-adv-x="1433" 
d="M578 0l-523 1470h289l369 -1044l377 1044h286l-530 -1470h-268z" />
    <glyph glyph-name="W" unicode="W" horiz-adv-x="1843" 
d="M389 0l-334 1470h277l211 -938l264 938h233l267 -938l209 938h276l-332 -1470h-268l-272 950l-265 -950h-266z" />
    <glyph glyph-name="X" unicode="X" horiz-adv-x="1392" 
d="M539 760l-467 710h315l309 -471l310 471h315l-467 -710l496 -760h-316l-338 518l-338 -518h-317z" />
    <glyph glyph-name="Y" unicode="Y" horiz-adv-x="1269" 
d="M498 637l-435 833h302l274 -526l270 526h299l-430 -833v-637h-280v637z" />
    <glyph glyph-name="Z" unicode="Z" horiz-adv-x="1024" 
d="M90 1196v274h889l-524 -1204h491v-266h-899l522 1196h-479z" />
    <glyph glyph-name="bracketleft" unicode="[" horiz-adv-x="655" 
d="M170 -395v1902h436v-250h-164v-1402h164v-250h-436z" />
    <glyph glyph-name="backslash" unicode="\" horiz-adv-x="1310" 
d="M420 1513l661 -1775h-192l-662 1775h193z" />
    <glyph glyph-name="bracketright" unicode="]" horiz-adv-x="655" 
d="M485 1507v-1902h-436v250h164v1402h-164v250h436z" />
    <glyph glyph-name="asciicircum" unicode="^" 
d="M109 367l387 1103h233l389 -1103h-241l-263 747l-262 -747h-243z" />
    <glyph glyph-name="underscore" unicode="_" horiz-adv-x="1024" 
d="M-12 -256v102h1048v-102h-1048z" />
    <glyph glyph-name="grave" unicode="`" horiz-adv-x="860" 
d="M59 1679h324l238 -391h-195z" />
    <glyph glyph-name="a" unicode="a" horiz-adv-x="1351" 
d="M942 0v115q-147 -144 -336 -144q-103 0 -197.5 43t-165 117.5t-113 182t-42.5 229.5q0 166 69 298t185.5 203.5t257.5 71.5q195 0 342 -147v118h272v-1087h-272zM655 866q-132 0 -212.5 -92t-80.5 -229q0 -140 83 -232t210 -92q129 0 214 90t85 236q0 141 -84.5 230
t-214.5 89z" />
    <glyph glyph-name="b" unicode="b" horiz-adv-x="1351" 
d="M410 115v-115h-273v1507h273v-538q147 147 342 147q140 0 257 -71.5t187 -203.5t70 -298q0 -122 -42.5 -229.5t-114 -182t-166.5 -117.5t-198 -43q-100 0 -179.5 35.5t-155.5 108.5zM696 866q-131 0 -215 -88.5t-84 -230.5q0 -145 85.5 -235.5t213.5 -90.5q127 0 211 92
t84 232q0 137 -81.5 229t-213.5 92z" />
    <glyph glyph-name="c" unicode="c" horiz-adv-x="1310" 
d="M975 346l215 -147q-176 -228 -494 -228q-136 0 -251.5 44.5t-193.5 121.5t-121.5 181.5t-43.5 222.5q0 121 45.5 227t126 183t195 121t247.5 44q160 0 290 -64t212 -184l-227 -125q-61 64 -124 93.5t-149 29.5q-154 0 -248 -93t-94 -236q0 -140 90.5 -228t239.5 -88
q184 0 285 125z" />
    <glyph glyph-name="d" unicode="d" horiz-adv-x="1351" 
d="M942 0v115q-147 -144 -336 -144q-103 0 -197.5 43t-165 117.5t-113 182t-42.5 229.5q0 166 69 298t185.5 203.5t257.5 71.5q195 0 342 -147v538h272v-1507h-272zM655 866q-132 0 -212.5 -92t-80.5 -229q0 -140 83 -232t210 -92q129 0 214 90t85 236q0 141 -84.5 230
t-214.5 89z" />
    <glyph glyph-name="e" unicode="e" horiz-adv-x="1310" 
d="M928 319l229 -108q-88 -125 -208 -182.5t-292 -57.5q-127 0 -234.5 45t-180.5 122.5t-113.5 182.5t-40.5 224q0 150 67 279t198 210.5t300 81.5q257 0 417.5 -165.5t160.5 -424.5q0 -12 -1 -30t-1 -31h-877q20 -119 103 -185.5t202 -66.5q87 0 150 25t121 81zM365 680
h591q-28 95 -109 150t-190 55q-103 0 -178 -52t-114 -153z" />
    <glyph glyph-name="f" unicode="f" horiz-adv-x="573" 
d="M14 856v231h99q0 37 0.5 72t0.5 68.5t3 64.5t7.5 58.5t14 52.5t22.5 45.5t33 36.5t45.5 27.5t60.5 17.5t77 6q82 0 192 -39v-209q-64 19 -98 19q-18 0 -31 -2t-22.5 -7.5t-15.5 -11t-10 -17.5t-5.5 -22.5t-2 -30t0 -35.5t0.5 -43.5v-50.5h172v-231h-172v-856h-272v856
h-99z" />
    <glyph glyph-name="g" unicode="g" horiz-adv-x="1351" 
d="M1214 1087v-931q0 -164 -37 -273t-128 -186q-145 -121 -396 -121q-451 0 -563 344h301q78 -94 252 -94q153 0 231 72q24 22 38.5 47t20.5 58t7.5 59t1.5 73q-70 -68 -148.5 -101.5t-181.5 -33.5q-222 0 -372 158.5t-150 400.5q0 123 40.5 228.5t110 176.5t162 111.5
t195.5 40.5q188 0 344 -147v118h272zM659 866q-132 0 -213 -89.5t-81 -219.5q0 -134 85.5 -220.5t213.5 -86.5q127 0 209.5 84t82.5 221q0 134 -82 222.5t-215 88.5z" />
    <glyph glyph-name="h" unicode="h" 
d="M139 0v1507h273v-530q161 139 321 139q162 0 267.5 -103.5t105.5 -293.5v-719h-272v514q0 72 -4 122.5t-15.5 96.5t-32.5 73.5t-54.5 43.5t-80.5 16q-117 0 -184 -106q-24 -38 -36 -87.5t-13.5 -84.5t-1.5 -103v-7.5v-7v-7.5v-463h-273z" />
    <glyph glyph-name="i" unicode="i" horiz-adv-x="491" 
d="M111 0v1087h272v-1087h-272zM246 1536q73 0 123.5 -53t50.5 -127q0 -72 -51 -123t-123 -51q-74 0 -124 56t-50 132q0 70 51.5 118t122.5 48z" />
    <glyph glyph-name="j" unicode="j" horiz-adv-x="532" 
d="M131 -55v1142h272v-1153q0 -360 -286 -360q-76 0 -205 41v215q64 -31 113 -31q58 0 82 35.5t24 110.5zM264 1536q73 0 124.5 -53t51.5 -127q0 -72 -51 -123t-123 -51q-74 0 -124 56t-50 132q0 70 50.5 118t121.5 48z" />
    <glyph glyph-name="k" unicode="k" horiz-adv-x="1187" 
d="M139 0v1507h273v-868l403 448h340l-467 -522l524 -565h-338l-462 502v-502h-273z" />
    <glyph glyph-name="l" unicode="l" horiz-adv-x="491" 
d="M111 0v1507h272v-1507h-272z" />
    <glyph glyph-name="m" unicode="m" horiz-adv-x="1925" 
d="M1108 537v-537h-272v526q0 170 -42.5 255t-150.5 85q-105 0 -169 -86t-64 -248v-532h-273v1087h273v-124q141 153 340 153q103 0 185 -49t132 -145q79 100 163 147t202 47q90 0 167 -34t123 -93q49 -62 64.5 -144t15.5 -208v-637h-272v600q0 266 -187 266
q-107 0 -171 -83.5t-64 -245.5z" />
    <glyph glyph-name="n" unicode="n" 
d="M410 1087v-110q83 70 158.5 104.5t162.5 34.5q158 0 265.5 -101.5t107.5 -271.5v-743h-273v514q0 72 -3 120t-14 96t-30.5 75t-53.5 44t-83 17q-118 0 -184 -104q-26 -41 -38 -96t-13.5 -90t-1.5 -113v-463h-273v1087h273z" />
    <glyph glyph-name="o" unicode="o" horiz-adv-x="1310" 
d="M649 1116q157 0 289.5 -75t210.5 -206.5t78 -289.5q0 -156 -74 -287.5t-207 -209t-295 -77.5q-155 0 -285 76t-205 207.5t-75 288.5q0 121 46.5 228.5t123.5 182.5t180 118.5t213 43.5zM653 858q-127 0 -210 -89t-83 -224q0 -139 81 -227.5t212 -88.5q128 0 213.5 87
t85.5 227q0 139 -83 227t-216 88z" />
    <glyph glyph-name="p" unicode="p" horiz-adv-x="1351" 
d="M410 1087v-118q147 147 342 147q140 0 257 -71.5t187 -203.5t70 -298q0 -122 -42.5 -229.5t-114 -182t-166.5 -117.5t-198 -43q-100 0 -179.5 35.5t-155.5 108.5v-512h-273v1484h273zM696 866q-131 0 -215 -88.5t-84 -230.5q0 -145 85.5 -235.5t213.5 -90.5q127 0 211 92
t84 232q0 137 -81.5 229t-213.5 92z" />
    <glyph glyph-name="q" unicode="q" horiz-adv-x="1351" 
d="M1214 1087v-1484h-272v512q-147 -144 -336 -144q-103 0 -197.5 43t-165 117.5t-113 182t-42.5 229.5q0 166 69 298t185.5 203.5t257.5 71.5q195 0 342 -147v118h272zM655 866q-132 0 -212.5 -92t-80.5 -229q0 -140 83 -232t210 -92q129 0 214 90t85 236q0 141 -84.5 230
t-214.5 89z" />
    <glyph glyph-name="r" unicode="r" horiz-adv-x="655" 
d="M309 1087v-137q37 82 98.5 124t131.5 42q53 0 118 -29l-84 -233q-46 23 -79 23q-60 0 -101 -66.5t-45 -183.5q-2 -59 -2 -187v-440h-272v1087h235z" />
    <glyph glyph-name="s" unicode="s" horiz-adv-x="901" 
d="M446 424l-92 47q-262 133 -262 332q0 130 99 221.5t253 91.5q107 0 200 -46.5t159 -133.5l-168 -170q-100 100 -189 100q-43 0 -70.5 -17t-27.5 -48q0 -26 20 -43t68 -42q7 -3 10 -5l101 -52q142 -73 209 -152.5t67 -195.5q0 -148 -107.5 -244t-283.5 -96
q-238 0 -381 187l168 184q48 -56 110.5 -91.5t116.5 -35.5q51 0 86 25.5t35 62.5q0 33 -30 61.5t-91 59.5z" />
    <glyph glyph-name="t" unicode="t" horiz-adv-x="614" 
d="M170 1087v402h272v-402h162v-233h-162v-854h-272v854h-139v233h139z" />
    <glyph glyph-name="u" unicode="u" 
d="M139 590v497h273v-567q0 -149 49 -223t155 -74t155.5 72t49.5 213v579h273v-501q0 -174 -24 -280.5t-103 -194.5q-124 -138 -351 -138q-197 0 -315.5 98.5t-150.5 288.5q-4 26 -6.5 47.5t-3.5 48t-1 38v48.5v48z" />
    <glyph glyph-name="v" unicode="v" horiz-adv-x="1146" 
d="M485 0l-465 1087h279l274 -641l275 641h276l-462 -1087h-177z" />
    <glyph glyph-name="w" unicode="w" horiz-adv-x="1638" 
d="M410 0l-394 1087h269l217 -618l235 618h164l232 -610l219 610h268l-395 -1087h-174l-232 621l-239 -621h-170z" />
    <glyph glyph-name="x" unicode="x" horiz-adv-x="1146" 
d="M414 573l-373 514h317l213 -296l215 296h316l-373 -514l418 -573h-316l-260 356l-256 -356h-313z" />
    <glyph glyph-name="y" unicode="y" horiz-adv-x="1187" 
d="M432 82l-414 1005h279l283 -681l313 681h281l-685 -1484h-280z" />
    <glyph glyph-name="z" unicode="z" horiz-adv-x="942" 
d="M92 856v231h834l-490 -856h463v-231h-883l492 856h-416z" />
    <glyph glyph-name="braceleft" unicode="{" horiz-adv-x="696" 
d="M698 -451h-53q-101 0 -166.5 11t-120.5 49q-117 76 -120 244q-1 34 -2 97q-1 95 -2.5 137.5t-8.5 104.5t-20.5 87.5t-38 55.5t-61.5 40.5t-91 13.5v242q64 3 106 25t64.5 45t34 93t13.5 112t4 160q1 65 2 101q3 168 120 244q55 36 121.5 47.5t165.5 11.5h53v-239h-12
q-139 0 -166.5 -35.5t-29.5 -192.5q-1 -8 -1 -12.5v-12v-13.5q-1 -81 -5 -132t-14.5 -103t-30.5 -87t-52 -68.5t-80 -64.5q104 -61 144 -165.5t38 -291.5q-1 -66 0.5 -102.5t9 -70.5t18.5 -48.5t35.5 -26t54 -14t79.5 -2.5h12v-240z" />
    <glyph glyph-name="bar" unicode="|" 
d="M535 -397v1904h157v-1904h-157z" />
    <glyph glyph-name="braceright" unicode="}" horiz-adv-x="696" 
d="M0 1470h53q204 0 304.5 -70.5t103.5 -232.5q1 -35 2 -100q1 -71 2 -104t4 -86t9 -76t16.5 -57.5t26 -49t38.5 -31.5t54 -23.5t71 -8.5v-242q-64 -3 -105.5 -24.5t-64.5 -44t-34 -92t-13 -111.5t-4 -159q-1 -68 -2 -105q-3 -165 -121 -244q-55 -38 -120.5 -49t-166.5 -11
h-53v240h12q139 0 166.5 35.5t29.5 190.5q1 25 1 38q1 81 5 132.5t14.5 103.5t30.5 87.5t52 69t80 64.5q-105 60 -144.5 163.5t-37.5 291.5q1 66 -0.5 101.5t-8.5 70.5t-18 49.5t-35 26.5t-54.5 15t-80.5 3h-12v239z" />
    <glyph glyph-name="asciitilde" unicode="~" 
d="M338 676q-60 0 -114.5 -27.5t-123.5 -83.5v318q146 73 252 73q74 0 154.5 -25t137.5 -55.5t120.5 -55.5t107.5 -25q117 0 258 112v-321q-128 -72 -247 -72q-74 0 -158 25.5t-144.5 55.5t-128 55.5t-114.5 25.5z" />
    <glyph glyph-name="uni00A0" unicode="&#xa0;" horiz-adv-x="573" 
 />
    <glyph glyph-name="exclamdown" unicode="&#xa1;" horiz-adv-x="573" 
d="M424 678v-1075h-272v1075h272zM287 1139q71 0 120.5 -50.5t49.5 -121.5t-49.5 -121.5t-120.5 -50.5t-121.5 50.5t-50.5 121.5t50.5 121.5t121.5 50.5z" />
    <glyph glyph-name="cent" unicode="&#xa2;" horiz-adv-x="1146" 
d="M725 1108l96 219l156 -67l-94 -211q108 -68 168 -164l-224 -131q-18 26 -51 59l-254 -577q57 -21 101 -21q71 0 124.5 22.5t102.5 73.5l174 -168q-86 -89 -186 -130.5t-228 -41.5q-92 0 -190 29l-113 -244l-151 68l118 264q-192 189 -192 459q0 125 42 232t114.5 180.5
t171.5 115t211 41.5q57 0 104 -8zM393 356l225 514q-128 -7 -195 -94.5t-67 -243.5q0 -92 37 -176z" />
    <glyph glyph-name="sterling" unicode="&#xa3;" horiz-adv-x="1146" 
d="M293 649h-238v250h154q-47 96 -47 201q0 191 120 299t308 108q185 0 303 -112t119 -299h-281q-31 153 -145 153q-61 0 -101.5 -43t-40.5 -112q0 -15 2.5 -31t9.5 -37.5t12 -36t16.5 -44.5t17.5 -46h340v-250h-267q13 -71 13 -110q0 -113 -68 -285q34 -4 76 -10.5
t70 -10.5t45 -4q46 0 79.5 29.5t45.5 77.5h260q-6 -157 -119 -266t-270 -109q-42 0 -165 19.5t-202 19.5q-99 0 -197 -35l-94 240q87 33 160 43q48 83 72 150.5t24 154.5q0 21 -12 96z" />
    <glyph glyph-name="currency" unicode="&#xa4;" horiz-adv-x="1261" 
d="M1128 358q-39 -41 -120 -122q-24 23 -71 69.5t-71 69.5q-103 -72 -235 -72q-133 0 -236 72q-94 -94 -141 -139q-21 21 -61 61.5t-60 60.5q24 23 71 68.5t70 67.5q-71 113 -71 231q0 125 71 231q-23 23 -70 68.5t-71 69.5q20 21 60 62t61 61q23 -23 141 -140
q109 72 236 72q133 0 235 -72q95 95 142 140q62 -61 120 -123q-23 -24 -70 -69.5t-71 -68.5q72 -105 72 -231q0 -118 -72 -231q24 -22 71 -68t70 -68zM887 727q0 107 -77.5 178.5t-176.5 71.5q-108 0 -182 -73t-74 -177q0 -103 75 -178.5t179 -75.5q106 0 181 75t75 179z
" />
    <glyph glyph-name="yen" unicode="&#xa5;" horiz-adv-x="1146" 
d="M356 780l-309 690h291l235 -522l236 522h291l-312 -690h265v-164h-340v-131h340v-163h-340v-322h-281v322h-340v163h340v131h-340v164h264z" />
    <glyph glyph-name="brokenbar" unicode="&#xa6;" 
d="M694 -397h-157v635h157v-635zM694 872h-157v635h157v-635z" />
    <glyph glyph-name="section" unicode="&#xa7;" horiz-adv-x="1146" 
d="M170 1192q0 146 112 245t285 99q171 0 289 -109.5t129 -273.5h-266q-30 133 -160 133q-52 0 -83.5 -23t-31.5 -59q0 -42 36.5 -78t133.5 -102l193 -131q114 -77 170.5 -158.5t56.5 -195.5q0 -105 -56 -186t-159 -122q87 -73 128.5 -148t41.5 -171q0 -149 -109.5 -243.5
t-295.5 -94.5q-179 0 -285 96.5t-131 280.5h258q26 -64 64 -95.5t96 -31.5q59 0 94 29.5t35 70.5q0 32 -28.5 62.5t-82.5 68.5l-274 193q-55 38 -92 70.5t-69 75t-47.5 94t-15.5 114.5q0 113 55.5 197t143.5 116q-135 111 -135 277zM625 684l-162 113q-60 -27 -90.5 -68
t-30.5 -86q0 -30 12 -56t40.5 -52.5t48.5 -41.5t63 -44l153 -107q32 15 48 24.5t39.5 28t34 43t10.5 56.5q0 49 -39 89t-127 101z" />
    <glyph glyph-name="dieresis" unicode="&#xa8;" horiz-adv-x="1024" 
d="M291 1573q60 0 100.5 -41.5t40.5 -101.5t-40.5 -102t-100.5 -42t-100.5 42t-40.5 102t40.5 101.5t100.5 41.5zM733 1573q60 0 100.5 -41.5t40.5 -101.5t-41 -102t-100 -42q-60 0 -100.5 42t-40.5 102t40.5 101.5t100.5 41.5z" />
    <glyph glyph-name="copyright" unicode="&#xa9;" horiz-adv-x="1515" 
d="M1143 924h-170q-35 149 -199 149q-97 0 -167 -78.5t-70 -214.5q0 -130 72.5 -217.5t178.5 -87.5q68 0 122 42.5t63 115.5h170q-17 -133 -115 -213t-237 -80q-191 0 -304.5 126t-113.5 308q0 198 116.5 316t286.5 118q150 0 243 -72t124 -212zM1501 768q0 -152 -59 -289.5
t-158.5 -236t-237 -157t-288.5 -58.5q-201 0 -372 98.5t-271.5 269.5t-100.5 373q0 201 99.5 371t270.5 269t374 99q152 0 289.5 -58.5t237 -157.5t158 -236t58.5 -287zM1348 766q0 161 -78.5 297t-214.5 214.5t-297 78.5q-160 0 -295.5 -77.5t-215 -213.5t-79.5 -299
q0 -156 78 -289.5t214 -213t298 -79.5q159 0 294.5 77.5t215.5 212t80 292.5z" />
    <glyph glyph-name="ordfeminine" unicode="&#xaa;" horiz-adv-x="737" 
d="M459 1434v57h200v-680h-200v55q-67 -73 -154 -73q-105 0 -181.5 100.5t-76.5 255.5q0 157 75 257.5t181 100.5q89 0 156 -73zM356 1325q-49 0 -78.5 -48.5t-29.5 -125.5q0 -78 31 -127t77 -49t78.5 48t32.5 130q0 79 -32 125.5t-79 46.5z" />
    <glyph glyph-name="guillemotleft" unicode="&#xab;" horiz-adv-x="942" 
d="M25 541l184 546h254l-184 -546l184 -541h-254zM477 541l185 546h253l-184 -546l184 -541h-253z" />
    <glyph glyph-name="logicalnot" unicode="&#xac;" 
d="M115 825v250h1001v-678h-252v428h-749z" />
    <glyph glyph-name="uni00AD" unicode="&#xad;" horiz-adv-x="860" 
d="M176 418v250h508v-250h-508z" />
    <glyph glyph-name="registered" unicode="&#xae;" horiz-adv-x="1515" 
d="M449 358v813h360q50 0 75.5 -1.5t62 -12.5t65.5 -33q84 -66 84 -192q0 -39 -8 -69t-24.5 -51.5t-29.5 -33.5t-35 -28q23 -12 37.5 -24.5t27.5 -42t15 -71.5q1 -29 2.5 -66t2.5 -53.5t2.5 -38t3.5 -30.5t4.5 -21t7.5 -18t11 -13t15 -14h-202q-15 41 -20 92t-4.5 87.5
t-5 69.5t-28 50t-67.5 17h-172v-316h-180zM778 1016h-149v-193h149q28 0 41.5 0.5t36.5 5.5t34 14.5t20.5 29t9.5 47.5t-9 47t-20 28.5t-33.5 14.5t-37 5.5t-42.5 0.5zM1501 766q0 -152 -59 -289.5t-159 -236t-237 -156t-288 -57.5q-202 0 -373 98t-271 268.5t-100 372.5
q0 151 59 288.5t158.5 236.5t237 157.5t289.5 58.5t289.5 -58.5t237 -157.5t158 -236.5t58.5 -288.5zM1348 764q0 162 -79 298.5t-214.5 215t-296.5 78.5q-159 0 -294.5 -77.5t-215.5 -214t-80 -300.5q0 -156 78 -289t214 -212t298 -79q159 0 294.5 77t215.5 211t80 292z
" />
    <glyph glyph-name="macron" unicode="&#xaf;" horiz-adv-x="860" 
d="M715 1288h-570v219h570v-219z" />
    <glyph glyph-name="degree" unicode="&#xb0;" horiz-adv-x="819" 
d="M756 1165q0 -149 -102 -247.5t-242 -98.5q-144 0 -245 101t-101 235q0 106 50 188t128 123t168 41q141 0 242.5 -97.5t101.5 -244.5zM637 1161q0 99 -64.5 166.5t-162.5 67.5q-92 0 -159 -67t-67 -169q0 -88 68 -157.5t154 -69.5q101 0 166 68t65 161z" />
    <glyph glyph-name="plusminus" unicode="&#xb1;" 
d="M115 1079h374v375h252v-375h373v-250h-373v-374h-252v374h-374v250zM115 0v250h999v-250h-999z" />
    <glyph glyph-name="two.superior" unicode="&#xb2;" horiz-adv-x="688" 
d="M18 821l273 232q80 69 119 118t39 97q0 37 -30 59.5t-77 22.5q-53 0 -83.5 -31t-31.5 -92h-186q6 135 90.5 207.5t220.5 72.5q129 0 207 -69.5t78 -161.5q0 -78 -52 -155t-157 -169l-70 -61h285v-158h-625v88z" />
    <glyph glyph-name="three.superior" unicode="&#xb3;" horiz-adv-x="688" 
d="M424 1284q0 30 -23.5 51t-56.5 21q-62 0 -100 -74h-185q23 113 93 169t192 56q111 0 186.5 -59.5t75.5 -140.5q0 -45 -24.5 -84.5t-69.5 -65.5q68 -27 104.5 -78t36.5 -112q0 -102 -89.5 -176t-231.5 -74q-133 0 -216.5 69t-86.5 195h184q18 -113 127 -113q51 0 87 27
t36 70q0 94 -197 100v139q76 2 117 19.5t41 60.5z" />
    <glyph glyph-name="acute" unicode="&#xb4;" horiz-adv-x="860" 
d="M240 1288l239 391h322l-365 -391h-196z" />
    <glyph glyph-name="mu" unicode="&#xb5;" horiz-adv-x="1179" 
d="M811 0v127q-80 -156 -219 -156q-147 0 -230 148v-516h-272v1484h272v-571q0 -72 8.5 -120t37.5 -93q31 -46 81 -73t105 -27t100.5 27t75.5 75q26 45 33.5 94t7.5 125v563h281v-1087h-281z" />
    <glyph glyph-name="paragraph" unicode="&#xb6;" 
d="M692 -379h-139v1090q-186 1 -287.5 105t-101.5 288q0 210 117 309.5t356 99.5h420v-116h-82v-1776h-139v1776h-144v-1776z" />
    <glyph glyph-name="periodcentered" unicode="&#xb7;" horiz-adv-x="573" 
d="M287 893q64 0 109.5 -46.5t45.5 -111.5t-44.5 -110t-110.5 -45q-65 0 -111.5 45.5t-46.5 109.5q0 66 46.5 112t111.5 46z" />
    <glyph glyph-name="cedilla" unicode="&#xb8;" horiz-adv-x="696" 
d="M227 -104l35 120h170l-14 -47q67 -15 106 -57.5t39 -95.5q0 -81 -68.5 -139t-189.5 -58q-102 0 -221 45l37 131q74 -24 139 -24q47 0 74.5 18.5t27.5 52.5q0 56 -83 56q-32 0 -52 -2z" />
    <glyph glyph-name="one.superior" unicode="&#xb9;" horiz-adv-x="688" 
d="M82 1331l117 158h264v-756h-189v598h-192z" />
    <glyph glyph-name="ordmasculine" unicode="&#xba;" horiz-adv-x="737" 
d="M365 1507q135 0 231 -102.5t96 -253.5q0 -150 -93 -253t-232 -103q-134 0 -227 103t-93 253q0 152 94.5 254t223.5 102zM369 1325q-53 0 -87 -49t-34 -125q0 -79 34 -126.5t87 -47.5q52 0 87.5 48t35.5 126t-34 126t-89 48z" />
    <glyph glyph-name="guillemotright" unicode="&#xbb;" horiz-adv-x="942" 
d="M915 547l-182 -547h-256l187 547l-187 540h256zM463 547l-182 -547h-256l184 547l-184 540h256z" />
    <glyph glyph-name="onequarter" unicode="&#xbc;" horiz-adv-x="1720" 
d="M90 1331l117 158h264v-756h-188v598h-193zM633 -37h-172l626 1544h170zM1040 297l383 477h183v-485h77v-139h-77v-150h-170v150h-396v147zM1219 289h217v270z" />
    <glyph glyph-name="onehalf" unicode="&#xbd;" horiz-adv-x="1720" 
d="M90 1331l117 158h264v-756h-188v598h-193zM596 -37h-172l627 1544h172zM1042 88l273 231q80 68 119 118t39 98q0 36 -30.5 58.5t-76.5 22.5q-53 0 -83.5 -31t-31.5 -91h-186q6 136 90.5 208t220.5 72q129 0 207 -69t78 -162q0 -77 -52 -153t-157 -171l-70 -63h285v-156
h-625v88z" />
    <glyph glyph-name="threequarters" unicode="&#xbe;" horiz-adv-x="1720" 
d="M655 -37h-170l627 1544h170zM432 1284q0 30 -23.5 51t-56.5 21q-62 0 -100 -74h-184q23 114 92.5 169.5t191.5 55.5q111 0 186.5 -59.5t75.5 -140.5q0 -45 -24.5 -84.5t-69.5 -65.5q68 -27 105 -78t37 -112q0 -102 -90 -176t-232 -74q-133 0 -216.5 69t-86.5 195h184
q18 -113 127 -113q51 0 87 27t36 70q0 94 -197 100v139q76 2 117 19.5t41 60.5zM1042 297l381 477h183v-485h77v-139h-77v-150h-170v150h-394v147zM1219 289h217v270z" />
    <glyph glyph-name="questiondown" unicode="&#xbf;" horiz-adv-x="1146" 
d="M457 682h270q0 -6 1 -15.5t1 -15.5q0 -88 -14.5 -158.5t-45 -126t-64 -95t-83.5 -85.5q-12 -11 -38 -33.5t-37 -32.5t-29 -29.5t-25 -33.5t-13.5 -34t-6.5 -41q0 -72 54 -115t136 -43q96 0 156 52.5t61 141.5h260q1 -198 -133.5 -321t-349.5 -123q-108 0 -196.5 34
t-145 91.5t-87 130.5t-30.5 154q0 78 36 158t97 137q18 17 50.5 45.5t46 41t36.5 36.5t32 40t23 42t19.5 53t11 63.5t7.5 81.5zM588 795q-72 0 -124 50t-52 122t52 122t124 50q70 0 121 -51.5t51 -122.5q0 -70 -50.5 -120t-121.5 -50z" />
    <glyph glyph-name="Agrave" unicode="&#xc0;" horiz-adv-x="1515" 
d="M49 0l567 1470h283l567 -1470h-290l-115 303h-600l-121 -303h-291zM954 578l-194 503l-195 -503h389zM387 1972h324l237 -391h-194z" />
    <glyph glyph-name="Aacute" unicode="&#xc1;" horiz-adv-x="1515" 
d="M49 0l567 1470h283l567 -1470h-290l-115 303h-600l-121 -303h-291zM954 578l-194 503l-195 -503h389zM567 1581l240 391h321l-364 -391h-197z" />
    <glyph glyph-name="Acircumflex" unicode="&#xc2;" horiz-adv-x="1515" 
d="M49 0l567 1470h283l567 -1470h-290l-115 303h-600l-121 -303h-291zM954 578l-194 503l-195 -503h389zM651 1581h-301l301 283h219l297 -283h-297l-108 129z" />
    <glyph glyph-name="Atilde" unicode="&#xc3;" horiz-adv-x="1515" 
d="M49 0l567 1470h283l567 -1470h-290l-115 303h-600l-121 -303h-291zM954 578l-194 503l-195 -503h389zM629 1636q-86 0 -176 -53l-111 166q128 98 258 98q50 0 150 -27.5t147 -27.5q85 0 176 53l103 -157q-62 -53 -119 -80t-125 -27q-57 0 -154 27.5t-149 27.5z" />
    <glyph glyph-name="Adieresis" unicode="&#xc4;" horiz-adv-x="1515" 
d="M49 0l567 1470h283l567 -1470h-290l-115 303h-600l-121 -303h-291zM954 578l-194 503l-195 -503h389zM537 1866q60 0 100.5 -42t40.5 -102t-40.5 -101.5t-100.5 -41.5t-101 41.5t-41 101.5t41 102t101 42zM979 1866q60 0 100.5 -42t40.5 -102t-41 -101.5t-100 -41.5
q-60 0 -100.5 41.5t-40.5 101.5t40.5 102t100.5 42z" />
    <glyph glyph-name="Aring" unicode="&#xc5;" horiz-adv-x="1515" 
d="M49 0l567 1470h283l567 -1470h-290l-115 303h-600l-121 -303h-291zM954 578l-194 503l-195 -503h389zM758 2019q92 0 155.5 -64t63.5 -155q0 -92 -64 -155.5t-155 -63.5t-155 63.5t-64 155.5q0 91 63.5 155t155.5 64zM758 1886q-34 0 -60 -25t-26 -61q0 -37 25.5 -61.5
t60.5 -24.5t60.5 24.5t25.5 61.5q0 36 -26 61t-60 25z" />
    <glyph glyph-name="AE" unicode="&#xc6;" horiz-adv-x="1843" 
d="M57 0l717 1470h963v-274h-514v-266h514v-266h-514v-390h514v-274h-795v305h-448l-148 -305h-289zM625 580h317v643z" />
    <glyph glyph-name="Ccedilla" unicode="&#xc7;" horiz-adv-x="1597" 
d="M1323 444l190 -198q-153 -150 -296.5 -216.5t-342.5 -66.5q-170 0 -315.5 57.5t-247 159t-158.5 245.5t-57 312q0 170 63 315.5t170 244.5t249.5 154.5t300.5 55.5q183 0 351.5 -77t289.5 -218l-197 -188q-203 215 -451 215q-137 0 -251.5 -64.5t-182 -180t-67.5 -257.5
q0 -225 143.5 -365.5t364.5 -140.5q131 0 232.5 51.5t211.5 161.5zM678 -104l35 120h170l-15 -47q67 -15 106.5 -57.5t39.5 -95.5q0 -81 -68.5 -139t-189.5 -58q-102 0 -221 45l36 131q74 -24 140 -24q47 0 74.5 18.5t27.5 52.5q0 56 -84 56q-31 0 -51 -2z" />
    <glyph glyph-name="Egrave" unicode="&#xc8;" horiz-adv-x="1064" 
d="M170 0v1470h803v-274h-522v-262h522v-275h-522v-385h522v-274h-803zM203 1972h323l238 -391h-195z" />
    <glyph glyph-name="Eacute" unicode="&#xc9;" horiz-adv-x="1064" 
d="M170 0v1470h803v-274h-522v-262h522v-275h-522v-385h522v-274h-803zM383 1581l240 391h321l-364 -391h-197z" />
    <glyph glyph-name="Ecircumflex" unicode="&#xca;" horiz-adv-x="1064" 
d="M170 0v1470h803v-274h-522v-262h522v-275h-522v-385h522v-274h-803zM471 1581h-301l301 283h219l297 -283h-297l-108 129z" />
    <glyph glyph-name="Edieresis" unicode="&#xcb;" horiz-adv-x="1064" 
d="M170 0v1470h803v-274h-522v-262h522v-275h-522v-385h522v-274h-803zM352 1866q60 0 101 -42t41 -102t-41 -101.5t-101 -41.5t-100.5 41.5t-40.5 101.5t40.5 102t100.5 42zM795 1866q60 0 100.5 -42t40.5 -102t-41 -101.5t-100 -41.5q-60 0 -101 41.5t-41 101.5t41 102
t101 42z" />
    <glyph glyph-name="Igrave" unicode="&#xcc;" horiz-adv-x="573" 
d="M147 0v1470h281v-1470h-281zM-82 1972h324l237 -391h-194z" />
    <glyph glyph-name="Iacute" unicode="&#xcd;" horiz-adv-x="573" 
d="M147 0v1470h281v-1470h-281zM98 1581l240 391h321l-364 -391h-197z" />
    <glyph glyph-name="Icircumflex" unicode="&#xce;" horiz-adv-x="573" 
d="M147 0v1470h281v-1470h-281zM182 1581h-301l301 283h219l297 -283h-297l-108 129z" />
    <glyph glyph-name="Idieresis" unicode="&#xcf;" horiz-adv-x="573" 
d="M147 0v1470h281v-1470h-281zM68 1866q60 0 100.5 -42t40.5 -102t-40.5 -101.5t-100.5 -41.5t-101 41.5t-41 101.5t41 102t101 42zM510 1866q60 0 100.5 -42t40.5 -102t-41 -101.5t-100 -41.5q-60 0 -100.5 41.5t-40.5 101.5t40.5 102t100.5 42z" />
    <glyph glyph-name="Eth" unicode="&#xd0;" horiz-adv-x="1519" 
d="M219 817v653h377q212 0 349.5 -38t250.5 -148q100 -97 156.5 -246t56.5 -321q0 -187 -66 -339t-186 -245q-61 -47 -123.5 -75.5t-140.5 -40.5t-133.5 -14.5t-157.5 -2.5h-383v653h-170v164h170zM639 1196h-139v-379h299v-164h-299v-379h170q125 0 206 24t142 89
q108 114 108 336q0 231 -124 352t-363 121z" />
    <glyph glyph-name="Ntilde" unicode="&#xd1;" horiz-adv-x="1515" 
d="M168 0v1470h268l631 -966v966h281v-1470h-271l-628 965v-965h-281zM629 1636q-86 0 -176 -53l-111 166q128 98 258 98q50 0 150 -27.5t147 -27.5q85 0 176 53l103 -157q-62 -53 -119 -80t-125 -27q-57 0 -154 27.5t-149 27.5z" />
    <glyph glyph-name="Ograve" unicode="&#xd2;" horiz-adv-x="1720" 
d="M862 1507q151 0 290.5 -59t244 -160t167 -247t62.5 -310q0 -159 -60 -301.5t-161.5 -244t-242 -161t-296.5 -59.5q-160 0 -303.5 61t-245.5 164.5t-161.5 246t-59.5 300.5q0 160 61.5 303.5t164.5 245.5t244 161.5t296 59.5zM860 1239q-98 0 -186.5 -37t-153.5 -103
t-103 -161.5t-38 -206.5q0 -109 39.5 -203.5t105.5 -158.5t154.5 -100t185.5 -36q200 0 339.5 145t139.5 355q0 135 -61.5 250.5t-173 185.5t-248.5 70zM489 1972h324l238 -391h-195z" />
    <glyph glyph-name="Oacute" unicode="&#xd3;" horiz-adv-x="1720" 
d="M862 1507q151 0 290.5 -59t244 -160t167 -247t62.5 -310q0 -159 -60 -301.5t-161.5 -244t-242 -161t-296.5 -59.5q-160 0 -303.5 61t-245.5 164.5t-161.5 246t-59.5 300.5q0 160 61.5 303.5t164.5 245.5t244 161.5t296 59.5zM860 1239q-98 0 -186.5 -37t-153.5 -103
t-103 -161.5t-38 -206.5q0 -109 39.5 -203.5t105.5 -158.5t154.5 -100t185.5 -36q200 0 339.5 145t139.5 355q0 135 -61.5 250.5t-173 185.5t-248.5 70zM670 1581l239 391h322l-365 -391h-196z" />
    <glyph glyph-name="Ocircumflex" unicode="&#xd4;" horiz-adv-x="1720" 
d="M862 1507q151 0 290.5 -59t244 -160t167 -247t62.5 -310q0 -159 -60 -301.5t-161.5 -244t-242 -161t-296.5 -59.5q-160 0 -303.5 61t-245.5 164.5t-161.5 246t-59.5 300.5q0 160 61.5 303.5t164.5 245.5t244 161.5t296 59.5zM860 1239q-98 0 -186.5 -37t-153.5 -103
t-103 -161.5t-38 -206.5q0 -109 39.5 -203.5t105.5 -158.5t154.5 -100t185.5 -36q200 0 339.5 145t139.5 355q0 135 -61.5 250.5t-173 185.5t-248.5 70zM754 1581h-301l301 283h219l297 -283h-297l-109 129z" />
    <glyph glyph-name="Otilde" unicode="&#xd5;" horiz-adv-x="1720" 
d="M862 1507q151 0 290.5 -59t244 -160t167 -247t62.5 -310q0 -159 -60 -301.5t-161.5 -244t-242 -161t-296.5 -59.5q-160 0 -303.5 61t-245.5 164.5t-161.5 246t-59.5 300.5q0 160 61.5 303.5t164.5 245.5t244 161.5t296 59.5zM860 1239q-98 0 -186.5 -37t-153.5 -103
t-103 -161.5t-38 -206.5q0 -109 39.5 -203.5t105.5 -158.5t154.5 -100t185.5 -36q200 0 339.5 145t139.5 355q0 135 -61.5 250.5t-173 185.5t-248.5 70zM731 1636q-86 0 -176 -53l-111 166q128 98 258 98q50 0 150 -27.5t147 -27.5q86 0 177 53l102 -157q-62 -53 -119 -80
t-125 -27q-57 0 -154 27.5t-149 27.5z" />
    <glyph glyph-name="Odieresis" unicode="&#xd6;" horiz-adv-x="1720" 
d="M862 1507q151 0 290.5 -59t244 -160t167 -247t62.5 -310q0 -159 -60 -301.5t-161.5 -244t-242 -161t-296.5 -59.5q-160 0 -303.5 61t-245.5 164.5t-161.5 246t-59.5 300.5q0 160 61.5 303.5t164.5 245.5t244 161.5t296 59.5zM860 1239q-98 0 -186.5 -37t-153.5 -103
t-103 -161.5t-38 -206.5q0 -109 39.5 -203.5t105.5 -158.5t154.5 -100t185.5 -36q200 0 339.5 145t139.5 355q0 135 -61.5 250.5t-173 185.5t-248.5 70zM639 1866q60 0 100.5 -42t40.5 -102t-40.5 -101.5t-100.5 -41.5t-100.5 41.5t-40.5 101.5t40.5 102t100.5 42z
M1081 1866q60 0 101 -42t41 -102t-41.5 -101.5t-100.5 -41.5q-60 0 -100.5 41.5t-40.5 101.5t40.5 102t100.5 42z" />
    <glyph glyph-name="multiply" unicode="&#xd7;" 
d="M928 272l-316 316l-317 -316l-148 148l318 315l-318 318l148 147l317 -315l316 315l149 -147l-317 -318l317 -315z" />
    <glyph glyph-name="Oslash" unicode="&#xd8;" horiz-adv-x="1720" 
d="M1593 1448l-166 -195q199 -220 199 -522q0 -160 -60 -302.5t-162 -244t-242.5 -160.5t-295.5 -59q-242 0 -426 123l-172 -203l-125 107l170 203q-105 108 -161 247t-56 293q0 161 61.5 305t165 246t244.5 161.5t295 59.5q239 0 443 -143l161 188zM1245 1038l-624 -739
q116 -66 245 -66q130 0 239.5 66t173.5 181t64 253q0 171 -98 305zM492 406l636 747q-120 86 -268 86q-98 0 -186.5 -37t-153.5 -103t-103 -161.5t-38 -206.5q0 -195 113 -325z" />
    <glyph glyph-name="Ugrave" unicode="&#xd9;" horiz-adv-x="1310" 
d="M158 551v919h280v-995q0 -119 55.5 -180.5t157.5 -61.5q60 0 110.5 24t76.5 65q34 52 34 192v956h281v-935q0 -144 -21.5 -235t-97.5 -179q-135 -156 -377 -156q-231 0 -364 139q-83 86 -109 186t-26 261zM285 1972h323l238 -391h-195z" />
    <glyph glyph-name="Uacute" unicode="&#xda;" horiz-adv-x="1310" 
d="M158 551v919h280v-995q0 -119 55.5 -180.5t157.5 -61.5q60 0 110.5 24t76.5 65q34 52 34 192v956h281v-935q0 -144 -21.5 -235t-97.5 -179q-135 -156 -377 -156q-231 0 -364 139q-83 86 -109 186t-26 261zM465 1581l240 391h321l-364 -391h-197z" />
    <glyph glyph-name="Ucircumflex" unicode="&#xdb;" horiz-adv-x="1310" 
d="M158 551v919h280v-995q0 -119 55.5 -180.5t157.5 -61.5q60 0 110.5 24t76.5 65q34 52 34 192v956h281v-935q0 -144 -21.5 -235t-97.5 -179q-135 -156 -377 -156q-231 0 -364 139q-83 86 -109 186t-26 261zM549 1581h-301l301 283h219l297 -283h-297l-109 129z" />
    <glyph glyph-name="Udieresis" unicode="&#xdc;" horiz-adv-x="1310" 
d="M158 551v919h280v-995q0 -119 55.5 -180.5t157.5 -61.5q60 0 110.5 24t76.5 65q34 52 34 192v956h281v-935q0 -144 -21.5 -235t-97.5 -179q-135 -156 -377 -156q-231 0 -364 139q-83 86 -109 186t-26 261zM434 1866q60 0 100.5 -42t40.5 -102t-40.5 -101.5t-100.5 -41.5
t-100.5 41.5t-40.5 101.5t40.5 102t100.5 42zM877 1866q60 0 100.5 -42t40.5 -102t-41 -101.5t-100 -41.5q-60 0 -101 41.5t-41 101.5t41 102t101 42z" />
    <glyph glyph-name="Yacute" unicode="&#xdd;" horiz-adv-x="1269" 
d="M498 637l-435 833h302l274 -526l270 526h299l-430 -833v-637h-280v637zM444 1581l240 391h322l-365 -391h-197z" />
    <glyph glyph-name="Thorn" unicode="&#xde;" horiz-adv-x="1146" 
d="M166 0v1470h280v-311q184 0 292.5 -23t185.5 -96q55 -53 86.5 -134t31.5 -173q0 -233 -186 -348q-45 -27 -91 -43.5t-107 -22.5t-96.5 -7t-115.5 -1v-311h-280zM446 885v-301h132q190 0 190 149q0 74 -52 113t-151 39h-119z" />
    <glyph glyph-name="germandbls" unicode="&#xdf;" 
d="M1141 412q0 -193 -123.5 -317t-319.5 -124q-87 0 -168 35v256q64 -33 127 -33q95 0 155 64.5t60 155.5q0 107 -77 178.5t-215 77.5v245q102 2 162.5 48.5t60.5 125.5q0 67 -47.5 113.5t-116.5 46.5q-108 0 -168.5 -87t-60.5 -257v-940h-273v895q0 170 25 270
q43 173 171.5 271t313.5 98q191 0 310.5 -108.5t119.5 -264.5q0 -131 -80 -219.5t-229 -112.5q174 -31 273.5 -142.5t99.5 -274.5z" />
    <glyph glyph-name="agrave" unicode="&#xe0;" horiz-adv-x="1351" 
d="M942 0v115q-147 -144 -336 -144q-103 0 -197.5 43t-165 117.5t-113 182t-42.5 229.5q0 166 69 298t185.5 203.5t257.5 71.5q195 0 342 -147v118h272v-1087h-272zM655 866q-132 0 -212.5 -92t-80.5 -229q0 -140 83 -232t210 -92q129 0 214 90t85 236q0 141 -84.5 230
t-214.5 89zM305 1679h324l237 -391h-194z" />
    <glyph glyph-name="aacute" unicode="&#xe1;" horiz-adv-x="1351" 
d="M942 0v115q-147 -144 -336 -144q-103 0 -197.5 43t-165 117.5t-113 182t-42.5 229.5q0 166 69 298t185.5 203.5t257.5 71.5q195 0 342 -147v118h272v-1087h-272zM655 866q-132 0 -212.5 -92t-80.5 -229q0 -140 83 -232t210 -92q129 0 214 90t85 236q0 141 -84.5 230
t-214.5 89zM506 1288l239 391h322l-365 -391h-196z" />
    <glyph glyph-name="acircumflex" unicode="&#xe2;" horiz-adv-x="1351" 
d="M942 0v115q-147 -144 -336 -144q-103 0 -197.5 43t-165 117.5t-113 182t-42.5 229.5q0 166 69 298t185.5 203.5t257.5 71.5q195 0 342 -147v118h272v-1087h-272zM655 866q-132 0 -212.5 -92t-80.5 -229q0 -140 83 -232t210 -92q129 0 214 90t85 236q0 141 -84.5 230
t-214.5 89zM569 1288h-301l301 283h219l297 -283h-297l-108 129z" />
    <glyph glyph-name="atilde" unicode="&#xe3;" horiz-adv-x="1351" 
d="M942 0v115q-147 -144 -336 -144q-103 0 -197.5 43t-165 117.5t-113 182t-42.5 229.5q0 166 69 298t185.5 203.5t257.5 71.5q195 0 342 -147v118h272v-1087h-272zM655 866q-132 0 -212.5 -92t-80.5 -229q0 -140 83 -232t210 -92q129 0 214 90t85 236q0 141 -84.5 230
t-214.5 89zM547 1343q-86 0 -176 -53l-111 166q128 98 258 98q50 0 150 -27.5t147 -27.5q85 0 176 53l103 -157q-62 -53 -119 -80t-125 -27q-57 0 -154 27.5t-149 27.5z" />
    <glyph glyph-name="adieresis" unicode="&#xe4;" horiz-adv-x="1351" 
d="M942 0v115q-147 -144 -336 -144q-103 0 -197.5 43t-165 117.5t-113 182t-42.5 229.5q0 166 69 298t185.5 203.5t257.5 71.5q195 0 342 -147v118h272v-1087h-272zM655 866q-132 0 -212.5 -92t-80.5 -229q0 -140 83 -232t210 -92q129 0 214 90t85 236q0 141 -84.5 230
t-214.5 89zM455 1573q60 0 100.5 -41.5t40.5 -101.5t-40.5 -102t-100.5 -42t-101 42t-41 102t41 101.5t101 41.5zM897 1573q60 0 100.5 -41.5t40.5 -101.5t-41 -102t-100 -42q-60 0 -100.5 42t-40.5 102t40.5 101.5t100.5 41.5z" />
    <glyph glyph-name="aring" unicode="&#xe5;" horiz-adv-x="1351" 
d="M942 0v115q-147 -144 -336 -144q-103 0 -197.5 43t-165 117.5t-113 182t-42.5 229.5q0 166 69 298t185.5 203.5t257.5 71.5q195 0 342 -147v118h272v-1087h-272zM655 866q-132 0 -212.5 -92t-80.5 -229q0 -140 83 -232t210 -92q129 0 214 90t85 236q0 141 -84.5 230
t-214.5 89zM676 1726q92 0 155.5 -64t63.5 -155q0 -92 -64 -155.5t-155 -63.5t-155 63.5t-64 155.5q0 91 63.5 155t155.5 64zM676 1593q-34 0 -60 -25t-26 -61q0 -37 25.5 -61.5t60.5 -24.5t60.5 24.5t25.5 61.5q0 36 -26 61t-60 25z" />
    <glyph glyph-name="ae" unicode="&#xe6;" horiz-adv-x="2211" 
d="M991 0v137q-77 -87 -162 -126.5t-200 -39.5q-231 0 -385 163.5t-154 408.5q0 116 41.5 221.5t113.5 183.5t174 124t218 46q208 0 354 -172v141h252v-79q70 57 146.5 82.5t175.5 25.5q119 0 223.5 -42.5t181 -119.5t120.5 -190t44 -248q0 -33 -2 -53h-877
q23 -118 105.5 -186t204.5 -68q84 0 143 25t121 85l229 -108q-79 -117 -203.5 -178.5t-279.5 -61.5q-202 0 -332 107v-78h-252zM682 868q-137 0 -227 -92.5t-90 -238.5q0 -131 87.5 -223.5t227.5 -92.5q143 0 228 92.5t85 233.5q0 143 -88.5 232t-222.5 89zM1268 676h592
q-25 95 -102.5 151t-186.5 56q-107 0 -186 -53t-117 -154z" />
    <glyph glyph-name="ccedilla" unicode="&#xe7;" horiz-adv-x="1310" 
d="M975 346l215 -147q-176 -228 -494 -228q-136 0 -251.5 44.5t-193.5 121.5t-121.5 181.5t-43.5 222.5q0 121 45.5 227t126 183t195 121t247.5 44q160 0 290 -64t212 -184l-227 -125q-61 64 -124 93.5t-149 29.5q-154 0 -248 -93t-94 -236q0 -140 90.5 -228t239.5 -88
q184 0 285 125zM535 -104l34 120h170l-14 -47q67 -15 106 -57.5t39 -95.5q0 -81 -68.5 -139t-189.5 -58q-102 0 -221 45l37 131q74 -24 139 -24q47 0 75 18.5t28 52.5q0 56 -84 56q-31 0 -51 -2z" />
    <glyph glyph-name="egrave" unicode="&#xe8;" horiz-adv-x="1310" 
d="M928 319l229 -108q-88 -125 -208 -182.5t-292 -57.5q-127 0 -234.5 45t-180.5 122.5t-113.5 182.5t-40.5 224q0 150 67 279t198 210.5t300 81.5q257 0 417.5 -165.5t160.5 -424.5q0 -12 -1 -30t-1 -31h-877q20 -119 103 -185.5t202 -66.5q87 0 150 25t121 81zM365 680
h591q-28 95 -109 150t-190 55q-103 0 -178 -52t-114 -153zM285 1679h323l238 -391h-195z" />
    <glyph glyph-name="eacute" unicode="&#xe9;" horiz-adv-x="1310" 
d="M928 319l229 -108q-88 -125 -208 -182.5t-292 -57.5q-127 0 -234.5 45t-180.5 122.5t-113.5 182.5t-40.5 224q0 150 67 279t198 210.5t300 81.5q257 0 417.5 -165.5t160.5 -424.5q0 -12 -1 -30t-1 -31h-877q20 -119 103 -185.5t202 -66.5q87 0 150 25t121 81zM365 680
h591q-28 95 -109 150t-190 55q-103 0 -178 -52t-114 -153zM465 1288l240 391h321l-364 -391h-197z" />
    <glyph glyph-name="ecircumflex" unicode="&#xea;" horiz-adv-x="1310" 
d="M928 319l229 -108q-88 -125 -208 -182.5t-292 -57.5q-127 0 -234.5 45t-180.5 122.5t-113.5 182.5t-40.5 224q0 150 67 279t198 210.5t300 81.5q257 0 417.5 -165.5t160.5 -424.5q0 -12 -1 -30t-1 -31h-877q20 -119 103 -185.5t202 -66.5q87 0 150 25t121 81zM365 680
h591q-28 95 -109 150t-190 55q-103 0 -178 -52t-114 -153zM549 1288h-301l301 283h219l297 -283h-297l-109 129z" />
    <glyph glyph-name="edieresis" unicode="&#xeb;" horiz-adv-x="1310" 
d="M928 319l229 -108q-88 -125 -208 -182.5t-292 -57.5q-127 0 -234.5 45t-180.5 122.5t-113.5 182.5t-40.5 224q0 150 67 279t198 210.5t300 81.5q257 0 417.5 -165.5t160.5 -424.5q0 -12 -1 -30t-1 -31h-877q20 -119 103 -185.5t202 -66.5q87 0 150 25t121 81zM365 680
h591q-28 95 -109 150t-190 55q-103 0 -178 -52t-114 -153zM434 1573q60 0 100.5 -41.5t40.5 -101.5t-40.5 -102t-100.5 -42t-100.5 42t-40.5 102t40.5 101.5t100.5 41.5zM877 1573q60 0 100.5 -41.5t40.5 -101.5t-41 -102t-100 -42q-60 0 -101 42t-41 102t41 101.5t101 41.5
z" />
    <glyph glyph-name="igrave" unicode="&#xec;" horiz-adv-x="491" 
d="M111 0v1087h272v-1087h-272zM-123 1679h324l237 -391h-194z" />
    <glyph glyph-name="iacute" unicode="&#xed;" horiz-adv-x="491" 
d="M111 0v1087h272v-1087h-272zM57 1288l240 391h321l-364 -391h-197z" />
    <glyph glyph-name="icircumflex" unicode="&#xee;" horiz-adv-x="491" 
d="M111 0v1087h272v-1087h-272zM141 1288h-301l301 283h219l297 -283h-297l-108 129z" />
    <glyph glyph-name="idieresis" unicode="&#xef;" horiz-adv-x="491" 
d="M111 0v1087h272v-1087h-272zM27 1573q60 0 100.5 -41.5t40.5 -101.5t-40.5 -102t-100.5 -42t-101 42t-41 102t41 101.5t101 41.5zM469 1573q60 0 100.5 -41.5t40.5 -101.5t-41 -102t-100 -42q-60 0 -100.5 42t-40.5 102t40.5 101.5t100.5 41.5z" />
    <glyph glyph-name="eth" unicode="&#xf0;" horiz-adv-x="1310" 
d="M334 1325l192 59q-87 82 -141 123h266q13 -9 41.5 -29.5t40.5 -29.5l199 59l49 -155l-104 -35q169 -157 261.5 -348t92.5 -383q0 -139 -46 -256t-125 -194t-183.5 -120t-221.5 -43q-160 0 -291 77.5t-203.5 209t-72.5 287.5q0 120 47 228t122.5 181.5t170.5 116.5t190 43
q68 0 136 -29q-24 60 -103 160l-266 -82zM659 858q-130 0 -213.5 -88.5t-83.5 -224.5q0 -139 80 -230.5t213 -91.5q128 0 214.5 90.5t86.5 229.5q0 135 -82.5 225t-214.5 90z" />
    <glyph glyph-name="ntilde" unicode="&#xf1;" 
d="M410 1087v-110q83 70 158.5 104.5t162.5 34.5q158 0 265.5 -101.5t107.5 -271.5v-743h-273v514q0 72 -3 120t-14 96t-30.5 75t-53.5 44t-83 17q-118 0 -184 -104q-26 -41 -38 -96t-13.5 -90t-1.5 -113v-463h-273v1087h273zM485 1343q-86 0 -176 -53l-110 166
q128 98 258 98q51 0 150 -27.5t147 -27.5q85 0 176 53l102 -157q-62 -53 -119 -80t-125 -27q-57 0 -154 27.5t-149 27.5z" />
    <glyph glyph-name="ograve" unicode="&#xf2;" horiz-adv-x="1310" 
d="M649 1116q157 0 289.5 -75t210.5 -206.5t78 -289.5q0 -156 -74 -287.5t-207 -209t-295 -77.5q-155 0 -285 76t-205 207.5t-75 288.5q0 121 46.5 228.5t123.5 182.5t180 118.5t213 43.5zM653 858q-127 0 -210 -89t-83 -224q0 -139 81 -227.5t212 -88.5q128 0 213.5 87
t85.5 227q0 139 -83 227t-216 88zM285 1679h323l238 -391h-195z" />
    <glyph glyph-name="oacute" unicode="&#xf3;" horiz-adv-x="1310" 
d="M649 1116q157 0 289.5 -75t210.5 -206.5t78 -289.5q0 -156 -74 -287.5t-207 -209t-295 -77.5q-155 0 -285 76t-205 207.5t-75 288.5q0 121 46.5 228.5t123.5 182.5t180 118.5t213 43.5zM653 858q-127 0 -210 -89t-83 -224q0 -139 81 -227.5t212 -88.5q128 0 213.5 87
t85.5 227q0 139 -83 227t-216 88zM465 1288l240 391h321l-364 -391h-197z" />
    <glyph glyph-name="ocircumflex" unicode="&#xf4;" horiz-adv-x="1310" 
d="M649 1116q157 0 289.5 -75t210.5 -206.5t78 -289.5q0 -156 -74 -287.5t-207 -209t-295 -77.5q-155 0 -285 76t-205 207.5t-75 288.5q0 121 46.5 228.5t123.5 182.5t180 118.5t213 43.5zM653 858q-127 0 -210 -89t-83 -224q0 -139 81 -227.5t212 -88.5q128 0 213.5 87
t85.5 227q0 139 -83 227t-216 88zM549 1288h-301l301 283h219l297 -283h-297l-109 129z" />
    <glyph glyph-name="otilde" unicode="&#xf5;" horiz-adv-x="1310" 
d="M649 1116q157 0 289.5 -75t210.5 -206.5t78 -289.5q0 -156 -74 -287.5t-207 -209t-295 -77.5q-155 0 -285 76t-205 207.5t-75 288.5q0 121 46.5 228.5t123.5 182.5t180 118.5t213 43.5zM653 858q-127 0 -210 -89t-83 -224q0 -139 81 -227.5t212 -88.5q128 0 213.5 87
t85.5 227q0 139 -83 227t-216 88zM526 1343q-86 0 -176 -53l-110 166q128 98 258 98q50 0 150 -27.5t147 -27.5q85 0 176 53l102 -157q-62 -53 -119 -80t-125 -27q-57 0 -154 27.5t-149 27.5z" />
    <glyph glyph-name="odieresis" unicode="&#xf6;" horiz-adv-x="1310" 
d="M649 1116q157 0 289.5 -75t210.5 -206.5t78 -289.5q0 -156 -74 -287.5t-207 -209t-295 -77.5q-155 0 -285 76t-205 207.5t-75 288.5q0 121 46.5 228.5t123.5 182.5t180 118.5t213 43.5zM653 858q-127 0 -210 -89t-83 -224q0 -139 81 -227.5t212 -88.5q128 0 213.5 87
t85.5 227q0 139 -83 227t-216 88zM434 1573q60 0 100.5 -41.5t40.5 -101.5t-40.5 -102t-100.5 -42t-100.5 42t-40.5 102t40.5 101.5t100.5 41.5zM877 1573q60 0 100.5 -41.5t40.5 -101.5t-41 -102t-100 -42q-60 0 -101 42t-41 102t41 101.5t101 41.5z" />
    <glyph glyph-name="divide" unicode="&#xf7;" 
d="M455 1006v321h321v-321h-321zM455 145v322h321v-322h-321zM115 610v250h999v-250h-999z" />
    <glyph glyph-name="oslash" unicode="&#xf8;" horiz-adv-x="1351" 
d="M1251 1042l-127 -141q123 -156 123 -356q0 -117 -43.5 -222.5t-119 -183t-183 -123t-229.5 -45.5q-169 0 -303 88l-129 -145l-125 109l131 145q-140 158 -140 375q0 161 79 293.5t208 206t277 73.5q183 0 334 -102l124 139zM940 696l-395 -442q54 -25 129 -25
q128 0 213.5 87t85.5 227q0 80 -33 153zM424 367l405 452q-65 39 -155 39q-127 0 -210 -89t-83 -224q0 -99 43 -178z" />
    <glyph glyph-name="ugrave" unicode="&#xf9;" 
d="M139 590v497h273v-567q0 -149 49 -223t155 -74t155.5 72t49.5 213v579h273v-501q0 -174 -24 -280.5t-103 -194.5q-124 -138 -351 -138q-197 0 -315.5 98.5t-150.5 288.5q-4 26 -6.5 47.5t-3.5 48t-1 38v48.5v48zM244 1679h323l238 -391h-195z" />
    <glyph glyph-name="uacute" unicode="&#xfa;" 
d="M139 590v497h273v-567q0 -149 49 -223t155 -74t155.5 72t49.5 213v579h273v-501q0 -174 -24 -280.5t-103 -194.5q-124 -138 -351 -138q-197 0 -315.5 98.5t-150.5 288.5q-4 26 -6.5 47.5t-3.5 48t-1 38v48.5v48zM424 1288l240 391h321l-364 -391h-197z" />
    <glyph glyph-name="ucircumflex" unicode="&#xfb;" 
d="M139 590v497h273v-567q0 -149 49 -223t155 -74t155.5 72t49.5 213v579h273v-501q0 -174 -24 -280.5t-103 -194.5q-124 -138 -351 -138q-197 0 -315.5 98.5t-150.5 288.5q-4 26 -6.5 47.5t-3.5 48t-1 38v48.5v48zM508 1288h-301l301 283h219l297 -283h-297l-109 129z" />
    <glyph glyph-name="udieresis" unicode="&#xfc;" 
d="M139 590v497h273v-567q0 -149 49 -223t155 -74t155.5 72t49.5 213v579h273v-501q0 -174 -24 -280.5t-103 -194.5q-124 -138 -351 -138q-197 0 -315.5 98.5t-150.5 288.5q-4 26 -6.5 47.5t-3.5 48t-1 38v48.5v48zM393 1573q60 0 101 -41.5t41 -101.5t-41 -102t-101 -42
t-100.5 42t-40.5 102t40.5 101.5t100.5 41.5zM836 1573q60 0 100.5 -41.5t40.5 -101.5t-41 -102t-100 -42q-60 0 -101 42t-41 102t41 101.5t101 41.5z" />
    <glyph glyph-name="yacute" unicode="&#xfd;" horiz-adv-x="1187" 
d="M432 82l-414 1005h279l283 -681l313 681h281l-685 -1484h-280zM403 1288l240 391h322l-365 -391h-197z" />
    <glyph glyph-name="thorn" unicode="&#xfe;" horiz-adv-x="1351" 
d="M137 1507h273v-538q147 147 342 147q140 0 257 -71.5t187 -203.5t70 -298q0 -122 -42.5 -229.5t-114 -182t-166.5 -117.5t-198 -43q-100 0 -179.5 35.5t-155.5 108.5v-512h-273v1904zM696 866q-131 0 -215 -88.5t-84 -230.5q0 -145 85.5 -235.5t213.5 -90.5q127 0 211 92
t84 232q0 137 -81.5 229t-213.5 92z" />
    <glyph glyph-name="ydieresis" unicode="&#xff;" horiz-adv-x="1187" 
d="M432 82l-414 1005h279l283 -681l313 681h281l-685 -1484h-280zM373 1573q60 0 100.5 -41.5t40.5 -101.5t-40.5 -102t-100.5 -42t-101 42t-41 102t41 101.5t101 41.5zM815 1573q60 0 100.5 -41.5t40.5 -101.5t-41 -102t-100 -42q-60 0 -100.5 42t-40.5 102t40.5 101.5
t100.5 41.5z" />
    <glyph glyph-name="Amacron" unicode="&#x100;" horiz-adv-x="1515" 
d="M49 0l567 1470h283l567 -1470h-290l-115 303h-600l-121 -303h-291zM954 578l-194 503l-195 -503h389zM1020 1581h-569v219h569v-219z" />
    <glyph glyph-name="amacron" unicode="&#x101;" horiz-adv-x="1351" 
d="M942 0v115q-147 -144 -336 -144q-103 0 -197.5 43t-165 117.5t-113 182t-42.5 229.5q0 166 69 298t185.5 203.5t257.5 71.5q195 0 342 -147v118h272v-1087h-272zM655 866q-132 0 -212.5 -92t-80.5 -229q0 -140 83 -232t210 -92q129 0 214 90t85 236q0 141 -84.5 230
t-214.5 89zM985 1288h-569v219h569v-219z" />
    <glyph glyph-name="Abreve" unicode="&#x102;" horiz-adv-x="1515" 
d="M49 0l567 1470h283l567 -1470h-290l-115 303h-600l-121 -303h-291zM954 578l-194 503l-195 -503h389zM950 1862h221q-19 -132 -124.5 -206.5t-282.5 -74.5q-175 0 -280 74.5t-126 206.5h222q50 -82 186 -82q131 0 184 82z" />
    <glyph glyph-name="abreve" unicode="&#x103;" horiz-adv-x="1351" 
d="M942 0v115q-147 -144 -336 -144q-103 0 -197.5 43t-165 117.5t-113 182t-42.5 229.5q0 166 69 298t185.5 203.5t257.5 71.5q195 0 342 -147v118h272v-1087h-272zM655 866q-132 0 -212.5 -92t-80.5 -229q0 -140 83 -232t210 -92q129 0 214 90t85 236q0 141 -84.5 230
t-214.5 89zM879 1569h221q-19 -132 -125 -206.5t-283 -74.5q-175 0 -279.5 74.5t-125.5 206.5h221q50 -82 186 -82q132 0 185 82z" />
    <glyph glyph-name="Aogonek" unicode="&#x104;" horiz-adv-x="1515" 
d="M1434 -231v-158q-93 -19 -129 -19q-117 0 -180.5 54t-63.5 137q0 64 47 121.5t131 95.5h-63l-115 303h-600l-121 -303h-291l567 1470h283l567 -1470h-84q-70 -41 -104.5 -80.5t-34.5 -83.5q0 -43 30 -67.5t73 -24.5q40 0 88 25zM954 578l-194 503l-195 -503h389z" />
    <glyph glyph-name="aogonek" unicode="&#x105;" horiz-adv-x="1351" 
d="M942 0v115q-147 -144 -336 -144q-103 0 -197.5 43t-165 117.5t-113 182t-42.5 229.5q0 166 69 298t185.5 203.5t257.5 71.5q195 0 342 -147v118h272v-1087h-59q-70 -41 -104.5 -80.5t-34.5 -83.5t30 -68t72 -24q40 0 88 25v-158q-93 -19 -129 -19q-117 0 -180 54t-63 137
q0 64 47 121.5t131 95.5h-70zM655 866q-132 0 -212.5 -92t-80.5 -229q0 -140 83 -232t210 -92q129 0 214 90t85 236q0 141 -84.5 230t-214.5 89z" />
    <glyph glyph-name="Cacute" unicode="&#x106;" horiz-adv-x="1597" 
d="M1323 444l190 -198q-153 -150 -296.5 -216.5t-342.5 -66.5q-170 0 -315.5 57.5t-247 159t-158.5 245.5t-57 312q0 170 63 315.5t170 244.5t249.5 154.5t300.5 55.5q183 0 351.5 -77t289.5 -218l-197 -188q-203 215 -451 215q-137 0 -251.5 -64.5t-182 -180t-67.5 -257.5
q0 -225 143.5 -365.5t364.5 -140.5q131 0 232.5 51.5t211.5 161.5zM670 1581l239 391h322l-365 -391h-196z" />
    <glyph glyph-name="cacute" unicode="&#x107;" horiz-adv-x="1310" 
d="M975 346l215 -147q-176 -228 -494 -228q-136 0 -251.5 44.5t-193.5 121.5t-121.5 181.5t-43.5 222.5q0 121 45.5 227t126 183t195 121t247.5 44q160 0 290 -64t212 -184l-227 -125q-61 64 -124 93.5t-149 29.5q-154 0 -248 -93t-94 -236q0 -140 90.5 -228t239.5 -88
q184 0 285 125zM508 1288l240 391h321l-364 -391h-197z" />
    <glyph glyph-name="Ccircumflex" unicode="&#x108;" horiz-adv-x="1597" 
d="M1323 444l190 -198q-153 -150 -296.5 -216.5t-342.5 -66.5q-170 0 -315.5 57.5t-247 159t-158.5 245.5t-57 312q0 170 63 315.5t170 244.5t249.5 154.5t300.5 55.5q183 0 351.5 -77t289.5 -218l-197 -188q-203 215 -451 215q-137 0 -251.5 -64.5t-182 -180t-67.5 -257.5
q0 -225 143.5 -365.5t364.5 -140.5q131 0 232.5 51.5t211.5 161.5zM762 1581h-301l301 283h219l297 -283h-297l-109 129z" />
    <glyph glyph-name="ccircumflex" unicode="&#x109;" horiz-adv-x="1310" 
d="M975 346l215 -147q-176 -228 -494 -228q-136 0 -251.5 44.5t-193.5 121.5t-121.5 181.5t-43.5 222.5q0 121 45.5 227t126 183t195 121t247.5 44q160 0 290 -64t212 -184l-227 -125q-61 64 -124 93.5t-149 29.5q-154 0 -248 -93t-94 -236q0 -140 90.5 -228t239.5 -88
q184 0 285 125zM582 1288h-301l301 283h219l297 -283h-297l-109 129z" />
    <glyph glyph-name="Cdotaccent" unicode="&#x10a;" horiz-adv-x="1597" 
d="M1323 444l190 -198q-153 -150 -296.5 -216.5t-342.5 -66.5q-170 0 -315.5 57.5t-247 159t-158.5 245.5t-57 312q0 170 63 315.5t170 244.5t249.5 154.5t300.5 55.5q183 0 351.5 -77t289.5 -218l-197 -188q-203 215 -451 215q-137 0 -251.5 -64.5t-182 -180t-67.5 -257.5
q0 -225 143.5 -365.5t364.5 -140.5q131 0 232.5 51.5t211.5 161.5zM866 1866q60 0 101 -42t41 -102t-41 -101.5t-101 -41.5t-100.5 41.5t-40.5 101.5t40.5 102t100.5 42z" />
    <glyph glyph-name="cdotaccent" unicode="&#x10b;" horiz-adv-x="1310" 
d="M975 346l215 -147q-176 -228 -494 -228q-136 0 -251.5 44.5t-193.5 121.5t-121.5 181.5t-43.5 222.5q0 121 45.5 227t126 183t195 121t247.5 44q160 0 290 -64t212 -184l-227 -125q-61 64 -124 93.5t-149 29.5q-154 0 -248 -93t-94 -236q0 -140 90.5 -228t239.5 -88
q184 0 285 125zM684 1573q60 0 100.5 -41.5t40.5 -101.5t-40.5 -102t-100.5 -42t-100.5 42t-40.5 102t40.5 101.5t100.5 41.5z" />
    <glyph glyph-name="Ccaron" unicode="&#x10c;" horiz-adv-x="1597" 
d="M1323 444l190 -198q-153 -150 -296.5 -216.5t-342.5 -66.5q-170 0 -315.5 57.5t-247 159t-158.5 245.5t-57 312q0 170 63 315.5t170 244.5t249.5 154.5t300.5 55.5q183 0 351.5 -77t289.5 -218l-197 -188q-203 215 -451 215q-137 0 -251.5 -64.5t-182 -180t-67.5 -257.5
q0 -225 143.5 -365.5t364.5 -140.5q131 0 232.5 51.5t211.5 161.5zM758 1581l-301 283h301l110 -133l109 133h297l-297 -283h-219z" />
    <glyph glyph-name="ccaron" unicode="&#x10d;" horiz-adv-x="1310" 
d="M975 346l215 -147q-176 -228 -494 -228q-136 0 -251.5 44.5t-193.5 121.5t-121.5 181.5t-43.5 222.5q0 121 45.5 227t126 183t195 121t247.5 44q160 0 290 -64t212 -184l-227 -125q-61 64 -124 93.5t-149 29.5q-154 0 -248 -93t-94 -236q0 -140 90.5 -228t239.5 -88
q184 0 285 125zM580 1288l-301 283h301l110 -133l109 133h297l-297 -283h-219z" />
    <glyph glyph-name="Dcaron" unicode="&#x10e;" horiz-adv-x="1433" 
d="M170 0v1470h354q212 0 349.5 -38t250.5 -148q101 -98 157 -246t56 -321q0 -187 -66 -339t-186 -245q-61 -47 -124 -75.5t-141 -40.5t-134 -14.5t-158 -2.5h-358zM565 1196h-114v-922h147q125 0 206 24t142 89q109 119 109 336q0 230 -125.5 351.5t-364.5 121.5zM500 1581
l-301 283h301l110 -133l109 133h297l-297 -283h-219z" />
    <glyph glyph-name="dcaron" unicode="&#x10f;" horiz-adv-x="1351" 
d="M942 969v538h272v-1507h-272v115q-153 -144 -336 -144q-211 0 -364 164q-154 165 -154 408q0 251 148 411q149 162 362 162q197 0 344 -147zM655 864q-127 0 -211 -90t-84 -229q0 -141 84 -234q87 -90 211 -90q129 0 213 90q86 89 86 236q0 140 -84.5 228.5t-214.5 88.5z
M1288 1223v284h252v-137q0 -133 -31.5 -227t-109.5 -197l-99 78q36 53 54 92.5t37 106.5h-103z" />
    <glyph glyph-name="Dcroat" unicode="&#x110;" horiz-adv-x="1519" 
d="M219 817v653h356q321 0 476 -79q156 -77 258 -258q100 -175 100 -418q0 -169 -56 -311.5t-157 -237.5q-98 -93 -215 -131q-116 -35 -401 -35h-361v653h-170v164h170zM616 1200h-118v-383h303v-164h-303v-379h153q194 0 279 43q90 46 143 151t53 255q0 234 -131 362
q-118 115 -379 115z" />
    <glyph glyph-name="dcroat" unicode="&#x111;" horiz-adv-x="1351" 
d="M942 1395v112h272v-112h138v-164h-138v-1231h-272v115q-153 -144 -336 -144q-211 0 -364 164q-154 165 -154 408q0 251 148 411q149 162 362 162q197 0 344 -147v262h-428v164h428zM655 864q-127 0 -211 -90t-84 -229q0 -141 84 -234q87 -90 211 -90q129 0 213 90
q86 89 86 236q0 140 -84.5 228.5t-214.5 88.5z" />
    <glyph glyph-name="Emacron" unicode="&#x112;" horiz-adv-x="1064" 
d="M170 0v1470h803v-274h-522v-262h522v-275h-522v-385h522v-274h-803zM840 1581h-570v219h570v-219z" />
    <glyph glyph-name="emacron" unicode="&#x113;" horiz-adv-x="1310" 
d="M928 319l229 -108q-88 -125 -208 -182.5t-292 -57.5q-127 0 -234.5 45t-180.5 122.5t-113.5 182.5t-40.5 224q0 150 67 279t198 210.5t300 81.5q257 0 417.5 -165.5t160.5 -424.5q0 -12 -1 -30t-1 -31h-877q20 -119 103 -185.5t202 -66.5q87 0 150 25t121 81zM365 680
h591q-28 95 -109 150t-190 55q-103 0 -178 -52t-114 -153zM932 1288h-570v219h570v-219z" />
    <glyph glyph-name="Ebreve" unicode="&#x114;" horiz-adv-x="1064" 
d="M170 0v1470h803v-274h-522v-262h522v-275h-522v-385h522v-274h-803zM745 1862h222q-19 -132 -125 -206.5t-283 -74.5q-175 0 -279.5 74.5t-125.5 206.5h221q50 -82 186 -82q131 0 184 82z" />
    <glyph glyph-name="ebreve" unicode="&#x115;" horiz-adv-x="1310" 
d="M928 319l229 -108q-88 -125 -208 -182.5t-292 -57.5q-127 0 -234.5 45t-180.5 122.5t-113.5 182.5t-40.5 224q0 150 67 279t198 210.5t300 81.5q257 0 417.5 -165.5t160.5 -424.5q0 -12 -1 -30t-1 -31h-877q20 -119 103 -185.5t202 -66.5q87 0 150 25t121 81zM365 680
h591q-28 95 -109 150t-190 55q-103 0 -178 -52t-114 -153zM844 1569h221q-19 -132 -125 -206.5t-283 -74.5q-175 0 -279.5 74.5t-125.5 206.5h221q50 -82 186 -82q132 0 185 82z" />
    <glyph glyph-name="Edotaccent" unicode="&#x116;" horiz-adv-x="1064" 
d="M170 0v1470h803v-274h-522v-262h522v-275h-522v-385h522v-274h-803zM569 1866q60 0 101 -42t41 -102t-41 -101.5t-101 -41.5t-100.5 41.5t-40.5 101.5t40.5 102t100.5 42z" />
    <glyph glyph-name="edotaccent" unicode="&#x117;" horiz-adv-x="1310" 
d="M928 319l229 -108q-88 -125 -208 -182.5t-292 -57.5q-127 0 -234.5 45t-180.5 122.5t-113.5 182.5t-40.5 224q0 150 67 279t198 210.5t300 81.5q257 0 417.5 -165.5t160.5 -424.5q0 -12 -1 -30t-1 -31h-877q20 -119 103 -185.5t202 -66.5q87 0 150 25t121 81zM365 680
h591q-28 95 -109 150t-190 55q-103 0 -178 -52t-114 -153zM643 1573q60 0 100.5 -41.5t40.5 -101.5t-40.5 -102t-100.5 -42t-100.5 42t-40.5 102t40.5 101.5t100.5 41.5z" />
    <glyph glyph-name="Eogonek" unicode="&#x118;" horiz-adv-x="1064" 
d="M170 0v1470h803v-274h-522v-262h522v-275h-522v-385h522v-274h-74q-70 -41 -104.5 -80.5t-34.5 -83.5t30 -68t72 -24q40 0 88 25v-158q-93 -19 -129 -19q-117 0 -180 54t-63 137q0 64 47 121.5t131 95.5h-586z" />
    <glyph glyph-name="eogonek" unicode="&#x119;" horiz-adv-x="1310" 
d="M911 -231v-158q-93 -19 -129 -19q-117 0 -180 54t-63 137q0 111 125 188h-7q-127 0 -234.5 45t-180.5 122.5t-113.5 182.5t-40.5 224q0 150 67 279t198 210.5t300 81.5q257 0 417.5 -165.5t160.5 -424.5q0 -12 -1 -30t-1 -31h-877q20 -119 103 -185.5t202 -66.5
q87 0 150 25t121 81l229 -108q-120 -172 -311 -217q-63 -39 -94 -77t-31 -81q0 -44 30 -68t72 -24q40 0 88 25zM365 680h591q-28 95 -109 150t-190 55q-103 0 -178 -52t-114 -153z" />
    <glyph glyph-name="Ecaron" unicode="&#x11a;" horiz-adv-x="1064" 
d="M170 0v1470h803v-274h-522v-262h522v-275h-522v-385h522v-274h-803zM465 1581l-301 283h301l110 -133l109 133h297l-297 -283h-219z" />
    <glyph glyph-name="ecaron" unicode="&#x11b;" horiz-adv-x="1310" 
d="M928 319l229 -108q-88 -125 -208 -182.5t-292 -57.5q-127 0 -234.5 45t-180.5 122.5t-113.5 182.5t-40.5 224q0 150 67 279t198 210.5t300 81.5q257 0 417.5 -165.5t160.5 -424.5q0 -12 -1 -30t-1 -31h-877q20 -119 103 -185.5t202 -66.5q87 0 150 25t121 81zM365 680
h591q-28 95 -109 150t-190 55q-103 0 -178 -52t-114 -153zM543 1288l-301 283h301l110 -133l109 133h297l-297 -283h-219z" />
    <glyph glyph-name="Gcircumflex" unicode="&#x11c;" horiz-adv-x="1720" 
d="M889 748h741q0 -166 -36.5 -291.5t-139.5 -247.5q-209 -246 -555 -246q-179 0 -330 63t-252.5 170t-158 248.5t-56.5 298.5q0 154 58.5 293.5t161 243t251 164.5t318.5 61q209 0 359.5 -69t275.5 -205l-197 -195q-192 201 -436 201q-108 0 -203.5 -39.5t-161.5 -107
t-104.5 -159t-38.5 -192.5q0 -140 69.5 -257t190.5 -184t266 -67q146 0 245 61t159 189h-426v267zM774 1581h-301l301 283h219l297 -283h-297l-108 129z" />
    <glyph glyph-name="gcircumflex" unicode="&#x11d;" horiz-adv-x="1351" 
d="M1214 1087v-931q0 -164 -37 -273t-128 -186q-145 -121 -396 -121q-451 0 -563 344h301q78 -94 252 -94q153 0 231 72q24 22 38.5 47t20.5 58t7.5 59t1.5 73q-70 -68 -148.5 -101.5t-181.5 -33.5q-222 0 -372 158.5t-150 400.5q0 123 40.5 228.5t110 176.5t162 111.5
t195.5 40.5q188 0 344 -147v118h272zM659 866q-132 0 -213 -89.5t-81 -219.5q0 -134 85.5 -220.5t213.5 -86.5q127 0 209.5 84t82.5 221q0 134 -82 222.5t-215 88.5zM549 1288h-301l301 283h219l297 -283h-297l-109 129z" />
    <glyph glyph-name="Gbreve" unicode="&#x11e;" horiz-adv-x="1720" 
d="M889 748h741q0 -166 -36.5 -291.5t-139.5 -247.5q-209 -246 -555 -246q-179 0 -330 63t-252.5 170t-158 248.5t-56.5 298.5q0 154 58.5 293.5t161 243t251 164.5t318.5 61q209 0 359.5 -69t275.5 -205l-197 -195q-192 201 -436 201q-108 0 -203.5 -39.5t-161.5 -107
t-104.5 -159t-38.5 -192.5q0 -140 69.5 -257t190.5 -184t266 -67q146 0 245 61t159 189h-426v267zM1087 1862h222q-19 -132 -125 -206.5t-283 -74.5q-175 0 -279.5 74.5t-125.5 206.5h221q50 -82 186 -82q131 0 184 82z" />
    <glyph glyph-name="gbreve" unicode="&#x11f;" horiz-adv-x="1351" 
d="M1214 1087v-931q0 -164 -37 -273t-128 -186q-145 -121 -396 -121q-451 0 -563 344h301q78 -94 252 -94q153 0 231 72q24 22 38.5 47t20.5 58t7.5 59t1.5 73q-70 -68 -148.5 -101.5t-181.5 -33.5q-222 0 -372 158.5t-150 400.5q0 123 40.5 228.5t110 176.5t162 111.5
t195.5 40.5q188 0 344 -147v118h272zM659 866q-132 0 -213 -89.5t-81 -219.5q0 -134 85.5 -220.5t213.5 -86.5q127 0 209.5 84t82.5 221q0 134 -82 222.5t-215 88.5zM852 1569h221q-19 -132 -124.5 -206.5t-282.5 -74.5q-175 0 -280 74.5t-126 206.5h221q50 -82 187 -82
q131 0 184 82z" />
    <glyph glyph-name="Gdotaccent" unicode="&#x120;" horiz-adv-x="1720" 
d="M889 748h741q0 -166 -36.5 -291.5t-139.5 -247.5q-209 -246 -555 -246q-179 0 -330 63t-252.5 170t-158 248.5t-56.5 298.5q0 154 58.5 293.5t161 243t251 164.5t318.5 61q209 0 359.5 -69t275.5 -205l-197 -195q-192 201 -436 201q-108 0 -203.5 -39.5t-161.5 -107
t-104.5 -159t-38.5 -192.5q0 -140 69.5 -257t190.5 -184t266 -67q146 0 245 61t159 189h-426v267zM887 1866q60 0 100.5 -42t40.5 -102t-40.5 -101.5t-100.5 -41.5t-101 41.5t-41 101.5t41 102t101 42z" />
    <glyph glyph-name="gdotaccent" unicode="&#x121;" horiz-adv-x="1351" 
d="M1214 1087v-931q0 -164 -37 -273t-128 -186q-145 -121 -396 -121q-451 0 -563 344h301q78 -94 252 -94q153 0 231 72q24 22 38.5 47t20.5 58t7.5 59t1.5 73q-70 -68 -148.5 -101.5t-181.5 -33.5q-222 0 -372 158.5t-150 400.5q0 123 40.5 228.5t110 176.5t162 111.5
t195.5 40.5q188 0 344 -147v118h272zM659 866q-132 0 -213 -89.5t-81 -219.5q0 -134 85.5 -220.5t213.5 -86.5q127 0 209.5 84t82.5 221q0 134 -82 222.5t-215 88.5zM631 1573q60 0 100.5 -41.5t40.5 -101.5t-40.5 -102t-100.5 -42t-101 42t-41 102t41 101.5t101 41.5z" />
    <glyph glyph-name="Gcommaaccent" unicode="&#x122;" horiz-adv-x="1720" 
d="M889 748h741q0 -166 -36.5 -291.5t-139.5 -247.5q-209 -246 -555 -246q-179 0 -330 63t-252.5 170t-158 248.5t-56.5 298.5q0 154 58.5 293.5t161 243t251 164.5t318.5 61q209 0 359.5 -69t275.5 -205l-197 -195q-192 201 -436 201q-108 0 -203.5 -39.5t-161.5 -107
t-104.5 -159t-38.5 -192.5q0 -140 69.5 -257t190.5 -184t266 -67q146 0 245 61t159 189h-426v267zM758 -172l26 92q82 4 97 4q111 0 172 -50t61 -124q0 -81 -67.5 -138.5t-188.5 -57.5q-85 0 -194 34l34 131q75 -16 111 -16q106 0 106 72q0 57 -81 57q-6 0 -76 -4z" />
    <glyph glyph-name="gcommaaccent" unicode="&#x123;" horiz-adv-x="1351" 
d="M1214 1087v-931q0 -164 -37 -273t-128 -186q-145 -121 -396 -121q-451 0 -563 344h301q78 -94 252 -94q153 0 231 72q24 22 38.5 47t20.5 58t7.5 59t1.5 73q-70 -68 -148.5 -101.5t-181.5 -33.5q-222 0 -372 158.5t-150 400.5q0 123 40.5 228.5t110 176.5t162 111.5
t195.5 40.5q188 0 344 -147v118h272zM659 866q-132 0 -213 -89.5t-81 -219.5q0 -134 85.5 -220.5t213.5 -86.5q127 0 209.5 84t82.5 221q0 134 -82 222.5t-215 88.5zM799 1618l-160 -334l-164 72l207 311z" />
    <glyph glyph-name="Hcircumflex" unicode="&#x124;" horiz-adv-x="1392" 
d="M170 0v1470h281v-552h495v552h281v-1470h-281v643h-495v-643h-281zM590 1581h-301l301 283h219l297 -283h-297l-109 129z" />
    <glyph glyph-name="hcircumflex" unicode="&#x125;" 
d="M139 0v1507h273v-530q161 139 321 139q162 0 267.5 -103.5t105.5 -293.5v-719h-272v514q0 72 -4 122.5t-15.5 96.5t-32.5 73.5t-54.5 43.5t-80.5 16q-117 0 -184 -106q-24 -38 -36 -87.5t-13.5 -84.5t-1.5 -103v-7.5v-7v-7.5v-463h-273zM168 1599h-301l301 283h219
l297 -283h-297l-108 130z" />
    <glyph glyph-name="Hbar" unicode="&#x126;" horiz-adv-x="1392" 
d="M451 1470v-178h491v178h283v-178h133v-164h-133v-1128h-283v645h-491v-645h-283v1128h-133v164h133v178h283zM942 1128h-491v-213h491v213z" />
    <glyph glyph-name="hbar" unicode="&#x127;" 
d="M410 1507v-123h321v-163h-321v-242q152 137 323 137q168 0 270.5 -105t102.5 -292v-719h-272v477q0 167 -15 238q-12 72 -57.5 111.5t-114.5 39.5q-85 0 -143 -55q-60 -57 -78 -129q-16 -75 -16 -246v-436h-273v1221h-137v163h137v123h273z" />
    <glyph glyph-name="Itilde" unicode="&#x128;" horiz-adv-x="573" 
d="M147 0v1470h281v-1470h-281zM174 1636q-86 0 -176 -53l-111 166q128 98 258 98q51 0 150 -27.5t147 -27.5q85 0 176 53l103 -157q-62 -53 -119 -80t-125 -27q-57 0 -154 27.5t-149 27.5z" />
    <glyph glyph-name="itilde" unicode="&#x129;" horiz-adv-x="491" 
d="M111 0v1087h272v-1087h-272zM113 1343q-86 0 -176 -53l-111 166q128 98 258 98q50 0 150 -27.5t147 -27.5q85 0 176 53l102 -157q-62 -54 -118.5 -80.5t-124.5 -26.5q-57 0 -154 27.5t-149 27.5z" />
    <glyph glyph-name="Imacron" unicode="&#x12a;" horiz-adv-x="573" 
d="M147 0v1470h281v-1470h-281zM573 1581h-569v219h569v-219z" />
    <glyph glyph-name="imacron" unicode="&#x12b;" horiz-adv-x="491" 
d="M111 0v1087h272v-1087h-272zM532 1288h-569v219h569v-219z" />
    <glyph glyph-name="Ibreve" unicode="&#x12c;" horiz-adv-x="573" 
d="M147 0v1470h281v-1470h-281zM471 1862h221q-19 -132 -124.5 -206.5t-282.5 -74.5q-175 0 -280 74.5t-126 206.5h221q50 -82 187 -82q131 0 184 82z" />
    <glyph glyph-name="ibreve" unicode="&#x12d;" horiz-adv-x="491" 
d="M111 0v1087h272v-1087h-272zM434 1569h221q-19 -132 -124.5 -206.5t-282.5 -74.5q-175 0 -280 74.5t-126 206.5h221q50 -82 187 -82q131 0 184 82z" />
    <glyph glyph-name="Iogonek" unicode="&#x12e;" horiz-adv-x="573" 
d="M147 0v1470h281v-1470h-59q-140 -82 -140 -164q0 -43 30 -67.5t73 -24.5q40 0 88 25v-158q-93 -19 -129 -19q-117 0 -180.5 54t-63.5 137q0 64 47 121.5t131 95.5h-78z" />
    <glyph glyph-name="iogonek" unicode="&#x12f;" horiz-adv-x="491" 
d="M111 0v1087h272v-1087h-66q-70 -41 -104.5 -80.5t-34.5 -83.5q0 -43 30 -67.5t73 -24.5q40 0 88 25v-158q-93 -19 -129 -19q-117 0 -180.5 54t-63.5 137q0 64 47 121.5t131 95.5h-63zM246 1536q73 0 123.5 -53t50.5 -127q0 -72 -51 -123t-123 -51q-74 0 -124 56t-50 132
q0 70 51.5 118t122.5 48z" />
    <glyph glyph-name="Idotaccent" unicode="&#x130;" horiz-adv-x="573" 
d="M147 0v1470h281v-1470h-281zM289 1866q60 0 100.5 -42t40.5 -102t-40.5 -101.5t-100.5 -41.5t-101 41.5t-41 101.5t41 102t101 42z" />
    <glyph glyph-name="dotlessi" unicode="&#x131;" horiz-adv-x="491" 
d="M111 0v1087h272v-1087h-272z" />
    <glyph glyph-name="IJ" unicode="&#x132;" horiz-adv-x="1556" 
d="M147 0v1470h281v-1470h-281zM1108 397v1073h281v-1026q0 -122 -16 -203.5t-62 -144.5q-97 -133 -287 -133q-243 0 -414 213l201 189q58 -63 105.5 -95t101.5 -32q90 0 90 159z" />
    <glyph glyph-name="ij" unicode="&#x133;" horiz-adv-x="1024" 
d="M111 0v1087h272v-1087h-272zM246 1536q73 0 123.5 -53t50.5 -127q0 -72 -51 -123t-123 -51q-74 0 -124 56t-50 132q0 70 51.5 118t122.5 48zM623 -55v1142h272v-1153q0 -360 -287 -360q-76 0 -205 41v215q64 -31 113 -31q58 0 82.5 35.5t24.5 110.5zM756 1536
q73 0 124.5 -53t51.5 -127q0 -72 -51 -123t-123 -51q-74 0 -124 56t-50 132q0 70 50.5 118t121.5 48z" />
    <glyph glyph-name="Jcircumflex" unicode="&#x134;" horiz-adv-x="983" 
d="M535 397v1073h280v-1026q0 -122 -16 -203.5t-62 -144.5q-97 -133 -286 -133q-243 0 -414 213l201 189q59 -64 105.5 -95.5t100.5 -31.5q91 0 91 159zM559 1581h-301l301 283h219l297 -283h-297l-108 129z" />
    <glyph glyph-name="jcircumflex" unicode="&#x135;" horiz-adv-x="532" 
d="M131 -55v1142h272v-1153q0 -360 -286 -360q-76 0 -205 41v215q64 -31 113 -31q58 0 82 35.5t24 110.5zM158 1288h-301l301 283h219l297 -283h-297l-109 129z" />
    <glyph glyph-name="Kcommaaccent" unicode="&#x136;" horiz-adv-x="1269" 
d="M172 0v1470h281v-505l399 505h338l-516 -655l565 -815h-332l-454 653v-653h-281zM543 -172l26 92q82 4 97 4q111 0 172 -50t61 -124q0 -81 -67.5 -138.5t-188.5 -57.5q-85 0 -194 34l34 131q75 -16 111 -16q106 0 106 72q0 57 -82 57q-5 0 -75 -4z" />
    <glyph glyph-name="kcommaaccent" unicode="&#x137;" horiz-adv-x="1187" 
d="M139 0v1507h273v-868l403 448h340l-467 -522l524 -565h-338l-462 502v-502h-273zM479 -172l27 92q82 4 96 4q112 0 173 -50t61 -124q0 -81 -67.5 -138.5t-188.5 -57.5q-86 0 -195 34l35 131q75 -16 110 -16q107 0 107 72q0 57 -82 57q-6 0 -76 -4z" />
    <glyph glyph-name="kgreenlandic" unicode="&#x138;" horiz-adv-x="1187" 
d="M139 0v1087h275v-448l401 448h342l-469 -522l526 -565h-340l-460 502v-502h-275z" />
    <glyph glyph-name="Lacute" unicode="&#x139;" horiz-adv-x="901" 
d="M168 0v1470h281v-1204h407v-266h-688zM248 1581l239 391h322l-365 -391h-196z" />
    <glyph glyph-name="lacute" unicode="&#x13a;" horiz-adv-x="491" 
d="M111 0v1507h272v-1507h-272zM70 1606l239 391h322l-365 -391h-196z" />
    <glyph glyph-name="Lcommaaccent" unicode="&#x13b;" horiz-adv-x="901" 
d="M168 0v1470h281v-1204h407v-266h-688zM371 -172l26 92q82 4 97 4q111 0 172 -50t61 -124q0 -81 -67.5 -138.5t-188.5 -57.5q-86 0 -195 34l35 131q75 -16 111 -16q106 0 106 72q0 57 -82 57q-5 0 -75 -4z" />
    <glyph glyph-name="lcommaaccent" unicode="&#x13c;" horiz-adv-x="491" 
d="M111 0v1507h272v-1507h-272zM113 -172l26 92q82 4 97 4q111 0 172 -50t61 -124q0 -81 -67.5 -138.5t-188.5 -57.5q-86 0 -195 34l35 131q75 -16 111 -16q106 0 106 72q0 57 -82 57q-5 0 -75 -4z" />
    <glyph glyph-name="Lcaron" unicode="&#x13d;" horiz-adv-x="901" 
d="M168 0v1470h281v-1204h407v-266h-688zM580 1223v284h251v-137q0 -133 -31.5 -227t-109.5 -197l-98 78q36 53 53.5 92t36.5 107h-102z" />
    <glyph glyph-name="lcaron" unicode="&#x13e;" horiz-adv-x="491" 
d="M109 0v1507h274v-1507h-274zM479 1223v284h252v-137q0 -133 -31.5 -227t-109.5 -197l-98 78q36 53 53.5 92t36.5 107h-103z" />
    <glyph glyph-name="Ldot" unicode="&#x13f;" horiz-adv-x="901" 
d="M168 0v1470h281v-1204h407v-266h-688zM676 897q60 0 101.5 -41.5t41.5 -101.5t-41.5 -102t-101.5 -42t-102 42t-42 102t42 101.5t102 41.5z" />
    <glyph glyph-name="ldot" unicode="&#x140;" horiz-adv-x="710" 
d="M109 0v1507h274v-1507h-274zM596 897q60 0 101.5 -41.5t41.5 -101.5t-41.5 -102t-101.5 -42t-101.5 42t-41.5 102t41.5 101.5t101.5 41.5z" />
    <glyph glyph-name="Lslash" unicode="&#x141;" horiz-adv-x="983" 
d="M489 1470v-475l224 262v-256l-224 -262v-473h408v-266h-688v412l-168 -197v256l168 197v802h280z" />
    <glyph glyph-name="lslash" unicode="&#x142;" horiz-adv-x="655" 
d="M465 1507v-477l108 123v-250l-108 -121v-782h-272v477l-111 -121v246l111 121v784h272z" />
    <glyph glyph-name="Nacute" unicode="&#x143;" horiz-adv-x="1515" 
d="M168 0v1470h268l631 -966v966h281v-1470h-271l-628 965v-965h-281zM633 1581l239 391h322l-365 -391h-196z" />
    <glyph glyph-name="nacute" unicode="&#x144;" 
d="M410 1087v-110q83 70 158.5 104.5t162.5 34.5q158 0 265.5 -101.5t107.5 -271.5v-743h-273v514q0 72 -3 120t-14 96t-30.5 75t-53.5 44t-83 17q-118 0 -184 -104q-26 -41 -38 -96t-13.5 -90t-1.5 -113v-463h-273v1087h273zM487 1288l240 391h322l-365 -391h-197z" />
    <glyph glyph-name="Ncommaaccent" unicode="&#x145;" horiz-adv-x="1515" 
d="M168 0v1470h268l631 -966v966h281v-1470h-271l-628 965v-965h-281zM631 -172l26 92q82 4 97 4q111 0 172 -50t61 -124q0 -81 -67.5 -138.5t-188.5 -57.5q-85 0 -194 34l34 131q75 -16 111 -16q106 0 106 72q0 57 -81 57q-6 0 -76 -4z" />
    <glyph glyph-name="ncommaaccent" unicode="&#x146;" 
d="M410 1087v-110q83 70 158.5 104.5t162.5 34.5q158 0 265.5 -101.5t107.5 -271.5v-743h-273v514q0 72 -3 120t-14 96t-30.5 75t-53.5 44t-83 17q-118 0 -184 -104q-26 -41 -38 -96t-13.5 -90t-1.5 -113v-463h-273v1087h273zM494 -172l26 92q82 4 96 4q112 0 173 -50
t61 -124q0 -81 -67.5 -138.5t-188.5 -57.5q-86 0 -195 34l35 131q75 -16 111 -16q106 0 106 72q0 57 -82 57q-5 0 -75 -4z" />
    <glyph glyph-name="Ncaron" unicode="&#x147;" horiz-adv-x="1515" 
d="M168 0v1470h268l631 -966v966h281v-1470h-271l-628 965v-965h-281zM657 1581l-301 283h301l111 -133l109 133h297l-297 -283h-220z" />
    <glyph glyph-name="ncaron" unicode="&#x148;" 
d="M410 1087v-110q83 70 158.5 104.5t162.5 34.5q158 0 265.5 -101.5t107.5 -271.5v-743h-273v514q0 72 -3 120t-14 96t-30.5 75t-53.5 44t-83 17q-118 0 -184 -104q-26 -41 -38 -96t-13.5 -90t-1.5 -113v-463h-273v1087h273zM530 1288l-301 283h301l111 -133l109 133h297
l-297 -283h-220z" />
    <glyph glyph-name="napostrophe" unicode="&#x149;" horiz-adv-x="1316" 
d="M225 0v1087h273v-110q92 76 166.5 107.5t156.5 31.5q163 0 275 -112q96 -96 96 -285v-719h-270v477q0 190 -19 258q-34 131 -168 131q-84 0 -143 -55t-82 -154q-12 -53 -12 -221v-436h-273zM-51 1223v284h252v-137q0 -130 -32.5 -224t-109.5 -200l-98 78q36 53 53 92.5
t35 106.5h-100z" />
    <glyph glyph-name="Eng" unicode="&#x14a;" horiz-adv-x="1622" 
d="M451 1470v-155q174 192 419 192q275 0 465 -217q191 -215 191 -557q0 -333 -144 -551q-145 -219 -407 -219q-131 0 -223 48t-179 165l199 186q94 -129 197 -129q125 0 200 140q74 139 74 342q0 246 -109.5 385t-285.5 139q-210 0 -397 -266v-973h-283v1470h283z" />
    <glyph glyph-name="eng" unicode="&#x14b;" 
d="M1106 719v-756q0 -238 -84 -313q-82 -76 -203 -76q-84 0 -205 41v215q67 -31 113 -31q53 0 78.5 31.5t25.5 114.5v536q0 171 -12 238q-11 68 -57 107.5t-117 39.5q-83 0 -141 -55q-61 -58 -78 -131q-16 -78 -16 -244v-436h-273v1087h273v-110q160 139 323 139
q168 0 270.5 -105.5t102.5 -291.5z" />
    <glyph glyph-name="Omacron" unicode="&#x14c;" horiz-adv-x="1720" 
d="M862 1507q151 0 290.5 -59t244 -160t167 -247t62.5 -310q0 -159 -60 -301.5t-161.5 -244t-242 -161t-296.5 -59.5q-160 0 -303.5 61t-245.5 164.5t-161.5 246t-59.5 300.5q0 160 61.5 303.5t164.5 245.5t244 161.5t296 59.5zM860 1239q-98 0 -186.5 -37t-153.5 -103
t-103 -161.5t-38 -206.5q0 -109 39.5 -203.5t105.5 -158.5t154.5 -100t185.5 -36q200 0 339.5 145t139.5 355q0 135 -61.5 250.5t-173 185.5t-248.5 70zM1165 1581h-569v219h569v-219z" />
    <glyph glyph-name="omacron" unicode="&#x14d;" horiz-adv-x="1310" 
d="M649 1116q157 0 289.5 -75t210.5 -206.5t78 -289.5q0 -156 -74 -287.5t-207 -209t-295 -77.5q-155 0 -285 76t-205 207.5t-75 288.5q0 121 46.5 228.5t123.5 182.5t180 118.5t213 43.5zM653 858q-127 0 -210 -89t-83 -224q0 -139 81 -227.5t212 -88.5q128 0 213.5 87
t85.5 227q0 139 -83 227t-216 88zM938 1288h-569v219h569v-219z" />
    <glyph glyph-name="Obreve" unicode="&#x14e;" horiz-adv-x="1720" 
d="M862 1507q151 0 290.5 -59t244 -160t167 -247t62.5 -310q0 -159 -60 -301.5t-161.5 -244t-242 -161t-296.5 -59.5q-160 0 -303.5 61t-245.5 164.5t-161.5 246t-59.5 300.5q0 160 61.5 303.5t164.5 245.5t244 161.5t296 59.5zM860 1239q-98 0 -186.5 -37t-153.5 -103
t-103 -161.5t-38 -206.5q0 -109 39.5 -203.5t105.5 -158.5t154.5 -100t185.5 -36q200 0 339.5 145t139.5 355q0 135 -61.5 250.5t-173 185.5t-248.5 70zM1061 1862h221q-19 -132 -125 -206.5t-283 -74.5q-175 0 -279.5 74.5t-125.5 206.5h221q50 -82 187 -82q131 0 184 82z
" />
    <glyph glyph-name="obreve" unicode="&#x14f;" horiz-adv-x="1310" 
d="M649 1116q157 0 289.5 -75t210.5 -206.5t78 -289.5q0 -156 -74 -287.5t-207 -209t-295 -77.5q-155 0 -285 76t-205 207.5t-75 288.5q0 121 46.5 228.5t123.5 182.5t180 118.5t213 43.5zM653 858q-127 0 -210 -89t-83 -224q0 -139 81 -227.5t212 -88.5q128 0 213.5 87
t85.5 227q0 139 -83 227t-216 88zM836 1569h221q-19 -132 -125 -206.5t-283 -74.5q-175 0 -279.5 74.5t-125.5 206.5h221q50 -82 186 -82q132 0 185 82z" />
    <glyph glyph-name="Ohungarumlaut" unicode="&#x150;" horiz-adv-x="1720" 
d="M862 1507q151 0 290.5 -59t244 -160t167 -247t62.5 -310q0 -159 -60 -301.5t-161.5 -244t-242 -161t-296.5 -59.5q-160 0 -303.5 61t-245.5 164.5t-161.5 246t-59.5 300.5q0 160 61.5 303.5t164.5 245.5t244 161.5t296 59.5zM860 1239q-98 0 -186.5 -37t-153.5 -103
t-103 -161.5t-38 -206.5q0 -109 39.5 -203.5t105.5 -158.5t154.5 -100t185.5 -36q200 0 339.5 145t139.5 355q0 135 -61.5 250.5t-173 185.5t-248.5 70zM494 1581l239 391h322l-365 -391h-196zM940 1581l240 391h321l-364 -391h-197z" />
    <glyph glyph-name="ohungarumlaut" unicode="&#x151;" horiz-adv-x="1310" 
d="M649 1116q157 0 289.5 -75t210.5 -206.5t78 -289.5q0 -156 -74 -287.5t-207 -209t-295 -77.5q-155 0 -285 76t-205 207.5t-75 288.5q0 121 46.5 228.5t123.5 182.5t180 118.5t213 43.5zM653 858q-127 0 -210 -89t-83 -224q0 -139 81 -227.5t212 -88.5q128 0 213.5 87
t85.5 227q0 139 -83 227t-216 88zM299 1288l240 391h321l-364 -391h-197zM745 1288l240 391h322l-365 -391h-197z" />
    <glyph glyph-name="OE" unicode="&#x152;" horiz-adv-x="2170" 
d="M1305 0v135q-193 -172 -465 -172q-160 0 -300 60t-237 163t-153 245t-56 302q0 165 59.5 310t160.5 246t239 159.5t291 58.5q254 0 461 -168v131h778v-274h-494v-266h494v-266h-494v-390h494v-274h-778zM836 1239q-91 0 -174.5 -37.5t-146.5 -103t-100.5 -160
t-37.5 -201.5q0 -112 38 -207.5t102.5 -160.5t151.5 -101.5t185 -36.5q193 0 323 142.5t130 353.5q0 148 -65 266.5t-172 182t-234 63.5z" />
    <glyph glyph-name="oe" unicode="&#x153;" horiz-adv-x="2211" 
d="M1552 1116q288 0 445 -194q75 -92 106 -203t29 -258h-883q17 -116 102.5 -185t202.5 -69q82 0 143 23.5t122 78.5l237 -106q-185 -232 -487 -232q-300 0 -459 209q-170 -209 -459 -209q-119 0 -225.5 46.5t-181 124t-118.5 180.5t-44 213q0 165 79.5 299.5t212 209
t288.5 74.5q138 0 254 -55t194 -158q172 211 442 211zM1260 676h600q-32 100 -110.5 152.5t-186.5 52.5q-106 0 -190.5 -54.5t-112.5 -150.5zM666 868q-136 0 -223 -92t-87 -239q0 -134 83 -225t212 -91q146 0 233 89.5t87 230.5q0 144 -87.5 235.5t-217.5 91.5z" />
    <glyph glyph-name="Racute" unicode="&#x154;" horiz-adv-x="1187" 
d="M186 0v1470h342q151 0 249 -25t167 -93q56 -55 87.5 -135t31.5 -173q0 -288 -283 -391l348 -653h-305l-329 623h-27v-623h-281zM467 1196v-301h129q192 0 192 152q0 73 -50.5 111t-149.5 38h-121zM397 1581l240 391h321l-364 -391h-197z" />
    <glyph glyph-name="racute" unicode="&#x155;" horiz-adv-x="655" 
d="M309 1087v-137q37 82 98.5 124t131.5 42q53 0 118 -29l-84 -233q-46 23 -79 23q-60 0 -101 -66.5t-45 -183.5q-2 -59 -2 -187v-440h-272v1087h235zM141 1288l240 391h321l-364 -391h-197z" />
    <glyph glyph-name="Rcommaaccent" unicode="&#x156;" horiz-adv-x="1187" 
d="M186 0v1470h342q151 0 249 -25t167 -93q56 -55 87.5 -135t31.5 -173q0 -288 -283 -391l348 -653h-305l-329 623h-27v-623h-281zM467 1196v-301h129q192 0 192 152q0 73 -50.5 111t-149.5 38h-121zM489 -172l27 92q82 4 96 4q112 0 173 -50t61 -124q0 -81 -67.5 -138.5
t-188.5 -57.5q-86 0 -195 34l35 131q75 -16 111 -16q106 0 106 72q0 57 -82 57q-6 0 -76 -4z" />
    <glyph glyph-name="rcommaaccent" unicode="&#x157;" horiz-adv-x="655" 
d="M309 1087v-137q37 82 98.5 124t131.5 42q53 0 118 -29l-84 -233q-46 23 -79 23q-60 0 -101 -66.5t-45 -183.5q-2 -59 -2 -187v-440h-272v1087h235zM88 -172l27 92q82 4 96 4q111 0 172 -50t61 -124q0 -81 -67.5 -138.5t-188.5 -57.5q-85 0 -194 34l35 131q75 -16 110 -16
q107 0 107 72q0 57 -82 57q-6 0 -76 -4z" />
    <glyph glyph-name="Rcaron" unicode="&#x158;" horiz-adv-x="1187" 
d="M186 0v1470h342q151 0 249 -25t167 -93q56 -55 87.5 -135t31.5 -173q0 -288 -283 -391l348 -653h-305l-329 623h-27v-623h-281zM467 1196v-301h129q192 0 192 152q0 73 -50.5 111t-149.5 38h-121zM446 1581l-301 283h301l111 -133l109 133h297l-297 -283h-220z" />
    <glyph glyph-name="rcaron" unicode="&#x159;" horiz-adv-x="655" 
d="M309 1087v-137q37 82 98.5 124t131.5 42q53 0 118 -29l-84 -233q-46 23 -79 23q-60 0 -101 -66.5t-45 -183.5q-2 -59 -2 -187v-440h-272v1087h235zM201 1288l-301 283h301l110 -133l109 133h297l-297 -283h-219z" />
    <glyph glyph-name="Sacute" unicode="&#x15a;" horiz-adv-x="1064" 
d="M41 283l235 141q103 -193 244 -193q70 0 120 40.5t50 97.5q0 40 -25 83t-69 80q-224 188 -288 249q-143 138 -180 249q-17 52 -17 107q0 156 118 263t285 107q129 0 228 -60.5t198 -174.5l-209 -185q-109 152 -221 152q-55 0 -90 -29t-35 -73q0 -27 14.5 -52.5
t28.5 -39.5t43 -39q52 -46 130 -110.5t121.5 -101t96.5 -90t80.5 -97t46.5 -102.5t19 -124q0 -185 -126 -301.5t-325 -116.5q-160 0 -275.5 79t-197.5 241zM307 1581l240 391h321l-364 -391h-197z" />
    <glyph glyph-name="sacute" unicode="&#x15b;" horiz-adv-x="901" 
d="M446 424l-92 47q-262 133 -262 332q0 130 99 221.5t253 91.5q107 0 200 -46.5t159 -133.5l-168 -170q-100 100 -189 100q-43 0 -70.5 -17t-27.5 -48q0 -26 20 -43t68 -42q7 -3 10 -5l101 -52q142 -73 209 -152.5t67 -195.5q0 -148 -107.5 -244t-283.5 -96
q-238 0 -381 187l168 184q48 -56 110.5 -91.5t116.5 -35.5q51 0 86 25.5t35 62.5q0 33 -30 61.5t-91 59.5zM252 1288l240 391h321l-364 -391h-197z" />
    <glyph glyph-name="Scircumflex" unicode="&#x15c;" horiz-adv-x="1064" 
d="M41 283l235 141q103 -193 244 -193q70 0 120 40.5t50 97.5q0 40 -25 83t-69 80q-224 188 -288 249q-143 138 -180 249q-17 52 -17 107q0 156 118 263t285 107q129 0 228 -60.5t198 -174.5l-209 -185q-109 152 -221 152q-55 0 -90 -29t-35 -73q0 -27 14.5 -52.5
t28.5 -39.5t43 -39q52 -46 130 -110.5t121.5 -101t96.5 -90t80.5 -97t46.5 -102.5t19 -124q0 -185 -126 -301.5t-325 -116.5q-160 0 -275.5 79t-197.5 241zM399 1581h-301l301 283h219l297 -283h-297l-108 129z" />
    <glyph glyph-name="scircumflex" unicode="&#x15d;" horiz-adv-x="901" 
d="M446 424l-92 47q-262 133 -262 332q0 130 99 221.5t253 91.5q107 0 200 -46.5t159 -133.5l-168 -170q-100 100 -189 100q-43 0 -70.5 -17t-27.5 -48q0 -26 20 -43t68 -42q7 -3 10 -5l101 -52q142 -73 209 -152.5t67 -195.5q0 -148 -107.5 -244t-283.5 -96
q-238 0 -381 187l168 184q48 -56 110.5 -91.5t116.5 -35.5q51 0 86 25.5t35 62.5q0 33 -30 61.5t-91 59.5zM338 1288h-301l301 283h219l297 -283h-297l-108 129z" />
    <glyph glyph-name="uni015E" unicode="&#x15e;" horiz-adv-x="1064" 
d="M401 -104l21 75q-245 40 -381 312l235 141q103 -193 244 -193q70 0 120 40.5t50 97.5q0 40 -25 83t-69 80q-224 188 -288 249q-143 138 -180 249q-17 52 -17 107q0 156 118 263t285 107q129 0 228 -60.5t198 -174.5l-209 -185q-109 152 -221 152q-55 0 -90 -29t-35 -73
q0 -27 14.5 -52.5t28.5 -39.5t43 -39q52 -46 130 -110.5t121.5 -101t96.5 -90t80.5 -97t46.5 -102.5t19 -124q0 -165 -101.5 -277t-269.5 -135q66 -17 104.5 -59t38.5 -94q0 -81 -68.5 -139t-189.5 -58q-102 0 -221 45l37 131q74 -24 139 -24q47 0 75 18.5t28 52.5
q0 56 -84 56q-32 0 -52 -2z" />
    <glyph glyph-name="uni015F" unicode="&#x15f;" horiz-adv-x="901" 
d="M330 -104l22 81q-183 27 -301 181l168 184q48 -56 110.5 -91.5t116.5 -35.5q51 0 86 25.5t35 62.5q0 33 -30 61.5t-91 59.5l-92 47q-262 133 -262 332q0 130 99 221.5t253 91.5q107 0 200 -46.5t159 -133.5l-168 -170q-100 100 -189 100q-43 0 -70.5 -17t-27.5 -48
q0 -26 20 -43t68 -42q7 -3 10 -5l101 -52q142 -73 209 -152.5t67 -195.5q0 -127 -81.5 -217.5t-219.5 -113.5l-2 -11q67 -15 106.5 -57.5t39.5 -95.5q0 -81 -68.5 -139t-189.5 -58q-103 0 -222 45l37 131q74 -24 139 -24q47 0 75 18.5t28 52.5q0 56 -84 56q-31 0 -51 -2z
" />
    <glyph glyph-name="Scaron" unicode="&#x160;" horiz-adv-x="1064" 
d="M41 283l235 141q103 -193 244 -193q70 0 120 40.5t50 97.5q0 40 -25 83t-69 80q-224 188 -288 249q-143 138 -180 249q-17 52 -17 107q0 156 118 263t285 107q129 0 228 -60.5t198 -174.5l-209 -185q-109 152 -221 152q-55 0 -90 -29t-35 -73q0 -27 14.5 -52.5
t28.5 -39.5t43 -39q52 -46 130 -110.5t121.5 -101t96.5 -90t80.5 -97t46.5 -102.5t19 -124q0 -185 -126 -301.5t-325 -116.5q-160 0 -275.5 79t-197.5 241zM428 1581l-301 283h301l111 -133l108 133h297l-297 -283h-219z" />
    <glyph glyph-name="scaron" unicode="&#x161;" horiz-adv-x="901" 
d="M446 424l-92 47q-262 133 -262 332q0 130 99 221.5t253 91.5q107 0 200 -46.5t159 -133.5l-168 -170q-100 100 -189 100q-43 0 -70.5 -17t-27.5 -48q0 -26 20 -43t68 -42q7 -3 10 -5l101 -52q142 -73 209 -152.5t67 -195.5q0 -148 -107.5 -244t-283.5 -96
q-238 0 -381 187l168 184q48 -56 110.5 -91.5t116.5 -35.5q51 0 86 25.5t35 62.5q0 33 -30 61.5t-91 59.5zM346 1288l-301 283h301l111 -133l108 133h297l-297 -283h-219z" />
    <glyph glyph-name="Tcommaaccent" unicode="&#x162;" horiz-adv-x="860" 
d="M23 1196v274h813v-274h-271v-1196h-280v1196h-262zM297 -172l27 92q82 4 96 4q111 0 172 -50t61 -124q0 -81 -67.5 -138.5t-188.5 -57.5q-85 0 -194 34l35 131q75 -16 110 -16q107 0 107 72q0 57 -82 57q-6 0 -76 -4z" />
    <glyph glyph-name="tcommaaccent" unicode="&#x163;" horiz-adv-x="614" 
d="M170 1087v402h272v-402h162v-233h-162v-854h-272v854h-139v233h139zM164 -172l26 92q82 4 97 4q111 0 172 -50t61 -124q0 -81 -67.5 -138.5t-188.5 -57.5q-85 0 -194 34l34 131q75 -16 111 -16q107 0 107 72q0 57 -82 57q-6 0 -76 -4z" />
    <glyph glyph-name="Tcaron" unicode="&#x164;" horiz-adv-x="860" 
d="M23 1196v274h813v-274h-271v-1196h-280v1196h-262zM328 1581l-301 283h301l110 -133l109 133h297l-297 -283h-219z" />
    <glyph glyph-name="tcaron" unicode="&#x165;" horiz-adv-x="614" 
d="M596 1339v168h203v-49q0 -199 -115 -338l-80 62q65 80 74 157h-82zM170 1087v402h272v-402h162v-233h-162v-854h-272v854h-139v233h139z" />
    <glyph glyph-name="Tbar" unicode="&#x166;" horiz-adv-x="860" 
d="M571 1194v-401h217v-164h-217v-629h-282v629h-217v164h217v401h-266v276h813v-276h-265z" />
    <glyph glyph-name="tbar" unicode="&#x167;" horiz-adv-x="614" 
d="M442 854v-238h187v-163h-187v-453h-272v453h-164v163h164v238h-139v233h139v402h272v-402h162v-233h-162z" />
    <glyph glyph-name="Utilde" unicode="&#x168;" horiz-adv-x="1310" 
d="M158 551v919h280v-995q0 -119 55.5 -180.5t157.5 -61.5q60 0 110.5 24t76.5 65q34 52 34 192v956h281v-935q0 -144 -21.5 -235t-97.5 -179q-135 -156 -377 -156q-231 0 -364 139q-83 86 -109 186t-26 261zM516 1636q-86 0 -176 -53l-111 166q128 98 258 98
q51 0 150 -27.5t147 -27.5q86 0 177 53l102 -157q-62 -53 -119 -80t-125 -27q-57 0 -154 27.5t-149 27.5z" />
    <glyph glyph-name="utilde" unicode="&#x169;" 
d="M139 590v497h273v-567q0 -149 49 -223t155 -74t155.5 72t49.5 213v579h273v-501q0 -174 -24 -280.5t-103 -194.5q-124 -138 -351 -138q-197 0 -315.5 98.5t-150.5 288.5q-4 26 -6.5 47.5t-3.5 48t-1 38v48.5v48zM489 1343q-86 0 -176 -53l-110 166q128 98 258 98
q51 0 150 -27.5t147 -27.5q85 0 176 53l102 -157q-62 -54 -118.5 -80.5t-124.5 -26.5q-57 0 -154.5 27.5t-149.5 27.5z" />
    <glyph glyph-name="Umacron" unicode="&#x16a;" horiz-adv-x="1310" 
d="M158 551v919h280v-995q0 -119 55.5 -180.5t157.5 -61.5q60 0 110.5 24t76.5 65q34 52 34 192v956h281v-935q0 -144 -21.5 -235t-97.5 -179q-135 -156 -377 -156q-231 0 -364 139q-83 86 -109 186t-26 261zM948 1581h-569v219h569v-219z" />
    <glyph glyph-name="umacron" unicode="&#x16b;" 
d="M139 590v497h273v-567q0 -149 49 -223t155 -74t155.5 72t49.5 213v579h273v-501q0 -174 -24 -280.5t-103 -194.5q-124 -138 -351 -138q-197 0 -315.5 98.5t-150.5 288.5q-4 26 -6.5 47.5t-3.5 48t-1 38v48.5v48zM907 1288h-569v219h569v-219z" />
    <glyph glyph-name="Ubreve" unicode="&#x16c;" horiz-adv-x="1310" 
d="M158 551v919h280v-995q0 -119 55.5 -180.5t157.5 -61.5q60 0 110.5 24t76.5 65q34 52 34 192v956h281v-935q0 -144 -21.5 -235t-97.5 -179q-135 -156 -377 -156q-231 0 -364 139q-83 86 -109 186t-26 261zM846 1862h221q-19 -132 -125 -206.5t-283 -74.5
q-175 0 -279.5 74.5t-125.5 206.5h221q50 -82 187 -82q131 0 184 82z" />
    <glyph glyph-name="ubreve" unicode="&#x16d;" 
d="M139 590v497h273v-567q0 -149 49 -223t155 -74t155.5 72t49.5 213v579h273v-501q0 -174 -24 -280.5t-103 -194.5q-124 -138 -351 -138q-197 0 -315.5 98.5t-150.5 288.5q-4 26 -6.5 47.5t-3.5 48t-1 38v48.5v48zM803 1569h221q-19 -132 -125 -206.5t-283 -74.5
q-175 0 -279.5 74.5t-125.5 206.5h221q50 -82 186 -82q132 0 185 82z" />
    <glyph glyph-name="Uring" unicode="&#x16e;" horiz-adv-x="1310" 
d="M158 551v919h280v-995q0 -119 55.5 -180.5t157.5 -61.5q60 0 110.5 24t76.5 65q34 52 34 192v956h281v-935q0 -144 -21.5 -235t-97.5 -179q-135 -156 -377 -156q-231 0 -364 139q-83 86 -109 186t-26 261zM653 2019q92 0 155.5 -64t63.5 -155q0 -92 -64 -155.5
t-155 -63.5t-155 63.5t-64 155.5q0 91 63.5 155t155.5 64zM653 1886q-34 0 -60 -25t-26 -61q0 -37 25.5 -61.5t60.5 -24.5t60.5 24.5t25.5 61.5q0 36 -26 61t-60 25z" />
    <glyph glyph-name="uring" unicode="&#x16f;" 
d="M139 590v497h273v-567q0 -149 49 -223t155 -74t155.5 72t49.5 213v579h273v-501q0 -174 -24 -280.5t-103 -194.5q-124 -138 -351 -138q-197 0 -315.5 98.5t-150.5 288.5q-4 26 -6.5 47.5t-3.5 48t-1 38v48.5v48zM614 1726q92 0 156 -64t64 -155q0 -92 -64.5 -155.5
t-155.5 -63.5t-155 63.5t-64 155.5q0 91 63.5 155t155.5 64zM614 1593q-34 0 -60 -25t-26 -61q0 -37 25.5 -61.5t60.5 -24.5t60.5 24.5t25.5 61.5q0 36 -26 61t-60 25z" />
    <glyph glyph-name="Uhungarumlaut" unicode="&#x170;" horiz-adv-x="1310" 
d="M158 551v919h280v-995q0 -119 55.5 -180.5t157.5 -61.5q60 0 110.5 24t76.5 65q34 52 34 192v956h281v-935q0 -144 -21.5 -235t-97.5 -179q-135 -156 -377 -156q-231 0 -364 139q-83 86 -109 186t-26 261zM291 1581l239 391h322l-365 -391h-196zM737 1581l240 391h321
l-364 -391h-197z" />
    <glyph glyph-name="uhungarumlaut" unicode="&#x171;" 
d="M139 590v497h273v-567q0 -149 49 -223t155 -74t155.5 72t49.5 213v579h273v-501q0 -174 -24 -280.5t-103 -194.5q-124 -138 -351 -138q-197 0 -315.5 98.5t-150.5 288.5q-4 26 -6.5 47.5t-3.5 48t-1 38v48.5v48zM229 1288l240 391h322l-365 -391h-197zM676 1288l239 391
h322l-365 -391h-196z" />
    <glyph glyph-name="Uogonek" unicode="&#x172;" horiz-adv-x="1310" 
d="M842 -231v-158q-93 -19 -129 -19q-117 0 -180.5 54t-63.5 137q0 109 119 186q-181 15 -295 135q-83 86 -109 186t-26 261v919h280v-995q0 -119 55.5 -180.5t157.5 -61.5q60 0 110.5 24t76.5 65q34 52 34 192v956h281v-935q0 -144 -21.5 -235t-97.5 -179
q-115 -129 -291 -150q-92 -65 -92 -135q0 -43 30 -67.5t73 -24.5q40 0 88 25z" />
    <glyph glyph-name="uogonek" unicode="&#x173;" 
d="M840 -231v-158q-93 -19 -129 -19q-117 0 -180.5 54t-63.5 137q0 54 33.5 103.5t93.5 86.5q-188 6 -300.5 104t-143.5 283q-4 26 -6.5 47.5t-3.5 48t-1 38v48.5v48v497h273v-567q0 -149 49 -223t155 -74t155.5 72t49.5 213v579h273v-501q0 -174 -24 -280.5t-103 -194.5
q-81 -90 -191 -117q-127 -79 -127 -158q0 -43 30 -67.5t73 -24.5q40 0 88 25z" />
    <glyph glyph-name="Wcircumflex" unicode="&#x174;" horiz-adv-x="1843" 
d="M389 0l-334 1470h277l211 -938l264 938h233l267 -938l209 938h276l-332 -1470h-268l-272 950l-265 -950h-266zM815 1581h-301l301 283h219l297 -283h-297l-108 129z" />
    <glyph glyph-name="wcircumflex" unicode="&#x175;" horiz-adv-x="1638" 
d="M410 0l-394 1087h269l217 -618l235 618h164l232 -610l219 610h268l-395 -1087h-174l-232 621l-239 -621h-170zM715 1288h-301l301 283h219l297 -283h-297l-109 129z" />
    <glyph glyph-name="Ycircumflex" unicode="&#x176;" horiz-adv-x="1269" 
d="M498 637l-435 833h302l274 -526l270 526h299l-430 -833v-637h-280v637zM539 1581h-301l301 283h219l297 -283h-297l-109 129z" />
    <glyph glyph-name="ycircumflex" unicode="&#x177;" horiz-adv-x="1187" 
d="M432 82l-414 1005h279l283 -681l313 681h281l-685 -1484h-280zM502 1288h-301l301 283h219l297 -283h-297l-109 129z" />
    <glyph glyph-name="Ydieresis" unicode="&#x178;" horiz-adv-x="1269" 
d="M498 637l-435 833h302l274 -526l270 526h299l-430 -833v-637h-280v637zM414 1866q60 0 100.5 -42t40.5 -102t-40.5 -101.5t-100.5 -41.5t-101 41.5t-41 101.5t41 102t101 42zM856 1866q60 0 100.5 -42t40.5 -102t-41 -101.5t-100 -41.5q-60 0 -100.5 41.5t-40.5 101.5
t40.5 102t100.5 42z" />
    <glyph glyph-name="Zacute" unicode="&#x179;" horiz-adv-x="1024" 
d="M90 1196v274h889l-524 -1204h491v-266h-899l522 1196h-479zM348 1581l240 391h321l-364 -391h-197z" />
    <glyph glyph-name="zacute" unicode="&#x17a;" horiz-adv-x="942" 
d="M92 856v231h834l-490 -856h463v-231h-883l492 856h-416zM352 1288l240 391h321l-364 -391h-197z" />
    <glyph glyph-name="Zdotaccent" unicode="&#x17b;" horiz-adv-x="1024" 
d="M90 1196v274h889l-524 -1204h491v-266h-899l522 1196h-479zM535 1866q60 0 100.5 -42t40.5 -102t-40.5 -101.5t-100.5 -41.5t-101 41.5t-41 101.5t41 102t101 42z" />
    <glyph glyph-name="zdotaccent" unicode="&#x17c;" horiz-adv-x="942" 
d="M92 856v231h834l-490 -856h463v-231h-883l492 856h-416zM510 1573q60 0 100.5 -41.5t40.5 -101.5t-40.5 -102t-100.5 -42t-100.5 42t-40.5 102t40.5 101.5t100.5 41.5z" />
    <glyph glyph-name="Zcaron" unicode="&#x17d;" horiz-adv-x="1024" 
d="M90 1196v274h889l-524 -1204h491v-266h-899l522 1196h-479zM408 1581l-302 283h302l110 -133l109 133h297l-297 -283h-219z" />
    <glyph glyph-name="zcaron" unicode="&#x17e;" horiz-adv-x="942" 
d="M92 856v231h834l-490 -856h463v-231h-883l492 856h-416zM367 1288l-301 283h301l110 -133l109 133h297l-297 -283h-219z" />
    <glyph glyph-name="florin" unicode="&#x192;" horiz-adv-x="1146" 
d="M504 934l33 250q24 183 92 266.5t202 83.5q74 0 127.5 -20t118.5 -60l-33 -240q-85 62 -139 62q-22 0 -38.5 -10t-27 -24t-18.5 -42t-12 -52t-10 -65l-21 -149h226l-35 -234h-226l-106 -755q-27 -185 -99.5 -278t-199.5 -93q-67 0 -128 22.5t-138 67.5l34 242
q91 -74 160 -74q26 0 43.5 11.5t27 33.5t14 44.5t9.5 54.5q0 5 0.5 8.5t1.5 7.5l109 708h-227l32 234h228z" />
    <glyph glyph-name="AEacute" unicode="&#x1fc;" horiz-adv-x="1843" 
d="M57 0l717 1470h963v-274h-514v-266h514v-266h-514v-390h514v-274h-795v305h-448l-148 -305h-289zM625 580h317v643zM944 1581l240 391h321l-364 -391h-197z" />
    <glyph glyph-name="aeacute" unicode="&#x1fd;" horiz-adv-x="2211" 
d="M991 0v137q-77 -87 -162 -126.5t-200 -39.5q-231 0 -385 163.5t-154 408.5q0 116 41.5 221.5t113.5 183.5t174 124t218 46q208 0 354 -172v141h252v-79q70 57 146.5 82.5t175.5 25.5q119 0 223.5 -42.5t181 -119.5t120.5 -190t44 -248q0 -33 -2 -53h-877
q23 -118 105.5 -186t204.5 -68q84 0 143 25t121 85l229 -108q-79 -117 -203.5 -178.5t-279.5 -61.5q-202 0 -332 107v-78h-252zM682 868q-137 0 -227 -92.5t-90 -238.5q0 -131 87.5 -223.5t227.5 -92.5q143 0 228 92.5t85 233.5q0 143 -88.5 232t-222.5 89zM1268 676h592
q-25 95 -102.5 151t-186.5 56q-107 0 -186 -53t-117 -154zM969 1288l239 391h322l-365 -391h-196z" />
    <glyph glyph-name="Oslashacute" unicode="&#x1fe;" horiz-adv-x="1720" 
d="M1593 1448l-166 -195q199 -220 199 -522q0 -160 -60 -302.5t-162 -244t-242.5 -160.5t-295.5 -59q-242 0 -426 123l-172 -203l-125 107l170 203q-105 108 -161 247t-56 293q0 161 61.5 305t165 246t244.5 161.5t295 59.5q239 0 443 -143l161 188zM1245 1038l-624 -739
q116 -66 245 -66q130 0 239.5 66t173.5 181t64 253q0 171 -98 305zM492 406l636 747q-120 86 -268 86q-98 0 -186.5 -37t-153.5 -103t-103 -161.5t-38 -206.5q0 -195 113 -325zM672 1581l239 391h322l-365 -391h-196z" />
    <glyph glyph-name="oslashacute" unicode="&#x1ff;" horiz-adv-x="1351" 
d="M1251 1042l-127 -141q123 -156 123 -356q0 -117 -43.5 -222.5t-119 -183t-183 -123t-229.5 -45.5q-169 0 -303 88l-129 -145l-125 109l131 145q-140 158 -140 375q0 161 79 293.5t208 206t277 73.5q183 0 334 -102l124 139zM940 696l-395 -442q54 -25 129 -25
q128 0 213.5 87t85.5 227q0 80 -33 153zM424 367l405 452q-65 39 -155 39q-127 0 -210 -89t-83 -224q0 -99 43 -178zM475 1288l240 391h321l-364 -391h-197z" />
    <glyph glyph-name="uni0218" unicode="&#x218;" horiz-adv-x="1064" 
d="M41 283l235 141q103 -193 244 -193q70 0 120 40.5t50 97.5q0 40 -25 83t-69 80q-224 188 -288 249q-143 138 -180 249q-17 52 -17 107q0 156 118 263t285 107q129 0 228 -60.5t198 -174.5l-209 -185q-109 152 -221 152q-55 0 -90 -29t-35 -73q0 -27 14.5 -52.5
t28.5 -39.5t43 -39q52 -46 130 -110.5t121.5 -101t96.5 -90t80.5 -97t46.5 -102.5t19 -124q0 -185 -126 -301.5t-325 -116.5q-160 0 -275.5 79t-197.5 241zM371 -172l26 92q82 4 97 4q111 0 172 -50t61 -124q0 -81 -67.5 -138.5t-188.5 -57.5q-86 0 -195 34l35 131
q75 -16 111 -16q106 0 106 72q0 57 -82 57q-5 0 -75 -4z" />
    <glyph glyph-name="uni0219" unicode="&#x219;" horiz-adv-x="901" 
d="M446 424l-92 47q-262 133 -262 332q0 130 99 221.5t253 91.5q107 0 200 -46.5t159 -133.5l-168 -170q-100 100 -189 100q-43 0 -70.5 -17t-27.5 -48q0 -26 20 -43t68 -42q7 -3 10 -5l101 -52q142 -73 209 -152.5t67 -195.5q0 -148 -107.5 -244t-283.5 -96
q-238 0 -381 187l168 184q48 -56 110.5 -91.5t116.5 -35.5q51 0 86 25.5t35 62.5q0 33 -30 61.5t-91 59.5zM291 -172l26 92q82 4 97 4q111 0 172 -50t61 -124q0 -81 -67.5 -138.5t-188.5 -57.5q-85 0 -194 34l34 131q75 -16 111 -16q107 0 107 72q0 57 -82 57q-6 0 -76 -4z
" />
    <glyph glyph-name="uni021A" unicode="&#x21a;" horiz-adv-x="860" 
d="M23 1196v274h813v-274h-271v-1196h-280v1196h-262zM297 -172l27 92q82 4 96 4q111 0 172 -50t61 -124q0 -81 -67.5 -138.5t-188.5 -57.5q-85 0 -194 34l35 131q75 -16 110 -16q107 0 107 72q0 57 -82 57q-6 0 -76 -4z" />
    <glyph glyph-name="uni021B" unicode="&#x21b;" horiz-adv-x="614" 
d="M170 1087v402h272v-402h162v-233h-162v-854h-272v854h-139v233h139zM164 -172l26 92q82 4 97 4q111 0 172 -50t61 -124q0 -81 -67.5 -138.5t-188.5 -57.5q-85 0 -194 34l34 131q75 -16 111 -16q107 0 107 72q0 57 -82 57q-6 0 -76 -4z" />
    <glyph glyph-name="circumflex" unicode="&#x2c6;" horiz-adv-x="1105" 
d="M446 1288h-301l301 283h220l297 -283h-297l-109 129z" />
    <glyph glyph-name="caron" unicode="&#x2c7;" horiz-adv-x="1105" 
d="M446 1288l-301 283h301l111 -133l109 133h297l-297 -283h-220z" />
    <glyph glyph-name="uni02C9" unicode="&#x2c9;" horiz-adv-x="860" 
d="M715 1288h-570v219h570v-219z" />
    <glyph glyph-name="breve" unicode="&#x2d8;" horiz-adv-x="983" 
d="M676 1569h221q-19 -132 -125 -206.5t-283 -74.5q-175 0 -279.5 74.5t-125.5 206.5h221q50 -82 187 -82q131 0 184 82z" />
    <glyph glyph-name="dotaccent" unicode="&#x2d9;" horiz-adv-x="573" 
d="M287 1573q60 0 100.5 -41.5t40.5 -101.5t-40.5 -102t-100.5 -42t-101 42t-41 102t41 101.5t101 41.5z" />
    <glyph glyph-name="ring" unicode="&#x2da;" horiz-adv-x="737" 
d="M369 1726q92 0 155.5 -64t63.5 -155q0 -92 -64 -155.5t-155 -63.5t-155 63.5t-64 155.5q0 91 63.5 155t155.5 64zM369 1593q-34 0 -60 -25t-26 -61q0 -37 25.5 -61.5t60.5 -24.5t60.5 24.5t25.5 61.5q0 36 -26 61t-60 25z" />
    <glyph glyph-name="ogonek" unicode="&#x2db;" horiz-adv-x="696" 
d="M535 -231v-158q-93 -19 -129 -19q-117 0 -180.5 54t-63.5 137q0 64 47 121.5t131 95.5h143q-70 -41 -104.5 -80.5t-34.5 -83.5t30 -68t72 -24q41 0 89 25z" />
    <glyph glyph-name="tilde" unicode="&#x2dc;" horiz-adv-x="983" 
d="M362 1343q-86 0 -176 -53l-110 166q128 98 258 98q50 0 150 -27.5t147 -27.5q85 0 176 53l102 -157q-62 -54 -118.5 -80.5t-124.5 -26.5q-57 0 -154.5 27.5t-149.5 27.5z" />
    <glyph glyph-name="hungarumlaut" unicode="&#x2dd;" horiz-adv-x="1433" 
d="M330 1288l239 391h322l-365 -391h-196zM776 1288l240 391h321l-364 -391h-197z" />
    <glyph glyph-name="uni03A9" unicode="&#x3a9;" horiz-adv-x="1466" 
d="M1364 0h-522v223q45 46 79.5 91.5t71 112t56.5 152t20 183.5q0 205 -87 330t-245 125q-156 0 -250 -127t-94 -334q0 -312 230 -533v-223h-523v223h297q-45 36 -81.5 70.5t-79.5 90t-72 115t-48.5 143t-19.5 175.5q0 184 81 330t229 228.5t337 82.5q150 0 269.5 -48.5
t196.5 -134t118 -201t41 -251.5q0 -366 -305 -600h301v-223z" />
    <glyph glyph-name="uni03BC" unicode="&#x3bc;" horiz-adv-x="1179" 
d="M811 0v127q-80 -156 -219 -156q-147 0 -230 148v-516h-272v1484h272v-571q0 -72 8.5 -120t37.5 -93q31 -46 81 -73t105 -27t100.5 27t75.5 75q26 45 33.5 94t7.5 125v563h281v-1087h-281z" />
    <glyph glyph-name="pi" unicode="&#x3c0;" horiz-adv-x="1357" 
d="M1245 201l47 -174q-73 -45 -196 -45q-81 0 -140 26t-92.5 72.5t-49 102.5t-15.5 124v516h-193v-512q0 -201 -37 -311h-282q41 127 41 336v487q-42 0 -97.5 -14t-89.5 -35q-13 28 -38 87t-37 87q52 32 140 54t193 22h879v-201h-203v-479q0 -164 103 -164q29 0 67 21z" />
    <glyph glyph-name="Wgrave" unicode="&#x1e80;" horiz-adv-x="1843" 
d="M389 0l-334 1470h277l211 -938l264 938h233l267 -938l209 938h276l-332 -1470h-268l-272 950l-265 -950h-266zM487 1972h324l238 -391h-195z" />
    <glyph glyph-name="wgrave" unicode="&#x1e81;" horiz-adv-x="1638" 
d="M410 0l-394 1087h269l217 -618l235 618h164l232 -610l219 610h268l-395 -1087h-174l-232 621l-239 -621h-170zM358 1679h324l238 -391h-195z" />
    <glyph glyph-name="Wacute" unicode="&#x1e82;" horiz-adv-x="1843" 
d="M389 0l-334 1470h277l211 -938l264 938h233l267 -938l209 938h276l-332 -1470h-268l-272 950l-265 -950h-266zM676 1581l239 391h322l-365 -391h-196z" />
    <glyph glyph-name="wacute" unicode="&#x1e83;" horiz-adv-x="1638" 
d="M410 0l-394 1087h269l217 -618l235 618h164l232 -610l219 610h268l-395 -1087h-174l-232 621l-239 -621h-170zM643 1288l240 391h321l-364 -391h-197z" />
    <glyph glyph-name="Wdieresis" unicode="&#x1e84;" horiz-adv-x="1843" 
d="M389 0l-334 1470h277l211 -938l264 938h233l267 -938l209 938h276l-332 -1470h-268l-272 950l-265 -950h-266zM707 1866q60 0 100.5 -42t40.5 -102t-40.5 -101.5t-100.5 -41.5t-101 41.5t-41 101.5t41 102t101 42zM1149 1866q60 0 100.5 -42t40.5 -102t-41 -101.5
t-100 -41.5q-60 0 -100.5 41.5t-40.5 101.5t40.5 102t100.5 42z" />
    <glyph glyph-name="wdieresis" unicode="&#x1e85;" horiz-adv-x="1638" 
d="M410 0l-394 1087h269l217 -618l235 618h164l232 -610l219 610h268l-395 -1087h-174l-232 621l-239 -621h-170zM600 1573q60 0 100.5 -41.5t40.5 -101.5t-40.5 -102t-100.5 -42t-100.5 42t-40.5 102t40.5 101.5t100.5 41.5zM1042 1573q60 0 101 -41.5t41 -101.5
t-41.5 -102t-100.5 -42q-60 0 -100.5 42t-40.5 102t40.5 101.5t100.5 41.5z" />
    <glyph glyph-name="Ygrave" unicode="&#x1ef2;" horiz-adv-x="1269" 
d="M498 637l-435 833h302l274 -526l270 526h299l-430 -833v-637h-280v637zM180 1972h324l237 -391h-194z" />
    <glyph glyph-name="ygrave" unicode="&#x1ef3;" horiz-adv-x="1187" 
d="M432 82l-414 1005h279l283 -681l313 681h281l-685 -1484h-280zM166 1679h323l238 -391h-195z" />
    <glyph glyph-name="endash" unicode="&#x2013;" horiz-adv-x="1024" 
d="M1036 471h-1048v240h1048v-240z" />
    <glyph glyph-name="emdash" unicode="&#x2014;" horiz-adv-x="2048" 
d="M2060 471h-2072v240h2072v-240z" />
    <glyph glyph-name="quoteleft" unicode="&#x2018;" horiz-adv-x="573" 
d="M418 1233v-285h-252v137q0 131 33 227t110 195l97 -75q-19 -28 -29 -44.5t-28.5 -59.5t-31.5 -95h101z" />
    <glyph glyph-name="quoteright" unicode="&#x2019;" horiz-adv-x="573" 
d="M156 1223v284h252v-137q0 -131 -33 -226.5t-109 -195.5l-98 76q29 42 48.5 84.5t24.5 60t15 54.5h-100z" />
    <glyph glyph-name="quotesinglbase" unicode="&#x201a;" horiz-adv-x="573" 
d="M156 0v285h252v-138q0 -131 -32.5 -226t-109.5 -195l-98 75q29 42 48.5 84.5t24.5 60t15 54.5h-100z" />
    <glyph glyph-name="quotedblleft" unicode="&#x201c;" horiz-adv-x="983" 
d="M416 1233v-285h-252v137q0 131 33 227t110 195l96 -75q-60 -88 -88 -199h101zM823 1233v-285h-252v137q0 130 33.5 226t110.5 196l96 -75q-60 -88 -88 -199h100z" />
    <glyph glyph-name="quotedblright" unicode="&#x201d;" horiz-adv-x="983" 
d="M567 1223v284h252v-137q0 -132 -32.5 -227t-108.5 -195l-98 76q29 42 48.5 84.5t24.5 60t15 54.5h-101zM160 1223v284h252v-137q0 -131 -33 -226.5t-109 -195.5l-98 76q29 42 48.5 84.5t24.5 60t15 54.5h-100z" />
    <glyph glyph-name="quotedblbase" unicode="&#x201e;" horiz-adv-x="983" 
d="M567 0v285h252v-138q0 -131 -32.5 -226t-108.5 -195l-98 75q29 42 48.5 84.5t24.5 60t15 54.5h-101zM160 0v285h252v-138q0 -131 -32.5 -226t-109.5 -195l-98 75q29 42 48.5 84.5t24.5 60t15 54.5h-100z" />
    <glyph glyph-name="dagger" unicode="&#x2020;" horiz-adv-x="1146" 
d="M492 961l-52 546h269l-50 -546l453 49v-273l-453 56l50 -1190h-269l52 1190l-453 -56v273z" />
    <glyph glyph-name="daggerdbl" unicode="&#x2021;" horiz-adv-x="1146" 
d="M487 1040l-49 467h271l-52 -467l455 47v-268l-455 53l52 -323l-52 -322l455 56v-275l-455 53l52 -458h-271l49 458l-448 -53v275l448 -56l-49 322l49 323l-448 -53v268z" />
    <glyph glyph-name="bullet" unicode="&#x2022;" 
d="M614 1053q128 0 218 -90.5t90 -217.5q0 -126 -90.5 -216.5t-217.5 -90.5q-128 0 -217.5 90t-89.5 217q0 128 90 218t217 90z" />
    <glyph glyph-name="ellipsis" unicode="&#x2026;" horiz-adv-x="2048" 
d="M1024 285q65 0 111.5 -46t46.5 -110q0 -65 -46 -111.5t-112 -46.5q-64 0 -110 46.5t-46 111.5q0 66 45.5 111t110.5 45zM342 285q64 0 110 -45.5t46 -110.5t-45.5 -111.5t-110.5 -46.5q-64 0 -111 46.5t-47 111.5t46.5 110.5t111.5 45.5zM1706 285q65 0 111.5 -46
t46.5 -110q0 -65 -46 -111.5t-112 -46.5q-65 0 -110.5 46.5t-45.5 111.5t46 110.5t110 45.5z" />
    <glyph glyph-name="perthousand" unicode="&#x2030;" horiz-adv-x="2621" 
d="M893 1442q267 0 459 94h200l-1165 -1636h-201l996 1405q-189 -29 -316 -29q-74 0 -145 6q22 -73 22 -127q0 -146 -101 -248t-249 -102q-147 0 -249.5 101t-102.5 247q0 100 50.5 182.5t129 127t164.5 44.5q45 0 213 -32.5t295 -32.5zM391 1325q-70 0 -119 -49.5
t-49 -118.5q0 -70 49 -120t119 -50q69 0 119.5 50.5t50.5 119.5q0 70 -50 119t-120 49zM2230 664q145 0 247.5 -103.5t102.5 -249.5t-102.5 -248t-247.5 -102q-146 0 -249 102t-103 248t103 249.5t249 103.5zM2228 481q-70 0 -119 -50t-49 -120q0 -71 49 -119.5t119 -48.5
t120 49t50 119q0 71 -50 120.5t-120 49.5zM1366 664q145 0 248.5 -103.5t103.5 -249.5t-103.5 -248t-248.5 -102q-146 0 -248 102t-102 248q0 147 102 250t248 103zM1366 481q-70 0 -119 -49.5t-49 -120.5t49 -119.5t119 -48.5q71 0 120.5 49t49.5 119q0 71 -50 120.5
t-120 49.5z" />
    <glyph glyph-name="guilsinglleft" unicode="&#x2039;" horiz-adv-x="491" 
d="M27 541l184 546h254l-184 -546l184 -541h-254z" />
    <glyph glyph-name="guilsinglright" unicode="&#x203a;" horiz-adv-x="491" 
d="M465 547l-182 -547h-256l184 547l-184 540h256z" />
    <glyph glyph-name="fraction" unicode="&#x2044;" horiz-adv-x="327" 
d="M-63 -37h-173l627 1544h170z" />
    <glyph glyph-name="Euro" unicode="&#x20ac;" 
d="M948 508h-434q62 -133 182 -205t277 -72q104 0 203 41v-282q-92 -27 -209 -27q-272 0 -473 143t-275 402h-143l39 164h78q-3 18 -3 65q0 44 3 62h-117l41 164h104q76 254 283 399q210 145 469 145q101 0 203 -30l-62 -263q-80 25 -147 25q-144 0 -265 -74
q-125 -76 -186 -202h539l-37 -164h-549q-4 -27 -4 -62q0 -38 4 -65h518z" />
    <glyph glyph-name="afii61289" unicode="&#x2113;" horiz-adv-x="1019" 
d="M893 88q-139 -121 -289 -121q-133 0 -207 80q-43 42 -65.5 117.5t-22.5 157.5v133q-18 -18 -53.5 -54t-54.5 -53q-12 19 -37 59t-37 60q59 62 182 180v420q0 205 85 314.5t229 109.5q64 0 112.5 -23.5t75 -61.5t39 -80t12.5 -87q0 -140 -61 -264t-178 -262
q-65 -75 -66 -76v-285q0 -194 119 -194q63 0 145 78q12 -26 72 -148zM715 1206q0 40 -17 67t-51 27q-90 0 -90 -186v-270q20 20 31 39q57 74 92 162.5t35 160.5z" />
    <glyph glyph-name="trademark" unicode="&#x2122;" horiz-adv-x="2048" 
d="M1638 1470h267v-839h-176v692l-275 -692h-88l-266 692v-692h-176v839h266l219 -538zM100 1470h709v-147h-262v-692h-182v692h-265v147z" />
    <glyph glyph-name="Omega" unicode="&#x2126;" horiz-adv-x="1466" 
d="M1364 0h-522v223q45 46 79.5 91.5t71 112t56.5 152t20 183.5q0 205 -87 330t-245 125q-156 0 -250 -127t-94 -334q0 -312 230 -533v-223h-523v223h297q-45 36 -81.5 70.5t-79.5 90t-72 115t-48.5 143t-19.5 175.5q0 184 81 330t229 228.5t337 82.5q150 0 269.5 -48.5
t196.5 -134t118 -201t41 -251.5q0 -366 -305 -600h301v-223z" />
    <glyph glyph-name="estimated" unicode="&#x212e;" horiz-adv-x="1359" 
d="M1251 582h-897v-402q132 -129 320 -129q143 0 246 67t180 197q12 -7 37 -22.5t37 -22.5q-65 -96 -130.5 -157.5t-159.5 -99.5t-210 -38q-170 0 -301 82t-199 219t-68 306q0 126 39.5 236t111.5 192t179.5 129t237.5 47q132 0 240 -46.5t179.5 -128.5t112 -191.5
t45.5 -237.5zM993 657v322q-136 133 -321 133q-190 0 -318 -131v-324h639z" />
    <glyph glyph-name="onethird" unicode="&#x2153;" horiz-adv-x="1720" 
d="M608 -37h-172l627 1544h172zM90 1331l117 158h264v-756h-186v598h-195zM1268 549h-185q41 225 285 225q109 0 186 -59q76 -58 76 -142q0 -97 -94 -149q65 -24 103 -77.5t38 -115.5q0 -98 -90 -176q-88 -73 -231 -73q-136 0 -217 72t-86 194h184q15 -113 127 -113
q49 0 87 26t38 66q0 105 -199 105v139q156 0 156 82q0 27 -21 46t-55 19q-68 0 -102 -69z" />
    <glyph glyph-name="twothirds" unicode="&#x2154;" horiz-adv-x="1720" 
d="M236 1227h-185q1 132 88.5 206t222.5 74q133 0 207 -71q76 -70 76 -158q0 -140 -207 -326l-69 -61h284v-158h-624v88l270 232q158 137 158 215q0 37 -30 59.5t-77 22.5q-111 0 -114 -123zM633 -37h-170l627 1544h170zM1268 549h-183q41 225 283 225q109 0 186 -59
q76 -58 76 -142q0 -97 -94 -149q65 -24 103 -77.5t38 -115.5q0 -98 -90 -176q-88 -73 -229 -73q-137 0 -219.5 72.5t-83.5 193.5h182q15 -113 129 -113q49 0 86 26t37 66q0 105 -199 105v139q156 0 156 82q0 27 -21 46t-55 19q-65 0 -102 -69z" />
    <glyph glyph-name="oneeighth" unicode="&#x215b;" horiz-adv-x="1720" 
d="M608 -37h-172l627 1544h172zM90 1331l117 158h264v-756h-186v598h-195zM1561 410q120 -73 120 -195q0 -99 -81 -166t-228 -67q-158 0 -237.5 66t-79.5 167q0 119 116 195q-75 63 -75 151q0 93 75.5 153t196.5 60q120 0 195 -62.5t75 -152.5q0 -78 -77 -149zM1454 551
q0 70 -90 70q-40 0 -62 -19.5t-22 -50.5q0 -35 24 -57.5t62 -22.5q41 0 64.5 22t23.5 58zM1493 225q0 43 -37 70t-86 27q-52 0 -91.5 -27.5t-39.5 -65.5t34.5 -65t92.5 -27q127 0 127 88z" />
    <glyph glyph-name="threeeighths" unicode="&#x215c;" horiz-adv-x="1720" 
d="M252 1282h-182q41 225 282 225q110 0 187 -59q75 -57 75 -141q0 -98 -94 -150q65 -24 103.5 -76.5t38.5 -113.5q0 -100 -91 -179q-88 -73 -229 -73q-137 0 -219.5 72.5t-83.5 193.5h182q15 -111 127 -111q51 0 88 25.5t37 65.5q0 103 -197 106v137q154 0 154 82
q0 28 -21 48t-55 20q-64 0 -102 -72zM633 -37h-170l627 1544h170zM1561 410q120 -73 120 -195q0 -99 -81 -166t-228 -67q-158 0 -237.5 66t-79.5 167q0 119 116 195q-75 63 -75 151q0 93 75.5 153t196.5 60t195.5 -62.5t74.5 -152.5q0 -78 -77 -149zM1454 551q0 70 -90 70
q-40 0 -62 -19.5t-22 -50.5q0 -35 24 -57.5t62 -22.5q41 0 64.5 22t23.5 58zM1493 225q0 42 -35.5 69.5t-87.5 27.5q-51 0 -90 -27.5t-39 -65.5t33.5 -65t93.5 -27q125 0 125 88z" />
    <glyph glyph-name="fiveeighths" unicode="&#x215d;" horiz-adv-x="1720" 
d="M633 -37h-172l626 1544h173zM96 1067l109 422h430v-152h-289l-29 -108q23 2 54 2q108 0 190 -70q84 -69 84 -182q0 -110 -90 -188q-88 -76 -217 -76q-115 0 -200.5 57.5t-108.5 157.5h194q41 -62 117 -62q51 0 86 29.5t35 77.5q0 43 -33 71.5t-78 28.5q-52 0 -100 -39z
M1561 410q120 -73 120 -195q0 -99 -81.5 -166t-227.5 -67q-149 0 -233 62t-84 171q0 119 116 195q-75 63 -75 151q0 93 75.5 153t196.5 60q120 0 195 -62.5t75 -152.5q0 -78 -77 -149zM1454 551q0 70 -92 70q-38 0 -61 -20t-23 -50q0 -35 25 -57.5t63 -22.5q41 0 64.5 22
t23.5 58zM1493 225q0 43 -37 70t-88 27q-50 0 -89.5 -27.5t-39.5 -65.5t34.5 -65t92.5 -27q127 0 127 88z" />
    <glyph glyph-name="seveneighths" unicode="&#x215e;" horiz-adv-x="1720" 
d="M569 -37h-170l625 1544h172zM74 1337v152h594v-82l-398 -692l-149 80l309 542h-356zM1561 410q120 -73 120 -195q0 -99 -81.5 -166t-227.5 -67q-158 0 -237.5 66t-79.5 167q0 119 116 195q-75 63 -75 151q0 93 75.5 153t196.5 60q120 0 195 -62.5t75 -152.5
q0 -78 -77 -149zM1454 551q0 70 -92 70q-38 0 -61 -20t-23 -50q0 -35 25 -57.5t63 -22.5q41 0 64.5 22t23.5 58zM1493 225q0 43 -37 70t-88 27q-50 0 -89.5 -27.5t-39.5 -65.5t34 -65t93 -27q127 0 127 88z" />
    <glyph glyph-name="partialdiff" unicode="&#x2202;" horiz-adv-x="1191" 
d="M1122 946q0 -195 -47 -385q-33 -123 -86.5 -226.5t-125.5 -184.5t-167.5 -127t-203.5 -46q-188 0 -306 116t-118 298q0 120 30.5 222.5t82.5 174t119.5 122t141.5 74.5t150 24q87 0 154.5 -34.5t97.5 -84.5h4q8 74 8 112q0 140 -68 216.5t-186 76.5q-103 0 -194 -53
q-9 30 -28 90t-28 90q50 34 127 55t164 21q222 0 350.5 -145t128.5 -406zM819 688q-49 133 -176 133q-119 0 -209 -130t-90 -316q0 -87 40 -139t110 -52q80 0 148.5 73t112 184.5t64.5 246.5z" />
    <glyph glyph-name="Delta" unicode="&#x2206;" horiz-adv-x="1261" 
d="M1257 0h-1255v117q293 878 438 1317h387q81 -251 231.5 -711t198.5 -606v-117zM928 225q-51 164 -145.5 461.5t-125.5 394.5q-10 34 -21 80.5t-11 48.5h-9q-2 -7 -11 -50t-17 -73q-48 -155 -140.5 -444.5t-132.5 -417.5h613z" />
    <glyph glyph-name="product" unicode="&#x220f;" horiz-adv-x="1486" 
d="M1337 -471h-280v1663h-627v-1663h-280v1905h1187v-1905z" />
    <glyph glyph-name="summation" unicode="&#x2211;" horiz-adv-x="1304" 
d="M1219 -471h-1135v147q97 136 288 408t287 408q-90 130 -269 391t-269 391v160h1057v-224h-721q97 -142 279.5 -406t211.5 -306q-87 -124 -261 -373t-261 -373h793v-223z" />
    <glyph glyph-name="minus" unicode="&#x2212;" 
d="M115 610v250h999v-250h-999z" />
    <glyph glyph-name="uni2215" unicode="&#x2215;" horiz-adv-x="327" 
d="M-63 -37h-173l627 1544h170z" />
    <glyph glyph-name="uni2219" unicode="&#x2219;" horiz-adv-x="573" 
d="M287 893q64 0 109.5 -46.5t45.5 -111.5t-44.5 -110t-110.5 -45q-65 0 -111.5 45.5t-46.5 109.5q0 66 46.5 112t111.5 46z" />
    <glyph glyph-name="radical" unicode="&#x221a;" horiz-adv-x="1069" 
d="M1049 1493q-61 -253 -180.5 -759t-180.5 -759h-221q-84 207 -248 621q-68 -43 -113 -74q-15 22 -43 66.5t-43 66.5q17 12 135.5 91t178.5 120q89 -222 241 -612q44 187 142 602.5t149 636.5h183z" />
    <glyph glyph-name="infinity" unicode="&#x221e;" horiz-adv-x="1622" 
d="M1544 602q0 -161 -103.5 -267t-260.5 -106q-109 0 -206.5 56.5t-160.5 154.5h-4q-70 -96 -162 -153.5t-203 -57.5q-96 0 -178 41t-135 126.5t-53 199.5q0 85 30.5 155.5t81.5 116t116.5 70.5t135.5 25q115 0 208.5 -58t158.5 -153h4q54 83 148.5 147t214.5 64
q158 0 263 -103t105 -258zM1335 600q0 76 -46.5 126t-131.5 50q-74 0 -131.5 -45t-114.5 -133q47 -86 111 -135t137 -49q83 0 129.5 54.5t46.5 131.5zM709 598q-113 180 -248 180q-80 0 -128 -53.5t-48 -128.5q0 -76 50 -129t128 -53q72 0 135.5 51.5t110.5 132.5z" />
    <glyph glyph-name="integral" unicode="&#x222b;" horiz-adv-x="1013" 
d="M866 1311q-36 16 -84 16q-67 0 -103 -44t-36 -130v-1219q0 -190 -92.5 -301.5t-280.5 -111.5q-46 0 -99 8t-79 20q5 25 47 197q37 -16 86 -16q68 0 104 44t36 130v1214q0 193 93 305.5t281 112.5q50 0 104.5 -10t78.5 -23q-30 -111 -56 -192z" />
    <glyph glyph-name="approxequal" unicode="&#x2248;" 
d="M1153 868q-71 -101 -145 -148.5t-177 -47.5q-130 0 -231 61q-103 68 -190 68q-13 0 -25.5 -3t-22.5 -6.5t-21 -11.5t-18.5 -14t-17.5 -17.5t-15 -17t-14 -19l-12 -18t-11 -17.5t-9 -15l-166 192q46 64 85 103t100 67.5t134 28.5q123 0 232 -64q112 -65 192 -65
q30 0 56 12t47 36t34 42.5t29 46.5zM1153 373q-71 -102 -145 -149.5t-177 -47.5q-124 0 -231 62q-101 67 -190 67q-13 0 -25.5 -3t-22.5 -6.5t-21 -11.5t-18.5 -14t-17.5 -17.5t-15 -17t-14 -19l-12 -18t-11 -17.5t-9 -15l-166 192q69 98 141 148.5t178 50.5q123 0 232 -61
q112 -68 192 -68q30 0 56 12t47 36t34 42.5t29 46.5z" />
    <glyph glyph-name="notequal" unicode="&#x2260;" 
d="M1075 244h-485l-90 -199h-279l88 199h-153v252h266l110 245h-376v252h491l109 242h278l-108 -242h149v-252h-264l-109 -245h373v-252z" />
    <glyph glyph-name="lessequal" unicode="&#x2264;" 
d="M1075 0h-919v252h919v-252zM1075 301l-919 352v244l919 350v-258l-610 -215v-4l610 -213v-256z" />
    <glyph glyph-name="greaterequal" unicode="&#x2265;" 
d="M1073 0h-917v252h917v-252zM1075 653l-919 -350v260l610 213v4l-610 213v256l919 -352v-244z" />
    <glyph glyph-name="lozenge" unicode="&#x25ca;" horiz-adv-x="1159" 
d="M1053 717q-29 -50 -180 -313t-230 -404h-129q-68 119 -204.5 357.5t-203.5 357.5q67 120 203.5 359.5t204.5 359.5h129q79 -141 230 -404t180 -313zM852 717q-45 81 -136 242.5t-136 242.5q-256 -450 -275 -485q45 -81 136.5 -243t136.5 -243q184 324 274 486z" />
    <glyph glyph-name="caronalt" unicode="&#xe000;" horiz-adv-x="479" 
d="M104 1225v284h252v-137q0 -133 -31.5 -227t-109.5 -197l-98 78q36 53 53.5 92t36.5 107h-103z" />
    <glyph glyph-name="commaaccentalt" unicode="&#xe001;" horiz-adv-x="409" 
d="M391 1544l-160 -334l-163 72l206 311z" />
    <glyph glyph-name="zero.denominator" unicode="&#xf655;" horiz-adv-x="688" 
d="M662 381q0 -399 -316 -399q-156 0 -237.5 94t-81.5 278q0 245 90 332q91 88 225 88q320 0 320 -393zM471 377q0 244 -127 244q-67 0 -97 -57.5t-30 -194.5q0 -234 127 -234t127 242z" />
    <glyph glyph-name="one.denominator" unicode="&#xf656;" horiz-adv-x="688" 
d="M84 598l115 158h266v-756h-189v598h-192z" />
    <glyph glyph-name="two.denominator" unicode="&#xf657;" horiz-adv-x="688" 
d="M227 494h-184q1 132 88 206t221 74t209 -72q76 -70 76 -157q0 -141 -209 -326l-70 -61h285v-158h-625v88l273 231q158 137 158 216q0 36 -31 58.5t-76 22.5q-112 0 -115 -122z" />
    <glyph glyph-name="three.denominator" unicode="&#xf658;" horiz-adv-x="688" 
d="M244 549h-183q41 225 283 225q109 0 186 -59q76 -58 76 -142q0 -97 -94 -149q65 -24 103 -77.5t38 -115.5q0 -98 -90 -176q-88 -73 -229 -73q-137 0 -219.5 72.5t-83.5 193.5h182q15 -113 129 -113q49 0 86 26t37 66q0 105 -197 105v139q154 0 154 82q0 27 -21 46t-55 19
q-65 0 -102 -69z" />
    <glyph glyph-name="four.denominator" unicode="&#xf659;" horiz-adv-x="688" 
d="M18 297l381 477h183v-485h77v-139h-77v-150h-168v150h-396v147zM197 289h217v270z" />
    <glyph glyph-name="five.denominator" unicode="&#xf65a;" horiz-adv-x="688" 
d="M88 334l109 422h430v-152h-287l-31 -110q46 4 53 4q109 0 193 -72t84 -180q0 -111 -90 -189q-87 -75 -219 -75q-116 0 -201.5 57.5t-108.5 157.5h195q40 -64 117 -64q51 0 86 29.5t35 77.5q0 46 -32.5 74t-78.5 28q-52 0 -100 -39z" />
    <glyph glyph-name="six.denominator" unicode="&#xf65b;" horiz-adv-x="688" 
d="M125 399l225 375l152 -78l-135 -233q89 0 172 -68q84 -69 84 -176q0 -102 -86 -170q-85 -67 -197 -67q-124 0 -205 69q-82 70 -82 170q0 59 72 178zM436 221q0 37 -27 61.5t-73 24.5q-42 0 -69 -25t-27 -61q0 -37 29 -61.5t67 -24.5q42 0 71 25t29 61z" />
    <glyph glyph-name="seven.denominator" unicode="&#xf65c;" horiz-adv-x="688" 
d="M66 604v152h593v-80l-397 -694l-149 79l309 543h-356z" />
    <glyph glyph-name="eight.denominator" unicode="&#xf65d;" horiz-adv-x="688" 
d="M537 410q120 -73 120 -195q0 -99 -81 -166t-228 -67q-158 0 -237.5 66t-79.5 167q0 119 116 195q-75 63 -75 151q0 93 75.5 153t196.5 60t195.5 -62.5t74.5 -152.5q0 -78 -77 -149zM430 551q0 70 -90 70q-40 0 -62 -19.5t-22 -50.5q0 -35 24 -57.5t62 -22.5q41 0 64.5 22
t23.5 58zM469 225q0 43 -37 70t-86 27q-51 0 -90 -27.5t-39 -65.5q0 -39 34 -65.5t93 -26.5q125 0 125 88z" />
    <glyph glyph-name="nine.denominator" unicode="&#xf65e;" horiz-adv-x="688" 
d="M563 356l-225 -374l-152 77l136 236q-92 0 -175 65q-81 66 -81 177q0 102 86 170q85 67 196 67q119 0 203 -72t84 -167q0 -60 -72 -179zM252 535q0 -35 26.5 -60.5t73.5 -25.5q42 0 69.5 25t27.5 61q0 37 -30.5 61.5t-68.5 24.5q-41 0 -69.5 -24.5t-28.5 -61.5z" />
    <glyph glyph-name="zero.numerator" unicode="&#xf661;" horiz-adv-x="688" 
d="M662 1114q0 -399 -316 -399q-156 0 -237.5 94t-81.5 278q0 245 90 332q91 88 225 88q320 0 320 -393zM471 1110q0 244 -127 244q-67 0 -97 -57.5t-30 -194.5q0 -234 127 -234t127 242z" />
    <glyph glyph-name="one.numerator" unicode="&#xf662;" horiz-adv-x="688" 
d="M84 1331l115 158h266v-756h-189v598h-192z" />
    <glyph glyph-name="two.numerator" unicode="&#xf663;" horiz-adv-x="688" 
d="M227 1227h-184q1 132 88 206t221 74q135 0 209 -71q76 -70 76 -158q0 -141 -209 -326l-70 -61h285v-158h-625v88l273 232q158 137 158 215q0 36 -31 59t-76 23q-112 0 -115 -123z" />
    <glyph glyph-name="three.numerator" unicode="&#xf664;" horiz-adv-x="688" 
d="M244 1282h-183q41 225 283 225q109 0 186 -59q76 -58 76 -141q0 -98 -94 -150q65 -24 103 -76.5t38 -113.5q0 -101 -90 -179q-88 -73 -229 -73q-137 0 -219.5 72.5t-83.5 193.5h182q15 -111 129 -111q49 0 86 25.5t37 65.5q0 103 -197 106v137q154 0 154 82q0 28 -21 48
t-55 20q-64 0 -102 -72z" />
    <glyph glyph-name="four.numerator" unicode="&#xf665;" horiz-adv-x="688" 
d="M18 1030l381 477h183v-483h77v-141h-77v-150h-168v150h-396v147zM197 1024h217v268z" />
    <glyph glyph-name="five.numerator" unicode="&#xf666;" horiz-adv-x="688" 
d="M88 1067l109 422h430v-152h-287l-31 -108q23 2 53 2q109 0 191 -70q86 -68 86 -182q0 -110 -90 -188q-88 -76 -219 -76q-116 0 -201.5 57.5t-108.5 157.5h195q41 -62 117 -62q51 0 86 29.5t35 77.5q0 43 -33 71.5t-78 28.5q-52 0 -100 -39z" />
    <glyph glyph-name="six.numerator" unicode="&#xf667;" horiz-adv-x="688" 
d="M125 1133l225 374l152 -77l-135 -236q88 0 172 -66t84 -174q0 -104 -86 -172q-85 -67 -197 -67q-122 0 -205 71q-82 70 -82 168q0 63 72 179zM436 954q0 34 -27.5 60t-72.5 26q-42 0 -69 -25t-27 -61t29 -61t67 -25q42 0 71 25t29 61z" />
    <glyph glyph-name="seven.numerator" unicode="&#xf668;" horiz-adv-x="688" 
d="M66 1337v152h593v-82l-397 -692l-149 80l309 542h-356z" />
    <glyph glyph-name="eight.numerator" unicode="&#xf669;" horiz-adv-x="688" 
d="M537 1145q120 -77 120 -195q0 -102 -80.5 -168.5t-228.5 -66.5q-159 0 -238 65.5t-79 169.5q0 117 116 193q-75 63 -75 151q0 94 75.5 153.5t196.5 59.5q123 0 196.5 -62.5t73.5 -152.5q0 -76 -77 -147zM430 1284q0 70 -90 70q-40 0 -62 -20t-22 -52q0 -33 25 -55.5
t61 -22.5q40 0 64 23t24 57zM469 961q0 41 -37 67.5t-86 26.5q-53 0 -91 -26t-38 -66q0 -39 34 -66t93 -27q125 0 125 91z" />
    <glyph glyph-name="nine.numerator" unicode="&#xf66a;" horiz-adv-x="688" 
d="M563 1090l-225 -375l-152 78l136 235q-84 0 -170 62q-86 65 -86 180q0 102 86 170q85 67 196 67q120 0 203 -71q84 -72 84 -166q0 -61 -72 -180zM252 1268q0 -34 27.5 -60t72.5 -26q42 0 69.5 25t27.5 61q0 39 -30 63.5t-69 24.5q-41 0 -69.5 -25.5t-28.5 -62.5z" />
    <glyph glyph-name="commaaccent" unicode="&#xf6c3;" 
d="M473 -172l27 92q82 4 96 4q111 0 172 -50t61 -124q0 -81 -67.5 -138.5t-188.5 -57.5q-85 0 -194 34l35 131q75 -16 110 -16q107 0 107 72q0 57 -82 57q-6 0 -76 -4z" />
    </font>
</defs>
</svg>
