<svg version="1.2" xmlns="http://www.w3.org/2000/svg" xmlns:xlink="http://www.w3.org/1999/xlink" overflow="visible" preserveAspectRatio="none" viewBox="0 0 325 278" height="137" width="160"><g transform="translate(1, 1)"><g fill-rule="evenodd" fill="none" stroke-width="1" stroke="none" id="floating-bar_1596211650239"><g transform="translate(2.000000, 2.000000)" id="floating_screen_1596211650239"><path fill-rule="nonzero" fill="#FFFFFF" stroke-width="2.5" stroke="#FEE5D1" id="Path_1596211650239" d="M320.012,265.833 C320.012,269.239 317.25,272 313.844,272 L6.178,272 C2.773,272 0.011,269.239 0.011,265.833 L0.011,6.167 C0.011,2.761 2.773,0 6.178,0 L313.844,0 C317.25,0 320.012,2.761 320.012,6.167 L320.012,265.833 Z" vector-effect="non-scaling-stroke"/><circle r="7.261" cy="26.053" cx="19.886" fill-rule="nonzero" fill="#FCBA86" id="Oval_1596211650239" vector-effect="non-scaling-stroke"/><circle r="7.261" cy="26.053" cx="43.546" fill-rule="nonzero" fill="#FCBA86" id="Oval_1596211650239" vector-effect="non-scaling-stroke"/><circle r="7.261" cy="26.053" cx="67.206" fill-rule="nonzero" fill="#FCBA86" id="Oval_1596211650239" vector-effect="non-scaling-stroke"/><g fill-rule="nonzero" fill="#FEE5D1" transform="translate(37.000000, 77.000000)" id="Group_1596211650239"><rect height="12" width="244.333" y="122.164" x="0.844" id="Rectangle_1596211650239" vector-effect="non-scaling-stroke"/><rect height="12" width="244.333" y="91.748" x="0.844" id="Rectangle_1596211650239" vector-effect="non-scaling-stroke"/><rect height="12" width="244.333" y="61.332" x="0.844" id="Rectangle_1596211650239" vector-effect="non-scaling-stroke"/><rect height="12" width="244.333" y="30.915" x="0.844" id="Rectangle_1596211650239" vector-effect="non-scaling-stroke"/><rect height="12" width="244.333" y="0.498" x="0.844" id="Rectangle_1596211650239" vector-effect="non-scaling-stroke"/></g><g fill-rule="nonzero" transform="translate(13.000000, 49.000000)" id="Group_1596211650239"><rect height="58.248" width="292.333" y="0.667" x="0.844" fill="#C5C5C5" id="Rectangle_1596211650239" vector-effect="non-scaling-stroke"/><rect height="35.667" width="170.809" y="12.556" x="12.035" fill="#EEEEEE" id="Rectangle_1596211650239" vector-effect="non-scaling-stroke"/><path fill="#FFFFFF" id="Path_1596211650239" d="M277.844,41.893 C277.844,45.389 275.084,48.223 271.678,48.223 L199.012,48.223 C195.606,48.223 192.844,45.389 192.844,41.893 L192.844,18.886 C192.844,15.39 195.606,12.556 199.012,12.556 L271.678,12.556 C275.084,12.556 277.844,15.39 277.844,18.886 L277.844,41.893 Z" vector-effect="non-scaling-stroke"/></g><path stroke-width="2.5" stroke="#FEE5D1" id="Path_1596211650239" d="M306.178,246.833 C306.178,248.03 305.209,249 304.012,249 L16.012,249 C14.816,249 13.845,248.03 13.845,246.833 L13.845,51.833 C13.845,50.636 14.816,49.666 16.012,49.666 L304.012,49.666 C305.209,49.666 306.178,50.636 306.178,51.833 L306.178,246.833 Z" vector-effect="non-scaling-stroke"/></g></g></g></svg>