<svg version="1.2" xmlns="http://www.w3.org/2000/svg" xmlns:xlink="http://www.w3.org/1999/xlink" overflow="visible" preserveAspectRatio="none" viewBox="0 0 26 26" height="22" width="22"><g transform="translate(1, 1)"><desc>Created with Sketch.</desc><defs><path id="path-1_1596139450420" d="M12,22 C6.486,22 2,17.515 2,12 C2,6.487 6.486,2 12,2 C17.514,2 22,6.486 22,12 C22,17.515 17.514,22 12,22 Z M12,4 C16.411,4 20,7.589 20,12 C20,16.411 16.411,20 12,20 C7.589,20 4,16.411 4,12 C4,7.589 7.589,4 12,4 Z M12,10 L10,10 L10,12 L11,12 L11,15 L9,15 L9,17 L15,17 L15,15 L13,15 L13,11 C13,10.448 12.553,10 12,10 Z M12,6.75 C11.3096441,6.75 10.75,7.30964406 10.75,8 C10.75,8.69035594 11.3096441,9.25 12,9.25 C12.6903559,9.25 13.25,8.69035594 13.25,8 C13.25,7.30964406 12.6903559,6.75 12,6.75 Z" vector-effect="non-scaling-stroke" style=""/></defs><g fill-rule="evenodd" fill="none" stroke-width="1" stroke="none" id="Icons/Info_1596139450420"><mask fill="white" id="mask-2_1596139450420" vector-effect="non-scaling-stroke" style=""><use xmlns:xlink="http://www.w3.org/1999/xlink" xlink:href="#path-1_1596139450420" vector-effect="non-scaling-stroke" style=""/></mask><g id="Mask_1596139450420"/><g fill="#23163F" mask="url(#mask-2_1596139450420)" id="Lavu-Purple_1596139450420"><rect rx="4" height="24" width="24" y="0" x="0" id="Background_1596139450420" vector-effect="non-scaling-stroke" style="fill: rgb(201, 49, 26);"/></g></g></g></svg>