<svg version="1.2" xmlns="http://www.w3.org/2000/svg" xmlns:xlink="http://www.w3.org/1999/xlink" overflow="visible" preserveAspectRatio="none" viewBox="0 0 24 24" width="16" height="16"><g><path xmlns:default="http://www.w3.org/2000/svg" id="sort" d="M17.13,13.54c-0.12-0.13-0.29-0.2-0.47-0.2H7.34c-0.36,0-0.66,0.29-0.67,0.65c0,0.18,0.07,0.35,0.2,0.48  l4.66,4.66c0.25,0.26,0.66,0.27,0.92,0.02c0.01-0.01,0.01-0.01,0.02-0.02l4.66-4.66c0.26-0.25,0.28-0.65,0.03-0.91  C17.15,13.54,17.14,13.54,17.13,13.54z M17.13,9.54l-4.66-4.66c-0.25-0.26-0.66-0.27-0.92-0.02c-0.01,0.01-0.01,0.01-0.02,0.02  L6.87,9.54c-0.25,0.27-0.24,0.69,0.03,0.95c0.12,0.11,0.28,0.18,0.44,0.18h9.33c0.36,0,0.66-0.3,0.66-0.66  C17.32,9.83,17.25,9.66,17.13,9.54z" style="fill: rgb(51, 63, 75);" vector-effect="non-scaling-stroke"/></g></svg>