<svg version="1.2" xmlns="http://www.w3.org/2000/svg" xmlns:xlink="http://www.w3.org/1999/xlink" overflow="visible" preserveAspectRatio="none" viewBox="0 0 26 26" height="24" width="24"><g transform="translate(1, 1)"><desc>Created with Sketch.</desc><defs><path id="path-1_1600729552972_1603128051514" d="M12.00025,22.00025 C11.74425,22.00025 11.48825,21.90225 11.29325,21.70725 L2.29325,12.70725 C1.90225,12.31625 1.90225,11.68425 2.29325,11.29325 L11.29325,2.29325 C11.68425,1.90225 12.31625,1.90225 12.70725,2.29325 L21.70725,11.29325 C22.09825,11.68325 22.09825,12.31625 21.70725,12.70725 L12.70725,21.70725 C12.51225,21.90325 12.25625,22.00025 12.00025,22.00025 Z M12.00025,4.41525 L19.58625,12.00025 L12.00025,19.58625 L4.41425,12.00025 L12.00025,4.41525 Z M12.00025,14.75025 C11.3098941,14.75025 10.75025,15.3098941 10.75025,16.00025 C10.75025,16.6906059 11.3098941,17.25025 12.00025,17.25025 C12.6906059,17.25025 13.25025,16.6906059 13.25025,16.00025 C13.25025,15.3098941 12.6906059,14.75025 12.00025,14.75025 Z M13.00025,8.00025 L11.00025,8.00025 L11.00025,14.00025 L13.00025,14.00025 L13.00025,8.00025 Z" vector-effect="non-scaling-stroke" style=""/></defs><g fill-rule="evenodd" fill="none" stroke-width="1" stroke="none" id="Icons/Error_1600729552972"><mask fill="white" id="mask-2_1600729552972" vector-effect="non-scaling-stroke" style=""><use xmlns:xlink="http://www.w3.org/1999/xlink" xlink:href="#path-1_1600729552972_1603128051514" vector-effect="non-scaling-stroke" style=""/></mask><g id="Mask_1600729552972"/><g fill="#23163F" mask="url(#mask-2_1600729552972)" id="Lavu-Purple_1600729552972"><rect rx="4" height="24" width="24" y="0" x="0" id="Background_1600729552972" vector-effect="non-scaling-stroke" style="fill: rgb(201, 49, 26);"/></g></g></g></svg>