<svg version="1.2" xmlns="http://www.w3.org/2000/svg" xmlns:xlink="http://www.w3.org/1999/xlink" overflow="visible" preserveAspectRatio="none" viewBox="0 0 62 74.00000000000003" width="62" height="74.00000000000003"><g transform="translate(0, 0)"><g transform="translate(0, 0) rotate(0)"><path d="M46.5,2.81565c-0.89125,-0.87245 -1.9375,-1.54662 -3.06125,-1.98285c-1.12375,-0.51554 -2.325,-0.79314 -3.565,-0.8328h-35.99875c-2.13125,0 -3.875,1.78457 -3.875,3.9657v66.0686c0,2.18114 1.74375,3.9657 3.875,3.9657h54.25c2.13125,0 3.875,-1.78457 3.875,-3.9657v-47.58842c-0.03875,-1.26902 -0.31,-2.49839 -0.81375,-3.64845c-0.42625,-1.15005 -1.085,-2.22079 -1.9375,-3.1329zM42.81875,6.54341l12.6325,12.92819c0.42625,0.51554 0.73625,1.07074 0.89125,1.70525h-14.99625v-15.54555c0.58125,0.19829 1.1625,0.47588 1.6275,0.91211zM56.8075,68.72562h-51.615v-63.45123h31v17.21115c0,2.18114 1.74375,3.9657 3.875,3.9657h16.77875v42.27438v0zM38.75,37l-15.5,15.86281l-5.15375,-5.27438l-7.75,7.9314v7.9314h41.3075v-13.24544zM23.59875,39.97428c3.0225,-3.09325 3.06125,-8.09003 0.03875,-11.22294c-1.4725,-1.50697 -3.44875,-2.33976 -5.54125,-2.33976c-4.2625,0 -7.75,3.52947 -7.75,7.9314c0,2.10182 0.81375,4.12433 2.2475,5.59164c3.0225,3.09325 7.905,3.1329 10.96625,0.03966v0z" style="stroke-width: 0; stroke-linecap: butt; stroke-linejoin: miter; fill: rgba(252, 186, 134, 0.5);" vector-effect="non-scaling-stroke"/></g><defs><path id="path-16021299582533088" d="M46.5,2.81565c-0.89125,-0.87245 -1.9375,-1.54662 -3.06125,-1.98285c-1.12375,-0.51554 -2.325,-0.79314 -3.565,-0.8328h-35.99875c-2.13125,0 -3.875,1.78457 -3.875,3.9657v66.0686c0,2.18114 1.74375,3.9657 3.875,3.9657h54.25c2.13125,0 3.875,-1.78457 3.875,-3.9657v-47.58842c-0.03875,-1.26902 -0.31,-2.49839 -0.81375,-3.64845c-0.42625,-1.15005 -1.085,-2.22079 -1.9375,-3.1329zM42.81875,6.54341l12.6325,12.92819c0.42625,0.51554 0.73625,1.07074 0.89125,1.70525h-14.99625v-15.54555c0.58125,0.19829 1.1625,0.47588 1.6275,0.91211zM56.8075,68.72562h-51.615v-63.45123h31v17.21115c0,2.18114 1.74375,3.9657 3.875,3.9657h16.77875v42.27438v0zM38.75,37l-15.5,15.86281l-5.15375,-5.27438l-7.75,7.9314v7.9314h41.3075v-13.24544zM23.59875,39.97428c3.0225,-3.09325 3.06125,-8.09003 0.03875,-11.22294c-1.4725,-1.50697 -3.44875,-2.33976 -5.54125,-2.33976c-4.2625,0 -7.75,3.52947 -7.75,7.9314c0,2.10182 0.81375,4.12433 2.2475,5.59164c3.0225,3.09325 7.905,3.1329 10.96625,0.03966v0z" vector-effect="non-scaling-stroke"/></defs></g></svg>