<svg version="1.2" xmlns="http://www.w3.org/2000/svg" xmlns:xlink="http://www.w3.org/1999/xlink" overflow="visible" preserveAspectRatio="none" viewBox="0 0 10 10" width="10" height="10"><g transform="translate(0, 0)"><defs><path id="path-159741616006723954" d="M13.571428571428573 4.578571428571429 C13.571428571428573 4.578571428571429 12.564285714285717 3.5714285714285716 12.564285714285717 3.5714285714285716 C12.564285714285717 3.5714285714285716 8.571428571428573 7.564285714285716 8.571428571428573 7.564285714285716 C8.571428571428573 7.564285714285716 4.578571428571429 3.5714285714285716 4.578571428571429 3.5714285714285716 C4.578571428571429 3.5714285714285716 3.5714285714285716 4.578571428571429 3.5714285714285716 4.578571428571429 C3.5714285714285716 4.578571428571429 7.564285714285715 8.571428571428575 7.564285714285715 8.571428571428575 C7.564285714285715 8.571428571428575 3.5714285714285716 12.564285714285717 3.5714285714285716 12.564285714285717 C3.5714285714285716 12.564285714285717 4.578571428571429 13.571428571428575 4.578571428571429 13.571428571428575 C4.578571428571429 13.571428571428575 8.571428571428573 9.578571428571431 8.571428571428573 9.578571428571431 C8.571428571428573 9.578571428571431 12.564285714285717 13.571428571428575 12.564285714285717 13.571428571428575 C12.564285714285717 13.571428571428575 13.571428571428573 12.564285714285717 13.571428571428573 12.564285714285717 C13.571428571428573 12.564285714285717 9.57857142857143 8.571428571428575 9.57857142857143 8.571428571428575 C9.57857142857143 8.571428571428575 13.571428571428573 4.578571428571429 13.571428571428573 4.578571428571429 Z" vector-effect="non-scaling-stroke"/></defs><g transform="translate(-3.5714285714285716, -3.5714285714285716)"><path d="M13.571428571428573 4.578571428571429 C13.571428571428573 4.578571428571429 12.564285714285717 3.5714285714285716 12.564285714285717 3.5714285714285716 C12.564285714285717 3.5714285714285716 8.571428571428573 7.564285714285716 8.571428571428573 7.564285714285716 C8.571428571428573 7.564285714285716 4.578571428571429 3.5714285714285716 4.578571428571429 3.5714285714285716 C4.578571428571429 3.5714285714285716 3.5714285714285716 4.578571428571429 3.5714285714285716 4.578571428571429 C3.5714285714285716 4.578571428571429 7.564285714285715 8.571428571428575 7.564285714285715 8.571428571428575 C7.564285714285715 8.571428571428575 3.5714285714285716 12.564285714285717 3.5714285714285716 12.564285714285717 C3.5714285714285716 12.564285714285717 4.578571428571429 13.571428571428575 4.578571428571429 13.571428571428575 C4.578571428571429 13.571428571428575 8.571428571428573 9.578571428571431 8.571428571428573 9.578571428571431 C8.571428571428573 9.578571428571431 12.564285714285717 13.571428571428575 12.564285714285717 13.571428571428575 C12.564285714285717 13.571428571428575 13.571428571428573 12.564285714285717 13.571428571428573 12.564285714285717 C13.571428571428573 12.564285714285717 9.57857142857143 8.571428571428575 9.57857142857143 8.571428571428575 C9.57857142857143 8.571428571428575 13.571428571428573 4.578571428571429 13.571428571428573 4.578571428571429 Z" style="stroke-width: 0; stroke-linecap: butt; stroke-linejoin: miter; fill: rgb(255, 255, 255);" vector-effect="non-scaling-stroke"/></g></g></svg>