<svg version="1.2" xmlns="http://www.w3.org/2000/svg" xmlns:xlink="http://www.w3.org/1999/xlink" overflow="visible" preserveAspectRatio="none" viewBox="0 0 20 20" width="20" height="20"><g transform="translate(0, 0)"><g transform="translate(0, 0) rotate(0)"><path style="stroke-width: 0; stroke-linecap: butt; stroke-linejoin: miter; fill: rgb(199, 199, 199);" d="M9,15h2v-6h-2zM10,0c-5.52,0 -10,4.48 -10,10c0,5.52 4.48,10 10,10c5.52,0 10,-4.48 10,-10c0,-5.52 -4.48,-10 -10,-10zM10,18c-4.41,0 -8,-3.59 -8,-8c0,-4.41 3.59,-8 8,-8c4.41,0 8,3.59 8,8c0,4.41 -3.59,8 -8,8zM9,7h2v-2h-2z" vector-effect="non-scaling-stroke"/></g><defs><path id="path-1597428757251352" d="M9,15h2v-6h-2zM10,0c-5.52,0 -10,4.48 -10,10c0,5.52 4.48,10 10,10c5.52,0 10,-4.48 10,-10c0,-5.52 -4.48,-10 -10,-10zM10,18c-4.41,0 -8,-3.59 -8,-8c0,-4.41 3.59,-8 8,-8c4.41,0 8,3.59 8,8c0,4.41 -3.59,8 -8,8zM9,7h2v-2h-2z" vector-effect="non-scaling-stroke"/></defs></g></svg>