<svg version="1.2" xmlns="http://www.w3.org/2000/svg" xmlns:xlink="http://www.w3.org/1999/xlink" overflow="visible" preserveAspectRatio="none" viewBox="0 0 70 35" height="23" width="47"><g transform="translate(1, 1)"><g fill-rule="evenodd" fill="none" stroke-width="1" stroke="none" id="App-Icons_1600460540663"><g id="noun_Sandwich_1418103-Copy-2_1600460540663"><path transform="translate(50.500000, 16.327609) scale(-1, 1) translate(-50.500000, -16.327609)" fill="#FEE5D1" id="Combined-Shape-Copy_1600460540663" d="M67,1 L67,31.269 L48.5067586,31.6552189 C43.8300904,30.86958 41.957052,30.2990234 42.8876433,29.943549 C44.3951314,29.3677072 40.0157619,29.0967182 40.4472586,28.7156662 C40.9809607,28.2443573 40.528306,27.6254992 39.9851778,27.0529894 L39.7652249,26.826917 C39.2874077,26.344441 38.8313559,25.9161961 38.9802565,25.6684025 C39.3476313,25.057034 37.2100085,24.2669628 37.4667449,23.72535 C38.7060776,21.1108454 39.1309804,22.5761612 39.5562586,21.7301701 C39.8552532,21.1353904 38.4466572,20.9056901 38.5531707,20.5463418 C38.7349961,19.9329112 37.4191505,19.2181729 37.4667449,18.7931662 C37.5049009,18.4524415 36.7490447,18.4804255 35.933546,18.5433674 L35.5556011,18.5736845 C34.7391325,18.6394834 33.9760014,18.6888941 34.0005779,18.3881662 C34.1708889,16.334326 35.4489537,16.1650856 36.7326203,15.3911662 C37.2814419,15.060283 38.1029018,14.4118942 39.197,13.446 C39.5677573,10.1302022 40.9168682,7.7020577 43.2443328,6.16156659 C45.5717974,4.62107549 47.845479,3.54091598 50.0653777,2.92108808 C53.6341453,1.81585311 59.2436056,1.17587915 66.8937586,1.0011662 L67,1 Z" vector-effect="non-scaling-stroke"/><path fill-rule="nonzero" fill="#F89344" id="Shape_1600460540663" d="M64.071,19.926 C63.747,20.655 63.585,21.222 62.694,21.627 C64.476,22.437 65.205,24.219 63.342,25.434 C62.937,26.892 62.775,27.702 61.56,28.836 C58.887,31.347 54.351,32.157 50.868,32.157 L17.496,32.157 C14.013,32.157 9.396,31.347 6.804,28.836 C5.589,27.783 5.346,26.892 4.941,25.515 C3.078,24.3 3.888,22.194 5.751,21.546 C4.941,21.06 4.455,20.331 4.05,19.359 C-4.455,19.602 2.835,13.932 5.103,13.932 L5.103,13.041 C5.103,2.349 26.73,0 34.182,0 C41.553,0 63.18,2.349 63.18,13.041 L63.18,14.58 C67.068,15.714 70.308,19.359 64.071,19.926 Z M35.883,1.377 L36.045,1.701 C37.017,3.24 37.746,4.779 38.151,6.075 C38.556,7.533 38.475,8.667 37.665,9.153 C36.936,9.639 35.883,9.315 34.668,8.262 C33.696,7.452 32.562,6.156 31.59,4.617 C30.861,3.564 30.294,2.511 29.97,1.539 C28.35,1.701 26.487,1.944 24.624,2.187 C25.515,3.564 26.082,4.941 26.406,6.075 C26.811,7.533 26.73,8.667 26.001,9.153 C25.272,9.639 24.138,9.315 22.923,8.262 C21.951,7.452 20.817,6.156 19.845,4.617 C19.602,4.212 19.278,3.726 19.035,3.321 C12.474,5.022 6.48,8.019 6.48,13.041 L6.561,13.446 C18.954,13.203 31.347,13.284 43.74,13.365 C49.572,13.446 55.404,13.446 61.803,13.446 L61.803,13.041 C61.803,7.857 55.485,4.86 48.6,3.159 C49.167,4.212 49.653,5.184 49.896,6.075 C50.301,7.533 50.139,8.667 49.41,9.153 C48.681,9.639 47.547,9.315 46.413,8.262 C45.441,7.452 44.307,6.156 43.254,4.617 C42.687,3.726 42.201,2.754 41.796,1.944 C39.528,1.62 37.503,1.458 35.883,1.377 Z M31.428,1.458 C31.752,2.187 32.238,2.997 32.724,3.888 C33.696,5.265 34.668,6.48 35.559,7.209 C36.288,7.776 36.774,8.1 36.936,8.019 C37.098,7.857 37.017,7.29 36.774,6.399 C36.45,5.346 35.802,3.888 34.911,2.43 C34.587,2.106 34.344,1.701 34.101,1.377 C33.372,1.377 32.481,1.377 31.428,1.458 Z M20.493,2.997 C20.655,3.24 20.817,3.564 20.979,3.888 C21.951,5.265 23.004,6.48 23.814,7.209 C24.543,7.776 25.029,8.1 25.191,8.019 C25.353,7.857 25.353,7.29 25.029,6.399 C24.786,5.346 24.057,3.888 23.166,2.43 L23.166,2.43 C22.275,2.592 21.384,2.754 20.493,2.997 Z M43.497,2.187 C43.74,2.754 44.064,3.321 44.469,3.888 C45.36,5.265 46.413,6.48 47.304,7.209 C47.952,7.776 48.519,8.1 48.681,8.019 C48.843,7.857 48.762,7.29 48.519,6.399 C48.195,5.346 47.628,4.131 46.818,2.754 C45.684,2.511 44.55,2.349 43.497,2.187 Z M63.261,16.119 C62.694,15.876 62.208,15.633 61.722,15.39 L5.022,15.39 C3.078,15.633 -1.134,18.63 4.698,17.982 C6.804,17.82 9.882,17.172 11.502,16.767 C15.228,18.549 20.979,18.711 25.758,17.091 C28.998,17.982 33.129,20.331 39.609,16.605 C45.441,17.982 49.653,17.334 53.055,16.362 C53.865,16.443 56.457,17.577 57.996,17.901 C59.373,18.225 61.155,18.549 62.694,18.549 C67.311,18.63 66.501,17.334 63.261,16.119 Z M46.413,18.954 L43.092,21.384 C46.575,21.303 59.697,21.708 62.046,20.412 C58.887,20.331 55.566,19.602 52.65,18.387 C50.625,18.792 48.519,18.954 46.413,18.954 Z M40.176,18.387 C36.045,21.546 29.727,20.574 25.434,18.468 C25.029,18.63 24.3,19.035 23.895,19.116 L34.425,22.518 C35.478,22.761 36.855,22.842 37.746,22.275 L42.606,18.711 C41.796,18.63 40.986,18.549 40.176,18.387 Z M5.913,19.845 C6.642,20.736 7.776,20.817 8.829,20.898 L23.814,21.303 L18.387,19.521 C16.038,19.521 13.608,19.359 11.34,18.792 C9.558,19.197 7.776,19.602 5.913,19.845 Z M61.074,22.68 C58.563,22.923 40.743,23.085 40.662,23.085 C40.743,23.247 38.232,24.624 37.746,24.786 L60.588,24.786 C63.828,24.786 63.585,22.68 61.074,22.68 Z M7.776,24.786 L34.02,24.786 C32.724,24.381 31.509,23.814 30.213,23.328 C22.842,23.328 15.39,23.085 8.019,22.68 C4.779,22.437 4.212,24.786 7.776,24.786 Z M6.804,26.649 C8.343,29.808 14.337,30.78 17.496,30.78 L50.868,30.78 C54.027,30.78 59.94,29.808 61.56,26.649 C44.55,26.73 24.3,26.811 6.804,26.649 Z" vector-effect="non-scaling-stroke"/></g></g></g></svg>