<svg version="1.2" xmlns="http://www.w3.org/2000/svg" xmlns:xlink="http://www.w3.org/1999/xlink" overflow="visible" preserveAspectRatio="none" viewBox="0 0 10 10" width="10" height="10"><g transform="translate(0, 0)"><defs><path id="path-160213611722813851" d="M13.571428571428575 4.57857142857143 C13.571428571428575 4.57857142857143 12.564285714285717 3.571428571428572 12.564285714285717 3.571428571428572 C12.564285714285717 3.571428571428572 8.571428571428571 7.564285714285717 8.571428571428571 7.564285714285717 C8.571428571428571 7.564285714285717 4.578571428571429 3.571428571428572 4.578571428571429 3.571428571428572 C4.578571428571429 3.571428571428572 3.5714285714285716 4.57857142857143 3.5714285714285716 4.57857142857143 C3.5714285714285716 4.57857142857143 7.564285714285716 8.571428571428573 7.564285714285716 8.571428571428573 C7.564285714285716 8.571428571428573 3.5714285714285716 12.56428571428572 3.5714285714285716 12.56428571428572 C3.5714285714285716 12.56428571428572 4.578571428571429 13.571428571428577 4.578571428571429 13.571428571428577 C4.578571428571429 13.571428571428577 8.571428571428571 9.57857142857143 8.571428571428571 9.57857142857143 C8.571428571428571 9.57857142857143 12.564285714285717 13.571428571428577 12.564285714285717 13.571428571428577 C12.564285714285717 13.571428571428577 13.571428571428575 12.56428571428572 13.571428571428575 12.56428571428572 C13.571428571428575 12.56428571428572 9.578571428571427 8.571428571428573 9.578571428571427 8.571428571428573 C9.578571428571427 8.571428571428573 13.571428571428575 4.57857142857143 13.571428571428575 4.57857142857143 Z" vector-effect="non-scaling-stroke"/></defs><g transform="translate(-3.5714285714285716, -3.571428571428572)"><path d="M13.571428571428575 4.57857142857143 C13.571428571428575 4.57857142857143 12.564285714285717 3.571428571428572 12.564285714285717 3.571428571428572 C12.564285714285717 3.571428571428572 8.571428571428571 7.564285714285717 8.571428571428571 7.564285714285717 C8.571428571428571 7.564285714285717 4.578571428571429 3.571428571428572 4.578571428571429 3.571428571428572 C4.578571428571429 3.571428571428572 3.5714285714285716 4.57857142857143 3.5714285714285716 4.57857142857143 C3.5714285714285716 4.57857142857143 7.564285714285716 8.571428571428573 7.564285714285716 8.571428571428573 C7.564285714285716 8.571428571428573 3.5714285714285716 12.56428571428572 3.5714285714285716 12.56428571428572 C3.5714285714285716 12.56428571428572 4.578571428571429 13.571428571428577 4.578571428571429 13.571428571428577 C4.578571428571429 13.571428571428577 8.571428571428571 9.57857142857143 8.571428571428571 9.57857142857143 C8.571428571428571 9.57857142857143 12.564285714285717 13.571428571428577 12.564285714285717 13.571428571428577 C12.564285714285717 13.571428571428577 13.571428571428575 12.56428571428572 13.571428571428575 12.56428571428572 C13.571428571428575 12.56428571428572 9.578571428571427 8.571428571428573 9.578571428571427 8.571428571428573 C9.578571428571427 8.571428571428573 13.571428571428575 4.57857142857143 13.571428571428575 4.57857142857143 Z" style="stroke-width: 0; stroke-linecap: butt; stroke-linejoin: miter; fill: rgb(51, 63, 75);" vector-effect="non-scaling-stroke"/></g></g></svg>