<svg version="1.2" xmlns="http://www.w3.org/2000/svg" xmlns:xlink="http://www.w3.org/1999/xlink" overflow="visible" preserveAspectRatio="none" viewBox="0 0 16 9.879999796549479" width="16" height="9.879999796549479"><g transform="translate(0, 0)"><defs><path id="path-1597337026401189" d="M22.119999999999997 11.453333097484483 C22.119999999999997 11.453333097484483 16 17.559999638401706 16 17.559999638401706 C16 17.559999638401706 9.879999999999999 11.453333097484483 9.879999999999999 11.453333097484483 C9.879999999999999 11.453333097484483 8 13.333333058771226 8 13.333333058771226 C8 13.333333058771226 16 21.333332894033962 16 21.333332894033962 C16 21.333332894033962 24 13.333333058771226 24 13.333333058771226 C24 13.333333058771226 22.119999999999997 11.453333097484483 22.119999999999997 11.453333097484483 Z" vector-effect="non-scaling-stroke"/></defs><g transform="translate(-8, -11.453333097484483)"><path d="M22.119999999999997 11.453333097484483 C22.119999999999997 11.453333097484483 16 17.559999638401706 16 17.559999638401706 C16 17.559999638401706 9.879999999999999 11.453333097484483 9.879999999999999 11.453333097484483 C9.879999999999999 11.453333097484483 8 13.333333058771226 8 13.333333058771226 C8 13.333333058771226 16 21.333332894033962 16 21.333332894033962 C16 21.333332894033962 24 13.333333058771226 24 13.333333058771226 C24 13.333333058771226 22.119999999999997 11.453333097484483 22.119999999999997 11.453333097484483 Z" style="stroke-width: 0; stroke-linecap: butt; stroke-linejoin: miter; fill: rgb(137, 144, 155);" vector-effect="non-scaling-stroke"/></g></g></svg>