<svg version="1.2" xmlns="http://www.w3.org/2000/svg" xmlns:xlink="http://www.w3.org/1999/xlink" overflow="visible" preserveAspectRatio="none" viewBox="0 0 308 194" height="192" width="306"><g transform="translate(1, 1)"><defs><linearGradient id="linearGradient-1_1596131981971" y2="11.9826109" x2="12.5030073" y1="82.2627902" x1="85.3529388" vector-effect="non-scaling-stroke"><stop offset="0.53%" stop-color="#CFDCE5" vector-effect="non-scaling-stroke"/><stop offset="4.8%" stop-color="#D2DEE7" vector-effect="non-scaling-stroke"/><stop offset="37.04%" stop-color="#E9EDF1" vector-effect="non-scaling-stroke"/></linearGradient></defs><g fill-rule="evenodd" fill="none" stroke-width="1" stroke="none" id="menu_1596131981971"><g fill-rule="nonzero"><path opacity="0.3" fill="url(#linearGradient-1_1596131981971)" id="Path_1596131981971" d="M46.0594069,66.0870133 C46.2144069,69.0050133 46.7054069,76.7000133 47.0284069,79.6330133 C51.1064069,117.003013 60.9284069,147.249013 87.9904069,167.711013 C126.137407,196.558013 187.339407,189.129013 218.481407,172.128013 C257.058407,151.068013 267.747407,76.8210133 232.411407,36.4150133 C222.930407,25.5700133 209.352407,19.6880133 195.901407,20.5990133 C175.301407,21.9910133 155.316407,38.3210133 135.403407,32.5910133 C124.269407,29.3920133 115.602407,19.8220133 106.603407,11.6870133 C97.6044069,3.5520133 88.1454069,4.9690133 76.7984069,7.5560133 C67.4124069,9.6940133 57.5384069,23.2390133 53.6694069,33.4110133 C49.8034069,43.5860133 45.4744069,55.0860133 46.0594069,66.0870133 Z" vector-effect="non-scaling-stroke"/><path opacity="0.4" fill="#CFDCE5" id="Path_1596131981971" d="M268.361407,97.8290133 C264.299407,100.759013 259.631407,105.265013 255.691407,110.059013 L262.772407,87.7690133 C267.155407,92.7310133 285.887407,85.7450133 294.990407,79.1900133 C304.247407,72.5140133 307.445407,60.9040133 304.607407,57.1900133 C302.691407,54.6820133 289.957407,52.6890133 280.701407,59.3620133 C276.424407,62.4460133 271.384407,67.5200133 267.587407,72.6270133 L274.766407,50.0330133 C274.862407,50.0160133 274.957407,49.9990133 275.050407,49.9720133 C278.366407,52.9570133 290.746407,48.2980133 296.821407,43.9140133 C303.138407,39.3620133 305.313407,31.4440133 303.382407,28.9100133 C302.074407,27.2000133 293.393407,25.8420133 287.077407,30.3940133 C284.152407,32.5030133 280.714407,35.9740133 278.120407,39.4710133 L282.906407,24.4110133 C283.021407,24.4760133 283.140407,24.5460133 283.263407,24.5750133 C286.458407,25.3780133 291.399407,16.6640133 292.752407,11.2610133 C294.104407,5.8530133 291.642407,0.514013296 289.414407,0.0230132965 C287.911407,-0.307986704 282.530407,2.9540133 281.179407,8.3600133 C279.937407,13.3220133 280.044407,22.1470133 282.546407,24.1840133 C280.996407,28.3910133 278.958407,33.9340133 276.584407,40.3890133 C275.524407,35.8250133 273.371407,30.6630133 271.200407,27.2970133 C266.975407,20.7580133 259.178407,18.1780133 256.552407,19.9830133 C254.774407,21.2010133 252.976407,29.8040133 257.197407,36.3430133 C260.660407,41.6980133 268.295407,48.9020133 273.072407,49.9600133 C269.801407,58.8550133 266.151407,68.7970133 262.426407,78.9570133 C262.192407,71.3420133 257.883407,59.7180133 253.538407,52.9950133 C247.346407,43.4080133 235.920407,39.6240133 232.064407,42.2670133 C229.459407,44.0510133 226.819407,56.6680133 233.013407,66.2580133 C239.082407,75.6490133 253.912407,88.9250133 259.840407,86.0060133 C255.610407,97.5450133 251.379407,109.098013 247.599407,119.450013 C247.130407,110.810013 242.353407,98.0510133 237.541407,90.6050133 C230.515407,79.7240133 217.545407,75.4310133 213.170407,78.4310133 C210.217407,80.4580133 207.225407,94.7690133 214.253407,105.652013 C221.041407,116.163013 237.507407,130.967013 244.408407,128.196013 C238.212407,145.221013 233.865407,157.282013 233.932407,157.438013 L240.370407,158.292013 L249.065407,130.921013 C255.465407,134.763013 274.859407,127.329013 284.575407,120.327013 C295.082407,112.754013 298.708407,99.5820133 295.491407,95.3670133 C293.315407,92.5170133 278.864407,90.2530133 268.361407,97.8290133 Z" vector-effect="non-scaling-stroke"/><path opacity="0.4" fill="#CFDCE5" id="Path_1596131981971" d="M45.9734069,79.8800133 C45.0564069,83.3910133 44.5294069,88.0630133 44.5374069,92.5550133 L38.2144069,76.8370133 C42.9494069,77.5880133 50.1924069,65.0430133 52.2584069,57.1820133 C54.3504069,49.1830133 50.7814069,41.2190133 47.4824069,40.4510133 C45.2544069,39.9330133 37.2204069,44.6950133 35.1274069,52.6940133 C34.1574069,56.3910133 33.6834069,61.5540133 33.9174069,66.1580133 L27.5054069,50.2200133 C27.5504069,50.1690133 27.5964069,50.1110133 27.6364069,50.0530133 C30.8674069,50.1920133 35.6354069,41.8770133 37.0074069,36.6270133 C38.4394069,31.1700133 36.0014069,25.7430133 33.7564069,25.2160133 C32.2344069,24.8620133 26.7584069,28.1130133 25.3254069,33.5650133 C24.6634069,36.0950133 24.3454069,39.6200133 24.5054069,42.7690133 L20.2334069,32.1480133 C20.3284069,32.1290133 20.4274069,32.1140133 20.5114069,32.0740133 C22.6654069,31.0480133 21.4064069,23.9020133 19.6704069,20.2560133 C17.9344069,16.6090133 14.0954069,14.7650133 12.6224069,15.5150133 C11.6294069,16.0230133 10.1284069,20.3280133 11.8634069,23.9730133 C13.4604069,27.3180133 17.5934069,32.2020133 19.9264069,32.1850133 C21.0024069,35.2490133 22.4214069,39.2880133 24.0724069,43.9900133 C21.3744069,41.9300133 17.7904069,40.0360133 15.0244069,39.1580133 C9.64540688,37.4510133 4.09840688,39.6090133 3.46340688,41.8280133 C3.02940688,43.3280133 5.99640688,48.9650133 11.3714069,50.6720133 C15.7774069,52.0670133 23.3674069,52.5710133 26.5224069,50.9570133 C28.8004069,57.4360133 31.3454069,64.6750133 33.9514069,72.0700133 C30.3054069,67.9270133 22.5374069,63.4160133 17.0114069,61.6620133 C9.12740688,59.1620133 0.994406884,62.3220133 0.060406884,65.5760133 C-0.570593116,67.7760133 3.77240688,76.0420133 11.6574069,78.5420133 C19.3814069,80.9880133 33.7944069,81.5670133 35.7594069,77.1990133 C38.7184069,85.5990133 41.6844069,94.0100133 44.3484069,101.538013 C40.0994069,96.9250133 31.5454069,92.0000133 25.4194069,90.0570133 C16.4754069,87.2190133 7.24840688,90.8040133 6.18640688,94.4950133 C5.47140688,96.9950133 10.4004069,106.372013 19.3454069,109.213013 C27.9904069,111.953013 44.0184069,112.627013 46.6024069,107.897013 C50.9904069,120.270013 54.1234069,129.016013 54.2364069,129.069013 L58.2244069,126.579013 L50.4574069,107.273013 C55.8064069,106.462013 63.2144069,93.3660133 65.4154069,84.9680133 C67.7914069,75.8910133 63.7394069,66.8600133 59.9964069,65.9870133 C57.4704069,65.4020133 48.3494069,70.8050133 45.9734069,79.8800133 Z" vector-effect="non-scaling-stroke"/><g transform="translate(183.011407, 16.298013)" id="Group_1596131981971"><g id="Path_1596131981971" transform="translate(16.000000, 101.000000)"><path fill="#302721" d="M45.752,56.826 C45.752,56.826 50.063,59.819 48.499,61.846 C48.309,62.091 38.462,71.77 38.462,71.77 C38.462,71.77 37.282,70.666 38.645,67.505 C40.008,64.345 39.34,61.372 39.34,61.372 L45.752,56.826 Z" vector-effect="non-scaling-stroke"/><path fill="#EFD5BD" d="M16.955,5.849 C17.159,8.269 45.752,56.827 45.752,56.827 L39.877,60.992 C39.877,60.992 -4.125,21.446 1.114,3.076 C2.845,-2.993 16.751,3.427 16.955,5.849 Z" vector-effect="non-scaling-stroke"/></g><g id="Path_1596131981971" transform="translate(37.000000, 39.000000)"><g fill="#E8EDEE" transform="translate(8.000000, 83.000000)"><polygon points="0.666 0.444 7.999 0.444 6.308 52.831 2.358 52.831" vector-effect="non-scaling-stroke"/><polygon points="39.737 0.444 47.07 0.444 45.379 52.831 41.43 52.831" vector-effect="non-scaling-stroke"/></g><path fill="#9BB8CC" d="M52.013,83.444 C52.013,83.444 10.306,92.399 1.351,83.444 C-0.442,81.651 1.351,73.301 1.351,73.301 L52.013,73.301 L52.013,83.444 Z" vector-effect="non-scaling-stroke"/><path fill="#9BB8CC" d="M55.07,83.444 L47.737,84.444 L47.737,0.6 C47.737,0.6 53.774,-0.696 55.07,0.6 C69.715,15.245 55.07,83.444 55.07,83.444 Z" vector-effect="non-scaling-stroke"/></g><g id="Path_1596131981971" transform="translate(7.000000, 91.000000)"><path fill="#302721" d="M16.226,77.004 C16.226,77.004 17.162,82.313 14.691,82.662 C14.392,82.705 0.94891698,82.662 0.94891698,82.662 C0.94891698,82.662 0.889,81.001 3.995,79.675 C7.103,78.349 8.674,75.692 8.674,75.692 L16.226,77.004 Z" vector-effect="non-scaling-stroke"/><path fill="#EFD5BD" d="M75.941,0.774 C75.941,0.774 81.334,21.301 65.375,21.301 C65.375,21.301 22.15,22.043 20.9,24.127 C19.651,26.209 16.215,77.003 16.215,77.003 L8.236,76.29 C8.236,76.29 -4.625,16.374 9.469,9.117 C25.045,1.097 48.876,0.773 48.876,0.773 L75.941,0.773 L75.941,0.774 Z" vector-effect="non-scaling-stroke"/></g><g id="Path_1596131981971"><g transform="translate(7.000000, 33.000000)"><path fill="#F7B9A1" d="M58.638,11.114 C51.835,20.266 43.528,26.711 36.726,35.862 C28.448,33.905 22.018,35.974 13.75,34.238 C13.094,33.826 10.573,30.555 9.818,30.309 C7.243,29.467 6.457,28.557 6.04,28.618 C5.622,28.671 5.476,29.774 7.574,31.245 C7.574,31.245 8.358,31.88 7.104,31.559 C5.85,31.238 2.38,30.108 0.975,30.895 C0.062,31.411 -0.684,35.692 1.489,36.432 C3.056,36.965 6.877,37.448 9.927,37.334 C19.32,39.783 28.837,43.361 38.2,45.578 C39.623,45.914 41.388,45.185 42.247,44.031 C49.576,34.17 56.905,24.306 64.231,14.447 C67.534,10 61.952,6.65 58.638,11.114 Z" vector-effect="non-scaling-stroke"/><path fill="#143C5C" d="M58.429,3.575 C56.051,6.959 49.055,18.953 46.676,22.334 L56.799,28.149 C59.165,24.782 67.224,14.538 69.592,11.17 C74.607,4.035 63.436,-3.551 58.429,3.575 Z" vector-effect="non-scaling-stroke"/></g><g transform="translate(47.000000, 0.000000)"><g><path fill="#FFB699" d="M4.859,7.47 C4.859,7.47 13.847,6.198 17.304,7.004 C20.764,7.809 23.102,16.135 23.102,16.135 C23.102,16.135 25.888,12.84 27.732,14.984 C29.772,17.357 25.031,21.885 25.031,21.885 L26.09,29.573 L29.674,34.096 L19.043,44.207 C18.756,42.357 15.81,33.062 15.072,31.556 C10.407,32.12 8.043,30.23 6.436,28.474 C3.349,25.104 4.859,7.47 4.859,7.47 Z" vector-effect="non-scaling-stroke"/><path fill="#232124" d="M29.015,2.832 C29.015,2.832 27.852,0.207 23.462,0.453 C20.862,0.599 15.996,2.159 9.17,2.932 C3.409,3.595 1.235,0.436 1.235,0.436 C-1.685,6.26 4.859,7.471 4.859,7.471 C4.859,7.471 13.847,6.199 17.304,7.005 C20.764,7.81 23.102,16.136 23.102,16.136 C23.102,16.136 25.929,12.915 27.732,14.985 C29.862,17.432 25.031,21.886 25.031,21.886 L25.338,30.09 C25.338,30.09 29.005,27.995 30.798,23.264 C32.866,17.805 35.305,5.502 29.015,2.832 Z" vector-effect="non-scaling-stroke"/></g><path fill="#143C5C" d="M27.401,31.492 C27.401,31.492 37.108,37.473 37.108,49.763 C37.108,64.071 38.508,79.932 35.941,91.775 L8.877,91.775 C8.877,91.775 12.658,58.805 19.275,35.078 L27.401,31.492 Z" vector-effect="non-scaling-stroke"/><polygon points="19.275 35.078 26.09 29.573 30.183 33.577 18.638 43.389 16.766 39.026" fill="#143C5C" vector-effect="non-scaling-stroke"/></g><g transform="translate(0.000000, 36.000000)"><path fill="#FFB699" d="M63.054,12.219 C54.361,20.399 50.125,24.235 41.431,32.415 C33.501,27.601 21.042,26.932 12,23.012 C11.372,22.028 10.442,19.519 9.477,18.694 C8.373,17.748 7.711,17.199 7.23,16.594 L6.378,16.495 L6.039,17.792 C6.178,18.072 6.35,18.375 6.557,18.701 C6.557,18.701 7.136,19.765 5.89,18.835 C4.647,17.9 4.507,16.192 2.584,16.421 C1.336,16.573 -1.054,21.858 1.018,23.678 C2.881,25.315 5.064,26.457 8.758,27.276 C18.854,31.649 28.832,37.766 38.927,42.141 C40.33,42.748 42.135,42.136 43.381,41.291 C54.812,33.544 60.149,31.168 69.515,22.354 C73.737,18.381 67.292,8.229 63.054,12.219 Z" vector-effect="non-scaling-stroke"/><path fill="#143C5C" d="M67.503,2.574 C64.429,5.624 54.902,19.308 51.831,22.356 L58.282,31.499 C64.907,29.361 76.375,20.189 78.5,15.501 C82.034,7.705 74.965,-2.48 68.734,1.57 C68.318,1.839 67.907,2.172 67.503,2.574 Z" vector-effect="non-scaling-stroke"/></g></g></g><g transform="translate(81.011407, 70.298013)" id="Group_1596131981971"><g id="Path_1596131981971" transform="translate(52.000000, 0.000000)"><path fill="#EFD5BD" d="M0.821,4.355 C0.871,14.914 9.44,23.459 20.01,23.459 C30.58,23.459 39.151,14.914 39.199,4.355 L0.821,4.355 L0.821,4.355 Z" vector-effect="non-scaling-stroke"/><path fill="#B0DD6F" d="M36.958,4.355 C36.402,2.988 35.064,2.021 33.498,2.021 C32.946,2.021 32.427,2.146 31.956,2.361 C31.383,1.816 30.612,1.476 29.759,1.476 C28.507,1.476 27.435,2.201 26.911,3.249 C26.422,2.77 25.755,2.474 25.017,2.474 C24.392,2.474 23.825,2.693 23.366,3.048 C22.761,1.8 21.493,0.931 20.012,0.931 C18.535,0.931 17.272,1.792 16.663,3.035 C16.08,2.414 15.26,2.021 14.341,2.021 C13.794,2.021 13.287,2.169 12.838,2.412 C12.48,1.039 11.242,0.021 9.758,0.021 C8.356,0.021 7.18,0.928 6.748,2.182 C6.268,1.746 5.637,1.475 4.936,1.475 C3.44,1.475 2.228,2.686 2.228,4.182 C2.228,4.243 2.242,4.297 2.246,4.356 L36.958,4.356 L36.958,4.355 Z" vector-effect="non-scaling-stroke"/></g><g transform="translate(0.000000, 23.000000)"><g transform="translate(52.000000, 10.000000)"><rect height="87.359" width="10.013" y="0.472" x="20.011" fill="#9BB8CC" id="Rectangle_1596131981971" vector-effect="non-scaling-stroke"/><path fill="#E8EDEE" id="Path_1596131981971" d="M49.846,85.401 C49.846,86.737 47.686,87.831 45.041,87.831 L4.993,87.831 C2.35,87.831 0.187,86.737 0.187,85.401 C0.187,84.063 2.35,82.969 4.993,82.969 L45.041,82.969 C47.686,82.97 49.846,84.063 49.846,85.401 Z" vector-effect="non-scaling-stroke"/></g><rect height="15.618" width="152.794" y="0.459" x="0.62" fill="#E8EDEE" id="Rectangle_1596131981971" vector-effect="non-scaling-stroke"/></g></g><polygon points="178.292407 46.3440133 165.095407 53.1110133 181.462407 75.0950133 194.700407 67.4060133" fill="#1D3B54" id="Path_1596131981971" vector-effect="non-scaling-stroke"/><path fill="#EEA886" id="Path_1596131981971" d="M192.488407,70.9920133 C192.488407,70.9920133 190.095407,67.9650133 189.095407,68.3820133 C188.095407,68.7990133 188.529407,69.7080133 189.687407,71.2950133 C190.845407,72.8820133 192.488407,70.9920133 192.488407,70.9920133 Z" vector-effect="non-scaling-stroke"/><g fill="#FFFFFF" transform="translate(169.011407, 52.298013)" id="Group_1596131981971"><polygon points="0.72 3.61 7.141 0.205 7.625 0.829 1.14 4.31" id="Path_1596131981971" vector-effect="non-scaling-stroke"/><polygon points="1.582 4.637 8.004 1.231 8.487 1.855 2.002 5.336" id="Path_1596131981971" vector-effect="non-scaling-stroke"/><polygon points="2.376 5.663 8.797 2.257 9.281 2.881 2.796 6.363" id="Path_1596131981971" vector-effect="non-scaling-stroke"/><polygon points="3.075 6.689 9.497 3.284 9.98 3.908 3.495 7.389" id="Path_1596131981971" vector-effect="non-scaling-stroke"/><polygon points="5.546 10.057 11.967 6.651 12.451 7.275 5.966 10.757" id="Path_1596131981971" vector-effect="non-scaling-stroke"/><polygon points="6.744 11.52 13.166 8.114 13.649 8.737 7.164 12.219" id="Path_1596131981971" vector-effect="non-scaling-stroke"/></g><rect height="3.256" width="152.794" y="93.7570133" x="81.6314069" fill="#9BB8CC" id="Rectangle_1596131981971" vector-effect="non-scaling-stroke"/><g transform="translate(26.011407, 24.298013)" id="Group_1596131981971"><path fill="#EEA886" id="Path_1596131981971" d="M35.198,27.134 C35.198,27.134 34.955,27.919 34.682,29.083 C34.541,29.677 34.393,30.37 34.262,31.107 C33.908,33.148 33.698,35.534 34.226,37.122 C34.226,37.122 29.885,38.625 26.455,32.492 C26.455,32.492 27.927,25.881 26.014,21.873 C24.101,17.866 35.198,27.134 35.198,27.134 Z" vector-effect="non-scaling-stroke"/><path fill="#A77860" id="Path_1596131981971" d="M34.783,28.797 C34.641,29.392 34.393,30.37 34.262,31.107 C30.231,28.548 28.871,24.238 28.871,24.238 C31.176,26.321 34.783,28.797 34.783,28.797 Z" vector-effect="non-scaling-stroke"/><path fill="#EEA886" id="Path_1596131981971" d="M36.166,3.967 C39.105,4.163 45.419,6.383 45.524,14.247 C45.524,14.247 45.049,16.308 44.352,17.891 C43.657,19.474 44.567,24.484 44.157,24.677 C43.744,24.872 42.125,24.994 42.125,24.994 C42.125,24.994 39.809,30.084 37.956,29.824 C36.106,29.565 29.249,27.302 26.699,20.343 C24.149,13.384 24.293,3.176 36.166,3.967 Z" vector-effect="non-scaling-stroke"/><path fill="#232124" id="Path_1596131981971" d="M45.524,14.247 C45.524,14.247 40.404,16.934 35.619,17.044 C30.832,17.152 26.909,24.825 26.909,24.825 C26.909,24.825 21.117,11.825 27.751,5.227 C34.367,-1.347 47.593,5.341 45.524,14.247 Z" vector-effect="non-scaling-stroke"/><path fill="#EEA886" id="Path_1596131981971" d="M34.501,16.997 C34.58,16.082 33.724,14.597 32.084,15.669 C30.447,16.744 31.956,21.311 33.229,21.028 C34.503,20.744 34.419,17.942 34.501,16.997 Z" vector-effect="non-scaling-stroke"/><g id="Path_1596131981971" transform="translate(0.000000, 31.000000)"><g fill="#E8EDEE" transform="translate(7.000000, 83.000000)"><polygon points="46.454 0.444 39.12 0.444 40.815 52.831 44.762 52.831" vector-effect="non-scaling-stroke"/><polygon points="7.383 0.444 0.05 0.444 1.744 52.831 5.69 52.831" vector-effect="non-scaling-stroke"/></g><path fill="#9BB8CC" d="M10.716,83.444 C10.716,83.444 51.923,92.294 60.773,83.444 C62.566,81.651 60.773,73.301 60.773,73.301 L10.716,73.301 L10.716,83.444 Z" vector-effect="non-scaling-stroke"/><path fill="#9BB8CC" d="M7.05,83.444 L14.383,84.444 L14.383,0.6 C14.383,0.6 8.346,-0.696 7.05,0.6 C-7.595,15.245 7.05,83.444 7.05,83.444 Z" vector-effect="non-scaling-stroke"/></g><path fill="#EEA886" id="Path_1596131981971" d="M75.995,64.513 C75.995,64.513 77.961,65.027 78.91,65.112 C79.859,65.197 84.373,63.454 85.769,63.725 C87.167,63.996 96.124,68.423 96.525,68.731 C96.923,69.04 96.277,69.631 96.277,69.631 L75.185,68.673 L75.995,64.513 Z" vector-effect="non-scaling-stroke"/><path fill="#232124" id="Path_1596131981971" d="M71.926,147.861 C71.926,147.861 72.194,149.355 72.957,151.022 C73.519,152.245 75.029,157.086 76.055,157.635 C77.081,158.182 80.326,159.545 80.193,161.503 C80.063,163.461 79.905,164.835 76.543,164.228 C73.179,163.619 70.945,163.32 69.887,160.624 C68.826,157.925 66.677,155.659 66.677,155.659 L65.292,161.755 L63.999,161.461 C63.999,161.461 64.845,154.979 64.598,154.455 C64.352,153.929 64.566,148.852 68.224,147.018 C71.88,145.186 71.926,147.861 71.926,147.861 Z" vector-effect="non-scaling-stroke"/><path fill="#232124" id="Path_1596131981971" d="M100.383,152.92 C100.383,152.92 100.926,154.205 101.951,155.544 C102.703,156.524 105.044,160.556 106.074,160.838 C107.106,161.118 110.291,161.681 110.573,163.462 C110.852,165.241 110.994,166.506 107.854,166.647 C104.715,166.789 102.654,166.975 101.155,164.774 C99.656,162.572 97.267,160.979 97.267,160.979 L97.267,166.723 L96.047,166.723 C96.047,166.723 95.485,160.744 95.157,160.323 C94.829,159.902 93.987,155.31 96.89,152.921 C99.796,150.531 100.383,152.92 100.383,152.92 Z" vector-effect="non-scaling-stroke"/><path fill="#EEA886" id="Path_1596131981971" d="M54.381,38.158 C54.381,38.158 55.364,34.668 55.46,34.213 C55.557,33.757 56.488,32.854 57.648,31.909 C58.809,30.965 60.798,30.206 61.044,30.284 C61.291,30.36 61.574,30.324 61.981,30.845 C62.386,31.369 62.443,32.033 62.443,32.033 C62.443,32.033 63.249,32.443 63.255,33.268 C63.255,33.268 63.993,33.687 63.848,34.625 C63.848,34.625 64.557,35.055 64.396,35.729 C64.396,35.729 63.461,36.635 63.215,37.07 C62.966,37.506 60.899,39.26 58.655,40.638 C58.654,40.639 55.793,42.752 54.381,38.158 Z" vector-effect="non-scaling-stroke"/><path fill="#EFD5BD" id="Path_1596131981971" d="M22.132,44.356 C21.467,41.794 23.121,40.893 29.015,44.97 C34.911,49.046 33.526,48.247 34.938,49.539 C36.348,50.832 42.533,54.065 42.533,54.065 C42.533,54.065 46.144,50.474 47.878,47.921 C49.83,45.046 54.382,38.158 54.382,38.158 L58.655,40.638 C58.655,40.638 48.519,61.751 46.2,63.239 C43.88,64.727 36.892,62.239 33.256,60.706 C29.618,59.172 28.042,57.552 26.381,57.14 C24.72,56.728 23.857,51.012 22.132,44.356 Z" vector-effect="non-scaling-stroke"/><path fill="#DB9C7C" id="Path_1596131981971" d="M60.731,30.52 C60.731,30.52 57.847,32.986 58.187,33.501 C58.527,34.013 58.965,33.996 58.965,33.996 L58.237,35.548 C58.237,35.548 58.34,36.847 59.726,36.359 C59.726,36.359 59.692,37.583 60.973,36.953 C60.973,36.953 61.314,37.769 61.958,37.58 C62.603,37.393 64.393,35.73 64.393,35.73 C64.393,35.73 64.611,35.209 63.845,34.626 C63.845,34.626 64.038,33.736 63.252,33.269 C63.252,33.269 63.295,32.531 62.44,32.034 C62.44,32.034 62.408,30.383 61.042,30.284 C61.044,30.284 60.85,30.415 60.731,30.52 Z" vector-effect="non-scaling-stroke"/><path fill="#DDBEA4" id="Path_1596131981971" d="M47.351,56.388 C47.351,56.388 48.511,52.182 47.143,48.926 C47.143,48.926 47.666,52.297 46.189,54.693 C45.119,56.429 47.351,56.388 47.351,56.388 Z" vector-effect="non-scaling-stroke"/><path fill="#EEA886" id="Path_1596131981971" d="M91.518,103.171 C91.518,103.171 86.247,115.032 82.485,123.496 C81.852,124.922 81.262,126.249 80.747,127.406 C80.144,128.763 79.644,129.89 79.299,130.665 C76.904,136.056 72.26,149.215 72.26,149.215 C72.26,149.215 69.927,149.801 67.365,147.552 C67.365,147.552 70.574,136.056 70.574,130.325 C70.574,124.594 71.345,107.713 76.818,104.064 C83.494,99.615 87.83,98.771 91.518,103.171 Z" vector-effect="non-scaling-stroke"/><path fill="#EEA886" id="Path_1596131981971" d="M42.773,80.629 C42.773,80.629 43.886,81.741 44.826,81.998 C45.768,82.254 61.506,83.45 68.777,85.845 C76.048,88.241 85.712,89.781 87.507,91.834 C89.306,93.886 93.344,106.771 94.787,116.167 C96.23,125.572 101.143,152.731 101.95,155.544 C102.376,157.034 96.23,153.572 96.23,153.572 C96.23,153.572 85.771,127.417 83.865,123.481 C80.359,116.255 77.712,109.183 76.43,107.816 C75.145,106.447 61.409,104.629 53.197,104.629 C44.987,104.629 27.376,102.78 25.409,101.669 C23.443,100.557 14.741,93.189 19.874,82.325 C25.008,71.464 42.773,80.629 42.773,80.629 Z" vector-effect="non-scaling-stroke"/><path fill="#143C5C" id="Path_1596131981971" d="M78.219,88.578 C78.219,88.578 72.281,113.436 65.265,113.474035 C62.25,113.49 62.344,108.001 55.498,106.401 C48.654,104.799 22.709,104.951 22.709,104.951 C22.709,104.951 10.556,87.593 21.294,79.273 C32.028,70.953 41.801,78.959 41.801,78.959 C41.801,78.959 44.39,81.768 45.643,81.829 C46.896,81.892 56.894,81.748 78.219,88.578 Z" vector-effect="non-scaling-stroke"/><path fill="#EEA886" id="Path_1596131981971" d="M106.074,160.838 C106.074,160.838 103.263,161.54 102.185,160.838 C101.108,160.136 97.444,153.943 96.231,153.572 C96.231,153.572 97.407,151.186 100.382,152.92 C100.383,152.92 105.277,159.807 106.074,160.838 Z" vector-effect="non-scaling-stroke"/><path fill="#EEA886" id="Path_1596131981971" d="M76.055,157.636 C76.055,157.636 72.903,157.701 71.929,156.697 C70.956,155.692 68.562,148.241 67.365,147.552 C67.365,147.552 69.188,145.305 71.927,147.862 C71.926,147.861 75.457,156.349 76.055,157.636 Z" vector-effect="non-scaling-stroke"/><path fill="#EFD5BD" id="Path_1596131981971" d="M47.12,52.097 C46.196,56.381 43.763,56.606 43.91,59.77 C44.058,62.934 45.003,63.205 43.367,68.195 C43.064,69.12 42.817,70.125 42.621,71.151 C42.597,71.273 42.571,71.393 42.551,71.517 C42.445,72.093 42.353,72.671 42.276,73.246 C42.13,74.305 42.024,75.339 41.951,76.282 C41.76,78.744 43.573,80.646 43.573,80.646 C43.573,80.646 27.562,90.237 16.57,88.892 C16.57,88.892 15.737,79.74 19.626,73.023 C21.829,69.218 20.778,50.096 19.626,46.022 C17.924,40.009 22.622,30.628 27.269,29.454 L34.477,32.791 C34.477,32.791 41.734,41.458 43.362,42.766 C44.989,44.074 48.057,47.753 47.12,52.097 Z" vector-effect="non-scaling-stroke"/><path fill="#EFD5BD" id="Path_1596131981971" d="M23.303,34.546 C25.338,32.852 28.281,29.95 32.577,35.688 C36.872,41.425 39.996,45.124 40.926,46.797 C41.854,48.469 49.929,60.123 49.929,60.123 C49.929,60.123 57.832,60.972 60.898,61.304 C64.769,61.724 78.219,64.375 78.219,64.375 L78.219,69.459 C78.219,69.459 54.671,69.01 52.001,69.685 C49.329,70.36 41.847,63.627 38.884,61.018 C35.923,58.41 27.609,48.91 26.163,47.99 C24.718,47.071 17.996,38.965 23.303,34.546 Z" vector-effect="non-scaling-stroke"/><path fill="#A77860" id="Path_1596131981971" d="M83.153,121.99 C82.52,123.415 81.609,125.436 81.094,126.594 C79.156,120.362 77.698,109.941 77.698,109.941 C80.856,116.944 83.117,121.906 83.153,121.99 Z" vector-effect="non-scaling-stroke"/><path fill="#DDBEA4" id="Path_1596131981971" d="M44.114,65.473 C44.114,65.473 43.758,66.968 43.376,68.206 L34.844,57.14 L44.114,65.473 Z" vector-effect="non-scaling-stroke"/><path fill="#EEA886" id="Path_1596131981971" d="M55.498,34.25 C55.498,34.25 57.43,32.503 58.904,32.013 C59.236,31.903 59.579,31.856 59.806,32.123 C60.035,32.39 59.938,33.061 59.143,33.86 C58.343,34.66 57.679,36.057 57.679,36.057 C57.679,36.057 56.617,36.638 55.498,34.25 Z" vector-effect="non-scaling-stroke"/><path fill="#232124" id="Path_1596131981971" d="M17.693,10.927 C17.693,10.927 17.268,15.731 18.612,20.088 C19.956,24.445 20.567,26.18 19.321,31.156 C19.321,31.156 19.838,26.103 18.994,23.882 C18.149,21.661 14.84,13.908 17.693,10.927 Z" vector-effect="non-scaling-stroke"/><path fill="#2A282B" id="Path_1596131981971" d="M30.734,3.301 C27.468,4.027 29.416,12.23 27.225,23.699 C25.037,35.167 18.122,36.96 18.122,36.96 C18.122,36.96 21.193,31.876 20.856,26.557 C20.594,22.404 15.561,11.068 20.536,3.659 C24.379,-2.066 31.152,3.132 31.152,3.132 L30.734,3.301 Z" vector-effect="non-scaling-stroke"/></g><path fill="#232124" id="Path_1596131981971" d="M234.259407,19.5050133 C234.259407,19.5050133 234.558407,23.1900133 242.846407,22.1720133 C242.846407,22.1720133 234.529407,21.9220133 236.104407,19.0050133 C236.104407,19.0050133 234.422407,18.5880133 234.259407,19.5050133 Z" vector-effect="non-scaling-stroke"/></g></g></g></svg>