<svg version="1.2" xmlns="http://www.w3.org/2000/svg" xmlns:xlink="http://www.w3.org/1999/xlink" overflow="visible" preserveAspectRatio="none" viewBox="0 0 66 66" height="45" width="44"><g transform="translate(1, 1)"><g fill-rule="evenodd" fill="none" stroke-width="1" stroke="none" id="Icons-(no-space)_1600460540681"><g id="pizza-1st-half_1600460540681"><path fill="#FEE5D1" id="Path_1600460540681" d="M32.5,0 C15.1030304,0 1,14.1030304 1,31.5 C1,48.8969696 15.1030304,63 32.5,63" vector-effect="non-scaling-stroke"/><path fill-rule="nonzero" fill="#F89344" id="Shape_1600460540681" d="M31.7243915,63.4538213 C14.2316936,63.4538213 0,49.2200851 0,31.7243915 C0,14.2315574 14.2315574,3.55271368e-15 31.7243915,3.55271368e-15 C49.2200851,3.55271368e-15 63.4538213,14.2315574 63.4538213,31.7243915 C63.4538213,49.2200851 49.2200851,63.4538213 31.7243915,63.4538213 Z M31.7243915,1.0893617 C14.8322043,1.0893617 1.0893617,14.8322043 1.0893617,31.7243915 C1.0893617,48.6195745 14.8323404,62.3644596 31.7243915,62.3644596 C48.6194383,62.3644596 62.3644596,48.6195745 62.3644596,31.7243915 C62.3644596,14.8322043 48.6194383,1.0893617 31.7243915,1.0893617 Z" vector-effect="non-scaling-stroke"/><path fill-rule="nonzero" fill="#F89344" id="Shape_1600460540681" d="M31.7257532,57.6062638 C30.8699234,57.6062638 30.0413277,57.2987915 29.3926128,56.7404936 L28.2027574,55.7160851 C27.7517617,55.3278638 27.1756255,55.1140766 26.5802894,55.1140766 C26.3163915,55.1140766 26.0553532,55.156017 25.8042553,55.2384 L24.3081532,55.729566 C23.9464851,55.8484426 23.5709277,55.908766 23.1921021,55.908766 C21.835983,55.9089021 20.6131745,55.1569702 20.0009532,53.9462809 L19.2905532,52.5419574 C18.9002894,51.770417 18.1223489,51.2505191 17.2602553,51.1847489 L15.6839489,51.064783 C13.9099234,50.9299745 12.5243915,49.5445787 12.3894468,47.7706894 L12.269617,46.1942468 C12.203983,45.3322894 11.6840851,44.5542128 10.9125447,44.1640851 L9.50590638,43.4525957 C7.91802553,42.6491915 7.16786383,40.8388085 7.72194043,39.1477106 L8.21365106,37.6472511 C8.48285957,36.8260085 8.30025532,35.9082213 7.73691915,35.2525617 L6.70897021,34.056034 C5.54866383,32.7049532 5.54920851,30.7446468 6.71019574,29.394383 L7.73569362,28.2016681 C8.29971064,27.5458723 8.48258723,26.6279489 8.21310638,25.8061617 L7.72180426,24.3065191 C7.16745532,22.6155574 7.91775319,20.8051745 9.50577021,20.0019064 L10.9122723,19.290417 C11.6839489,18.9001532 12.2038468,18.1220766 12.2693447,17.2602553 L12.3891745,15.6839489 C12.5241191,13.9099234 13.9096511,12.5243915 15.6836766,12.3894468 L17.2598468,12.269617 C18.1219404,12.203983 18.8998809,11.6839489 19.2901447,10.9125447 L20.001634,9.50604255 C20.6138553,8.29562553 21.8366638,7.54382979 23.192783,7.54382979 C23.5706553,7.54382979 23.9453957,7.60374468 24.306383,7.7220766 L25.8058894,8.21337872 C26.0564426,8.29548936 26.3168,8.33715745 26.5801532,8.33715745 C27.1748085,8.33715745 27.7506723,8.12364255 28.2015319,7.73596596 L29.3942468,6.71046809 C30.0425532,6.1531234 30.8706043,5.84605957 31.725617,5.84605957 C32.5800851,5.84605957 33.4077277,6.15257872 34.0556255,6.70924255 L35.2524255,7.73719149 C35.7031489,8.1243234 36.2784681,8.33756596 36.8728511,8.33756596 C37.1362043,8.33756596 37.3964255,8.29603404 37.6469787,8.2139234 L39.1477106,7.72221277 C39.5084255,7.60388085 39.8833021,7.54382979 40.2611745,7.54382979 C41.6172936,7.54382979 42.839966,8.2957617 43.4525957,9.50604255 L44.1640851,10.9125447 C44.5543489,11.6840851 45.3324255,12.2041191 46.194383,12.269617 L47.7705532,12.3894468 C49.5444426,12.5243915 50.9302468,13.9099234 51.064783,15.6839489 L51.1847489,17.2601191 C51.2502468,18.1223489 51.770417,18.9002894 52.5419574,19.290417 L53.946417,20.0009532 C55.5355234,20.804766 56.2855489,22.6162383 55.729566,24.3081532 L55.2384,25.803983 C54.967966,26.6269957 55.1507064,27.5461447 55.7160851,28.2027574 L56.7404936,29.3924766 C57.9036596,30.7436936 57.9042043,32.705634 56.7418553,34.0571234 L55.7148596,35.2512 C55.1502979,35.9076766 54.9676936,36.8262809 55.2378553,37.6486128 L55.7294298,39.1459404 C56.2855489,40.8377191 55.5355234,42.6491915 53.9462809,43.4528681 L52.5418213,44.1635404 C51.7702809,44.5536681 51.250383,45.3318809 51.1846128,46.1938383 L51.0646468,47.7698723 C50.9299745,49.544034 49.5443064,50.9297021 47.7702809,51.0641021 L46.194383,51.1842043 C45.3322894,51.2497021 44.5542128,51.7698723 44.1639489,52.5414128 L43.4534128,53.9458723 C42.8410553,55.1561532 41.6181106,55.9080851 40.2621277,55.9080851 C39.8835745,55.9082213 39.5078809,55.8478979 39.1462128,55.7290213 L37.6492936,55.2374468 C37.3980596,55.1550638 37.1368851,55.1131234 36.8733957,55.1131234 C36.2786043,55.1131234 35.7026043,55.3265021 35.2514723,55.7145872 L34.0576681,56.7413106 C33.4092255,57.2990638 32.5809021,57.6062638 31.7257532,57.6062638 Z M26.5802894,54.0244426 C27.4362553,54.0244426 28.2648511,54.3319149 28.9134298,54.8902128 L30.1034213,55.9144851 C30.5545532,56.3029787 31.1305532,56.5166298 31.7257532,56.5166298 C32.3205447,56.5166298 32.8962723,56.3032511 33.3471319,55.9153021 L34.5410723,54.8885787 C35.1897872,54.3308255 36.0179745,54.0236255 36.8732596,54.0236255 C37.252766,54.0236255 37.6283234,54.0836766 37.9891745,54.202417 L39.4860936,54.6941277 C39.7381447,54.776783 39.999183,54.8188596 40.2619915,54.8187234 C41.2051064,54.8187234 42.055217,54.2958298 42.4810213,53.4541617 L43.1916936,52.049566 C43.7529872,50.9403234 44.8717617,50.1922043 46.1113191,50.0979745 L47.6873532,49.9780085 C48.9213277,49.8843234 49.8845957,48.9209191 49.9782809,47.6873532 L50.0982468,46.111183 C50.1923404,44.8714894 50.9401872,43.7527149 52.0497021,43.1915574 L53.4541617,42.4808851 C54.5593191,41.9220426 55.0807149,40.6624681 54.6941277,39.4859574 L54.202417,37.9889021 C53.8137872,36.8061277 54.0765957,35.4851404 54.8883064,34.5410723 L55.9153021,33.3468596 C56.7237447,32.4071489 56.7233362,31.0428596 55.9143489,30.1032851 L54.8900766,28.913566 C54.0771404,27.9692255 53.8140596,26.6475574 54.2029617,25.4641021 L54.6941277,23.9682723 C55.0808511,22.7916255 54.5593191,21.5320511 53.4542979,20.9730723 L52.0498383,20.2625362 C50.9404596,19.7013787 50.1926128,18.5827404 50.098383,17.3427745 L49.978417,15.7666043 C49.8847319,14.5329021 48.9210553,13.5694979 47.6874894,13.4756766 L46.1115915,13.3558468 C44.8718979,13.261617 43.7532596,12.5139064 43.1918298,11.4042553 L42.4802043,9.99775319 C42.0544,9.15608511 41.204017,8.63319149 40.2610383,8.63319149 C39.9986383,8.63319149 39.7381447,8.67499574 39.4867745,8.75737872 L37.9860426,9.24908936 C37.6258723,9.36701277 37.2512681,9.42679149 36.8728511,9.42679149 C36.018383,9.42679149 35.1906043,9.12027234 34.542434,8.56347234 L33.3457702,7.5355234 C32.8950468,7.14839149 32.3197277,6.93528511 31.7254809,6.93528511 C31.1308255,6.93528511 30.5550979,7.14866383 30.1043745,7.53634043 L28.9116596,8.5618383 C28.263217,9.11931915 27.435166,9.42638298 26.580017,9.42638298 L26.580017,9.42638298 C26.2014638,9.42638298 25.8267234,9.36660426 25.4666894,9.24854468 L23.967183,8.75724255 C23.7158128,8.67485957 23.4553191,8.63305532 23.192783,8.63305532 C22.2498043,8.63305532 21.3995574,9.15594894 20.9737532,9.99761702 L20.2622638,11.4041191 C19.7011064,12.5134979 18.5823319,13.2613447 17.3425021,13.3557106 L15.7663319,13.4755404 C14.532766,13.5693617 13.5692255,14.5329021 13.4754043,15.7664681 L13.3555745,17.3426383 C13.2614809,18.5823319 12.513634,19.7011064 11.403983,20.2624 L9.99748085,20.9738894 C8.8932766,21.5324596 8.37160851,22.7913532 8.75697021,23.9670468 L9.24827234,25.4666894 C9.6356766,26.6485106 9.37259574,27.9686809 8.56170213,28.9116596 L7.53620426,30.1043745 C6.72885106,31.0434043 6.72844255,32.4066043 7.53538723,33.3461787 L8.5632,34.5427064 C9.3732766,35.4858213 9.63594894,36.8051745 9.24881702,37.9864511 L8.75710638,39.4869106 C8.37174468,40.6628766 8.89341277,41.9219064 9.99761702,42.4804766 L11.4041191,43.191966 C12.5134979,43.7531234 13.2613447,44.8718979 13.3557106,46.1115915 L13.4755404,47.6878979 C13.5693617,48.9214638 14.5329021,49.8847319 15.7664681,49.9785532 L17.3426383,50.0985191 C18.5823319,50.1926128 19.7011064,50.9405957 20.2624,52.0499745 L20.9729362,53.4545702 C21.3986043,54.2965106 22.2488511,54.8191319 23.1918298,54.8191319 C23.4550468,54.8191319 23.7162213,54.7770553 23.968,54.6944 L25.4641021,54.2030979 C25.8250894,54.0844936 26.2006468,54.0244426 26.5802894,54.0244426 Z" vector-effect="non-scaling-stroke"/><path fill-rule="nonzero" fill="#F89344" id="Shape_1600460540681" d="M24.1014468,46.4333617 C22.2993702,46.4333617 20.8333617,44.9670809 20.8333617,43.1652766 C20.8333617,41.3634723 22.2993702,39.8971915 24.1014468,39.8971915 C25.9035234,39.8971915 27.3695319,41.3634723 27.3695319,43.1652766 C27.3695319,44.9670809 25.9035234,46.4333617 24.1014468,46.4333617 Z M24.1014468,40.9865532 C22.9001532,40.9865532 21.9227234,41.963983 21.9227234,43.1652766 C21.9227234,44.3665702 22.9001532,45.344 24.1014468,45.344 C25.3027404,45.344 26.2801702,44.3665702 26.2801702,43.1652766 C26.2801702,41.963983 25.3027404,40.9865532 24.1014468,40.9865532 Z" vector-effect="non-scaling-stroke"/><path fill-rule="nonzero" fill="#F89344" id="Shape_1600460540681" d="M34.9950638,38.2631489 C33.9436936,38.2631489 33.0886809,37.4081362 33.0886809,36.356766 C33.0886809,35.3053957 33.9436936,34.450383 34.9950638,34.450383 C36.046434,34.450383 36.9014468,35.3053957 36.9014468,36.356766 C36.9014468,37.4081362 36.046434,38.2631489 34.9950638,38.2631489 Z M34.9950638,35.5397447 C34.5444766,35.5397447 34.1780426,35.9061787 34.1780426,36.356766 C34.1780426,36.8073532 34.5444766,37.1737872 34.9950638,37.1737872 C35.4456511,37.1737872 35.8120851,36.8073532 35.8120851,36.356766 C35.8120851,35.9061787 35.4456511,35.5397447 34.9950638,35.5397447 Z" vector-effect="non-scaling-stroke"/><path fill-rule="nonzero" fill="#F89344" id="Shape_1600460540681" d="M33.6333617,24.6461277 C31.8315574,24.6461277 30.3652766,23.1801191 30.3652766,21.3780426 C30.3652766,19.575966 31.8315574,18.1099574 33.6333617,18.1099574 C35.435166,18.1099574 36.9014468,19.575966 36.9014468,21.3780426 C36.9014468,23.1801191 35.435166,24.6461277 33.6333617,24.6461277 Z M33.6333617,19.1993191 C32.4320681,19.1993191 31.4546383,20.1767489 31.4546383,21.3780426 C31.4546383,22.5793362 32.4320681,23.556766 33.6333617,23.556766 C34.8346553,23.556766 35.8120851,22.5793362 35.8120851,21.3780426 C35.8120851,20.1767489 34.8346553,19.1993191 33.6333617,19.1993191 Z" vector-effect="non-scaling-stroke"/><path fill-rule="nonzero" fill="#F89344" id="Shape_1600460540681" d="M17.9737872,32.8163404 C15.7962894,32.8163404 14.0248511,31.0449021 14.0248511,28.8674043 C14.0248511,26.6899064 15.7962894,24.9184681 17.9737872,24.9184681 C20.1512851,24.9184681 21.9227234,26.6899064 21.9227234,28.8674043 C21.9227234,31.0449021 20.1512851,32.8163404 17.9737872,32.8163404 Z M17.9737872,26.0078298 C16.3969362,26.0078298 15.1142128,27.2905532 15.1142128,28.8674043 C15.1142128,30.4442553 16.3969362,31.7269787 17.9737872,31.7269787 C19.5506383,31.7269787 20.8333617,30.4442553 20.8333617,28.8674043 C20.8333617,27.2905532 19.5506383,26.0078298 17.9737872,26.0078298 Z" vector-effect="non-scaling-stroke"/><path fill-rule="nonzero" fill="#F89344" id="Shape_1600460540681" d="M44.5269787,39.6248511 C42.7250383,39.6248511 41.2588936,38.1585702 41.2588936,36.356766 C41.2588936,34.5549617 42.7250383,33.0886809 44.5269787,33.0886809 C46.3289191,33.0886809 47.7950638,34.5549617 47.7950638,36.356766 C47.7950638,38.1585702 46.3289191,39.6248511 44.5269787,39.6248511 Z M44.5269787,34.1780426 C43.3256851,34.1780426 42.3482553,35.1554723 42.3482553,36.356766 C42.3482553,37.5580596 43.3256851,38.5354894 44.5269787,38.5354894 C45.7282723,38.5354894 46.7057021,37.5580596 46.7057021,36.356766 C46.7057021,35.1554723 45.7282723,34.1780426 44.5269787,34.1780426 Z" vector-effect="non-scaling-stroke"/><path fill-rule="nonzero" fill="#F89344" id="Path_1600460540681" d="M43.1652766,26.0078298 C43.0259745,26.0078298 42.8864,25.9545872 42.7801872,25.8483745 L41.4184851,24.4866723 C41.2056511,24.2738383 41.2056511,23.9290553 41.4184851,23.7163574 C41.631183,23.5036596 41.9762383,23.5036596 42.1886638,23.7163574 L43.550366,25.0780596 C43.7632,25.2908936 43.7632,25.6356766 43.550366,25.8483745 C43.4441532,25.9545872 43.3045787,26.0078298 43.1652766,26.0078298 Z" vector-effect="non-scaling-stroke"/><path fill-rule="nonzero" fill="#F89344" id="Path_1600460540681" d="M32.2712511,47.7952 C32.1891404,47.7952 32.1062128,47.7766809 32.0280511,47.7376 C31.7589787,47.6030638 31.6500426,47.2758468 31.7844426,47.0067745 L33.1461447,44.2833702 C33.2806809,44.0141617 33.6084426,43.9054979 33.8769702,44.0397617 C34.1461787,44.1742979 34.2548426,44.5015149 34.1205787,44.7705872 L32.7588766,47.4939915 C32.6634213,47.6846298 32.4710128,47.7952 32.2712511,47.7952 Z" vector-effect="non-scaling-stroke"/><path fill-rule="nonzero" fill="#F89344" id="Path_1600460540681" d="M24.1010383,20.5611574 C24.0190638,20.5611574 23.9361362,20.5426383 23.8578383,20.5035574 L21.134434,19.1418553 C20.8653617,19.0073191 20.7564255,18.6801021 20.8908255,18.4110298 C21.0252255,18.1419574 21.3525787,18.0331574 21.6216511,18.1674213 L24.3450553,19.5291234 C24.6141277,19.6636596 24.7230638,19.9908766 24.5886638,20.2599489 C24.4932085,20.4507234 24.3008,20.5611574 24.1010383,20.5611574 Z" vector-effect="non-scaling-stroke"/><path fill-rule="nonzero" fill="#F89344" id="Path_1600460540681" d="M43.1652766,43.7099574 L40.4418723,43.7099574 C40.1410723,43.7099574 39.8971915,43.4660766 39.8971915,43.1652766 C39.8971915,42.8644766 40.1410723,42.6205957 40.4418723,42.6205957 L43.1652766,42.6205957 C43.4660766,42.6205957 43.7099574,42.8644766 43.7099574,43.1652766 C43.7099574,43.4660766 43.4660766,43.7099574 43.1652766,43.7099574 Z" vector-effect="non-scaling-stroke"/><path fill-rule="nonzero" fill="#F89344" id="Path_1600460540681" d="M25.4631489,35.5397447 C25.3237106,35.5397447 25.1844085,35.4865021 25.0779234,35.3801532 C24.8652255,35.1673191 24.8652255,34.8224 25.0779234,34.6099745 L27.8013277,31.8865702 C28.0141617,31.6737362 28.3589447,31.6737362 28.5716426,31.8865702 C28.7843404,32.0994043 28.7843404,32.4443234 28.5716426,32.6567489 L25.8482383,35.3801532 C25.7418894,35.4865021 25.6025872,35.5397447 25.4631489,35.5397447 Z" vector-effect="non-scaling-stroke"/><path fill-rule="nonzero" fill="#F89344" id="Path_1600460540681" d="M40.3065191,15.9380426 L40.3065191,15.9380426 C41.0547745,15.8632851 41.7221447,16.4091915 41.7969021,17.157583 L41.7969021,17.157583 C41.8717957,17.9058383 41.3257532,18.5732085 40.5774979,18.647966 L40.5774979,18.647966 C39.8291064,18.7227234 39.1618723,18.176817 39.0871149,17.4284255 L39.0871149,17.4284255 C39.0122213,16.6801702 39.5582638,16.0129362 40.3065191,15.9380426 Z" vector-effect="non-scaling-stroke"/><path fill-rule="nonzero" fill="#F89344" id="Path_1600460540681" d="M18.5190128,36.3634383 L18.5190128,36.3634383 C19.2672681,36.2885447 19.9346383,36.8345872 20.0093957,37.5828426 L20.0093957,37.5828426 C20.0842894,38.331234 19.5382468,38.9984681 18.7899915,39.0732255 L18.7899915,39.0732255 C18.0417362,39.1481191 17.374366,38.6020766 17.2996085,37.8538213 L17.2996085,37.8538213 C17.2247149,37.105566 17.7707574,36.4384681 18.5190128,36.3634383 Z" vector-effect="non-scaling-stroke"/><path fill-rule="nonzero" fill="#F89344" id="Path_1600460540681" d="M37.5828426,28.1933617 L37.5828426,28.1933617 C38.331234,28.1186043 38.9984681,28.6645106 39.0732255,29.4129021 L39.0732255,29.4129021 C39.1481191,30.1611574 38.6020766,30.8285277 37.8538213,30.9032851 L37.8538213,30.9032851 C37.105566,30.9780426 36.4381957,30.4321362 36.3634383,29.6837447 L36.3634383,29.6837447 C36.2885447,28.9354894 36.8345872,28.2682553 37.5828426,28.1933617 Z" vector-effect="non-scaling-stroke"/><path fill-rule="nonzero" fill="#F89344" id="Path_1600460540681" d="M48.4767319,26.8315234 L48.4767319,26.8315234 C49.2249872,26.7566298 49.8923574,27.3026723 49.9671149,28.0509277 L49.9671149,28.0509277 C50.0420085,28.799183 49.495966,29.4665532 48.7477106,29.5413106 L48.7477106,29.5413106 C47.9993191,29.6162043 47.3320851,29.0701617 47.2573277,28.3219064 L47.2573277,28.3219064 C47.182434,27.5736511 47.7284766,26.906417 48.4767319,26.8315234 Z" vector-effect="non-scaling-stroke"/><path fill-rule="nonzero" fill="#F89344" id="Path_1600460540681" d="M28.0509277,25.4698213 L28.0509277,25.4698213 C28.799183,25.3949277 29.4665532,25.9409702 29.5413106,26.6892255 L29.5413106,26.6892255 C29.6162043,27.4374809 29.0701617,28.1048511 28.3219064,28.1796085 L28.3219064,28.1796085 C27.5736511,28.2545021 26.9062809,27.7084596 26.8315234,26.9602043 L26.8315234,26.9602043 C26.7566298,26.2119489 27.3026723,25.5447149 28.0509277,25.4698213 Z" vector-effect="non-scaling-stroke"/><path fill-rule="nonzero" fill="#F89344" id="Path_1600460540681" d="M26.6894979,13.2146383 L26.6894979,13.2146383 C27.4377532,13.1398809 28.1051234,13.6857872 28.1798809,14.4341787 L28.1798809,14.4341787 C28.2546383,15.182434 27.7087319,15.8498043 26.9603404,15.9245617 L26.9603404,15.9245617 C26.2120851,15.9993191 25.5447149,15.4534128 25.4699574,14.7050213 L25.4699574,14.7050213 C25.3952,13.956766 25.9411064,13.2895319 26.6894979,13.2146383 Z" vector-effect="non-scaling-stroke"/><path fill-rule="nonzero" fill="#F89344" id="Path_1600460540681" d="M37.5831149,45.8956255 L37.5831149,45.8956255 C38.3313702,45.8207319 38.9987404,46.3667745 39.0734979,47.1150298 L39.0734979,47.1150298 C39.1483915,47.8632851 38.6023489,48.5306553 37.8540936,48.6054128 L37.8540936,48.6054128 C37.1057021,48.6803064 36.4384681,48.1342638 36.3637106,47.3860085 L36.3637106,47.3860085 C36.288817,46.637617 36.8348596,45.970383 37.5831149,45.8956255 Z" vector-effect="non-scaling-stroke"/></g></g></g></svg>