<svg version="1.2" xmlns="http://www.w3.org/2000/svg" xmlns:xlink="http://www.w3.org/1999/xlink" overflow="visible" preserveAspectRatio="none" viewBox="0 0 327 278" height="136" width="160"><g transform="translate(1, 1)"><g fill-rule="evenodd" fill="none" stroke-width="1" stroke="none" id="popup_1596211238665"><g transform="translate(2.000000, 2.000000)" id="popup_1596211238665"><path fill-rule="nonzero" fill="#FFFFFF" stroke-width="2.5" stroke="#FEE5D1" id="Path_1596211238665" d="M320.656,265.833 C320.656,269.239 317.894,272 314.488,272 L6.822,272 C3.418,272 0.656,269.239 0.656,265.833 L0.656,6.167 C0.656,2.761 3.418,0 6.822,0 L314.488,0 C317.894,0 320.656,2.761 320.656,6.167 L320.656,265.833 Z" vector-effect="non-scaling-stroke"/><circle r="7.261" cy="26.072" cx="20.595" fill-rule="nonzero" fill="#FCBA86" id="Oval_1596211238665" vector-effect="non-scaling-stroke"/><circle r="7.261" cy="26.072" cx="44.255" fill-rule="nonzero" fill="#FCBA86" id="Oval_1596211238665" vector-effect="non-scaling-stroke"/><circle r="7.261" cy="26.072" cx="67.915" fill-rule="nonzero" fill="#FCBA86" id="Oval_1596211238665" vector-effect="non-scaling-stroke"/><g fill-rule="nonzero" fill="#FEE5D1" transform="translate(38.000000, 77.000000)" id="Group_1596211238665"><rect height="12" width="244.334" y="121.667" x="0.489" id="Rectangle_1596211238665" vector-effect="non-scaling-stroke"/><rect height="12" width="244.334" y="91.25" x="0.489" id="Rectangle_1596211238665" vector-effect="non-scaling-stroke"/><rect height="12" width="244.334" y="60.834" x="0.489" id="Rectangle_1596211238665" vector-effect="non-scaling-stroke"/><rect height="12" width="244.334" y="30.417" x="0.489" id="Rectangle_1596211238665" vector-effect="non-scaling-stroke"/><rect height="12" width="244.334" y="0" x="0.489" id="Rectangle_1596211238665" vector-effect="non-scaling-stroke"/></g><g fill-rule="nonzero" transform="translate(61.000000, 67.000000)" id="Group_1596211238665"><rect height="151" width="199.292" y="0" x="0.011" fill="#C5C5C5" id="Rectangle_1596211238665" vector-effect="non-scaling-stroke"/><rect height="128.079" width="80.521" y="11.46" x="11.422" fill="#EEEEEE" id="Rectangle_1596211238665" vector-effect="non-scaling-stroke"/><path fill="#FFFFFF" id="Path_1596211238665" d="M187.886,133.372 C187.886,136.777 185.125,139.539 181.719,139.539 L109.053,139.539 C105.647,139.539 102.886,136.777 102.886,133.372 L102.886,110.956 C102.886,107.551 105.647,104.789 109.053,104.789 L181.719,104.789 C185.125,104.789 187.886,107.551 187.886,110.956 L187.886,133.372 Z" vector-effect="non-scaling-stroke"/></g><path stroke-width="2.5" stroke="#FEE5D1" id="Path_1596211238665" d="M306.823,246.833 C306.823,248.03 305.853,249 304.656,249 L16.656,249 C15.46,249 14.489,248.03 14.489,246.833 L14.489,51.834 C14.489,50.637 15.46,49.666 16.656,49.666 L304.656,49.666 C305.853,49.666 306.823,50.637 306.823,51.834 L306.823,246.833 Z" vector-effect="non-scaling-stroke"/></g></g></g></svg>