<svg version="1.2" xmlns="http://www.w3.org/2000/svg" xmlns:xlink="http://www.w3.org/1999/xlink" overflow="visible" preserveAspectRatio="none" viewBox="0 0 237 237" height="192" width="192"><g transform="translate(1, 1)"><desc>Created with Sketch.</desc><g fill-rule="evenodd" fill="none" stroke-width="1" stroke="none" id="status---alert_1591213684212"><g fill-rule="nonzero" fill="#FF6D4A" transform="translate(13.000000, 14.000000)" id="Alert_1591213684212"><path id="Oval_1591213684212" d="M104,208 C46.562386,208 0,161.437614 0,104 C0,46.562386 46.562386,0 104,0 C161.437614,0 208,46.562386 208,104 C208,161.437614 161.437614,208 104,208 Z M104,202.222222 C158.246635,202.222222 202.222222,158.246635 202.222222,104 C202.222222,49.7533646 158.246635,5.77777778 104,5.77777778 C49.7533646,5.77777778 5.77777778,49.7533646 5.77777778,104 C5.77777778,158.246635 49.7533646,202.222222 104,202.222222 Z M106.888889,145.888889 L106.888889,151.666667 L101.111111,151.666667 L101.111111,145.888889 L106.888889,145.888889 Z M106.888889,56.3333333 L106.888889,134.333333 L101.111111,134.333333 L101.111111,56.3333333 L106.888889,56.3333333 Z" vector-effect="non-scaling-stroke" style="fill: rgb(251, 0, 1);"/></g></g></g></svg>