<svg version="1.2" xmlns="http://www.w3.org/2000/svg" xmlns:xlink="http://www.w3.org/1999/xlink" overflow="visible" preserveAspectRatio="none" viewBox="0 0 237 237" height="192" width="192"><g transform="translate(1, 1)"><desc>Created with Sketch.</desc><g fill-rule="evenodd" fill="none" stroke-width="1" stroke="none" id="status---success_1588890093541"><path fill-rule="nonzero" fill="#7DBA0F" id="Oval_1588890093541" d="M117.5,14 C174.661472,14 221,60.3385284 221,117.5 C221,174.661472 174.661472,221 117.5,221 C60.3385284,221 14,174.661472 14,117.5 C14,60.3385284 60.3385284,14 117.5,14 Z M117.5,19.75 C63.5141657,19.75 19.75,63.5141657 19.75,117.5 C19.75,171.485834 63.5141657,215.25 117.5,215.25 C171.485834,215.25 215.25,171.485834 215.25,117.5 C215.25,63.5141657 171.485834,19.75 117.5,19.75 Z M165.270664,79.7151376 L169.336528,83.7810016 L100.280896,152.836634 L73.3228471,125.878585 L77.3887111,121.812721 L100.280896,144.704906 L165.270664,79.7151376 Z" vector-effect="non-scaling-stroke" style="fill: rgb(117, 207, 0);"/></g></g></svg>