<svg version="1.2" xmlns="http://www.w3.org/2000/svg" xmlns:xlink="http://www.w3.org/1999/xlink" overflow="visible" preserveAspectRatio="none" viewBox="0 0 70 35" height="23" width="47"><g transform="translate(1, 1)"><g fill-rule="evenodd" fill="none" stroke-width="1" stroke="none" id="App-Icons_1600460540662"><g id="noun_Sandwich_1418103_1600460540662"><path fill="#FEE5D1" id="Rectangle_1600460540662" d="M5.913,14.0876465 C6.04425154,10.3433069 7.27360962,7.7008915 9.60107422,6.16040039 C11.9285388,4.61990929 14.2022205,3.53974978 16.4221191,2.91992188 C19.9908867,1.81468691 25.600347,1.17471295 33.2505,1 C36.8871009,0.9169479 41.1352283,1.70038135 46.5493164,1.69628906 C48.7274439,1.69464271 50.4569186,4.16401765 54.5285645,4.02539063 C55.9575884,3.97673675 58.0210898,5.69107828 59.9528809,7.04345703 C61.1465658,7.87911372 61.8442721,9.02519119 62.046,10.4816895 C62.1633525,12.2505275 62.4775488,13.6542547 62.988589,14.6928711 C63.4005361,15.5300949 65.6054998,15.3468211 65.9245782,16.5 C66.0842832,17.0771887 66.618032,17.8902925 65.9245782,18.387 C65.1703461,18.9272418 63.1814835,19.1601111 63.3244629,20.0475 C63.4059941,20.553516 62.2135827,20.9585604 62.458252,21.7290039 C62.6947756,22.4737975 64.0483398,21.7987637 64.0483398,23.733 C64.0483398,24.2943445 62.4893475,25.0284659 62.988589,26.1455078 C63.2358449,26.6987375 60.0726925,27.5147668 61.1325684,28.7145 C61.6597304,29.3112245 60.1836562,29.9997245 56.7043457,30.78 L14.8635,31.6540527 C10.1868319,30.8684138 8.31379346,30.2978572 9.24438477,29.9423828 C10.7518729,29.366541 6.37250334,29.095552 6.804,28.7145 C7.87140422,27.7718821 4.99338117,26.2390677 5.33699789,25.6672363 C5.70437272,25.0558678 3.56674994,24.2657966 3.82348633,23.7241838 C5.06281904,21.1096792 5.48772186,22.574995 5.913,21.7290039 C6.21199463,21.1342242 4.80339858,20.9045239 4.90991211,20.5451756 C5.09173756,19.931745 3.77589196,19.2170067 3.82348633,18.792 C3.90566858,18.0581315 0.304385336,19.0347217 0.357319338,18.387 C0.527630309,16.3331598 1.80569516,16.1639194 3.0893617,15.39 C3.63818334,15.0591168 4.57939611,14.6249989 5.913,14.0876465 Z" vector-effect="non-scaling-stroke"/><path fill-rule="nonzero" fill="#F89344" id="Shape_1600460540662" d="M64.071,19.926 C63.747,20.655 63.585,21.222 62.694,21.627 C64.476,22.437 65.205,24.219 63.342,25.434 C62.937,26.892 62.775,27.702 61.56,28.836 C58.887,31.347 54.351,32.157 50.868,32.157 L17.496,32.157 C14.013,32.157 9.396,31.347 6.804,28.836 C5.589,27.783 5.346,26.892 4.941,25.515 C3.078,24.3 3.888,22.194 5.751,21.546 C4.941,21.06 4.455,20.331 4.05,19.359 C-4.455,19.602 2.835,13.932 5.103,13.932 L5.103,13.041 C5.103,2.349 26.73,0 34.182,0 C41.553,0 63.18,2.349 63.18,13.041 L63.18,14.58 C67.068,15.714 70.308,19.359 64.071,19.926 Z M35.883,1.377 L36.045,1.701 C37.017,3.24 37.746,4.779 38.151,6.075 C38.556,7.533 38.475,8.667 37.665,9.153 C36.936,9.639 35.883,9.315 34.668,8.262 C33.696,7.452 32.562,6.156 31.59,4.617 C30.861,3.564 30.294,2.511 29.97,1.539 C28.35,1.701 26.487,1.944 24.624,2.187 C25.515,3.564 26.082,4.941 26.406,6.075 C26.811,7.533 26.73,8.667 26.001,9.153 C25.272,9.639 24.138,9.315 22.923,8.262 C21.951,7.452 20.817,6.156 19.845,4.617 C19.602,4.212 19.278,3.726 19.035,3.321 C12.474,5.022 6.48,8.019 6.48,13.041 L6.561,13.446 C18.954,13.203 31.347,13.284 43.74,13.365 C49.572,13.446 55.404,13.446 61.803,13.446 L61.803,13.041 C61.803,7.857 55.485,4.86 48.6,3.159 C49.167,4.212 49.653,5.184 49.896,6.075 C50.301,7.533 50.139,8.667 49.41,9.153 C48.681,9.639 47.547,9.315 46.413,8.262 C45.441,7.452 44.307,6.156 43.254,4.617 C42.687,3.726 42.201,2.754 41.796,1.944 C39.528,1.62 37.503,1.458 35.883,1.377 Z M31.428,1.458 C31.752,2.187 32.238,2.997 32.724,3.888 C33.696,5.265 34.668,6.48 35.559,7.209 C36.288,7.776 36.774,8.1 36.936,8.019 C37.098,7.857 37.017,7.29 36.774,6.399 C36.45,5.346 35.802,3.888 34.911,2.43 C34.587,2.106 34.344,1.701 34.101,1.377 C33.372,1.377 32.481,1.377 31.428,1.458 Z M20.493,2.997 C20.655,3.24 20.817,3.564 20.979,3.888 C21.951,5.265 23.004,6.48 23.814,7.209 C24.543,7.776 25.029,8.1 25.191,8.019 C25.353,7.857 25.353,7.29 25.029,6.399 C24.786,5.346 24.057,3.888 23.166,2.43 L23.166,2.43 C22.275,2.592 21.384,2.754 20.493,2.997 Z M43.497,2.187 C43.74,2.754 44.064,3.321 44.469,3.888 C45.36,5.265 46.413,6.48 47.304,7.209 C47.952,7.776 48.519,8.1 48.681,8.019 C48.843,7.857 48.762,7.29 48.519,6.399 C48.195,5.346 47.628,4.131 46.818,2.754 C45.684,2.511 44.55,2.349 43.497,2.187 Z M63.261,16.119 C62.694,15.876 62.208,15.633 61.722,15.39 L5.022,15.39 C3.078,15.633 -1.134,18.63 4.698,17.982 C6.804,17.82 9.882,17.172 11.502,16.767 C15.228,18.549 20.979,18.711 25.758,17.091 C28.998,17.982 33.129,20.331 39.609,16.605 C45.441,17.982 49.653,17.334 53.055,16.362 C53.865,16.443 56.457,17.577 57.996,17.901 C59.373,18.225 61.155,18.549 62.694,18.549 C67.311,18.63 66.501,17.334 63.261,16.119 Z M46.413,18.954 L43.092,21.384 C46.575,21.303 59.697,21.708 62.046,20.412 C58.887,20.331 55.566,19.602 52.65,18.387 C50.625,18.792 48.519,18.954 46.413,18.954 Z M40.176,18.387 C36.045,21.546 29.727,20.574 25.434,18.468 C25.029,18.63 24.3,19.035 23.895,19.116 L34.425,22.518 C35.478,22.761 36.855,22.842 37.746,22.275 L42.606,18.711 C41.796,18.63 40.986,18.549 40.176,18.387 Z M5.913,19.845 C6.642,20.736 7.776,20.817 8.829,20.898 L23.814,21.303 L18.387,19.521 C16.038,19.521 13.608,19.359 11.34,18.792 C9.558,19.197 7.776,19.602 5.913,19.845 Z M61.074,22.68 C58.563,22.923 40.743,23.085 40.662,23.085 C40.743,23.247 38.232,24.624 37.746,24.786 L60.588,24.786 C63.828,24.786 63.585,22.68 61.074,22.68 Z M7.776,24.786 L34.02,24.786 C32.724,24.381 31.509,23.814 30.213,23.328 C22.842,23.328 15.39,23.085 8.019,22.68 C4.779,22.437 4.212,24.786 7.776,24.786 Z M6.804,26.649 C8.343,29.808 14.337,30.78 17.496,30.78 L50.868,30.78 C54.027,30.78 59.94,29.808 61.56,26.649 C44.55,26.73 24.3,26.811 6.804,26.649 Z" vector-effect="non-scaling-stroke"/></g></g></g></svg>