<svg version="1.2" xmlns="http://www.w3.org/2000/svg" xmlns:xlink="http://www.w3.org/1999/xlink" overflow="visible" preserveAspectRatio="none" viewBox="0 0 24 24" width="32" height="32"><g><path xmlns:default="http://www.w3.org/2000/svg" id="exclamation-triangle" d="M13.24,17.9c-0.06,0.06-0.14,0.1-0.23,0.1h-2c-0.09,0-0.17-0.04-0.23-0.1  c-0.06-0.06-0.1-0.15-0.1-0.24v-2c0-0.09,0.04-0.18,0.1-0.24c0.06-0.06,0.14-0.1,0.23-0.1h2c0.09,0,0.17,0.04,0.23,0.1  c0.06,0.06,0.1,0.15,0.1,0.24v2C13.34,17.75,13.3,17.83,13.24,17.9z M13.32,13.76c-0.01,0.07-0.05,0.13-0.11,0.17  c-0.06,0.04-0.13,0.06-0.2,0.07h-2c-0.09,0-0.18-0.02-0.25-0.07c-0.06-0.04-0.1-0.1-0.1-0.17L10.51,9c-0.01-0.09,0.03-0.17,0.1-0.22  c0.07-0.06,0.16-0.1,0.25-0.11h2.29c0.09,0.01,0.18,0.05,0.25,0.11c0.07,0.04,0.1,0.12,0.1,0.2L13.32,13.76L13.32,13.76L13.32,13.76  z M12.69,3.53c-0.42-0.25-0.93-0.25-1.35,0c-0.21,0.12-0.38,0.3-0.49,0.51l-8,14.66c-0.25,0.4-0.25,0.91,0,1.31  c0.24,0.41,0.68,0.66,1.16,0.65h16c0.47,0,0.9-0.25,1.14-0.66c0.25-0.4,0.25-0.91,0-1.31L13.18,4C13.06,3.8,12.89,3.64,12.69,3.53z" style="fill: rgb(201, 49, 26);" vector-effect="non-scaling-stroke"/></g></svg>