<svg version="1.2" xmlns="http://www.w3.org/2000/svg" xmlns:xlink="http://www.w3.org/1999/xlink" overflow="visible" preserveAspectRatio="none" viewBox="0 0 239 239" height="197" width="197"><g transform="translate(2, 2)"><desc>Created with Sketch.</desc><g fill-rule="evenodd" fill="none" stroke-width="1" stroke="none" id="documents_1588528014170"><g transform="translate(13.000000, 12.000000)" id="Group-6_1588528014170"><circle r="102" cy="105" cx="105" stroke-width="6" stroke="#5053A2" id="Oval-Copy_1588528014170" style="fill: transparent; stroke: rgb(248, 147, 68); stroke-width: 2px;" vector-effect="non-scaling-stroke"/><path fill="#5053A2" id="Fill-23_1588528014170" d="M146.055378,162 L51.9446216,162 C51.4231905,162 51,162.8952 51,164 C51,165.1048 51.4231905,166 51.9446216,166 L146.055378,166 C146.57681,166 147,165.1048 147,164 C147,162.8952 146.57681,162 146.055378,162" style="fill: transparent; stroke: rgb(248, 147, 68); stroke-width: 2px;" vector-effect="non-scaling-stroke"/><path fill="#5053A2" id="Fill-23-Copy_1588528014170" d="M146.055378,150 L51.9446216,150 C51.4231905,150 51,150.8952 51,152 C51,153.1048 51.4231905,154 51.9446216,154 L146.055378,154 C146.57681,154 147,153.1048 147,152 C147,150.8952 146.57681,150 146.055378,150" style="fill: transparent; stroke: rgb(248, 147, 68); stroke-width: 2px;" vector-effect="non-scaling-stroke"/><path fill="#5053A2" id="Fill-23-Copy-4_1588528014170" d="M134.173456,185 L51.8265439,185 C51.3702917,185 51,185.8952 51,187 C51,188.1048 51.3702917,189 51.8265439,189 L134.173456,189 C134.629708,189 135,188.1048 135,187 C135,185.8952 134.629708,185 134.173456,185" style="fill: transparent; stroke: rgb(248, 147, 68); stroke-width: 2px;" vector-effect="non-scaling-stroke"/><path fill="#5053A2" id="Fill-23-Copy-2_1588528014170" d="M113.380092,136 L51.6199079,136 C51.2777187,136 51,137.119 51,138.5 C51,139.881 51.2777187,141 51.6199079,141 L113.380092,141 C113.722281,141 114,139.881 114,138.5 C114,137.119 113.722281,136 113.380092,136" style="fill: transparent; stroke: rgb(248, 147, 68); stroke-width: 2px;" vector-effect="non-scaling-stroke"/><path fill="#5053A2" id="Fill-23-Copy-5_1588528014170" d="M134.173456,173 L51.8265439,173 C51.3702917,173 51,173.8952 51,175 C51,176.1048 51.3702917,177 51.8265439,177 L134.173456,177 C134.629708,177 135,176.1048 135,175 C135,173.8952 134.629708,173 134.173456,173" style="fill: transparent; stroke: rgb(248, 147, 68); stroke-width: 2px;" vector-effect="non-scaling-stroke"/><g stroke-width="5" stroke-linecap="square" stroke="#5053A2" transform="translate(34.000000, 78.000000)" id="Group_1588528014170"><path id="Line-9_1588528014170" d="M15.5,4.29050279 L15.5,1 C15.5,0.44771525 15.9477153,1.01453063e-16 16.5,0 L142.5,0 C143.052285,-1.01453063e-16 143.5,0.44771525 143.5,1 L143.5,96 L143.5,96" style="fill: transparent; stroke: rgb(248, 147, 68); stroke-width: 2px;" vector-effect="non-scaling-stroke"/><path id="Line-9-Copy_1588528014170" d="M6.5,15.2905028 L6.5,12 C6.5,11.4477153 6.94771525,11 7.5,11 L133.5,11 C134.052285,11 134.5,11.4477153 134.5,12 L134.5,107 L134.5,107" style="fill: transparent; stroke: rgb(248, 147, 68); stroke-width: 2px;" vector-effect="non-scaling-stroke"/><path id="Line-10_1588528014170" d="M0,95.5 L1.48000824,22.9795961 C1.49111476,22.4353767 1.93546736,22 2.47980006,22 L102.075564,22 C102.346811,22 102.606421,22.1101881 102.794858,22.3052945 L125.222462,45.5267123 C125.400641,45.7111981 125.501123,45.9570933 125.503136,46.213567 L126,109.5 L126,109.5" style="fill: transparent; stroke: rgb(248, 147, 68); stroke-width: 2px;" vector-effect="non-scaling-stroke"/><path id="Line-3_1588528014170" d="M102,22.5 L102,45 C102,45.5522847 102.447715,46 103,46 L124,46 L124,46" style="fill: transparent; stroke: rgb(248, 147, 68); stroke-width: 2px;" vector-effect="non-scaling-stroke"/></g></g></g></g></svg>