<svg version="1.2" xmlns="http://www.w3.org/2000/svg" xmlns:xlink="http://www.w3.org/1999/xlink" overflow="visible" preserveAspectRatio="none" viewBox="0 0 126.36824405387394 130.95850279167246" width="126.36824405387394" height="130.95850279167246"><g transform="translate(0, 0)"><g transform="translate(0.0000024999999999053557, 2.9167246495820365e-7) rotate(0)"><path d="M35.07292,105.65642c0,-5.32292 -4.375,-9.69792 -9.69792,-9.69792c-5.32292,0 -9.69792,4.30208 -9.69792,9.69792c0,5.32292 4.30208,9.69792 9.69792,9.69792c2.55208,0 5.03125,-1.02083 6.85417,-2.84375c1.89583,-1.82292 2.91667,-4.30208 2.84375,-6.85417zM70,114.40642c-3.79167,-3.79167 -9.91667,-3.79167 -13.70833,0c-3.79167,3.79167 -3.79167,9.91667 0,13.70833c3.79167,3.79167 9.91667,3.79167 13.70833,0c1.82292,-1.82292 2.84375,-4.30208 2.84375,-6.85417c0.07292,-2.55208 -0.94792,-5.03125 -2.84375,-6.85417zM16.55208,60.95851c-3.79167,-3.79167 -9.91667,-3.79167 -13.70833,0c-3.79167,3.79167 -3.79167,9.91667 0,13.70833c1.82292,1.82292 4.30208,2.84375 6.85417,2.84375c5.32292,0 9.69792,-4.375 9.69792,-9.69792c0,-2.55208 -1.02083,-5.03125 -2.84375,-6.85417zM107.77084,98.72934c-3.79167,-3.71875 -9.84375,-3.71875 -13.63542,0.07292c-3.71875,3.79167 -3.71875,9.84375 0.07292,13.63542c3.79167,3.71875 9.84375,3.71875 13.63542,-0.07292c1.75,-1.82292 2.77083,-4.22917 2.77083,-6.78125c0.07292,-2.55208 -0.94792,-4.95833 -2.77083,-6.78125zM33.97917,21.65643c-4.66667,-4.73958 -12.32292,-4.8125 -17.0625,-0.07292l-0.07292,0.07292c-4.73958,4.73958 -4.73958,12.39583 0,17.13542v0c4.73958,4.66667 12.39583,4.66667 17.13542,-0.14583l0.07292,-0.07292c4.52083,-4.66667 4.52083,-12.17708 -0.07292,-16.91667zM123.52084,61.17726c-3.79167,-3.79167 -9.91667,-3.79167 -13.70833,0c-3.79167,3.79167 -3.79167,9.91667 0,13.70833c3.79167,3.79167 9.91667,3.79167 13.70833,0c1.82292,-1.82292 2.84375,-4.30208 2.84375,-6.85417c0.07292,-2.69792 -0.94792,-5.25 -2.91667,-7.07292zM73.5,4.30226c-5.6875,-5.6875 -14.875,-5.76042 -20.63542,-0.07292c-2.69792,2.69792 -4.22917,6.34375 -4.30208,10.13542c0,8.02083 6.48958,14.58333 14.58333,14.58333c3.86458,0 7.58333,-1.53125 10.28125,-4.22917c2.77083,-2.69792 4.375,-6.48958 4.30208,-10.35417c0.07292,-3.86458 -1.45833,-7.58333 -4.22917,-10.28125zM112.94792,18.01059c-6.5625,-6.70833 -17.28125,-6.85417 -23.98958,-0.36458c-3.35417,3.20833 -5.17708,7.72917 -5.17708,12.39583c-0.07292,9.40625 7.4375,17.0625 16.77083,17.20833c4.66667,0.07292 9.11458,-1.82292 12.39583,-5.17708c6.63542,-6.5625 6.70833,-17.28125 0.14583,-23.91667c0,-0.07292 -0.07292,-0.07292 -0.14583,-0.14583z" style="stroke-width: 0; stroke-linecap: butt; stroke-linejoin: miter; fill: rgb(252, 186, 134);" vector-effect="non-scaling-stroke"/></g><defs><path id="path-15955258457074195" d="M35.07292,105.65642c0,-5.32292 -4.375,-9.69792 -9.69792,-9.69792c-5.32292,0 -9.69792,4.30208 -9.69792,9.69792c0,5.32292 4.30208,9.69792 9.69792,9.69792c2.55208,0 5.03125,-1.02083 6.85417,-2.84375c1.89583,-1.82292 2.91667,-4.30208 2.84375,-6.85417zM70,114.40642c-3.79167,-3.79167 -9.91667,-3.79167 -13.70833,0c-3.79167,3.79167 -3.79167,9.91667 0,13.70833c3.79167,3.79167 9.91667,3.79167 13.70833,0c1.82292,-1.82292 2.84375,-4.30208 2.84375,-6.85417c0.07292,-2.55208 -0.94792,-5.03125 -2.84375,-6.85417zM16.55208,60.95851c-3.79167,-3.79167 -9.91667,-3.79167 -13.70833,0c-3.79167,3.79167 -3.79167,9.91667 0,13.70833c1.82292,1.82292 4.30208,2.84375 6.85417,2.84375c5.32292,0 9.69792,-4.375 9.69792,-9.69792c0,-2.55208 -1.02083,-5.03125 -2.84375,-6.85417zM107.77084,98.72934c-3.79167,-3.71875 -9.84375,-3.71875 -13.63542,0.07292c-3.71875,3.79167 -3.71875,9.84375 0.07292,13.63542c3.79167,3.71875 9.84375,3.71875 13.63542,-0.07292c1.75,-1.82292 2.77083,-4.22917 2.77083,-6.78125c0.07292,-2.55208 -0.94792,-4.95833 -2.77083,-6.78125zM33.97917,21.65643c-4.66667,-4.73958 -12.32292,-4.8125 -17.0625,-0.07292l-0.07292,0.07292c-4.73958,4.73958 -4.73958,12.39583 0,17.13542v0c4.73958,4.66667 12.39583,4.66667 17.13542,-0.14583l0.07292,-0.07292c4.52083,-4.66667 4.52083,-12.17708 -0.07292,-16.91667zM123.52084,61.17726c-3.79167,-3.79167 -9.91667,-3.79167 -13.70833,0c-3.79167,3.79167 -3.79167,9.91667 0,13.70833c3.79167,3.79167 9.91667,3.79167 13.70833,0c1.82292,-1.82292 2.84375,-4.30208 2.84375,-6.85417c0.07292,-2.69792 -0.94792,-5.25 -2.91667,-7.07292zM73.5,4.30226c-5.6875,-5.6875 -14.875,-5.76042 -20.63542,-0.07292c-2.69792,2.69792 -4.22917,6.34375 -4.30208,10.13542c0,8.02083 6.48958,14.58333 14.58333,14.58333c3.86458,0 7.58333,-1.53125 10.28125,-4.22917c2.77083,-2.69792 4.375,-6.48958 4.30208,-10.35417c0.07292,-3.86458 -1.45833,-7.58333 -4.22917,-10.28125zM112.94792,18.01059c-6.5625,-6.70833 -17.28125,-6.85417 -23.98958,-0.36458c-3.35417,3.20833 -5.17708,7.72917 -5.17708,12.39583c-0.07292,9.40625 7.4375,17.0625 16.77083,17.20833c4.66667,0.07292 9.11458,-1.82292 12.39583,-5.17708c6.63542,-6.5625 6.70833,-17.28125 0.14583,-23.91667c0,-0.07292 -0.07292,-0.07292 -0.14583,-0.14583z" vector-effect="non-scaling-stroke"/></defs></g></svg>