<svg width="10" height="9" viewBox="0 0 10 9" fill="none" xmlns="http://www.w3.org/2000/svg">
<path d="M8.34389 5.45487C7.59014 5.45487 6.96383 6.00377 6.76214 6.73565L5.43518 6.73573V1.2809H3.21652C3.02547 0.537621 2.3885 0.000122102 1.63477 0.000122102C0.732478 -0.0113647 0 0.789124 0 1.76118C0 2.73326 0.732497 3.53373 1.64544 3.53373C2.39919 3.53373 3.02549 2.98484 3.22719 2.25296H4.55414V7.71922H6.77281C6.96385 8.4625 7.60083 9 8.35456 9C9.25693 9 10 8.21092 10 7.22745C9.97867 6.25537 9.24616 5.45487 8.34389 5.45487ZM1.63481 2.56164C1.2208 2.56164 0.891732 2.20715 0.891732 1.76116C0.891732 1.31517 1.2208 0.960682 1.63481 0.960682C2.04882 0.960682 2.37788 1.31517 2.37788 1.76116C2.38855 2.20715 2.04882 2.56164 1.63481 2.56164ZM8.34389 8.02791C7.92988 8.02791 7.60081 7.67342 7.60081 7.22743C7.60081 6.78143 7.92988 6.42695 8.34389 6.42695C8.7579 6.42695 9.08696 6.78143 9.08696 7.22743C9.08696 7.67342 8.7579 8.02791 8.34389 8.02791Z" fill="#FC6734"/>
</svg>
