<svg width="55" height="54" viewBox="0 0 55 54" fill="none" xmlns="http://www.w3.org/2000/svg">
<path fill-rule="evenodd" clip-rule="evenodd" d="M54.1792 27.3767C54.1792 42.1057 42.2081 54.0034 27.5525 54.0034C12.8949 54.0034 0.925781 42.0342 0.925781 27.3767C0.925781 12.7192 12.8949 0.75 27.5525 0.75C42.2084 0.75 54.1792 12.6477 54.1792 27.3767ZM15.781 46.9682L15.7864 46.9738C14.4235 46.1553 13.1547 45.1984 11.9992 44.1226L12.0004 44.1211C13.1541 45.1951 14.4207 46.1506 15.781 46.9682ZM27.5518 33.1935C29.6835 33.1935 31.7711 33.5238 33.7814 34.1654H33.7886C31.7763 33.5224 29.6864 33.1914 27.5524 33.1914C25.4183 33.1914 23.3285 33.5224 21.3162 34.1654H21.3224C23.3326 33.5238 25.4202 33.1935 27.5518 33.1935ZM45.0663 42.091C42.1931 38.6259 38.81 36.1039 35.1323 34.648L35.1277 34.6438C38.5529 35.9988 41.7228 38.2784 44.4633 41.3833C44.6669 41.614 44.868 41.8491 45.0668 42.0888C45.2672 41.8509 45.4629 41.6089 45.6537 41.3631C47.622 38.8276 49.0713 35.8827 49.8391 32.6748C48.9971 36.1945 47.3346 39.3977 45.0663 42.091ZM19.4586 34.8587L19.4624 34.8552C16.2342 36.2301 13.2443 38.4345 10.6414 41.3833C10.4379 41.614 10.2367 41.8491 10.0379 42.0888C9.83755 41.8508 9.64189 41.6089 9.4511 41.3631C6.44034 37.484 4.64337 32.6472 4.64337 27.3767C4.64337 25.5787 4.85272 23.8278 5.24828 22.147C4.8524 23.8284 4.64286 25.5801 4.64286 27.3789C4.64286 32.9833 6.67478 38.0974 10.0374 42.091C12.7767 38.7875 15.9793 36.3413 19.4586 34.8587ZM49.5458 27.3767C49.5458 15.272 39.6572 5.38337 27.5525 5.38337H27.5522C15.4475 5.38337 5.5589 15.272 5.5589 27.3767C5.5589 32.3685 7.2377 36.9551 10.0625 40.6564C14.8698 35.2685 20.9899 32.2758 27.5524 32.2758C34.1148 32.2758 40.2352 35.2686 45.0423 40.6565C47.8674 36.9554 49.5458 32.3688 49.5458 27.3767ZM53.2637 27.3767C53.2637 29.4044 53.0287 31.3766 52.5847 33.2678C53.0283 31.3772 53.2631 29.4058 53.2631 27.3789C53.2631 13.1571 41.7039 1.66768 27.552 1.66768C15.5015 1.66768 5.33087 10.0489 2.57607 21.2754C5.3301 10.0478 15.5013 1.66553 27.5525 1.66553C41.7044 1.66553 53.2637 13.155 53.2637 27.3767ZM37.5005 19.7416C37.5005 25.2061 33.0168 29.6898 27.5523 29.6898C22.0878 29.6898 17.6041 25.2061 17.6041 19.7416C17.6041 14.2771 22.0878 9.79345 27.5523 9.79345C33.0168 9.79345 37.5005 14.2771 37.5005 19.7416Z" fill="white"/>
</svg>
