<svg width="55" height="54" viewBox="0 0 55 54" fill="none" xmlns="http://www.w3.org/2000/svg">
<path d="M27.5549 53.0676C41.9586 53.0676 53.7239 41.374 53.7239 26.8987C53.7239 12.4233 41.9588 0.729734 27.5549 0.729734C13.1502 0.729734 1.38598 12.494 1.38598 26.8987C1.38598 41.3034 13.1502 53.0676 27.5549 53.0676ZM12.63 43.596C16.7254 38.6451 22.0232 35.9734 27.5549 35.9734C33.0867 35.9734 38.3846 38.6451 42.4798 43.596C38.5333 47.1312 33.3056 49.2796 27.5549 49.2796C21.8042 49.2796 16.5765 47.1313 12.63 43.596ZM27.5549 4.44757C39.9125 4.44757 50.006 14.5411 50.006 26.8987C50.006 32.1956 48.1547 37.0453 45.0645 40.8958C40.2775 35.3297 34.1324 32.2556 27.5548 32.2556C20.9772 32.2556 14.8324 35.3297 10.0451 40.8957C6.95528 37.045 5.10357 32.1953 5.10357 26.8987C5.10357 14.5411 15.1971 4.44757 27.5547 4.44757H27.5549Z" fill="white" stroke="white" stroke-width="0.915531"/>
</svg>
